/* XPM */
static char *result[] = {
/* columns rows colors chars-per-pixel */
"64 64 220 2 ",
"   c #020301",
".  c #090906",
"X  c #050A0A",
"o  c #0A0E0E",
"O  c #081A04",
"+  c #0B0F11",
"@  c #0B1111",
"#  c #0D1519",
"$  c #151816",
"%  c #221C14",
"&  c #0E2606",
"*  c #12270E",
"=  c #122A0A",
"-  c #16360B",
";  c #193814",
":  c #2A2317",
">  c #332816",
",  c #31331D",
"<  c #141D22",
"1  c #182629",
"2  c #1C2C32",
"3  c #1F3438",
"4  c #262828",
"5  c #28352E",
"6  c #26392A",
"7  c #2A3B2D",
"8  c #3C3521",
"9  c #2B2F33",
"0  c #293433",
"q  c #253738",
"w  c #2A3D3C",
"e  c #373B39",
"r  c #433829",
"t  c #17480D",
"y  c #16520C",
"u  c #1B540E",
"i  c #165A0B",
"p  c #1C5C0D",
"a  c #1A4C12",
"s  c #1D5512",
"d  c #1E5C12",
"f  c #1F531B",
"g  c #215B0E",
"h  c #234A18",
"j  c #235615",
"k  c #235D13",
"l  c #275818",
"z  c #255C19",
"x  c #2A5B1C",
"c  c #1D630D",
"v  c #1E6A0E",
"b  c #1E6312",
"n  c #1F6911",
"m  c #22630E",
"M  c #246A0E",
"N  c #286C0E",
"B  c #26710E",
"V  c #29710E",
"C  c #246313",
"Z  c #2A6515",
"A  c #256B13",
"S  c #2B6C15",
"D  c #266419",
"F  c #2B651A",
"G  c #256B19",
"H  c #2C6B1A",
"J  c #316818",
"K  c #326D1C",
"L  c #267113",
"P  c #2B7314",
"I  c #2E7915",
"U  c #277418",
"Y  c #2D731A",
"T  c #2E791A",
"R  c #317415",
"E  c #327B15",
"W  c #387A17",
"Q  c #33731C",
"!  c #39741E",
"~  c #337B1B",
"^  c #3A7B1D",
"/  c #294B25",
"(  c #2B5322",
")  c #2B5A23",
"_  c #325A27",
"`  c #2B443A",
"'  c #384A3A",
"]  c #3D5536",
"[  c #2D6421",
"{  c #2D6C21",
"}  c #336D21",
"|  c #376926",
" . c #357322",
".. c #3A7423",
"X. c #347A22",
"o. c #3B7B23",
"O. c #3C7529",
"+. c #3D7C2A",
"@. c #4A4539",
"#. c #564835",
"$. c #644C34",
"%. c #705932",
"&. c #407525",
"*. c #417D25",
"=. c #427D29",
"-. c #7F6338",
";. c #253C44",
":. c #2B3E45",
">. c #373E43",
",. c #264343",
"<. c #2A4445",
"1. c #274748",
"2. c #2B434B",
"3. c #294949",
"4. c #32494B",
"5. c #31524C",
"6. c #2D4F52",
"7. c #344B54",
"8. c #35535D",
"9. c #345563",
"0. c #355A63",
"q. c #3B5B66",
"w. c #3A5D6A",
"e. c #3C616E",
"r. c #3E6473",
"t. c #3E6778",
"y. c #50524E",
"u. c #655A4F",
"i. c #7B6B4A",
"p. c #756C50",
"a. c #41626C",
"s. c #586E6B",
"d. c #436976",
"f. c #466874",
"g. c #416A7A",
"h. c #4D717A",
"j. c #55757C",
"k. c #6A7669",
"l. c #816539",
"z. c #8D7B54",
"x. c #997A54",
"c. c #9B7D5C",
"v. c #368318",
"b. c #36821C",
"n. c #3A831C",
"m. c #388321",
"M. c #3D8123",
"N. c #41831F",
"B. c #428324",
"V. c #44832B",
"C. c #49882A",
"Z. c #4B8331",
"A. c #508931",
"S. c #798A7A",
"D. c #8F865C",
"F. c #B38D4F",
"G. c #A78B56",
"H. c #BC9858",
"J. c #898862",
"K. c #948969",
"L. c #939165",
"P. c #8D9478",
"I. c #979674",
"U. c #A79769",
"Y. c #B99B63",
"T. c #A89A77",
"R. c #BDA467",
"E. c #C19D5B",
"W. c #C5A866",
"Q. c #D0B46D",
"!. c #C7AC77",
"~. c #D3BA73",
"^. c #D8BA7B",
"/. c #D8C077",
"(. c #D9C179",
"). c #E0C67F",
"_. c #467282",
"`. c #4A7483",
"'. c #4A7788",
"]. c #4D7C8C",
"[. c #4E7F90",
"{. c #4F8090",
"}. c #518090",
"|. c #5E8895",
" X c #718A8B",
".X c #658B92",
"XX c #6E9193",
"oX c #7C9996",
"OX c #6F93A1",
"+X c #829A99",
"@X c #989295",
"#X c #AEAE8B",
"$X c #A6AB93",
"%X c #B7B99C",
"&X c #889CA8",
"*X c #979CA4",
"=X c #AEB5B1",
"-X c #D6BC85",
";X c #D2BF91",
":X c #D7C185",
">X c #DEC681",
",X c #D5C595",
"<X c #E1C782",
"1X c #E4CC8A",
"2X c #E6CE9A",
"3X c #E9D292",
"4X c #EFD699",
"5X c #F0D799",
"6X c #F0D89C",
"7X c #CAC6A1",
"8X c #D4CBA3",
"9X c #DED1A4",
"0X c #E9D6A4",
"qX c #EED9A6",
"wX c #F4DDA5",
"eX c #F6DFA8",
"rX c #F8E0A7",
"tX c #F8E0A8",
"yX c #E0D9D9",
"uX c #F1E4CE",
/* pixels */
"R S P v T B T M T b.L Y E S R c L ~ E I b.b.I L P E b.L T ~ T S M P P ~ L I n.m.T U T L v.v.n.n.I v U U X.m.E m.I n.b.E T L A L ",
"I R E I B E I B T L P I E V S C H L T b.L v I Y R A I v U ~ ~ Q C n G Y ^ n.E R M B b.b.U v.v.v.n.v.L v b U I v.v.n.E b.b.L A i ",
"E P M T P E I I I X.Y V V S M p P A v T I L L P E Y T v p v M G A U T A v.v.E n.v.I U A B I E L U T b.n L I v.I I E v.^ L A G A ",
"W B A G M N V R E H M n.V E Y Y P G A A L B C Y E Y S H R A P G n G U ~ I V B I v.v L n U T n G L L T T L I L T U v M v P U A L ",
"^ M G p i A Q ~ A p C Y N I I A M A U P Y L C R H G S Q P C v Y n c A L N U P v I B A X.A v U G T n G A T b U I P U I E ~ G A L ",
"~ G G G C A ~ P P b b G Q M R N c G v A I m.Y A Y L S H m A G A b n c b A T E Y I A v X.M A L L v U U p U T U n T E E ^ E v v n ",
"A A C Y A G Q P E A p G H A V V Y  .n U I T G P ~ ~ Y A m H A c G T G U U A L A T n T T L p A P B I b.b p G T i v V B E ^ B A G ",
"R m Y Y C c B E E R Y C C H ~ R R G v L T E Y P S C G C K H Q M n G X.L A T I n n A b c L P G S P B T n b b b b M E E v.N.P n G ",
"c c U G A A M R W P C d i i C Q N X.P G M A C G H H X. .G A C M G U A L Q Y v C A X.G C Y n.U M V B E P v p n H A B B V E L A n ",
"n s H b U X.G c S R C G H p p S Z K P H E G S Z N b H H C p N M.C G R R P G b c c P b c Y V H P E Q N E b i c ~ E L P Y M G G b ",
"n b G b p C A S G S Q C g p A H A ~ P Q Y S X.G M m M S Z H N R N N S Y G m G G M c C G G S G c C G G H H Y M c A E X.Q A U A n ",
"X.G d d d H C G S m C C m N S A H S c p U d S m H K C S R M.W N R I H G b d b D P i p Y P Q L S C P P G S Q ! N m S P P A A n G ",
"G C p p C G Z Z m K Z m S Q  .H B.H N P Y G H H m G S S R m S ^ E E A M C  .G c M M N ! P G S Q S Y V c N S ~ K Z C C S m m m k ",
"c p Z C Z C C K ! Q A ~ Q R R S ! o.Y M C X.X.( ; O a ~ N Z S N R W H R a * 6 ) G Q R P A G Y Q A M P Y V.o.! ~ K J G H Y S Y C ",
"C H Q Z S C S m m K N P H G G Z A A H N U  .x ' :.< - j [ x l x j x x a - 1 :.` x C S N N m D D C n Q Y ! R g N ! A m G C G M p ",
"d c C H ! S C p p H S S S C p C m K R A C x 0 a.].f.1 + 9 0 9 0 5 5 4 @ 2 t.].q.5 t d Z Z C Q P G ! U Y P m L N C k C m Z d u M ",
"k H P Z m Q  .H H H m m H H b F C C N N g x 5 a.[.'.w.;.+ :.q.q.q.:.+ :.e.'.}.a.0 [ Y H P A R R N A A G G m H A S G m g p C C v ",
"c S ^ ! H R ^ R M.S c m R G d k C G H N C a 5 w.].[.'.w.3 w.`.`._.0.3 e.'.}.'.q.6 G U v A P E P E A H Q C D Y H C k g H M c N R ",
"p m R Q S m S R S g G R H S F H H o.M.S K J 0 8._.[.[.[.[.[.[.[.[.[.].}.}.}.g.8.5 d U L I I E M S L Y G b D Z S m C g A R P c B ",
"p Z k g S H K S G F F A m A S C H K S m Z ) 5 8.h.[.[.[.[.[.[.[.}.}.}.}.}.].g.8.5 H c M T A P S A C G C C C N S W H C S o.n.V S ",
"S d D Z N Z  .D k d p C m N S C m Z ~ S x / 4.w._.[.oXoX[.[.[.[.[.}.}.+XoX{.g.q.3./ [ P P A K p c Y S A A A S ~ A C H Z n.N N.M.",
"C d H C k S R C m Z C k C R ~ H k m ! ! / q r.g._.|.7X7X.X|.}.[.}.}..X9X%X|._.t.e.q ( H P R P H A C m Y H m R ~ C k Q ^ ^ ^ ~  .",
"C C d d H ! S C C ^ K k S R S } S S S Q = < e._.XX8XqXqX8XoX[.[.{.+X8XeX0X7X.X_.e.# - ! S N H S C G S R ^ ! A C D G G H S o.o...",
"C D D C G H Z S ! ! [ d C H G S C H C S & # r. X%XeXtXeXeX%X+X[.+X%XtXtXtXqX%X Xw.@ = R H p R N C Q H S H H c p D D C S K R Y Q ",
"H z d D d C } H R Z Z s S R d S J H S K = # r.%XrXrXtXrXeXeX7XXX8XrXeXeXeXtXtX$Xw.@ = C G F H c C Y ! S A D H C H D H Q H ..o.Q ",
" .C p G G k F H A ..| D F R G m P R } 7 @ # r.%XrXtXtXtXeXeXeX9XrXrXeXeXeXtXtX$Xw.+ # 6 6 6 6 J Q Y S S o.X.{ Z G +.S S A C o.M.",
"R X.k C F C k C B.+.z s C ~ H F h ( / 7.3 1 q T.;Xz.K.T.!.2XeXeXtX2XR.#XK.z.1XI.3 1 q 7.7.7.4._ ( x F R ^ G H P S  .G S C d H ^ ",
"k K u Z z C C j  .H F  .H C Z l w 0 :.d.0.3 o z.G.: r p.x.1XrXeXtX-Xz.u.e : Y.i.o ;.9.t.t.g.r.:.0 w J ~ ..S S H Q C C j H R N H ",
"z d D x k p F  .K H Q ..!  .x 0 h.d.r.d.r.0.` z.Y.R.-X2X2XwXeXeXeXwX2X2X-XR.H.i.,.w.t.t.t._.].'.'.f.w _ S Z S A H A { D C m C C ",
"G C K F Z g } |  .R S S G ( 5.a.].]._.g.g.r.8.s.L.W.).qXuX0X3X3X3X0XuXqX>XW.J.s.9.r.t.t._.'.[.[.OXoXe ) S R W ^ N W Q s k g H C ",
"s Q Q  .K J K H } H C g x w a.}.}.}.].g.t.t.d.t.s.G.R.,XyX;XQ.Q.Q.,XyX;XR.G.s.t.t.r.r.g.].].[.OX&X*X' | B.N.B.W R R o.Y H C C m ",
"d S C F k J Q &.Z F P ( ` h.'.}.}.}.'.g.g.g.t.t.g.h.p.c.Y.E.E.H.H.E.Y.x.p.f.g.g.r.7.9.t._.'.|.=Xk.' | } B.R B.! R N S  .O.K o.R ",
"D  .C Z K S H S  ...K t 9 OXOX{.{.'._.t.2.;.r.g.j.P.U.W.^.^.-X-X^.-X^.R.U.P.j.r.t.0.0.0.6.,.:.y.y.[ V.! R ^ *.^ A ! Q Q G g G R ",
"i D H k Z H Z k } ^ K = $ *X&X.X].t.9.9.2 1 r.h.S.(.<X1XtXtXtXtXeXeXeX1X).^.S.h.t.t.0.3.w 1     t C.C.^ N.^ ~ K Y *.R H z u D Q ",
"C b C k H o. .C Z o.=.; + r.&X*X`.q X X ;.r.t.I.:XwXeXeXtXtXtXtXeXrXrXeXeX6X-XP.t.t.t.t.r.6.3 X = W C.N.^ *.Q H R V.Q C d F d u ",
" .H C  .K ~ ! S Z S Z l = 2 >.y.2 1 2 ;.9.j.$X,X5XeXtXtXtXtXrXrXeXeXtXtXrXeX4X,X$Xh.t.t.9.6.,.1 l C.n.B.B.^ S G H A J d C { D H ",
"{ H { Q o.R S S C p k Q z & .   o 2 6.e.t..X6XrXrXrXrXtXrXrXrXrXrXeXtXrXrXrXrXrX0XS.e.w.3.1.,.0 _  .~ V.K R S K H G C p b  .H D ",
" .O.D H Z m N C Z Q ..J | J 6 5 ,.,.3.3.w. X0XrXrXrXtXeXrXtXrXrXtXtXtXtXrXrXrXrX2X.X9.1.3.1.<.0 _ J S +. .R o.G o.o.! d k H X.Y ",
" .D H H F S S j } ..! Z J ../ 0 1.1.3.3.k.R.wXeXtXrXrXtXtXtXtXtXtXtXtXtXtXrXrXtXqXT.k.,.3.3.<.0 _ *.o.K ! o. .H ~ Z X.K C C ..Q ",
"{  .H { C C S H D k F J ! &./ 7 ` 1.3.3.L.<X5XeXtXeXtXtXtXtXtXtXeXtXtXrXtXrXrXrX6X(.J.3.3.<.` ` | o.Y p M S C C Q  ...K S C N H ",
"C C D F C C p k u z } ! ..&.| ( 5 ;.1.3.L.(.(.5XrXrXrXrXrXrXtXtXrXtXtXeXrXeXrX3X(.(.J.3.3.;.7 F R ! o.! H H D C F H ^ Q j J =.! ",
"[ | F Z Z k C C F G  .Q K K &.x 5 ` 3.3.L.(.(.>X1X1X6XrXtXrXtXtXtXtXtXtX4X1X1X>X(.(.J.3.3.q 5 x ! R g J k H G C S ^ ^ *.S k Z Y ",
"d D z G C H H d D G H H K Z J ! 5 0 3 1.D.~././././.3X6X6X6X6X0X6X6X0X6X3X(.~.(./.~.J.,.q 0 5 J ..&.K g k G D H H R N.S G  .k d ",
"{ H Z Z G  .H d { G G { Z J ^ ! 7 # + ,.i.H./././.(.(.(.(.(.(.(.(.(.(.(.(.(.(.(.~.E.p.3 o $ 7 F J Q &.K Z C H } A W ^ Z H H Y C ",
"s x l Z k D C C D d d [ D ..o.K _ ; 1 ,.p.G.E.Q.(.(.(.(.(.(.(.~.(.(./././.(.~.Q.H.G.u.,.1 6 x z N J N K X.K d k { C H p Z C  .D ",
"k k k } } F F d d y d b D ..! H G h ` w @.$.-.H.Q.Q.^.(.(.(.(.(.(.(././.~.Q.Q.F.-.$.@.` 7 x +.Y R ^ Z k H v C C X.D y d F m A C ",
"u j J K K Z s u d D G Y Q F } o.o.G z 0 $ . . %.F.F.R.~.~.~.~.~.~.~.~.~.R.F.F.%..   $ 7 ) k  .! R R ~ S D G H S Q ..D F J m R m ",
"D Z k k D p j C k { F H S F { ! Q Z l ' #.$.$.r > > , 8 8 8 8 8 8 8 8 8 , > > r $.$.@.e ) } H  .o.A C z [ { F G H { K Z ~ S S g ",
"F Z C K } k k g D j y C D Z  .o.B.G l ] #.#.$.%     o @ O O O * = O & @ $ % 9 u.c.c.u., x } Z ~ Q K s s d D D G M C H I W Q H H ",
"j k K =...F J F D Y H +. .j j K .. .} K =   .       4 ] z d u C  .W =.@.#.l.@XI.c.*Xy.O | &.Z S Z H F b ! H G C c S R S H A C H ",
"J  .J K  ...z Z D d D o.K } C R B.=.k k k t h t j - h [ Z C d y C o.N.J 5 % 4 4 > 4 / _ ..&.C.K H Q V.H n.R S C g c S P G i p L ",
"F Z g k g C K } F k y H C H K Q K Z J g Z ! K J C D j H A S } { k X.*...x * & = & o t Q &.K ~ H k p H W R m d d u d i G T H A Q ",
"..K Z Z Z l k Z ..} [ j k F K ! H R ~ X.D H K ..s D F D S C H o.P Q R N.S ^ o.o.&.k l J J *.Z l Z N *.^ M C z y s G p G G X.H u ",
"! ! O.K J K x s l [ H F } Z Z S X.V.o. .C j J  .J z H z g g S  . .S ! ~ Q o.Q K &.K | K F D F Z K ! o.o.Y C J D H Y X.Y X.{ C p ",
"F J F J z O.k k j d z K Z z F F D H F z D D Z K F Z Z F C H { { F H R K H  .H H z z Q Z s f J g Z J R R H m C k H D Q D d C Y H ",
"K D z Z K J o.&.k F J z F J D H  .+. . .C Z J | l z C } D C C C C  .G H ..m H  .s u Z Z s ) | k Z Z H C P K K J C C G C C K X.o.",
"F k ! J J k ....Z J J k j D F F +. .H M.X.=.=.=. .J Z J S H  .=. .S  .Q o.Q Q ^ K ..J k z [ } =.F k C C S ..J Z G A Q Z g J S g ",
"K K J k g Z &.K j Z k C C s z F  ...D H ! Q J ..J F k K R S o.Q Q m S V.Q B.C.R R  .z s f [  ...K K C C C S  .C K R *.&.J Z H k ",
"K J g j k x k l z Z D x z j s H } K H C Q &.&.&.K &.S Q ..S ! J l g Z K J *.Z.J G H G C { F H Q S ~ ^ A A G H C H o.! Z.&.F F C ",
"J x k l ..! Z k y l g j [ K x F j k Z  .F ..K J &.! Q K J Z k  .F C J ! k Z J *.} C Z C H  .m C C A R P S Q C { C S Q Z.Q Z k Z ",
"F j ) y k J ! J k S J j j x { F j C Z J J ..! l Q &.^ ! D l Z F [ F H F J z Z O.! S ! ^ R H Z k Z H k o.K A H K { C G T R H  . .",
"| O.z j j Z K Z Z J ....j k z F H l F k Z K K  .&.*.! ..C j Z C z J  .F H K }  .H m A H Z R K D s l K ! +.K ..G d d n U A c H F ",
"d z t a y J F Z | l C F l ! J F [ D k z K  .H V.=.! *...F x ! Z k g Z  .H H J H H H G  .C Z C k k s F o.o.Z l H y a d { D p v d ",
"f f f t f z x j F Z j u } *.H j s s z Z F +. .K =.Z.A.=. .Z ..! Z Q g A V.K S G u }  .H S g p  .{ y c A Z k !  .z [ f t [ s C G "
};
