/* XPM */
static char *result[] = {
/* columns rows colors chars-per-pixel */
"64 64 211 2 ",
"   c #0D0B07",
".  c #070C0D",
"X  c #080B0A",
"o  c #091508",
"O  c #17150F",
"+  c #0F0F10",
"@  c #0D1717",
"#  c #141714",
"$  c #0F2D09",
"%  c #14260C",
"&  c #143C0B",
"*  c #122315",
"=  c #193316",
"-  c #1D1F20",
";  c #1A2828",
":  c #1F3328",
">  c #1D2E34",
",  c #1D3337",
"<  c #2A2F2D",
"1  c #273829",
"2  c #263736",
"3  c #293532",
"4  c #2A3639",
"5  c #2B3B3D",
"6  c #383C38",
"7  c #18470D",
"8  c #16520C",
"9  c #1A540E",
"0  c #165A0B",
"q  c #1C5C0D",
"w  c #194B11",
"e  c #1D5513",
"r  c #1E5C12",
"t  c #1F531B",
"y  c #215B0E",
"u  c #264818",
"i  c #234C1D",
"p  c #215615",
"a  c #2B5515",
"s  c #235D13",
"d  c #285E14",
"f  c #25551B",
"g  c #255C1A",
"h  c #2A5C1B",
"j  c #1E630D",
"k  c #1E6A0E",
"l  c #1E6312",
"z  c #1F6911",
"x  c #22640E",
"c  c #246A0E",
"v  c #296B0F",
"b  c #26710E",
"n  c #29710E",
"m  c #246413",
"M  c #2A6515",
"N  c #256B13",
"B  c #2B6B15",
"V  c #266419",
"C  c #2B651A",
"Z  c #256B18",
"A  c #2C6B1A",
"S  c #316D16",
"D  c #30671A",
"F  c #326D1C",
"G  c #267113",
"H  c #2B7314",
"J  c #2E7915",
"K  c #277418",
"L  c #2D731A",
"P  c #2E791A",
"I  c #327415",
"U  c #327B16",
"Y  c #387A17",
"T  c #33731C",
"R  c #3A751E",
"E  c #347A1B",
"W  c #3A7B1D",
"Q  c #2A4728",
"!  c #314D26",
"~  c #314B2D",
"^  c #2A5823",
"/  c #345628",
"(  c #2C4836",
")  c #3B4A36",
"_  c #2D6521",
"`  c #2D6B21",
"'  c #326323",
"]  c #336C21",
"[  c #376A27",
"{  c #396D24",
"}  c #357322",
"|  c #3A7423",
" . c #357A22",
".. c #3B7B23",
"X. c #3C7529",
"o. c #3D7B29",
"O. c #417D1E",
"+. c #47463A",
"@. c #544B30",
"#. c #594D3B",
"$. c #435934",
"%. c #71563B",
"&. c #42652F",
"*. c #407427",
"=. c #417C24",
"-. c #437D2A",
";. c #71683F",
":. c #243D44",
">. c #293B42",
",. c #353C41",
"<. c #264444",
"1. c #2A4545",
"2. c #284649",
"3. c #284848",
"4. c #364547",
"5. c #31464C",
"6. c #30504F",
"7. c #2C4651",
"8. c #2D4D52",
"9. c #324C55",
"0. c #37545A",
"q. c #34545C",
"w. c #395762",
"e. c #365862",
"r. c #395965",
"t. c #3B5E6A",
"y. c #3C626E",
"u. c #3E6574",
"i. c #3E6778",
"p. c #474948",
"a. c #5A5747",
"s. c #4C4D50",
"d. c #6C5D4B",
"f. c #4F6253",
"g. c #586757",
"h. c #696456",
"j. c #737455",
"k. c #42636E",
"l. c #576864",
"z. c #406777",
"x. c #406979",
"c. c #456B78",
"v. c #49727F",
"b. c #64656D",
"n. c #637E7D",
"m. c #886D4D",
"M. c #887A4D",
"N. c #867A57",
"B. c #348115",
"V. c #36821C",
"C. c #3A831C",
"Z. c #3C891D",
"A. c #388321",
"S. c #3D8123",
"D. c #41841F",
"F. c #438224",
"G. c #468921",
"H. c #44832B",
"J. c #49832C",
"K. c #4A8B29",
"L. c #4A8431",
"P. c #508931",
"I. c #748678",
"U. c #9B875B",
"Y. c #A1925C",
"T. c #94906E",
"R. c #AD9965",
"E. c #AB946C",
"W. c #B9A66B",
"Q. c #B8A67B",
"!. c #C0AB6C",
"~. c #C3AC79",
"^. c #CDB875",
"/. c #D4BC76",
"(. c #D6BF7C",
"). c #D8C077",
"_. c #DAC179",
"`. c #477383",
"'. c #497484",
"]. c #4B7887",
"[. c #4E7C8C",
"{. c #577E8C",
"}. c #4F7F90",
"|. c #827E8C",
" X c #518190",
".X c #5D8895",
"XX c #6A8383",
"oX c #778E90",
"OX c #839E98",
"+X c #98A99B",
"@X c #B3AF9D",
"#X c #9CA2AA",
"$X c #A6AEB7",
"%X c #CBB789",
"&X c #D3BC87",
"*X c #CABA91",
"=X c #DAC485",
"-X c #DDC795",
";X c #E2CA87",
":X c #E5CD8C",
">X c #E8CF99",
",X c #EAD39B",
"<X c #F1D99D",
"1X c #C6C4A1",
"2X c #DDCEA1",
"3X c #E9D5A3",
"4X c #EED9A5",
"5X c #F5DEA5",
"6X c #F6DFA8",
"7X c #F8E0A8",
"8X c #DED7D3",
/* pixels */
"I B H k H G J b P V.G H U B H x B E U J V.V.J N J U V.b P P E B N H A E b H S.C.P K P G V.B.Z.Z.H k G K  .A.U A.J A.A.U P G K Z ",
"J I U J b U J b H K H H Y H B m Z K J V.G k P H I N G k J P P I j Z Z L C.C.U J c G V.V.B.B.C.V.Z.B.K k l K J B.Z.Z.U V.U G N 0 ",
"U H c P H U J H J A.H n G B x j H c j J J G G H U I E z j j c K N K P N B.B.U C.B.J J z k J U G K P V.z G J B.J n J V.U N G N N ",
"Y b N Z c c J I E A N C.n I P H J Z Z K G N c T T L Z L T N B Z z N P P U H b J B.j K z K P z N G G P P G J H P J k c c H K N G ",
"W c Z q 0 Z I E B 0 m L v J J N c N K G H K c H H Z H T A N l L Z q N K c L G c J b N  .G j H K K N z Z } k K P G K P Y E K N G ",
"E Z Z Z m N E H G l m Z I B I v j Z j G H A.T N L H N B x M N Z k z j z N P P J J c k  .k N H N k G K j K L K z J U Y E U j j z ",
"N N m L N Z I H U B q Z A N n n H } N G U P Z H T E P M j B Z j Z K Z H K K K N P N L P K 0 N H b H A.l 0 Z P 0 k H b U Y b Z Z ",
"S c L H m j G U U I L m l A E I L Z k K P P T B B m Z m L B T N N Z P Z N P H k l K z j N H Z Z J b P z l z l l c J B.U G.H k K ",
"j l K Z N B c U B.H m l 0 9 x E Z  .H N l N m Z B K  .} Z M N x m A c G I T l l N ..Z z L C.K N H v U J j q m K N n H H H H N z ",
"z 9 A l Z  .Z j B S s Z Z q q B B T B L E B Z N M r A L m j v ..Z B U H H Z l j j H l q I H B H U I c P j 0 j E J G H H c Z z z ",
"z l Z l q m m Z Z B T Z x j M B B I L I L Z R B N c j B M B v I H v B K Z l V Z c j N Z N G Z j l Z Z A L T c y N U A.I N K Z z ",
" .Z r r m Z M Z B x m m q M B N B B j q H l Z x A S M B I S.Y x S B A Z l l m V H 0 q L L L B B N H H N A T E B x B B H N N N Z ",
"Z m q 9 m C B m M B N x B S T A S.A c H L N B A x B B N I v B ' 1 1 f j Z  .Z l x x c R H m B I B H v c N B E S M m m B x j x s ",
"j q Z M M m m S R T B I E T I B R ..L N m .. .T B j m I N c & Q 0.0.( i Z  .U L A E U I N L L T N c H H F.=.R E S D Z A L B L m ",
"m A T N B m B m x H B I A Z A M M v B c K ..B L N N m A D p * 7.[.t.>.: e B j j Z M c x M j m V m N } L T T y N R B x Z m B m j ",
"r r m S } B m q q A B B B m 0 m m T I M m N H M s m Z Q ; o r.[.c.@ X + < C H M q w m m m B T L Z T A L H x H v m r m x C q 0 x ",
"y A B N x R T B S B x x B A m V m x v m y c B T Z C Q 1 4 7.`.t., >.9.>.# = i m A L T K H Z U H b N Z N Z x A B B Z y x q m m k ",
"q H W R D T R I ..B j M L V r s m B S m M q y M _ ^ 4.5.w.c.u.:.> z.}.z.. > ( h L Z L z N H U H U N A L m V L B m r j B x x c L ",
"0 m S T B M H H N x Z T H Z M A A S.o.B A F A V Q 1.]. X X].; , x.[.}.y.. 9.w.3 _ z H N J J U x G A A Z l m M B m s x M I H c c ",
"y B m y N S S B Z V C N M N N m A A B c B m w 1 6.v. X X X[.i.c.[.}.'.r.> e.z.0.( t k N H c H B N m K m m M N B E H m B F.C.n B ",
"B r V M M N } V m r q M x N B m y M E B m m p 1 y..X+X+XOX}. X X}.}.'.r.4 w.x.u.>.i K B H N T x j L Z N N m B E Z m B M W n C.S.",
"m r A m m B S m y B m s x I E A m x R R H y f ) l.oX4X7X1X.X X X}.}.'.t.5 r.x.z.>.~ S B B I B B m x x T S c H R m s T ..R W E } ",
"m m r r A } B M m } T r A T B T Z B S I x u % Y.=X3X7X7X1X X}.}.}.}.`.z.y.z.z.z.u.9.Q ] B N B B Z Z N I R E B x m Z Z B B R o...",
"m V V s A S N N R R D e M B Z B M A x S x 7 O ~.7X7X7X7X3X@X{.`.}.'.c.z.x.z.x.x.x.>.* F B s I c M T B B B A r l V _ V B I T I A ",
"A g r Z 9 m } Z T S d e Z L r N S B B T } 7 O *X-X%X<X5X7X5XXX`.].x.z.x.z.i.x.z.x., o s B B L x M T E B N V A m Z C A T B ....T ",
"} m r m C m Z A N | ] h A I N M B S R B m 7 O &XN.6 -X5X6X4XXXi.x.z.x.x.x.x.z.x.i., o s N B  .I L S M B .. .` M Z o.B B B s ..S.",
"T  .m m V V r M F.-.V e M I A B B M B m C i < !.!.M.@.Q.7X5XXXz.z.z.x.z.z.x.x.i.q.<.: 1 M I I  .B B B E E A A H Z T A B M q B W ",
"r ] 9 d s d m s ] A Z ] B M M x } A Z T { &.d.R.&X*X#.E.<X4XXXc.x.x.z.x.x.z.i.u.8.8.8.3 f x V } T H I E } B B D T m m r A T N A ",
"m r d V d 9 C { F A F ..T } M x x B S F $.N./.U.@X8X&X).;X-X{.k.c.i.c.i.z.x.i.u.8.r.y.5 ^ A F F A =.K...B m S N B M ` V s y m M ",
"V m F A C y ] ] } T B Z S B F W v M ^ ) U.&X<X>X%XE./.=X~.{.c.z.i.i.i.i.x.i.t.8.t.u.u.y.1.~ T F.T B ..} B I W W v E I r s x A x ",
"r F T ] F D F A F S m m B A F.K.Y M [ p.Q.<X7X7X&XQ.T.T.n.c.c.z.i.i.i.i.x.x.y.e.u.x.z.z.1.~ } T M L T L.F.C.G.Y I W ..F Z m N x ",
"r B m A s B } *.M Z S T S m Z Y D.-.&.d.*X7X7X7X5X2X{.c.c.k.z.c.i.`.c.c.c.x.i.i.z.x.z.z.5.( C A H ..R E W T F.Y I m B } X.F ..L ",
"V } m B S S D Z R } S A S y R D.=.$.h.-X6X6X6X7X6X6X2XoXi.z.z.z.c.[.[.[.[.`.i.i.z.x.x.z.u.w.3 f R ..H.U E W =...N R E T B r Z S ",
"9 V A r V A M m } ..A V S R O.J.J.$.h.4X6X7X7X7X6X6X6XE.l.u.9.q.i.[. X X X].`.i.x.z.i.x.x.r.3 ] Y K.K.W W F.E S T ..A A s 9 C T ",
"m l m s A ..R s m ..-.F D F.D.G.*./ h.5X7X7X6X7X6X6X7X%XN.l.6 5.`.[. X X X X`.r.u.x.z.x.x.w.3 { c U K.D.W W T A T J.T m r A r 9 ",
"} A m } L R R B B M M F d T O.J.M ~ h.<X6X7X7X6X6X6X7X7X&Xm.) 5.i.[. X X X Xk.4 t.x.x.x.i.r.3 ' ..H.W F.=.W B A N B B s l ` m A ",
"A ` ` T ..I v N m q d F M C M S M ) d.=X<X6X6X6X6X6X6X6X,XW.$.4 5.]. X}. X Xz.4 t.x.x.i.c.r.3 f T } E H.H I B T A Z s r s } A m ",
"X.} Z A M x N M M F } D | } d M D ~ d./.;X<X6X6X6X6X6X6X5X=Xg.>.>.[. X X X].0.; r.i.x.x.z.w.3 D ..B B o...F } Z ..S.R l l ] o.A ",
"] Z C A C B B s F | R D F ] D { M ! a.W./.;X5X6X6X7X6X6X4X3XI.6.4 {. X X.Xc.>.+ e.x.u.u.u.0.3 F F.F. .F T =.} A R m } F M x } L ",
"` } A ` m M Z A V s M D F *.s D D s ^ a.W.(.;X5X7X7X6X6X,X%XI.<.- #XoX{.$X,.@ <.y.x.u.8.7.1.3 X.R W T q c B m m ` R  .A B M M H ",
"m m C A m m r r 9 g F { ..*.[ d s F / +.R._._.;X:X:X:X:X;X).l.3.> s.5 3 s.2 , 3.q.q.q.3.>.2 i D R Y } R Z A V m Z A E T s S -.E ",
"` [ C d m s m m C Z } T S F { S B =.*.) N.W.)._.)._.).).).^.f.3.>.@ . + . , 3.3.3.3.3.3.4 Q F M F F x D s C A m B W R =.C s M F ",
"r V g Z C A A r V Z Z ` F B S O.Y O.F y o @././._._.)._.).Q.f.3.3.<.<.<.<.<.3.3.3.3.3.<.4 ~ | S *.O.S y s Z V A I Y W B B } s s ",
"A D M M Z ] L r ` A Z ` M D R R v S R M d u @.!._._._._.W.g.6.3.2.3.3.2.3.3.3.3.3.3.<.@ u ^ *.D S S *.F A m A L M U W B A A A m ",
"p d d M r V m m r l r _ C | ..T C B T B S p o ;.M.U.U.Y.j.3.3.3.3.3.2.2.2.3.2.3.3., : % w } A M M I M S ..A r g ` m A q V m } C ",
"f f s T } V m g r 8 r l V | } A Z r l A T M s o   @ <.<.3.3.3.3.3.<.<.<.3.2.2.<.<.; o _ h g o.L S W M m L j m m | V 8 r Z x N M ",
"9 s C F D M e 9 r V A F T C F ....Z l V C p d w e / ) 4.4.3.<.5 3 < 3 3 <.3., . o = 8 p _ g } R S I E B V Z A B P } V C S x S x ",
"V m s d V y s s m ` C Z B M ` R } m m m m M h m M ' / ! ( ( ; 4.b.a.#.a.a.a.) # $ w A r V ' A } o.N m s _ ` V A A ` T M T S N q ",
"C M m F } s d s M r 8 m m C } } F.C s } Z F -.F S A Z B f 1 o 4.|.d.%.%.%.%.@.( f V Z | C D C E E F e e l V V m N M H I R T A ` ",
"p s F -.| D M C m ` ` ..} s s S } } ] T s F X.D F S m ] V e 9 = +           % | ` C | R -.X.M B M Z Z m R A Z m j v I B H m m K ",
"C { D F } ] d V V r V o.T F m F H.o.s s M M F d C e e A N m r 7 $ u a 7 & & h A ` g | *.*.*.J.T A T -.A C.I N m q q B H Z 0 q G ",
"B M s x q d ] ] C s 8 A M F D } S B M y m } F D d V p Z B A ` ` x W C.R } V A T g s B T -.F T A y q S W I x r e r r 0 Z P A Z I ",
"| F M m D d d M | ` C f s A D R L S E o.V D F } r V C V Z M S | I I I F.B R ......M s C D H.M d M N F.E x Z s 9 e Z l z A  .A 8 ",
"R R *.F D C d 9 d ' D C ] m M A } H...} V s F } D s A g q y Z } } B R E I ..E } X.A { ] C V d M F R R ..I x A C A `  .L  .` m q ",
"C D C C d X.d g r p m ] C s C C Z A C m V M M D C M V C m A ] A C Z T A A } A A p d F m r e C s m F F I B m m s A V T V r m L A ",
"D V M C F D | o.d C D d C C V A } X.} } M s D F d g d ] V m m m m } B A  .m A } e p m C e ^ { m M M S M T A F D m m Z m m F  ...",
"V s R S D m | { V D D s r g V C o.} A S...o.-.L.} D C S B B } o.} B } T o.I E W T } D d g _ { *.C r m j S } D V B N T M y S B s ",
"D R D y y M | ] e M m d M e g C } X.V A R T D R D C s F T B ..T R x B H.T F.K.S B } g e e V ] | F A M M M B } m F I =.*.D M D s ",
"F C s p d d y d p d V h s g e D ] D D m T *.*.*.F *.M T | S T D d q M F S *.J.D C A A m [ C A T B E W N N Z A l A o.T L.X.A M m ",
"] d p d { | M d 9 M p s V ' C C y s M } C } F D O.R R S M B d } V d D R d M S -.} m V m A  .l m m B T H B I m ` m B T J.F M s M ",
"C f h 9 d D R D y S D s f g ] V g s m F D | ] M F =.R R V s C C C V D C S s C X.R B R E I B m d m A s | F B A T ` m N K I L } ] ",
"[ X.h p p M F m M D X.{ f s d C C d C s M F F } *.=.R { h s d d d ] } V V ] ] } L m M B M T ] m p g D R X.A } A r r Z K c j A Z ",
"t _ 7 7 9 C C M { s M C d F D C _ V s d D } A H.-.R -.R C V ] S d s M } A A A D A A B } M c m s r e A ....M d C 8 w r ` V r m m ",
"r t w w i g d p C h p 9 ] -.S s e e V g C H.] A H.J.P.J.| M | F B S q B H.S Z B 8 ] } A A 9 s L ` e j N B d ] } V _ t 7 _ 8 m B "
};
