/* XPM */
static char *result[] = {
/* columns rows colors chars-per-pixel */
"64 64 209 2 ",
"   c #070D0A",
".  c #081505",
"X  c #0B1908",
"o  c #0F1312",
"O  c #121A1C",
"+  c #0D2207",
"@  c #12290C",
"#  c #15330B",
"$  c #122519",
"%  c #1A3615",
"&  c #31301B",
"*  c #131F23",
"=  c #182727",
"-  c #1B2B32",
";  c #1E3138",
":  c #273A2C",
">  c #283B29",
",  c #31332D",
"<  c #263637",
"1  c #2A3434",
"2  c #223C3B",
"3  c #2C393C",
"4  c #433C26",
"5  c #4E3A29",
"6  c #144A0E",
"7  c #15520C",
"8  c #1A540E",
"9  c #165A0B",
"0  c #1C5C0D",
"q  c #174B11",
"w  c #1D5512",
"e  c #1E5C11",
"r  c #1F531B",
"t  c #215C0E",
"y  c #214918",
"u  c #215614",
"i  c #235D13",
"p  c #285E14",
"a  c #23521B",
"s  c #245D19",
"d  c #295D1C",
"f  c #1E630D",
"g  c #1E6A0E",
"h  c #1E6312",
"j  c #1F6A11",
"k  c #22630E",
"l  c #246A0E",
"z  c #296C0E",
"x  c #26710E",
"c  c #29710E",
"v  c #246413",
"b  c #2A6515",
"n  c #256B13",
"m  c #2B6B15",
"M  c #266319",
"N  c #2B651A",
"B  c #256B18",
"V  c #2C6B1A",
"C  c #316D16",
"Z  c #30631B",
"A  c #326D1C",
"S  c #267113",
"D  c #2B7314",
"F  c #2E7915",
"G  c #277418",
"H  c #2D721A",
"J  c #2E791A",
"K  c #317415",
"L  c #327B15",
"P  c #387A17",
"I  c #33731C",
"U  c #3A751E",
"Y  c #347A1B",
"T  c #3A7B1D",
"R  c #284321",
"E  c #2C4B25",
"W  c #33462E",
"Q  c #304A2C",
"!  c #2B5623",
"~  c #365229",
"^  c #2C4233",
"/  c #2C4139",
"(  c #394C33",
")  c #354939",
"_  c #395534",
"`  c #2D6522",
"'  c #2D6B21",
"]  c #336D21",
"[  c #376926",
"{  c #357322",
"}  c #3A7423",
"|  c #357A22",
" . c #3B7B23",
".. c #3D752A",
"X. c #3D7C2A",
"o. c #3D6130",
"O. c #417D1E",
"+. c #4A4629",
"@. c #4B5A3C",
"#. c #555137",
"$. c #407525",
"%. c #417D24",
"&. c #427C2A",
"*. c #4B6834",
"=. c #6E633F",
"-. c #243A42",
";. c #2E3D41",
":. c #264545",
">. c #284545",
",. c #2A4649",
"<. c #294848",
"1. c #354745",
"2. c #30444A",
"3. c #3D574F",
"4. c #2C4B51",
"5. c #344D55",
"6. c #34555D",
"7. c #38535A",
"8. c #385760",
"9. c #365A63",
"0. c #395A65",
"q. c #3A5E6A",
"w. c #3C616D",
"e. c #3E6473",
"r. c #3F6778",
"t. c #43494A",
"y. c #535552",
"u. c #6C5A43",
"i. c #605A4C",
"p. c #625C50",
"a. c #5B6459",
"s. c #696951",
"d. c #777659",
"f. c #5A5F6B",
"g. c #4D696C",
"h. c #406777",
"j. c #416979",
"k. c #476C78",
"l. c #536B71",
"z. c #55757D",
"x. c #7B736A",
"c. c #8B774E",
"v. c #867958",
"b. c #348115",
"n. c #36821C",
"m. c #3A831C",
"M. c #3C891D",
"N. c #378122",
"B. c #3D8123",
"V. c #3C8820",
"C. c #41831F",
"Z. c #428324",
"A. c #468921",
"S. c #44832B",
"D. c #49832C",
"F. c #4A8B29",
"G. c #4A8431",
"H. c #508931",
"J. c #7C8B78",
"K. c #9C8A57",
"L. c #A98E5C",
"P. c #8A8368",
"I. c #988968",
"U. c #9C9266",
"Y. c #958971",
"T. c #A89962",
"R. c #B1976D",
"E. c #A69877",
"W. c #BAA86D",
"Q. c #BFAD75",
"!. c #C1AE77",
"~. c #CAB675",
"^. c #D4BC79",
"/. c #DAC179",
"(. c #477282",
"). c #497584",
"_. c #4B7887",
"`. c #4D7C8B",
"'. c #557882",
"]. c #507D8D",
"[. c #767C83",
"{. c #4F8091",
"}. c #508090",
"|. c #5C8791",
" X c #798D87",
".X c #7E9AA7",
"XX c #819188",
"oX c #849D96",
"OX c #B09B87",
"+X c #93A79A",
"@X c #B0B79E",
"#X c #809BA8",
"$X c #D5BC8B",
"%X c #C2B592",
"&X c #DAC58A",
"*X c #D9C796",
"=X c #E3CB88",
"-X c #E5CD99",
";X c #ECD496",
":X c #EDD597",
">X c #EFD79B",
",X c #D0C8A1",
"<X c #DDCEA1",
"1X c #EAD7A4",
"2X c #F5DDA3",
"3X c #F7DFA8",
"4X c #FBE2A7",
"5X c #F9E0A8",
"6X c #DED7D1",
/* pixels */
"K m D g F S D x J n.D F I D D k m Y L J n.n.J n D P n.S J n.J m l G V J S K B.M.J G J S n.b.M.M.S g S G J B.n.V.F N.N.L J S S S ",
"F K L F x L F x F G S K L c n v m G L n.S g F F K l S g G Y Y H k n n J n.m.K F n x n.n.F b.M.b.M.b.G j h G F L b.M.L n.L S n e ",
"L D l J F K D F F N.D c c S k f G l f F F S S m L F J j f f n S B B J l n.b.L M.n.F F j S D J D S J n.j S F b.F F L n.L n S j B ",
"P x n B l x c K Y V n n.c K H I G B S S S l n J I H m H H n m B j n J Y F c z F b.g S j G J g n S S J J S F D F G g l l S H n S ",
"T l B 0 9 n I Y n 0 M H z F D m n n H S F S k H V B m I H v v J j 0 n G l J S l L x n | S f G B J j j B J h G F S D K L L S B G ",
"Y B B B v v Y D D h h B I z L z f n h S H N.J n I S m V k l h n h j f j n J Y D F g f | g l G S g G G h H H G j D L n.n.L f f j ",
"n n v H n B J D K m f n H n c c H I j D L J n H L Y H n v D n h B J B G S B S n J n H J G 0 n H x F N.h 9 G ' 9 g D x K n.x B B ",
"D k I F v f m L L F H v e V I K J B h S F J I m V h n b V m I n n B J S B J F j j B j f l F n m D x L h h j j h x L L L A.D j S ",
"f h S B n m l F P S b e 9 9 v Y n Y H n f n b n D V | { n b n k j V n S L I f v l | B n H T H l D x K F f 0 j G n x z F D S n B ",
"j 9 V h G | B f n I i B V 9 0 n b I V H Y m B n n i V C M k n m.n B L K G B h h f D h 0 F D m G K I z L h 9 f T F S D F k B j j ",
"j h B M 0 h v B m V I b k k n C m I H L J m | b n k n n b V z K D l m H B f v B l f n n B S V 0 n n n V H J k f n L T K l G B f ",
"| n e e e V b B n k k n 0 b n b C n f 0 G 0 n n V C k V K n.T z K D H v e h s B H 9 0 H D I m n n G V n B I U m k V G G n n n B ",
"B v 0 0 b B b b k V n k m H I I B.V l S H n V V k n n m C z m P L P n h v | B v f k l U G n m F m D z k n m Y C k v v m l k f v ",
"h 0 N v b v v C U I m I I I I n U  .I l v | | I m k b I m n k d Z A H B B | Y H V Y L K n B I I n l V F Z.%.U Y A V B V V m H v ",
"v n A n m v n b k K z K C n n b n b V z H | m D b m n V Y n e ^ 1 Q v v h m f k n v m k b t b B v n I J Y C t m U n t V b n v f ",
"i i n V U m v 8 0 V m V B v 0 v k I K b v n H v k v n D V s : 8.k.6.X w f C G l e 7 i b b n I D B I V H D k m z n i v k N e 9 k ",
"i V D b k I { m V V k k V V h N v v z k t b C I n N n T Z > o = 0.).5.$ % a v n V V H V D n K F c n n n b v H m B B k 0 0 k n k ",
"0 m T U V I T K B.m f k H b i i v b V z n 0 t n ] N t Z > = ; - -.q._.2 - > r v H G H g n F K K L n H ' h M V m v i k V k k l F ",
"9 k C I m k m K n t n I D n b B V X. .m V A N N i v s ^ O O _.k.2 - h.j.7.3 / s G j G S F F L k S B V B v v n m k e v b K m k n ",
"t m v t m V C m N B N n n b n N V D V k B M 7 s w Z ^ 6.< O _.{.k.4.* k.`.].k./ ` H g l D n S m n n B v v v n V P H v n Z.m.D c ",
"m e B b b z { M v 0 e v k n m v k b Y m v i i M a ^ 6.h.,.< e.{.].(.e.`._.{._.k.<.a C C K n K f k H n n n n m P B v m b T c m.B.",
"n e N v v V C v i n v i k K Y V t k U U C k A I ! 3 e.j.5./ e.{.].{.}.]..X@X+X}.4.a Y D m K V m n k k I C k K Y v i I T T T U { ",
"v i e i V } n b b U ] e V K C ] B m C I z m  .U _ 2.e.h.7.4.r.{.}.}.{.}.,X5X1XoXa.~ d I n m V m b n n I T { V k b M B V n T  .| ",
"v M M i B C n n T U N w b C n n b C k m k m m R 2.h.h.h.h.h.r.{.}.}.}.|.@X3X2X2X&X=.X C V 0 K n v I V m V B f t B M b m I I V I ",
"V s e M 0 v ] V H m p w V H f b V m m C { H  .@ ; h.h.j.r.r.k.).`.`.'.,X1X5X5X5X3Xv.  k n m D f n I T z b n V v N ` m I V  . .I ",
"{ v e b N i N V n } [ M n I n n m I } n v m I + - h.j.h.r.r.r.r.k.j.'.<X5X5X-Xd.$Xv.. k m m U I C H m V  .{ ] n B | V m n v  . .",
"A | v b N B i n Z.&.M w b I V m V b m v N b N = ; w.h.h.r.r.r.r.r.r.'.<X3X*XI.+.!.v.@ k m K I  .V n V K | V V V m | B b n 0 V T ",
"e V 0 i p i i i ] V B ] C k b k T m V I P N : ;.<.4.e.j.r.k.r.r.r.r.z.<X4XU.4 !.^.v.( } D k n A I C K K | n m m I v v i V I z V ",
"M i M d i 0 N [ A C A  .I } N k k b V V K } : 7.9.4.e.r.r.r.r.r.r.r.'.<X;X~.!.6XE.L.L.@.N V I V V %.F.T m b m n m n ' M i k k v ",
"b v A N b t ] { { I n V V m A T z n C i s Q 7.w.e.9.6.e.r.r.r.r.r.k.k. XQ./.^.OX%X=X&XU.@.[ { B.I V  .{ m K T T k P I e i t V n ",
"e { H { A C A N ] C v v n V Z.F.P b U N y 1 e.h.r.e.6.e.j.r.r.r.r.r.r.r.J.E.E.R.-X5X2X=Xp.o.} I n I I G.B.C.A.P K P  .H V v v k ",
"e n b b i N } } v B C I C b n P %.%.A $.~ >.e.h.r.r.r.r.j.k.k.k.r.k.r.r.r.k. X1X5X5X3X1Xx.*.C m I  .I Y %.I Z.P C m V I ..]  .C ",
"B { v b A C C m { } C V C v U C.O.O.i E 2.e.h.h.j.j.j.j._.].].].).r.j.j.h.XX1X3X3X3X4X3X>XP.W i { T S.Y K T %.T n T I U B i n I ",
"8 M V v M B b v I  .V v A K O.D.&.%.p Q 2.h.j.j.h.h.j.).].{.{.}.).q.2.w.f.E.3X3X4X3X3X3X4XY.W K T F.F.P m.%.T V V %.V V v 7 M I ",
"v e v e V  .U i M  .%.] Z Z.C.A.$.A C E 2.h.h.j.j.e.7.(.].{.}.}.).6.3 a.I.$X5X5X4X3X3X3X3XY.(  .k K F.C.T  .I B I D.U v e N e 9 ",
"{ V v ] I U U m b m p U i U O.D.C p U Q 2.h.j.h.j.q.;.k.{.{.}.{.r.6., c.$X4X5X3X3X3X3X3X2XY.( } %.D.T Z.C.T V N m n V 0 h ] v V ",
"V ' ' H  .K z m v 0 p C p Z b C p U U W ,.h.h.h.j.q.< h.].].].}.7.1 1.W.:X4X3X4X3X4X3X2X=Xv.) b I {  .Z.V K V I V n i 0 i { V v ",
"..| N V b v n b b A } Z { { t Z A b Z R ,.r.h.h.j.0.O 8.`.].{.{.7.3 g.*X3X3X3X3X3X4X2X=X/.v.( A T V B X.U I | n | B.U v e { | V ",
"' B N V b n V e A } U N A U A A N p C Q ;.9.6.e.r.q.= - l.#X_..Xy.- z.$X2X4X4X3X4X>X=X^.I.*.$.O.Z.B.| C Y &.U V } n { V n i { { ",
"{ { V ' v b B V N i N m A ..s Z Z t s E : -.:.9.q.9.<.* t.[.7. X1.- g.~.=X>X>X>X>X=X^.^.p.~ K Z.T  .I 0 k m v v { { } A m n z V ",
"v v N V v e 0 v 8 s ] } $.$.[ b p C N p E 1 :.<.<.<.<.<.=       - :.3.Q././././././.~.W.i.E t C I U T U V V B s N V U I i C &.Y ",
"` [ N i b i b v B N { C C A $.Z z %.%.i y 1 :.,.:.<.<.<.:.-.:.; >.,.3.Q././././././.T.& [ } A b I C i Z i N B i n T T %.m i b A ",
"e M s N N H V e B B V ' C Z b T K P A t a y $ 2 <.<.<.<.:.<.<.<.<.<.<.s.W././././.K.+.u C %.} Z $.O.A t i B B V C P T m V { i e ",
"V V N n B ' V e ' B M ' M A P O.C C U C I v @ = 2 <.<.<.<.<.<.<.<.<.<.<.d.U.U.c.c.#.# I } A &.C C C $.A m v V H n P T N V B A v ",
"u d b v e M i b e h e ` B } T I N n H m V N w + O 2 2 >.<.<.:.3 :.:.<.<.<.,.3 X X y } v M { V b b K b C | V w M V b V e b v { B ",
"u u s { { M N e e 7 e h M ..U V V e v V I b s q #     2 <.>.1 1 1 3 :.:.1.1.) u Z A N ] d p X.H C T b v H h b v ..b 7 w N k b v ",
"7 s Z C A i 8 e e M V C C M ] X.| B h M N e s i u y $ i.u.u.u.u.x.f.O < Q [ ! m I C M i ` u } U C K Y n B N V m H | M N C k D k ",
"b p i i N t i i v ' N V m N ' { I b v v v b d i m Z Q 4 5 +.5 5 y.t.% R d m b m N v N i d ` V } X.n b i M ' N V G ` I v I C m 0 ",
"N b i ] ] i i t b e 7 v v b { } B.B i { B A D.A C V b @ . .   X X # V V V N B | M M n ..N A N Y Y H w w v M h B v n V D T I V ' ",
"i i A &...C N N b ' ' | } u i A U ..] A v A } A ] V v V s 7 7 e A I Z.| ..N A X.' N } } &.} b V b N N v I V n b 0 m K D m n n V ",
"Z { C A } ] i b M e B X.A A v A %.&.i p b b Z p N w w V b b e 7 i X.A.V M h | A ` s ..} $.$.D.I B I B.V B.K n b k 0 m D B 9 9 D ",
"N N t i t p ] ] N e 8 V b V V U C m N t v } A N s M u B n V ] ] i Y C.I ' v V K M i C C &.A I V i 0 A T K k i w 8 e 9 B ' V n K ",
"U C b v N p i N } ` ` u i V C I V I Y | M N A U i M N v V n C | V K P m.D T  .X.} b s N C &.b p N z Z.T k v i 7 w N h n H | V 7 ",
"U } &.C ] Z p w p ] Z N ] b M C { S. .{ M t A } A i ' s 0 t n { { V T K I  .I A ..V [ A N N b p C U } %.I f V p V H | V | H v e ",
"V V N Z i } b i i w s ] N s N N B V N s M b N Z N p M N v V ] ' N B I C V { A V u s I v u r N t b A C C G k v s V M I B e h H m ",
"Z N i N A Z } ..p N C i N Z M V { X.{ { v v A A p i p ] M i v v v { V V { v V { w t v N w s [ i b b V n I V A C v h B i v { {  .",
"N i I Z Z k U ..M Z Z i e s N N X.{ V X.} X.&.D.U Z b A m V { &.{ V ] { X.K Y T C } N i s [ ] &.N e v v V } m b V n U p t C m v ",
"Z U C i t b } ] u b b p b w s N { } B V U I Z } V N i A I n X.I I k C S.I Z.F.C K { s w r M { ..A A v v n n } b C I %.&.Z b V i ",
"A Z t u p b t p i b N s s u w V ] A N v Y $.$.$.A $.b K U C A C i t C C N O.D.C N V N v ' N H I n T T z n n V h V B.I &.} C M i ",
"A d s p [ } N i q v t u ` ` N M i t N } b { A Z $.U U C m N i } N i N U v N Z &.] M n v V { 0 b b n I C n I v ' v m I G.A N i N ",
"N a d w p Z U Z t C C i a s [ N i i d C A } ] p A %.} U M p M N N M V N C i N $.I V Y  .K V b i v V i } A n V A ' v n J K V { { ",
"] ..s u u b C b b Z ..[ i u p N N p N i N A A { O.$.U { i i b p d ] { N N A ] { H v k C b I A v u s Z U ..C ..B e e v G l f V B ",
"s s 6 6 q C N p [ p b N p } C N ' M s i C ] V S.&.U &.} Z d } N i t b { V C V ] V V n } n k v i e w V  .%.b p N 7 q r V B e v i ",
"r u r 6 a s d w N N u 7 ] $.C i w w d i V &.{ A D.D.H.&.{ v } U m C 0 N Z.V B b 8 ] { V N t i H ' w f n n p ] } M ` r 6 ` 7 B n "
};
