/* XPM */
static char *result[] = {
/* columns rows colors chars-per-pixel */
"64 64 200 2 ",
"   c #030403",
".  c #040A03",
"X  c #0C0907",
"o  c #050A0A",
"O  c #080D0C",
"+  c #140E0B",
"@  c #0A1507",
"#  c #0B100B",
"$  c #19180D",
"%  c #0A0F11",
"&  c #0C1316",
"*  c #0D1810",
"=  c #0D1418",
"-  c #0F191C",
";  c #151A18",
":  c #0E2506",
">  c #112B06",
",  c #12260D",
"<  c #122D0A",
"1  c #11360A",
"2  c #18340C",
"3  c #172715",
"4  c #1C3413",
"5  c #193913",
"6  c #3C2E1F",
"7  c #253C1F",
"8  c #39371E",
"9  c #141D21",
"0  c #152727",
"q  c #1C2323",
"w  c #18272A",
"e  c #192A2E",
"r  c #1D3429",
"t  c #1C2D34",
"y  c #1C3132",
"u  c #1F3139",
"i  c #232A25",
"p  c #232C2A",
"a  c #3B2E21",
"s  c #253E25",
"d  c #27332E",
"f  c #28352E",
"g  c #29392D",
"h  c #393129",
"j  c #242F35",
"k  c #302F31",
"l  c #273333",
"z  c #293534",
"x  c #283A34",
"c  c #22373D",
"v  c #243C3C",
"b  c #2B3B3D",
"n  c #343B35",
"m  c #4F3C2A",
"M  c #503D2A",
"N  c #18460F",
"B  c #144D0D",
"V  c #1A490E",
"C  c #16520C",
"Z  c #1B540D",
"A  c #165A0B",
"S  c #1C5C0D",
"D  c #1C4713",
"F  c #154A11",
"G  c #1D5513",
"H  c #1E5C12",
"J  c #1F531B",
"K  c #215C0E",
"L  c #244D14",
"P  c #25431F",
"I  c #215615",
"U  c #2A5216",
"Y  c #235D13",
"T  c #295C15",
"R  c #255419",
"E  c #2A551D",
"W  c #255C19",
"Q  c #2B5D1B",
"!  c #1D630D",
"~  c #1E6A0E",
"^  c #1E6412",
"/  c #1F6911",
"(  c #22630E",
")  c #246A0E",
"_  c #286C0E",
"`  c #26710E",
"'  c #29710E",
"]  c #246413",
"[  c #2A6415",
"{  c #256B13",
"}  c #2B6B15",
"|  c #266419",
" . c #2B651A",
".. c #256B19",
"X. c #2C6B1A",
"o. c #316D16",
"O. c #31671B",
"+. c #326D1C",
"@. c #267113",
"#. c #2B7314",
"$. c #2E7915",
"%. c #277418",
"&. c #2D731A",
"*. c #2E791A",
"=. c #317415",
"-. c #327B15",
";. c #387A17",
":. c #33731C",
">. c #3A751E",
",. c #337B1B",
"<. c #3A7B1D",
"1. c #274324",
"2. c #294626",
"3. c #2A4A25",
"4. c #294729",
"5. c #2D4529",
"6. c #314B2B",
"7. c #2A5421",
"8. c #265821",
"9. c #2D5C21",
"0. c #33562B",
"q. c #294434",
"w. c #2D4A34",
"e. c #314E38",
"r. c #395A32",
"t. c #2D6422",
"y. c #2D6C21",
"u. c #346624",
"i. c #336D21",
"p. c #396E22",
"a. c #356828",
"s. c #357322",
"d. c #3A7423",
"f. c #357A22",
"g. c #3B7B23",
"h. c #3C752A",
"j. c #3E7C2A",
"k. c #454B30",
"l. c #544335",
"z. c #664E36",
"x. c #71573C",
"c. c #73583D",
"v. c #407523",
"b. c #417C25",
"n. c #40752A",
"m. c #427D29",
"M. c #253C44",
"N. c #2E3E43",
"B. c #303F44",
"V. c #254243",
"C. c #294646",
"Z. c #2A4947",
"A. c #29424B",
"S. c #284949",
"D. c #314746",
"F. c #32474E",
"G. c #2B4650",
"H. c #2E4C54",
"J. c #2F4C58",
"K. c #334C55",
"L. c #304E5A",
"P. c #2F5155",
"I. c #34535C",
"U. c #385659",
"Y. c #365763",
"T. c #385561",
"R. c #355962",
"E. c #3C5B65",
"W. c #3A5D6B",
"Q. c #3F6067",
"!. c #3B606F",
"~. c #3E6473",
"^. c #695542",
"/. c #7D5F42",
"(. c #41636C",
"). c #406777",
"_. c #406877",
"`. c #406878",
"'. c #8A6949",
"]. c #348115",
"[. c #36821C",
"{. c #3A831C",
"}. c #3C891D",
"|. c #378122",
" X c #3D8123",
".X c #3C8820",
"XX c #40831E",
"oX c #428325",
"OX c #458A25",
"+X c #44832B",
"@X c #49832D",
"#X c #4B8331",
"$X c #508931",
"%X c #467282",
"&X c #497584",
"*X c #4C7887",
"=X c #4D7C8C",
"-X c #507F8F",
";X c #4F7F90",
":X c #508090",
/* pixels */
"=.} #.~ $.@.#.~ *.[.@.$.:.} =.! @.f.].-.|.[.$.@.#.-.[.@.*.[.*.@._ #.%.f.' $.{. X*.%.*.%.[.].}.}.#.~ %.%.f.|.]..X#..X[.-.,.@.{ %.",
"$.=.-.$.` -.].` $.%.} $.-.' } { ..#.-.-.@.~ *.#.=.{ #.~ *.*.&.&.) ] { &.<.{.-.#.` @.].[.$.].{.].}.$.%.~ / @.$.].[.}.-.[.-.@.{ A ",
"-.#.) *.$.=.$.#.$. X#.' ' _ ( ! %.{ ~ *.$.@.@.#.,.#.*.~ ! ! { %.{ ..*.{ [.].-.{.].#.%./ @.$.-.%.%.*.[.` @.$.[.$.' -.[.[.{ { { { ",
";.' { ..) _ ' $.,...{ {.@.:.:.#.#.{ { { @.` ^ :.:.&.} &.:.{ } { / ..*.*.-.' ` $.].~ #./ %.*./ { @./ *.*.@.#.$.*.#./ ) ~ %.&.{ @.",
"<.) ..H A { :.,.{ S | &._ $.$._ ) { &.@.$.@.( &.#.} } :.%.] ^ &./ ! { { ) *.@.) $.` { f.@.! %.{ *.{ / ..*./ %.%.@.%.-.-.,.@.{ %.",
":.{ ....] { >.#.#.^ ^ ..=.} =._ ! { ^ @.%.|.:.{ X.#.} } ( { ] { / / ! / { *.,.#.$.) / f.{ { #.@.! %.&.A &.&.%./ &.-.-.<.-.! ! / ",
"{ { ] &.{ { :.#.;.{ ! { %.} ' @.#.f./ %.-.*.{ &.,.:.&.} ( #.{ ! ..&...%.%.{ @.{ *.{ %.f.@.A { %.` #.|./ A ..*.A ) ' ` -.,.` { ..",
"#.) &.&.{ S @.-.-.=.&.] H X.:.=.:...^ @.*.-.&.#...{ { | +.X.:.{ / ..f.@.{ *.$./ / { / ! @.#...{ #.` ]./ ^ / ^ ^ @.$.-.].OX#./ %.",
"! ! %...{ { ) -.;.@.| H A S ( :.} f.&.{ ! { ] { #.X.f.s...] { ( { ..{ @.:.:.! ^ { g.../ &.{.#.{ @.` -.=.( A | %.{ ' ' @.=.@.{ { ",
"/ C y.^ X.f.{ ! } =.Y ....S S } } #.} &.f.{ X.] ] S +.%.| ( _ g...X.-.#.%.} ^ ! ! #.^ ! :.@.} #.,.:.) -.( A ! ,.&.' $.#.) ..^ / ",
"{ ^ ..^ H ^ ] ..{ } +.] ( K { X.} =.&.:.*.{ f.} { _ ( } } X._ =.} _ } &...^ | { ) ! ] { { } { ! ( } } ..%.:.) ! { :.[.:.) %.../ ",
"f.{ H H ^ X.[ { } { ] { ! ( } } X.} ! S #.H } ] u.L V } =.<.;._ =.=...{ ^ C D 7. .A S &.&.&.#.} ] #.%.{ { >.:.} ( #.@.#.{ { { ..",
"..{ A Z [  .} ] ] X.} ( X.:.s.X. XX.) #.&.}  .Q f ; @ K =.] } >.=.-.} ] ] D o p 3.{ ) :.#.] } :.} #.#.( { } :.=.] ] { } ( ! ( Y ",
"! H  .] ] ] ] +.<.=.} :.=.=.:.} >.g.:.) { |.0.w.(.Y.A., 4 g 1.2.5.2.1.s , e J.).U.1.+.=.{ &.&.:.{ ) #.#.+Xg.<.>.+. .X.X.X.#.&.] ",
"] X.:.} } ] } ] ( X._ #.X.} } ] ] } } } %.f.3.N.*X=X~.w 9 w N.B.D.N.k 9 9 M.&X;XE.f [ ) { ( [ | { ^ s.&.>.#.K _ >.} (  .| } ] ! ",
"H K ] X.>.} ] S S X.} } } | A ] ] =.o._ ] ] 3.N.*X-X=X`.u % W.~.).).c % Y.%X;X:XE.f R [ [ ] :.#.{ >.%.&.#.( } _ { H ( ( | S S ( ",
"( X.X.} K =.s.X.X.X.( ( X.X.Y ..Y { } ( K _ 1.N.*X-X-X=XW.L.%X=X*X=X~.L.%X=X:X:XE.f t.%.&.{ =.#.} { { { { ] X.X.} X.K ( S ( ] ) ",
"S } <.>.X.;.<.=.g.} ! ( =.{ ^ H ] [ o._ ] Z 1.b %X;X-X-X*X&X;X:X:X:X&X%X-X:X:X:XE.z  ./ { #.-.#.-.{ X.y.^ | =...{ S ( X.( ( { #.",
"S ] o.:.} ( } o.} ( X.=.X.{ [ X. . Xg.} &.X.2.b ~.&X;X;X;X;X-X:X:X:X-X-X:X:X-X`.I.f X.{ $.$.-.) @...&...^ | ] } K ] ( ( ;.} ) ) ",
"S ] ] ( } X.#.X...|  .{ ] } } | &.X.X.) | 5.D.E.).&X;X;X;X-X-X;X:X;X:X:X:X:X:X`.W.U.q.R #.) } } } { ..] ] [ _ } ,.X.| } g.{.' @.",
"} H | [ _ [ s. .Y H S ] ( ) X.] K } :.} R q K.`.`.%X=X;X;X;X;X;X:X:X:X:X:X-X=X`.`.).j P #.} X.! S #.} | } ) } ,.{ ( } | <.' XX X",
"{ H X.| Y } #.| ] ] ] Y ( =.,...] ( >.<.T . A.`.`.`.%X=X;X;X;X;X:X:X-X:X:X&X`.`.`.!.= > #.X.=.} } ] ( =.X.( #.>.| Y :.<.<.<.,.s.",
"] Y H H X.s.} ] ] <.+.Y  .;.X.+.} } } :.Z . M.`.`.~.`.%X&X&X;X;X:X:X*X%X%X`._.`.`.!.= > } } X.} | } { :.<.,.X.] | ..X.X.} f.g.d.",
"] | ] ] X.o.] } >.>.O.G | #.{ X.[  .[ [ D . M.`.`.).`.`.`.`.*X=X=X=X%X~.`.`.`._.`.!.= , Q G [ _ ( :...#.X...S ( | | | } =.:.+.=.",
"X.Y H | S ] :...=.[ | I X.X.! } X. .X.3.q . M.~.`.`.`.`.`.`.`.`.`.`.`.~.`.`.`.`.~.!.= * l f 3.! | =.,.} { | X.] X.| } :.} g.g.=.",
"s.] H ..| Y  .X.} d.u.| } :.{ ( E 3.3.D.K.y e u ~.~.`.`.`.`.`.`.`.`.`.`.`.`.`.`.J.w e M.I.I.D.1.2.7.} X.g.f.y.[ { j.X.} } Y g.g.",
"=.f.] ] | | Y | oXm.| G ] >.X. .w.b b E.~.P.t 9 J.~.`.~.`.`.`.`.~.`.`.`.`.`.~.W.c - C.!.`.`.W.D.N.e. .+.>...X.#.X.:.X.} | S X.<.",
"H +.Z T T ] | Y i.} X.i.} ] Q f (.&X).)._.~.~.L.& M.`.`.`.`.~.~.`.`.`.`.`.~.W.- t !.~.~.~.`.%X=X*X(.g O.a.E } X.&.| | S X.:.} X.",
"| Y W | Y K | p.i.X.=.g.:.7.w.Q.`.:X*X`.`.`.`.~.A.u e e e e e e e w e e e e e M.I.~.`.~.`.%X=X:X:X`.U.e.g 7.o.[ o.] y.| ] K ( ] ",
"| ] :. .[ K i.p.s.=.X. .Q w.F.-X:X:X:X&X`.`._.`.~.M.= = & & = = = = = = = = 9 Y.`._.~.~.`.&X-X:X-X&X).N.p E <.<._ ,.:.H K ] X.] ",
"G &.:.p.O.+.+. .i. .] I g U.`.-X:X:X`.`.`.).)._.`.~.~.~.!.!.!.!.!.!.!.~.!.~.!.~._.~.P.I.`.`.%X-X`._.).N.; U OX;.=.;.|.+. .] { ( ",
"H } | } T  .:.g.[ } &.Q z T.`.&X*X`.`.U.I.)._._.`.`.~.~.~.`.`.`.`.~.`.`.`.`.`.~._.~.E.I.K.F.E.*X`.).).e 3 Y oX;.o._ } s.h.+.g.=.",
"| s.] } +.o.+. .>.d.=.R p I.`._.~.W.!.G.G.~.`.`.`.`.`.`.`.`.~.`.`.`.`.`.`.`.`.~.%X~.`.W.M.v F.W.Y.Y.T.3 2 ,.b.<.} <.:.:.X.Y } X.",
"S ] X.Y [ X.] ] +.g.X.N X G.`._.F.z z P.~.~.`.~.`.`.`.`.`.`.`.`.`.`.`.`.`.`.`.`.~.~.~.~.~.~.I.z = X O E <.b.<.X.o.g.#. .( Z | :.",
"Y ^ | H ..g.s.Y | g.b.u.5 r t u c b V.R.~.%X%X~.`.`.`.~.`.`.`.`.`.`.~.`.`.`.`.`.~.%X~.%X).`.R.v q 3 U >.<.<.:.X.:.+X:.| H  .H S ",
"s.X.| i.=.<.>.} [ } [ :.] < .   y S.S.W.~.~.~.~.`.`.`.`.`.`.`.`.`.`.`.`.`.`.`.`.~.%X~.~.).~.R.C.x 6.<.oX X<.X.X.} } ..Y ] X.| X.",
"X.y.y.:.g.=._ } ] S T +.T [ L p v S.S.R.~.~.%X%X~.`.`.`.%X~.~.~.`.`.~.`.`.`.).`.~.~.%X~.~.P.S.V.z 6.s.oX=.=.} &.X.{ ( G H s.X.| ",
"h.s...X.} ( ] _ { +.d.O.d.p.R d v S.S.P.W.~.~.~.`.`.`.`.~.~.%X~.`.`.`.`.).`.`.`.~.~.~.~.I.S.S.S.z 2.X.j.f.+.d.} g. X>.H ^ i.g.X.",
"s.|  .X.[ ] X.Y +.d.>.[ +.>.9.g u q.Z.Z.H.!.~.~.~.`.`.`.~.%X~.%X`.`.).`.).`.).`.~.~.~.R.S.S.V.v x 0.d.&.>.g.s.} s.{ s.:.] ] s.&.",
"y.s.X.y.{ | X.X.| Y [ O.+.v.T 9.3 & C.S.S.S.H.P.~.`.`.`.~.%X~.~.`.`.`.`.`.`.`.`.Q.S.H.S.S.S.y O Q d.=.H { } | ] s.s.g.O.} ] _ &.",
"] ] |  .| Y S ] Z W y.d.d.n.a.T : % V.S.Z.S.S.S.I.R.I.I.!.~.~.~.).~.`.).R.R.I.R.P.S.S.S.Z.S.e   T >.d.d.X.X.| |  .X.d.:.Y +.b.:.",
"t.a.X.Y | ( | ] .. .s.+.o.+.v.o.> * v V.S.S.S.S.S.S.S.S.R.~.~.~.~.~.~.!.S.S.S.S.S.S.S.S.C.V.r @ Q o.( o.Y ..X.] } <.<.b.[ Y  .=.",
"H  .] X.| X.X.S | X...y.+.[ _ <.} U # y S.S.S.S.S.C.S.S.S.S.P.S.H.G.G.G.S.C.C.S.S.S.S.V.V.& , T >.v.+.K H X.| X.#.;.<.} } s.Y Y ",
"X.O.[ | X.+.X.H X.X...y.[ +.v.<.@.T ; y S.V.S.S.S.C.S.C.S.S.S.S.S.S.S.S.S.S.S.S.S.S.S.S.C.9 7 O._ >.v.o.] | X.X.] ;.{.[  .X.&.] ",
"G Q [ [ H | ] ] ^ ^ H t.| d.g.:...Q g q.V.q.V.V.C.S.Z.S.S.S.S.S.S.S.S.S.S.S.S.S.V.v V.V.V.x 4.[ [ =.[ +.g.X.G | X.| X.S | ] s.| ",
"I I Y :.s.| | Y G A H ^ | d.d.X. .A J q.p % o & V.C.S.S.S.S.S.S.S.S.S.S.S.S.S.S.e o O ; l E h.%.o.<.] ( &.^ ] ] h.| C G X.( } ( ",
"Z Y  .+.O.| Z G G | X.&.:. .i.g.g...^ 5 ; a a a 0 0 0 0 0 0 0 0 0 0 0 0 0 0 0 0 i a 6 h n E s.>.} ;.<.} / X.&.} &.f.|  .} _ =.( ",
" .Q T Y [ K Y Y Y y. .X.} [ y.>.&.| ] < $ x./.z.X       . . . . . . . . . o X X 8 '.'.^.n u.X.s.g.] ] | t.t.| X.X.X.:.[ :.X.} Z ",
"[ | ] +.s.Y Y K  .H C ] | [ i.d.g. .] X.L + + +     X k 1.G I u.u.Y Y R n l.c.c./.'.'.l.# E o.:.>.X.Z G ] | | ] ] { X.=.<.>.} y.",
"H T +.m.h.O.[  .| &.&.h.s.Y Y :.d.s.i.:.G 5 4 < < > < 5.Q H G | >.<.oXd.r.k.M M M m M 8 7 u.[ #.}  .X.^ :.X.{ { ! } =.} @.] } ..",
"X.p. .+.d.+.Y | | H | g.:.+.T +.+Xm.Y ] [ [ O.T | G G X.] | H B H g.oX+.| 1   .     . 2 >.d.@X=.X.+.+X..<.=.{ | K A @.&...S A @.",
" .[ K ] K Y i.p.| Y Z X.| X. .>.o.[ [ K ] d.+. .W | H  .} } s.y.( g.{.:.:.Y T | L V I Q b.O.:. .( S +.<.;.( S G G H S { &...{ :.",
">.+.[ [  .T T [ d.i.t.Y Y  .=.:.&.o.,.g.| X.O.d.Y |  .| } ] X.g.X.:.-.<.#.<.g.g.<.[ |  .O.m.[ [ [ [ oX<.( ] T A G ../ { %.f.X.Z ",
">.d.b.+.O. .| Z T  .u. .+.[  .O.s.+Xg.s.| K O.d.O.Y  .W K ( } :.s.} <.;.:.g.:.+.d.O.p.p. .|  .T +.>.d.g.=.{  . .X.&.s.y.s.y.] S ",
" . . . .[ d.T Y H G T y. .Y  . ...X. .| |  .[ X. .| |  .|  .X.X.|  .+.X.X.s.X.X.W T :.] Y G O.K [ +.:.o.} ] ] Y X.| &.| H ] &.X.",
"O. .[ [ +.O.h.h.T  .O.Y  .X. .X.s.h.s.s.] ] O.+.T Y [ i.| ] | | | s.X.=.s.] X.s.G Z ]  .G 8.a.Y [ ] } _ &.X.+.O.Y { { ] ] +.g.g.",
"[ T >.[ [ [ d.d.| O. .] K W |  .j.s.y.j.g.g.m.#X>.O.] O.} X.d.j.:.X.:.+.j.=.=.g.+.d.X.Y W a.p.g. .S ( ] X.,. .T X.{ :.[ K +.} K ",
"+.+.+.Y K ] d.p.G [ T ] | G W  .s.d.| X.>.:.O.d.O. .] +.=.} g.:.>.( o.+X>.oX@X=.o.s.W G G | s.d.+.+.| ] ] } d.[ +.=.b.v.O.[ X.Y ",
"+. .I Y T [ Y T Y | | Q Y Y I  .p.X. .] :.v.v.v.+.d.[ :.d.X.+.+.] S [ +.[ b.@Xo.{ X.X.] y. .X.:.} <.g.{ } { X.^ X.g.:.#Xd. . .] ",
"O.Q Y W p.d.[ T Z T K R t.u. .[ Y Y [ s.[ d.+.O.v.>.>.o.} [ Y d.| T } d.T [ o.m.+.| [ ] y.s.( | ] } =.#.} :.] y.] } :.#X>.[ Y [ ",
" .R  .V T O.>.[ Y o.O.Y R W a.| Y Y | +.O.d.+.[ >.v.v.>.| Y |  .X. . . .O.Y  .h.>.} :.g.+.} | ] |  .K g.+.} ..&.y.] { &.=.X.s.s.",
"a.h.Q Y G [ +.[ [ O.d.p.I Y T  . .T  .Y [ p.+.s.>.b.>.s.T Y T [ W +.s. .X.+.i.s.X.] { X.} =.+.[ G | O.d.h.+.d.X.H H / %./ ! X.X.",
"W W B F G  . .[ p.Y Y  .Q p.o. .t.| Y Y  .s.X.#Xm.>.m.d. .| p.[ Y Y [ s.X.O.X.X.X.X.X.d.] ] ] H G G  .g.g.[ T  .C F H y...H ! Y ",
"G J G F L W Q G  .Q Y Z i.g.o.Y H G W T X.+XX.X.@X@X$X@Xd.[ d.>.} o.S } +X#.| X.C i.:.X.} K ] &.y.G ! _ } Y p.d.| t.J F t.C ] X."
};
