/* XPM */
static char *result[] = {
/* columns rows colors chars-per-pixel */
"64 64 207 2 ",
"   c #020201",
".  c #030B01",
"X  c #0B0B05",
"o  c #080708",
"O  c #0C0C0B",
"+  c #0A1906",
"@  c #19190B",
"#  c #0E0E12",
"$  c #111313",
"%  c #16161A",
"&  c #17181B",
"*  c #1B1C1E",
"=  c #321B12",
"-  c #381D16",
";  c #0F2909",
":  c #17390C",
">  c #193812",
",  c #1C3B13",
"<  c #2A2417",
"1  c #322D1A",
"2  c #343A17",
"3  c #393919",
"4  c #1C1C23",
"5  c #201F27",
"6  c #1F2225",
"7  c #23232B",
"8  c #2A2B2A",
"9  c #362F2C",
"0  c #2E342E",
"q  c #3C3A25",
"w  c #2A2933",
"e  c #363837",
"r  c #33333D",
"t  c #401E13",
"y  c #4E271C",
"u  c #473829",
"i  c #513B2F",
"p  c #583D38",
"a  c #15460B",
"s  c #164A0C",
"d  c #1C4B0D",
"f  c #16520C",
"g  c #1B540D",
"h  c #165A0B",
"j  c #1C5C0D",
"k  c #1B4812",
"l  c #1D5512",
"z  c #1E5C11",
"x  c #1F531B",
"c  c #21480E",
"v  c #23540D",
"b  c #215B0E",
"n  c #274917",
"m  c #37451A",
"M  c #225613",
"N  c #235D13",
"B  c #295D14",
"V  c #295619",
"C  c #255D19",
"Z  c #285E1B",
"A  c #325A1C",
"S  c #1D630D",
"D  c #1E6A0E",
"F  c #1E6312",
"G  c #1F6911",
"H  c #22630E",
"J  c #29660E",
"K  c #246A0E",
"L  c #296B0F",
"P  c #26710E",
"I  c #29710E",
"U  c #246313",
"Y  c #2A6515",
"T  c #256B13",
"R  c #2B6B15",
"E  c #266319",
"W  c #2B651A",
"Q  c #256B19",
"!  c #2C6B1A",
"~  c #316B16",
"^  c #31651C",
"/  c #326D1C",
"(  c #267113",
")  c #2B7314",
"_  c #2E7A15",
"`  c #277418",
"'  c #2D731A",
"]  c #2E791A",
"[  c #327415",
"{  c #327B16",
"}  c #387A17",
"|  c #33731C",
" . c #39751E",
".. c #337B1B",
"X. c #3A7B1D",
"o. c #305A24",
"O. c #3B4235",
"+. c #385837",
"@. c #2D6521",
"#. c #2D6C21",
"$. c #336D21",
"%. c #366825",
"&. c #357322",
"*. c #3A7423",
"=. c #357A22",
"-. c #3B7B23",
";. c #3C7529",
":. c #3D7B2A",
">. c #417D1E",
",. c #45452B",
"<. c #404037",
"1. c #454339",
"2. c #674A36",
"3. c #78553F",
"4. c #407525",
"5. c #417C25",
"6. c #427D2A",
"7. c #41683B",
"8. c #3A3A44",
"9. c #393A46",
"0. c #433F48",
"q. c #553D42",
"w. c #3F4147",
"e. c #3C5041",
"r. c #454749",
"t. c #5E464B",
"y. c #435746",
"u. c #454553",
"i. c #474852",
"p. c #4C4D56",
"a. c #494959",
"s. c #544F5A",
"d. c #4D5155",
"f. c #555959",
"g. c #6B4948",
"h. c #725446",
"j. c #656B5E",
"k. c #73635E",
"l. c #595C67",
"z. c #696E61",
"x. c #62646D",
"c. c #66696B",
"v. c #6F746B",
"b. c #676973",
"n. c #6E7379",
"m. c #73787C",
"M. c #8C3F28",
"N. c #9B482F",
"B. c #A84F34",
"V. c #B7573B",
"C. c #C05C3F",
"Z. c #864D48",
"A. c #8A5B49",
"S. c #A75F4E",
"D. c #85634C",
"F. c #96694E",
"G. c #996B4F",
"H. c #856651",
"J. c #967057",
"K. c #B16D57",
"L. c #8A6E64",
"P. c #AF7F64",
"I. c #C25E41",
"U. c #D86B4B",
"Y. c #E07050",
"T. c #C47A64",
"R. c #368318",
"E. c #36821C",
"W. c #3A831C",
"Q. c #388321",
"!. c #3D8123",
"~. c #41831F",
"^. c #428224",
"/. c #468A23",
"(. c #44832B",
"). c #49832C",
"_. c #4A8B29",
"`. c #4A8431",
"'. c #508931",
"]. c #80847E",
"[. c #BA8669",
"{. c #CF906C",
"}. c #CC9A7A",
"|. c #D39770",
" X c #DD9D75",
".X c #DFA077",
"XX c #767983",
"oX c #7C8384",
"OX c #858C8D",
"+X c #898B8D",
"@X c #8B908F",
"#X c #888A97",
"$X c #899190",
"%X c #939AA5",
"&X c #9AA0AD",
"*X c #AAAEBA",
"=X c #A9B0BE",
"-X c #D7A986",
";X c #E5AC84",
":X c #E7B38D",
">X c #E6B790",
",X c #ECBA91",
"<X c #ADB4C3",
"1X c #B9BDC8",
"2X c #BEC5D5",
"3X c #DDE0E9",
"4X c #F9F8F9",
/* pixels */
"[ R ) D _ ( ) P ] E.I _ ..L [ S Q ..R.{ Q.E._ T R ..R.( ] E.] R K ` ' ..( _ W.Q.] _ ] ` R.R.W.W._ D ( ` ' !.E.W.) Q.Q.{ ] ( ( Q ",
"_ [ { _ P { _ P ` ` ( [ { ) T U R ` _ { ( D { _ [ K ) D ` { | ] K U T ' X.W.[ _ T P ] E._ R.R.R.W.R.` D G ` _ R.R.R.{ E.{ ` T j ",
"{ ) K ] ) { _ _ _ Q._ P L L U S ) T D _ _ ( ( ` .._ ] G S S T ` T Q ] K R.R.{ W.R.I ( T ( ` { ` ` ] E.( ( ] R._ _ _ E.{ T ( G Q ",
"} P T Q K L I [ ..! T X.( ..' [ ` R T Q ( K T ' | | T ] | K Q Q G Q ] ..{ I P _ R.D ` G ` ] D T ( ( ] ` ( _ ) { _ G K K ` ` T ( ",
"X.K Q j h T ..| T j U ' L _ _ T T T ' ( _ ( K ' R T R | ' U U ] G S T ` T ` ( K _ P T =.T D ( Q ] G G Q ' G ` ` ) ` { { ..( T ( ",
"..Q Q Q U U ..) ) F F Q [ L { L S T G T ` =.' R ! ` R ! K K U G F G S S T ] .._ _ G G =.K T ) ` S ` ] h ] ' ` G _ { { ..{ H S K ",
"T T U ' T Q ..) { R j T ' R L I ] ' K ` { ..T ) ....' R N ) T F Q ] Q ' ` Q Q K ] T ] ' ` j T ` P _ Q.S h Q ] h D ( I { ..P Q Q ",
"~ K ] ) U S T { { ) ' U F ! | [ ' Q S ` _ ] ' ` R U T U ! R | T G Q ] ( T ] ] D G ( F S K _ T Q _ P ] G F F F F K { { R.~.) G ` ",
"S S ` Q T R K ] X.) U z h h U | R =.) T D T U Q R ' =.&.! T U G T ' T ( ..| S U K =.Q U ' W.R K I K { ) S j G ` T I I I [ ( T G ",
"G h ! F ' ..Q S T ' U W ! j j R T ~ ~ ' ..R R U K z ! ! E S T !.U ! _ _ ` Q z S D ) F S ..( R ` ..[ L ..S h S X.[ ( ) ) T Q U G ",
"T F Q F j F U ! T ! | T H j T ! T ..) ..' Q =.W U K U R U ! #.] ! T Y ! T U Q Q K D U T T R R j U T R ! ' | U H T ..X...T ` Q G ",
"=.U z z C Q U T R H H U H J R T ! R j j ' j R K ! | R ) +.y.y.e.y.y.e.+.F j C Q ! h j ' R ..Q R T ` ` T Q | | R K R ( ` T T K Q ",
"Q U j j U W W U U ! U H R ' | ! ^.! T R ' T R R H R Y J y.f.a.a.p.s.a.y.E &.U F S K K | ' T ) ..R ) L K T R ..[ U U K R K S H N ",
"S j W U Y U U | X.| R [ | | ..R | -...K U =.*.| A 2 2 m z.oXoXoXoXoXoXv.m m m V ! | [ [ T ! ! | R K ) ` ^.>.X.| / ! W ! ! R ' U ",
"U R ' R R U R J H ! R _ ! R R U Y T R T ' =.R ~ A 3 ,.,.v.$X$X$X$X$X$Xm.1.,.3 m Y U T K T H U Q U T | ' ..! b L | R U W U R U S ",
"z N U ! ..Y U j j ! R R R U j N H | [ J U R ^ m e u.c.].oX$X$X$X$X$X$XOXOXc.i.O.2 v N Y Y Y | ) Q | ! ' ! K R L T N U H U N h S ",
"z ! [ Y H | | ! ! ! H K R ! U Q b U I U v g n q w.a.n.#X$X$X$X$X$X$X$X$X$Xn.a.w.q n N Y ) T [ [ I T T T T K R R R Q b H j K U S ",
"b ) X.| ! | X.[ -.R S J ! E z C U R ! K v . * u.a.a.n.#X$X$X$X$X$X$X$X$X$Xm.a.u.i.7 . a ( ) { ` { T ! #.C Q ! ! U z H ! H H K ] ",
"h U ~ | R J R [ T H R | ) R U ! ! !.-.R M   4 i.a.w.x.XXoXOX$X$X$X$X$XoXXXb.a.a.a.4   a _ _ { J ` R ' Q F E J R K N H U [ R H K ",
"j R U b U ' ~ R W E Q T U T W T ! ! ! J k   4 i.a.a.a.a.oX$X$X$X$X$X$XoXs.a.u.a.a.5   d ` K ( R T T Q U U U T ! | ' U R ^.~.I ( ",
"W z Q R T Y &.E U z j H H T R U H Y ..R d   * u.a.a.a.a.x.n.n.n.n.n.n.x.a.a.a.a.a.5   d _ T ! S j ) T U R T R ..R H W W X.I W.!.",
"U z W U U R | U N J U C H ) ..' N H | X.v   4 a.a.a.a.a.a.a.a.a.a.a.a.a.a.a.a.a.a.4   k ~ ) | R T U H ) ! J [ | U F | X.X.X...&.",
"U U z z ! | Y J U -.$.N ! [ W | R R N , 2 2.i 7 0 u <.O.O.u <.<.<.<.O.O.<.<.u e 7 ,.2.2 : b ) ! U R R ....| R K E E W ) Y ..-.*.",
"U Q C U ! ! R T  . .W z U ~ T W Y ! v   1 {.D.  @ 3 3 3 2 q 3 3 3 3 3 3 3 3 3 @   Z.|.u   a [ K U | ! R ! ! F z Q E U R | ../ | ",
"! C l Q j U $.! / R B l ! ! S R / ! v . u -XJ.  X @ 1.z.z.z.z.z.z.z.z.z.z.1.@ X   D.;Xi   d ' b U | ..R U Q ! U ! @.! | ! =.-.| ",
"&.U N U W N Q ! T *.%.E Y ..T J R [ W . 9 :XJ.    o d.$XOX+XOX$X$X$XOXOX$Xl.X o   H.>X1.. M ..| | ~ R R -.=.#.Y Q =.R R R F *.^.",
"' *.U U W Q N Y !.(.E l U ..R R R Y U d n u <   u G.k.l.e w a.l.l.l.8 r l.k.G.i   < u n g R | X.) R ! [ ..! ! ) R | W R U j ! X.",
"N | g N N N Y N $.R W $.~ U Y H ..W ! ..B .     2..XL.p.& o 8.p.s.0.  $ u.L. X3.    . B ) H Y | | ! [ ..=.Y R ~ &.U U z / | L ! ",
"U z Z Y N g W $.$.! | *.| &.W H U R ! ! Y ~ :   3.:X}.[.1 o H.{.[.J.O - P.}.,XH.  : b R ` ! | ! ! -._.X.R U R T ~ U #.E U b U U ",
"Q U | W W b $.$.| | R R ! ! | X.J U / N Y ~ a   h.,X;X|.2.< P. X.X[.1 ,.|..X,Xk.  : T ( R | | ^.| ! -.| R [ X.X.L ....z z H ! U ",
"l / | $./ ~ / W $.! U b T ! !._.} J  .Y j H a   2..X;X,X-X-X>X,X,X,X-X-X,X;X.X3.  ; S T _ -.X.| J | | `.^.~./.} [ } -./ W H T H ",
"z R U ! N ~ $.:.Y R / ..[ Y R [ ^.5. .6.^ d , * g.[.}.-X:X,X>X,X:X,X,X>X-X}.{.h.* , f U K ) ! ! | -.=...-.| ^.} R J ! &.=./ :.[ ",
"Q &.U R | ! / ! | *./ ! ~ H  .5.>. .b 5.A . 0 oXb.s.g.Z.{. X X|. X X.X{.Z.g.s.b.oXe . g _ [ ! N | -.(..... .5.X.T X...| R N R ! ",
"g U ! z Y W Y N $.-.R U /  .>.^.).5.B c , % w.OXl.r q.g.Z.F.F.S.F.F.S.A.g.p r l.+Xi.& , v J K [ X._._.X.W.!.../ / -./ ! N f Q | ",
"C F U C R =.&.U W -.6.$.~ ^./.^.4. .B X $ 9.l.$Xp.  w u.&   X X o     % 0.r   r.$Xx.u.&   v -.X.J [ _.~.X.X.| ! | _./ U z E z g ",
"&.W U $.| X.| R Y R Y | B / >.).W b ^ 7 9.#X#XXX8.  8.x.2.y t t = t y p x.0.  0 n.OX#Xr.4 M ! | -._.X.~.^.X.R W R T ! z U &.U W ",
"! ! &.' =.[ ~ R U b N / Y ^ J ~ Y  .%.u.XX4X1Xa.8   p.@XT.U.N.M.N.N.U.T.@Xf.  5 a.*X4X#Xu.o.Y Y | &...(.[ [ R ' ! R U j F &.! U ",
"=.;.Q ! T U L J U |  .^ *.&.b ~ ~ Y %.i.XX3X1X#Xf.@ f.@XT.Y.I.S.V.V.V.K.@Xx.@ r.#X1X3XXXu.@.| ..*.R R :.| / *.! -.-.| N z $.=.' ",
"&.W E @.R U R N / *. .~ / $./ $.~ U o.i.b.1X2X2X].3 j.@XT.Y.Y.Y.U.U.N.N.@Xz.3 m.2X2X2XXXr.%./.W.^.!.=.! | ^.| ! ..U ..$.U U =.$.",
"' &.! #.U Y W ! E N W W / *.V ^ ^ N V o.+.p.d.d.9 @ r.c.K.Y.V.V.V.B.C.S.c.r.@ 9 p.d.p.y.7.$.~ ^.X.-.| b T ! U U &.*.*.! R Y L ! ",
"C U W W Q N j U j C ! &.4.4.%.B b / W B k           w u.S.U.N.M.M.N.U.S.i.w o         c ^.$.b / |  .&.*.W ! Q E E ! X.| N / 6...",
"@.$.W N U N U U W W &.| ~ / *.~ Y 5.5.N d a : < 8 r 6 % - t q.s.t.1.y - % 6 9.8 < , A *.5.-./ Y  ./ H R U W W N R X.X.5.W b Y / ",
"z W N ! Q ! ! z Q W ! ! / W Y >.} >.| b N U V 2 e u.4   o o 9.9.9.9.#     4 u.e 3 A 5.5. .>.;.~  .>. .v z W Q ! ) { X.R W | N j ",
"$.W R U W $.! z #.Q E #.Y / X.X.J ~  .R / / c X O # w 9.9.9.% # # % 9.9.9.w # O O n |  .*./ 6.~ Y  . ./ R U ! ' Y } X.W ! W &.U ",
"M Z Y Y z W C U F F z #.W *.-.| ! W ' R R ! :   O & w.l.a.9.$ . . $ 9.u.l.w.* O   , &.B W $.! Y J [ Y / *.! l E #.T ! z T U $.Q ",
"M M N &.&.Q E z l f z z Q ;.| ! Q z F ! | W :   p.=X<X<Xw.o : d C V O 8.<X<X=Xl.  c ! $.E B ;.| ~ X.Y H ' G U U ;.U f l W K R U ",
"g N W / ~ B g g z E Q | / W $.-.=.W U E W M k . d.&X&X&XO.+ V E z Z + 0 %X&X&Xl.+ d E N @.N &.&.~ [ ..R E ! ' R ' =.U W R J ~ H ",
"W C N N W N N N U #.W ! Y Y $.&.| T F U U Y C N > # # # a z #.#.&.U C M # # # > V C W N Z %.W =.!.T U C E #.E W #.! | Y | ! R j ",
"W Y N $.$.N B v W z g U U W $.*.!.! C &.W | 6./ c + ; @ d E E ;.-.~ ! N ; + ; n E E W *.W ^ R [ | ' l l C E F Q U T ! ) X.| ! ! ",
"N N / 6.;./ R W U #.#.=.&.N N / *.&.! / N / ;./ / R U ! C z z Q &...(.*.%.E W =.#.W *.&.6.;.W ! R W W F ..! T U b R [ ) R T T ! ",
"^ &.! / &.$.N Y Q z Q ;./ / U / ^.6.B U Y W ~ N W l l ! T Y z f U -.^.) E U *.! #.C *.5.4.4._./ ! / (.! W.[ T U H j R ) ' h h ) ",
"R W b b b B $.$.W z g ! Y ! !  .~ R W b U &./ ^ C E z W T ! $.! N =.^.| #.U / | C C R / 6./ | ! H j ! X.[ H N l g z h Q ' W T | ",
" ./ Y U ^ N N W &.$.W V N ! ~ | ! | | =.E ! / &.z E W W W U | =.) | { >.R X.=.-.X.Y N W ! 5.W Y Y J ^.X.K U N g l ! F G Q =.! f ",
" .&.6./ ^ ^ U l B @.! ^ / Y W / =.(.=.*.E v / &.~ C ! C j H W &.&.R X.| | X...$.;.! $.$.W W Y B / *. .5.| F W W ! ' &.#.=.#.U z ",
"^ W W W Y ;.N M M z N @.W N W W W ! Q C W U W / W W W W U W #.! W W | ! / &.! ! C N / Y M x ^ b U / [ [ R U U N ! E ' Q F N ' ! ",
"~ W B W ~ ^ *.6.B W / N W W W ! &.:.$.&.Y U ^ / N N N $.E U U U U &.R ! &.U ! &.l l Y W l Z %.N Y W R U ' ! / ~ U F R U N | =.-.",
"Y N $.R W B  .;.E ^ W N N E E W :.&.! :.=.5.6.`.&.W W ~ R ) &.:.&.! | | :.| [ -./ | / N C @.$.6.W N H U !  .R Y ! T | Y b ~ W U ",
"/  ./ N v Y *.$.l W Y U N M C W ;.&.Q W  .| ~ $.~ W N ~ | W -./ ..H ! (.| ^._.[ [ &.C l x @.&.*./ / U U U ! &.U / [ 5.4.~ Y ! b ",
"/ W N v U Y b B C Y W Z V N l / $./ ^ U | 4.4.>./ 4.T  .*.~  .~ N b ~ ~ ~ 4.).~ W ! W U #.W ' | R ..-.L R T ! F W !.| `.4.W W N ",
"$.V V B $.*.Y N g B g M W @.Z W b N Y &.W &. .A 4. . .~ W R N &.W N W  .B Y ~ 6.$.U T Y ! &.j U U R ) ) R | U #.U R | `./ R N Y ",
"W M Z l N /  .^ M ~ / N V C %.W C N Y / / *.$.B  .5.*. .Y N W W @.E / W ~ N W ;.| ! ..-.~ R U N U ! N *./ T ! / #.U G ] ..' &.$.",
"%.;.Z M M Y / Y Y ~ ;.$.l C N W W B W N W / / &. .4. . .B N N Y W / $.W W $.$.&.! U Y R T | &.Y l Z ~ &.4./ *.! z z Q ` K j ! W ",
"C z s s d @.W B $.B B W W $.! W @.E N N ~ &.! (.). .6.*.W Z $.~ b N U &.! ~ ! ! ! ! W &.Y J U z l z ! :.:.U Z ! f s z #.Q z S U ",
"x x x k M C Z M W W M g $.5.~ N l l C E W 6.&.! 6.).'.6.;.Y *.[ Y / j R (.! Q R f &.| ! ! j N | #.l j K R N $.&.Z @.x a @.f U ! "
};
