/* XPM */
static char *result[] = {
/* columns rows colors chars-per-pixel */
"64 64 201 2 ",
"   c #020203",
".  c #0A0706",
"X  c #0C0C0D",
"o  c #160B08",
"O  c #061303",
"+  c #091604",
"@  c #0A1A05",
"#  c #0B1809",
"$  c #14170B",
"%  c #0E0E11",
"&  c #110F11",
"*  c #121314",
"=  c #181919",
"-  c #26150A",
";  c #231713",
":  c #0D2306",
">  c #0F2209",
",  c #102B07",
"<  c #12250A",
"1  c #132C0A",
"2  c #16370C",
"3  c #292B13",
"4  c #2B2F17",
"5  c #303E18",
"6  c #3A391E",
"7  c #1E1D22",
"8  c #1E2521",
"9  c #222427",
"0  c #352A21",
"q  c #3B3B23",
"w  c #3C3C29",
"e  c #2C2D35",
"r  c #313435",
"t  c #31313D",
"y  c #373939",
"u  c #591607",
"i  c #441E13",
"p  c #472505",
"a  c #422613",
"s  c #503C2C",
"d  c #6E362D",
"f  c #17470E",
"g  c #16520C",
"h  c #1B540D",
"j  c #165A0B",
"k  c #1C5C0D",
"l  c #1B4612",
"z  c #1D5512",
"x  c #1E5B12",
"c  c #1F531B",
"v  c #225C0E",
"b  c #244815",
"n  c #334718",
"m  c #225715",
"M  c #235D13",
"N  c #295E14",
"B  c #275A18",
"V  c #255D19",
"C  c #335018",
"Z  c #1D630D",
"A  c #1E6A0E",
"S  c #1E6312",
"D  c #1F6911",
"F  c #22630E",
"G  c #28660F",
"H  c #246A0E",
"J  c #296B0F",
"K  c #26710E",
"L  c #29710E",
"P  c #246313",
"I  c #2A6515",
"U  c #256B13",
"Y  c #2B6B15",
"T  c #266419",
"R  c #2B651A",
"E  c #256B18",
"W  c #2C6B1A",
"Q  c #316C16",
"!  c #31671C",
"~  c #326D1C",
"^  c #267113",
"/  c #2B7314",
"(  c #2E7A15",
")  c #277418",
"_  c #2D731A",
"`  c #2E791A",
"'  c #327416",
"]  c #327B16",
"[  c #387A17",
"{  c #33731C",
"}  c #39751E",
"|  c #347B1B",
" . c #3A7B1D",
".. c #355430",
"X. c #2D6521",
"o. c #2D6B21",
"O. c #336D21",
"+. c #386D25",
"@. c #357322",
"#. c #3A7423",
"$. c #357A22",
"%. c #3B7B23",
"&. c #3C7529",
"*. c #377828",
"=. c #3D7C2A",
"-. c #417D1E",
";. c #4B4523",
":. c #45462C",
">. c #55472D",
",. c #57522D",
"<. c #464838",
"1. c #5D4837",
"2. c #694C38",
"3. c #74533C",
"4. c #407525",
"5. c #417D25",
"6. c #427D2A",
"7. c #79613F",
"8. c #363642",
"9. c #3A3A45",
"0. c #3D3D4B",
"q. c #4B3E47",
"w. c #3B4A43",
"e. c #3E5342",
"r. c #45444D",
"t. c #45484A",
"y. c #584A4D",
"u. c #445549",
"i. c #545743",
"p. c #464654",
"a. c #494957",
"s. c #494959",
"d. c #4E5158",
"f. c #51525F",
"g. c #734B4A",
"h. c #6A5B5F",
"j. c #525461",
"k. c #595B67",
"l. c #5C6266",
"z. c #696D68",
"x. c #6A716B",
"c. c #696D73",
"v. c #6E7474",
"b. c #747A7B",
"n. c #767C79",
"m. c #833A24",
"M. c #A64F35",
"N. c #884D49",
"B. c #94684D",
"V. c #976A54",
"C. c #A67557",
"Z. c #A87D67",
"A. c #B67C62",
"S. c #C45E41",
"D. c #C96548",
"F. c #348115",
"G. c #36821C",
"H. c #3B831C",
"J. c #3C891D",
"K. c #388321",
"L. c #3D8123",
"P. c #41831F",
"I. c #428224",
"U. c #468A23",
"Y. c #44832B",
"T. c #49832C",
"R. c #4A8B2A",
"E. c #4A8431",
"W. c #508931",
"Q. c #7B827C",
"!. c #B98764",
"~. c #C58967",
"^. c #C4906D",
"/. c #CE936E",
"(. c #D3966F",
"). c #C39376",
"_. c #D19973",
"`. c #DC9C74",
"'. c #E0A27A",
"]. c #767B81",
"[. c #797F83",
"{. c #7D8386",
"}. c #808789",
"|. c #848C8C",
" X c #888C9C",
".X c #889090",
"XX c #959A9B",
"oX c #9EA4B1",
"OX c #A3A9AF",
"+X c #D19E80",
"@X c #D5A683",
"#X c #DFB48C",
"$X c #E8B38B",
"%X c #E4B791",
"&X c #EDBA92",
"*X c #BEC2C2",
"=X c #C8CACD",
"-X c #C1CADA",
";X c #DADADA",
":X c #E3E7EF",
">X c white",
/* pixels */
"' Y / A ( ^ ^ K ` G.L ( { Y ( F E | F.] K.F.` U / | G.K ` G.` Y U / _ ` / ( H.K.( ) ` ^ J.F.J.J.( A ^ ) | K.G.J./ K.K.] | ^ ^ E ",
"( ' ] ( K ] ( K / ) ^ ] ] L U P E ^ ] ] ^ D ( ( ' H ( A ) ] | _ A P U _  .H.] ( ^ ^ ` G.( F.H.] J.( ) D S ) ( F.J.J.] G.] ^ U j ",
"] / H ` ( ] ( / ` $.( L J Y F Z / U Z ` ( ^ ^ Y ] ' ` D Z Z U ) U E ` H F.] ] H.F.( ^ ^ ^ ( ] ) ^ ` F.^ ^ ` G.( K ] G.] U U U U ",
"[ K U E H J L ' | _ U  .L ' ` { / E ) ^ ^ ^ A { { _ U _ _ U Y E D E ` | ] / K ( F.A ^ D ) ` D U ) ^ ) ` ^ ( K ` / D H A ^ _ ^ ^ ",
" .H E k j U { | U k T _ H ( / J U U _ ^ ( ^ F / _ U Y @._ P P _ U j A _ H ` ^ H ( K U $.U A ) ) ` D D E _ D ) ( K / ] ] | E ^ ) ",
"| E E E P P | / / S S U ] Y ] J Z U Z ^ _ K.{ U W / Y Y F H D U S U Z D U ` | / ( U S $.H H Y ^ A ^ ) S _ ` ) D ( | | | ] A Z Z ",
"U U P _ U E | / ] Y k E Y I L / / @.D / ` ` E _ | | _ Y S W U Z U ` E ) ) ^ ) U ] D ) ` ) k U _ K / K.S j E ` j H / L ] G.H ) U ",
"Y H ` ' P Z U ] ] ( _ P S W | / ` E D ^ ( ` _ / E P U P _ Y { U D E ` E U ` / A A E S A U / U E ( K | S S S S S H ( ( ] U.( D E ",
"Z S _ E U E H ` [ / P x j j P | Y $._ U Z U P E / W $.@.W U U Z E E U / _ ` S P H $.E U _  ._ A L K ] ( Z j P _ U ^ / L ( ^ U D ",
"D j E S E $.Y S Y W M W E k k W I ' Y _ | E Y P P x _ W P Z G L.U W { ( _ Y S S Z / S k ` / Y / | { H ` Z j Z | ( L / / P E U D ",
"U S E S k P P Y E Y { U F Z P Y Y { ( { ` E | Y P H F Y P W Y ( Y H U / Y S E E H Z U U U Y E Z P U E Y _ { U Z U ] K.` U ) E S ",
"$.P x x P E P U U G F P k I Y U Y U Z k / x Y P Y { U Y ' %. .U ' ' W E x S x T _ j k _ / _ / Y P / _ U Y { { Y F Y Y / U U H E ",
"E P k k P W P P P / P F Y { { W 5.Y U / _ U W Y F Y Y Y ~ <.e.e.<.e.e.w...*.E S Z F H } Y U Y { Y ( Y Z Y Y | ' P P P Y H Z F P ",
"Z k W P I P P { } { Y { | { ' Y } %.{ H P *.$.{ Y k P { Q t.d.d.s.d.s.s.e.*.| { W | ] / U E W { U H Y ( I.%. .{ { R E Y Y Y Y T ",
"P W W Y Y P Y P G Y U ' _ Y Y P U U Y U _ $.Y / G n n n ..x.].].{.].].{.c...n n C P U G U v P E P P { ` { ' v U } Y F W P Y P S ",
"x k P W } Y P k k W Y Y Y P h P G ~ ' U P U _ F N n 6 6 :.Q..X.X.X.X.X.X{.n a q 5 f k I R Y { ( Y | E _ Y G / H P M P F R h k A ",
"P Y ' P F { @.Y W Y F H Y W T E M F ' G h H Q C 6 <.t.x.n.|..X.X|..X.X.X|.n.z.r.r # 2 Y _ U ' ( / U U U U P W Y Y R F v k P U H ",
"v Y | } W {  .' I.Y k P W E x M P Y Y G P h h 5 q r.f.[..X.X.X.X.X.X.X.X.X.X[.f.8.. > Z ^ / ' / ` U E _ P T _ Y P S v / F Z P ( ",
"k P Q { I G Q / U v Y { / Y I W W L.=.U Y 1 # y p.p.f.[..X.X.X.X.X.X.X.X.X.X].s.w.4 b Y ( ( ] H / Y @.E S P P Y P x P P ' / Z K ",
"k U P v U Y { Y T E R U P U Y P W W Y G P $   8.s.s.s.].|..X.X.X.X.X.X.X|.|.].s.r.q n k U H Y Y U P E P P I U Q ] W P Y %.H.L Y ",
"W x E Y U U #.T P x x P F U Y P F I | Y P @   8.s.s.s.j.k.|..X.X.X.X.X.X{.k.f.s.p.r.r + 2 H W F Z _ U U Y P U | U P W P P.J H.L.",
"P x R P N Y ~ P v U P M F ' | W k P } ~ I +   8.s.a.p.p.s.].|.{.}.}.}.}.].s.s.s.a.a.t   < ' / Y P Z F _ Y G ( } P M { %. . .} $.",
"P P x x W { U I I  .~ M W ' W { W Y I 2 O     8.a.a.a.s.s.f.j.j.j.j.j.j.s.s.a.s.a.a.t   : P / Y U E Y {  .$.Y F E T I Y U  .%.$.",
"P T V P W Q Y U @.} R x P W U Y I W F :   X = 9.r.p.p.p.s.a.s.a.s.a.a.a.s.s.s.a.s.a.t   : x ' G P } Y Y Y E x S T T I Y { { _ ~ ",
"W M z E h P @.W { I N x W _ Z Y Y Y Y :   f.n.<.6 6 q t.s.a.a.a.p.a.s.a.s.s.p.s.s.a.t   : Y _ Z P { | Y U T W P W T W { W $.=.' ",
"@.P x P R M E W U #.O.T U { P P Y { } 1 # l.{.i.:.:.:.t.r.r.r.r.p.a.a.a.s.s.p.s.p.0.e O , Y | { { ~ U Y %.$.O.I E =.Y Y Y P %.%.",
"~ $.P P E V M P I.5.V c P } Y U Y I Y v B t.j.].}.}.Q.<.6 6 6 6 w p.a.a.s.s.s.s.8.. < v P / { $./ U Y { | W W / Y @.Y U P x Y  .",
"x @.h N N P T x O.W Y O.Q P I G $.Y W { O...q.c.}.{.].n 3 q q q w 8.9.9.9.9.9.9.e   1 J./ F P } { Q '  .@.U U Q { P T x ~ { Y Y ",
"P x T N N h I +.O.W { #.{ $.I F F I W W J 1 o 9.s.f.p.& . 9.p.p.9.% X       . .     : / ^ W { W W 5.R. .Y P Y U Y I o.T P v F P ",
"E P ~ R I M O.+.@.{ Y Y Y W ~  .J I ! P N 3 ; q.h.h.h.* . y.h.h.y.* # 0 0 0 ;       : H / { @.L.{ Y @.$.Y '  . .J | { x x F W P ",
"z { { @.~ ! ~ R ~ W P F I Y I.R.[ G } R v >.2.A././.A.; X C._._.!.s >._.@X/.V..     : H ( %.} { P ` { E.I.I.U.[ ' ' %.~ W P U F ",
"x Y P R N Y @.%.I Y W { { P Y | I.5.~ 6.! >.2.C.~.`._.1.s ^.'.`.!.;.,.%X&X`.C.X   O 2 E H Y { Y { %.}  . .{ I.[ ' G W { *.~ %.{ ",
"P @.P I ~ W Q W $.%.{ W Q v } U.-.-.N 4.5.! B 2.N.@X&X%X%X&X&X`.!.;.,.%X&X`.C.. + v Y { / / Y M $. .Y.{ | } %. .U  .{ { W k W _ ",
"x T W P P R I M ~ @.Y I ~ ~ -.5.6.4.G ! ~ } Y ,.g.!.+X#X$X$X$X`.!.3.7.!.).C.3.< b  .' / ] Q F {  .R.R. .H.5. .~ ~ %._ W M h T { ",
"x S P M W =.$.N T 5.5.O.! I.U.U.4.~ Q ~ ~ } } Q ~ 2.N.^.`.`.`.`.`.(.~.N.d . > ! { Y W _ | Y  .H.G ' R.P. . .{ W { T.| M x R x k ",
"@.W P O.' | | Y I I P ~ N } -.T.Q v } } Q I Y R N s d V.!.Z.Z.V.B.B.B.2.q.7 4 } W W m M v M Q } %.R. .P.L. .Y W U U W v P o.P W ",
"W W O.@.%.' U Y P v N ~ N I Y I N +.} ! W O.T I N p u q.s.f.q.%     * 0.a.p.u.#.{ ~ #.W ~ P Y P { @.$.I./ { Y ~ W U P k x @.Y E ",
"*.*.E W U G I G P { #.R #.#.v Q Q Q R 6.+.+.O.T ! p u g.g.t e t r t t e 8.p.w.l B W k W T./ { { %.Y Y =.| ~ $.W %.%.} x x @.#.W ",
"O.E T R W P W m W #.} I O.+.! O.I P ! +.I N h ! Q p u S.D.- * b.|..Xv.% % p.8.  : ~ M P @.{ U.-.P.%.%.~ } I.{ W $.P $.~ P P $.~ ",
"@.@.W o.P P Y W T N R Q Q 4.m ! ! v B I N P Y } 4.p u S.D.- & n..X.Xv.% % q.8.. : I _ @.*.{ / I. .%._ k P Y P P { @.%.W Y I H W ",
"M P E R T x k P h m O.O.4.6.+.B N ! R B N U / U v p u S.S.- & n..X.Xv.% % w.8.  > #.~ Q 5.~ v ~ { } #.@.W W R T R W  .{ M W 5.| ",
"X.+.R N P M P P E W @.{ Q ! #.Q G 5.5.N z h G Q v - p M.M.o * oX*X*XXX* % p.8.. # O.I.5.5.5.~ I ~ Q G Q M E W v Y  . .5.R N I ~ ",
"x T T W R _ W x R Y E o.~ Y I -.[  .Q v M M W I v + . d m.o ; ;X>X>X=X= % p.9.  $ +.5.%. .5.#.Q 5.-.~ v x W E W ' ]  .Y W @.M x ",
"W R I I E O.W x o.E E o.I !  . .Q Q } Y { O.W P N l 3 a i . 9 =X:X>XOX= . 9 9 1 l &.{ #.#.! 6.! Q Q } ~ I P W o.P  . .I W Y ~ P ",
"m T I P x E M P S x x X.R #.%.{ R Y { W W R z z o.&.O.#     7 OX-X-XoX*     O P 5.#.O.I T O.W I I Q Y ~ *.W x P O.P W M E M @.E ",
"m m m { O.R E M x g x S E &.{ W E x S E { I m z o.&.O.+   7 e j.l.l.d.e 7   + z @.%.W O.V N *._ Y  .I P _ F P P *.P g z R Z U P ",
"h m R ! ! N z h x T W W ~ R O.%.*.Y P P E c T m T #.X.O X 0.0.X     X p.8.. + I @.W V M O.m +.} Y ' | Y T E Y Y _ $.T R Y G Q G ",
"R T P N I z M N P o.R W Y I o.} { P P P P R N P I o.R O % ]. Xb.c.d.t.9 8 2 f E W P R M B O.W *.=.U P N X.o.T W o.W { P { Y Y k ",
"R P P ~ O.N N x R x h P N T +.%.L.W M @.W W T.! Q ! P + * oX-X-X*XXXv.% + T W $.T P R #.R O.I | | W z z T T S E P U Y /  .{ W o.",
"m N } 6.#.W I R E W o.%.@.x M ~ } #.o.~ P O.#.W { W v l b t.d.d.s.y y b b R W =.o.R *.#.6.#.I Y I W W P { Y U P v Y ' / Y U U W ",
"R O.R Q @.#.N I V x E *.{ ~ N { Y.=.N P I I ! B T z h W v O         + I E M #.W o.V #.4.4.4.T.{ Y ~ =.W L.' U P F k Y / E j k / ",
"! I v N h N o.O.R P g W P ! W { Y I I v P @.~ ! V R x W G l l l 2 l N W @.P W { M V W Q 6.~ { W N k _  .' F x x h x j E O.Y P ` ",
"@.~ I N I N N I #.X.R B N W ! { ~ / } #.T W ! #.m T R T Y P { %.( { ]  .Y  .%.5.@.I N R ! 5.I I I G I. .F P M h x E S U ) $.E z ",
"} } =.~ ~ X.T z N O.X.R W I Y ! *.Y.%.$.T M ~ +.W N R V k F Y @.*.Y } } | @.{ ~ &.~ +.O.R T R N { } %.%.{ Z R I W O.@.E $.o.P k ",
"! ~ R I N &.N m M z N X.R N T R R E R P T I Q R T I T R P R o.o.R R { Y W @.W W m B { P m z R v P ~ ~ ' Y P P N W T _ E x P _ Y ",
"W T N R Q ~ #.&.N R W N T ! T W @.=.@.O.P P Q ! N B I O.T P P P P @.Y { $.P W $.z z P R c V +.N I I Y P ` W ~ ! P S W P P ~ $.%.",
"I M } I I I #.#.T ! ! M x V T R =.O.E L.%.=.6.E.} W I ~ Y W } =.@.Y @.{ =.' |  .~ } W M V X.O.6.R x P P W } R I W U { P v Q R P ",
"! } ! N v I #.! z I N P P m V R *.#.R W } { I #.R R M ! { U %.{ } F Y Y.| 5.R.Q Y @.V z c X.O.%.~ { P P P W @.I ~ ' 5.4.! G ! M ",
"~ R M m N N m N m N T B m B z ~ O.~ W P { 4.4.4.! 5.I } } Y ~ ~ P h Y ~ Q 5.T.Q W W W P o.R W { U  . .H U U E P W %.{ E.#.R I P ",
"O.N m N +.#.Q B h I m M R O.B T z M I @.I #.~ ! 4.} { ' ! I N @.T N R } N I ! 6.O.P I P W $.v P P Y { / Y { P o.P Y { E.} I M I ",
"R m X.z m Q } I m Q Q N B V +.R m N T W ~ #.O.N ~ 5.#.} T N T R X.T ! R I N R #.$.Y } %.' Y P N P W M #.~ Y W W O.T D ` ' W @.{ ",
"+.+.B c m I ~ I I R #.+.m m V R R N R N I ~ ~ @.-.4.} #.T m N I N ~ @.T R O.O.@.W F P Y I ~ { T m N R #.&.~ *.Y x x D ) P A Y R ",
"V V f f z X.R N +.N N R T +.I R o.T M N ! @.W Y.T.#.5.#.! N +.Y N M I $.~ Y W ~ W W Y @.U P P P x z W %.%.I N W g g x o.T x S P ",
"c c z f m B V z R I m h O.5.Y N z z V N W =.@.W 6.T.W.6.#.P #.~ Y Q k U Y.W R E g O.@.W W v h @.o.h Z U U N O.+.V X.c f X.h T E "
};
