/* XPM */
static char *result[] = {
/* columns rows colors chars-per-pixel */
"64 64 211 2 ",
"   c #020202",
".  c #080906",
"X  c #0A0A0A",
"o  c #140C08",
"O  c #051202",
"+  c #0A1C05",
"@  c #0E1C0B",
"#  c #15160A",
"$  c #0D0D10",
"%  c #181617",
"&  c #15151A",
"*  c #171818",
"=  c #30130C",
"-  c #0E2707",
";  c #15250A",
":  c #122C09",
">  c #19320E",
",  c #16380B",
"<  c #1B241C",
"1  c #193313",
"2  c #39350D",
"3  c #363B16",
"4  c #373619",
"5  c #39391B",
"6  c #1E1E24",
"7  c #1F2020",
"8  c #232325",
"9  c #242429",
"0  c #272B2B",
"q  c #31372A",
"w  c #3E3E2E",
"e  c #2C2D33",
"r  c #313332",
"t  c #3F3F34",
"y  c #31313B",
"u  c #511101",
"i  c #482116",
"p  c #51271B",
"a  c #4C3C2A",
"s  c #593536",
"d  c #693632",
"f  c #14460C",
"g  c #174B0D",
"h  c #1C4C0D",
"j  c #16520C",
"k  c #1B540D",
"l  c #165A0B",
"z  c #1C5C0D",
"x  c #1B4812",
"c  c #1D5512",
"v  c #1E5B12",
"b  c #1F531B",
"n  c #22570F",
"m  c #215C0E",
"M  c #244B17",
"N  c #334818",
"B  c #235515",
"V  c #235D13",
"C  c #295D14",
"Z  c #295518",
"A  c #255D19",
"S  c #2B5E1C",
"D  c #325019",
"F  c #1D630D",
"G  c #1E6A0E",
"H  c #1E6311",
"J  c #1F6911",
"K  c #22630E",
"L  c #28640F",
"P  c #246B0E",
"I  c #296B0F",
"U  c #26710E",
"Y  c #29710E",
"T  c #246313",
"R  c #2A6415",
"E  c #256B13",
"W  c #2B6B15",
"Q  c #266419",
"!  c #2B651A",
"~  c #256B18",
"^  c #2C6B1A",
"/  c #316C16",
"(  c #34661A",
")  c #326D1C",
"_  c #267113",
"`  c #2C7314",
"'  c #2E7915",
"]  c #277418",
"[  c #2D721A",
"{  c #2E791A",
"}  c #327416",
"|  c #327B16",
" . c #387A17",
".. c #33731C",
"X. c #39751E",
"o. c #347A1B",
"O. c #3A7B1D",
"+. c #3B4425",
"@. c #2F592D",
"#. c #395728",
"$. c #3C4536",
"%. c #2D6521",
"&. c #2D6B21",
"*. c #336D21",
"=. c #396D26",
"-. c #357322",
";. c #3A7423",
":. c #357A22",
">. c #3B7B23",
",. c #3C7529",
"<. c #3D7B2A",
"1. c #44450F",
"2. c #494B14",
"3. c #417D1E",
"4. c #494525",
"5. c #5B4D2B",
"6. c #59552D",
"7. c #464636",
"8. c #595935",
"9. c #6C463A",
"0. c #6E5439",
"q. c #407525",
"w. c #427D25",
"e. c #427D2A",
"r. c #5A7230",
"t. c #3A3B45",
"y. c #3A3B47",
"u. c #463F49",
"i. c #3D4543",
"p. c #434345",
"a. c #42424D",
"s. c #424B4E",
"d. c #494C4A",
"f. c #445648",
"g. c #555847",
"h. c #454655",
"j. c #464D50",
"k. c #494856",
"l. c #484958",
"z. c #524D5A",
"x. c #4E5556",
"c. c #52525D",
"v. c #744E49",
"b. c #565765",
"n. c #575A64",
"m. c #5B5E69",
"M. c #636867",
"N. c #6B7064",
"B. c #656871",
"V. c #696D74",
"C. c #6D7278",
"Z. c #747A7A",
"A. c #823924",
"S. c #97432B",
"D. c #A2472D",
"F. c #855649",
"G. c #8F564C",
"H. c #BE5C40",
"J. c #95664D",
"K. c #986851",
"L. c #A77458",
"P. c #AC7A5A",
"I. c #B17E5F",
"U. c #A97D64",
"Y. c #B87D64",
"T. c #DD6F4F",
"R. c #D96E50",
"E. c #348115",
"W. c #36821C",
"Q. c #3B831C",
"!. c #3C891D",
"~. c #388321",
"^. c #3D8123",
"/. c #41831F",
"(. c #428224",
"). c #468A23",
"_. c #44832B",
"`. c #49832C",
"'. c #4A8B2A",
"]. c #4A8431",
"[. c #508931",
"{. c #9F8164",
"}. c #B6856A",
"|. c #BB8769",
" X c #B68F70",
".X c #CD9169",
"XX c #C99876",
"oX c #D69670",
"OX c #DC9D74",
"+X c #DEA179",
"@X c #E0A178",
"#X c #777C85",
"$X c #7C8384",
"%X c #7F858C",
"&X c #818585",
"*X c #858C8D",
"=X c #879090",
"-X c #889090",
";X c #9398A8",
":X c #A2A5A8",
">X c #B7BABA",
",X c #D8AB87",
"<X c #E8B590",
"1X c #EDBA92",
"2X c #F1BD95",
"3X c #ACB3C1",
"4X c #BCC3D3",
"5X c #C5CBD8",
"6X c #E3E5E9",
"7X c #E5E8F0",
"8X c white",
/* pixels */
"} W _ P ' _ _ U { o._ | ..W } F _ o.o.' W.W.{ E ` o.W.U { W.{ W P _ E o.` } Q.~.' ] { ] W.E.!.!._ G _ ] { ~.o.~.' ~.~.o.{ _ _ E ",
"' } { ' U | E.U ' ] _ } | Y W K ^ _ E.{ _ G ' ' } P ] G ] o...{ K ~ ~ { o.!.| [ E U W.W.' E.Q.E.!.E.] J ~ _ ' E.!.!.| W.| _ E z ",
"| ` U { ' } ' Y ' ~.[ Y I I E F [ E G | ' _ _ W o.} { G F F E ] E ] [ E E.E.E.Q.E.' _ _ U [ | ] ] { E._ _ ' E.' Y | W.E.E _ E E ",
" .Y P ~ P Y Y [ o.^ P W.` } { [ ` E E E _ _ K o...{ E ..[ E W E J E { o.| Y U ' E.G ] J ] { G E _ _ { ] _ ' _ { ' G P F [ _ E ] ",
"O.P E v l E ..o.E z T [ P ' [ I P E ] ] ' _ K ` W E W ..[ K P [ E l E ] P { ` G ' U E :.E G _ E { J J ~ [ J ] { Y ] | | o._ E ] ",
"..~ ~ ~ T T o.` ` H H ~ } I | Y F ~ G E ] ~...R .._ W ^ K E H ~ H J F J E { o.[ ' J J :.P E _ ` F ] ] F [ { ] J [ | o.o.| F G G ",
"E E T [ E ~ { ` o.E z ~ [ W I Y ` -.P ] o.{ ~ ` o.o.[ W T W ~ F ~ { E ] _ E _ P { E [ [ _ z ~ ] U ' ~.H l ] [ l P Y Y | W.U ~ ~ ",
"} K { [ E F W | | } [ H H ^ ..} { ~ H _ ' { { W W H ~ T ^ ` ..E J ~ :._ E o.] J J E J G U [ ~ E ' U { H H H H H U | | | )._ J E ",
"G H [ E E E P ..E.` T H l z T ..W :.` E G E T ~ W W :.-.^ T T G ~ ^ E _ ..[ H T E W.~ H { O.[ E Y P | [ G z T _ E U Y ' ' _ E ~ ",
"H l ~ H [ :.E G W / V ~ ~ z z W R } ^ [ o.~ W R E T ^ ^ T F I ^.~ W ' [ ` ~ H F F [ T F ..` W _ o.| P ' H l F o.] ` Y [ K E J H ",
"~ H ~ H z H T W E W ..E K F T / W ..{ ..{ ~ o.~ T P K W ~ W I } I I W _ ~ F Q ~ P F T ~ E _ _ z K ~ ~ ^ ^ ..T K E ..Q.o.E ] ~ J ",
":.T v v A ~ T ~ W T T T z L W E W W F z W F ^ K ^ ..E W } O.O.I } ` [ E H H T T ` l l [ [ [ W W E ` [ E W ..o.W K ` W _ E E E E ",
"E T z z T ! W T R W E K W ....[ w.^ P _ [ E ^ ^ K W R ! ) ! *.;.X.X.*.V Q :.~ T K P P o.^ E W } W ' W K E W o.} T T T W K F K V ",
"G z ! T R T T ) O...W } ......W X.>...P G >.:...W F Q f.j.i.h.s.j.s.@.~ ~ :.o.` ~ o.} } E ^ [ ..E P ` ` (.w.O.../ ( ~ ^ [ W [ T ",
"T ^ ) W W T W T K W W [ ^ W W T E E W P ^ :.W ^ C R S x.b.b.n.n.b.b.f.C B R m K Q T I P P K Q ~ ~ H ..[ ..} m E ;.W K ~ T W T F ",
"v z T ^ X.W T z z ^ W W W T l T K ..} R T W ..N 3 3 4.Z.*X*X*X*X*X*XN.3 3 3 Z I V j V R R R ..` E o.^ [ ` K W I E v T K ! z k G ",
"T W / T T ..o.W ^ W K L W ^ Q ~ V K } K z n h +.w 7.g.$X-X-X=X=X=X=XC.8.7.w N Z ! &.[ [ ` W } } W E E E ~ L ^ W E ~ m K z T T G ",
"z W O.o.^ ..X.} (.W F T [ T v V T W / E T + . y c.#X*X=X-X-X=X=X=X=X=X*XV.h.$.3 S ] ] P E ] | ` | E ^ [ H Q [ W T V F / K K P [ ",
"l T W ..W T / } E m W ..[ W T ^ ^ >.>.W ) 1 # t.c.#X=X=X-X-X-X=X=X=X-X-XC.k.i.w N f T _ ' ' | P W _ [ ~ H Q R W K v K T } W P P ",
"m W R m E / ^ W ~ Q ! E T E W T ^ [ W T R N 5 p.z.$X=X=X-X-X-X-X=X=X-X-XC.k.l.k.6   f P ] P _ W E T ~ Q T R P W o...T W ^.Q.Y ` ",
"~ v Q W I R -.Q T v v T L E ^ T K E ..h , q $.a.l.B.#X*X-X-X-X-X-X-X&XC.m.l.l.l.6   h ` ` I [ z F [ ~ E E I W o.E T W ! O.Y /.^.",
"T V ~ T T W ..T m E T V K ` o.^ T R ..>   y k.k.l.l.z.%X-X-X-X-X=X-XZ.l.l.l.l.h.6   M ` ` [ } W ~ K K ..^ K } o.T V ..O.O.O...;.",
"T T v v ^ o.E R T X.*.v W ..W ..R W R >   y k.l.l.l.l.B.V.V.V.V.V.V.m.k.l.h.l.k.6   ; , B W ` W T W W } O.o.W T Q ~ ! W E o.>.:.",
"T Q A T ! / E R ;.o.( c T ` E ^ R ^ T :   y l.k.l.l.l.l.l.l.l.l.l.l.l.k.l.k.l.k.6       h V ` L T ..^ E ^ ~ m v Q Q R W ....[ ..",
") V c ~ z T *.^ / W C c ~ ..F W W W W :   y k.h.l.l.l.h.k.l.l.l.l.l.h.k.a.t t t d.d.*   B W ^ K T ..o.W T Q ^ T ~ %.^ ..^ :.>...",
"-.T v ! ~ V ~ ) E ;.*.Q W ..T L W ..X.:   y k.h.l.k.l.l.h.k.k.h.k.k.k.k.7.5 5 5 M.*Xr   h W o...../ W E :.-...W ~ <.W W W V >.^.",
"[ ;.T T ! Q T T (.e.S b R ..^ W W W W h x < 6 y.l.h.l.l.k.k.a.t t w w w g.N.N.N.B.M.#.h L ` ..>.^ ~ W  .:.^ W ^ W ..^ W T v W O.",
"V ) z V A V T B -.^ T -./ T E m ;.^ W .. .;   y h.h.h.h.h.k.p.q 5 5 4 4 g.*X=X=Xm.h.=.!.` K T o...W } o.:.W W W ..T T v ^ ..W W ",
"T v A Q C k R -.^ ^ ) >...;.R K K W ^ ^ I :   $ & & * & & & 6 t p.p.0 # r b.m.b.y % Z ' W [ ..) / (.'.>.W T W W W R &.Q T m T T ",
"Q T ) ! R m *.=.-...W ~ ^ W ..O.I T ^ C R ;       X X X X   % d.z.c.y   9 z.z.z.8   h I _ [ ..e...W ;.o.W } O.O.I o...v V K W T ",
"v ) ..-.) ) ) ! ) / T T E W >.'. .L X.! k +     o F.P. X{.5 a }.|.|.v.  a }.}.}.F.s D E ..O.o...L ....].(.(.). .}  .>.) ~ T R K ",
"v W T ^ C W -.;.R ~ / ....R W  .(.w.) e.) -     o P.+X1X,X4.5..XOX+XK.# v.OXoX.XJ.9.#._ E ` } ^ [ >...:.O...(. .` L ^ o.,.&.>.} ",
"Q -.T W / ^ / ~ ..>...^ / m X.w.3.3.n q.w.S f O o P.@X2X+X4.5..X+X<X,X,X,X1X}.F.0./ W .._ } ^ v o.>._... ...w.O.E O.....W z ~ ..",
"z Q ^ V R ^ R C *.;.W T )  .3.(.e.w.R / ( O.! - # J..X,XXX6.0..X+X1X1X1X<X,XU.9.r.Q.} `  .` L } O.'.'.O.Q.w.O.^ / >.[ ^ V k Q ..",
"v T Q v ^ >.;.V Q >.e.*.( (.).(.q.) ) X.) X.X.L n ; 7 9.J.}..XoXOXOXOX+XY.G.8.=.=.W ) ^ ..W O.O.L } './.O.O...^ .._.o.T v Q v l ",
"-.~ T -.) o.o.W R W R ) C ..3.`./ C ) X./ R ^ ^ V # % s v.L.P.P.I.|.|.|.K.d 6.X.^ ~ v V V V W O.>.).O.).(.O.^ ~ ^ E ^ B T *.R ^ ",
"^ &.-.[ >.} W W T k R / R ! R / C ) ;.) ! *.! Q S i.h.k.p.% o o 7 k.c.b.s u 2.>.o.^ ,.) ^ T W T ..-.:.(.` ..W ..^ W T c v ..^ Q ",
",.-.! ~ R K P T R ..;.! ;.;.m / / R ( q.*.=.*.h M s.k.t.y 9 8 6 0 t.a.v.d u 1.^ O.^ z ~ '.} ) ..>.W W <.>./ ;.W >.^...H V -.:.^ ",
"*.~ ! ~ ~ W W B &.;.X./ ) *.( ) R R ) ;.! R g + X y.u.$ * Z.*X*Xm.. p R.S.u 1.>.X...v Q -...)./.(.>.>./ o.w...~ o.T ;.^ T K ;.[ ",
"-.-.^ *.T R W ^ Q C ! R ) q.A S ! B C C V T T @ X y.y.X * $X-X-XM.  p T.D.u 2 [ >.~ ..:.;.) ` (.O.>.[ z T W T Q ..;.>.) W R E ^ ",
"V T ! ! Q v v T k A *.-.q.q.=.S C ) S V S R I + X y.y.$ & #X-X-XM.  p T.D.u 2 W O.;.} / w.) B / .. .;.X.^ ^ ! Q %.^ ;...B / e.o.",
"%.=.! V T T T T ~ ! -.) / ( ;./ R w.w.C n z m +   y.y.$ 8 :X>X>X&X  i H.A.= 2 (./ ..w.w.w.>.) R =.} m / V ! ~ K W o.O.w.W m ! ^ ",
"v Q T ^ T ^ ^ v ~ ~ ~ ^ ..! R 3. .O.X.m V T R + X y.y.X 0 6X8X8X>XX = S.p   ,  .*.,.w.w.O.w.;.) ;.3.) m V ~ ~ ^ W  .O.W W -.T V ",
"&.! R R ~ *.[ v &.^ Q &.R / O.O.I / ..W ..*.! , 1 9 9   0 5X6X7X:XX o i 2 - h E ) e...X.;.( w.) / ) q.) R T ^ &.E  .O.W ^ ~ ..V ",
"B Q R T V Q T T T H v %.! ;.w.) ^ ~ ..W W ! c c S @     6 3X4X5X-XX     1 ..R W >.,.*.R R *.^ R L } R / :.^ c Q ^ ~ ^ z Q T -.Q ",
"B B B ..*.! Q V c j v H Q ;...^ ~ v v ^ ..R A c S @   9 y n.n.n.h.e 6   : ~ T V ;.>.^ &.S V <.^ / O.R T [ K T T ,.Q j c ! K W L ",
"k B ! ) / T c k v Q ~ ) ..Q *.>.>.W H Q ~ c Q B B + X y.y.X     & l.t.  : ^ T W ) ^ Q A %.A -.o.` ..o.W Q ^ ^ W [ :.Q ! / L ` K ",
"! Q T C ! B B T T &.! ^ W ! &.o.-.T Q T T ! C T V M x < 9 x.n.#X%X;Xb.  : ! ~ ^ ! T ! V S *.! ;.>.R T T Q &.! ^ &.~ -.T ..W W z ",
"Q R T ) -.V C z ! c l T T R ;.:.>.^ V ..~ *.].( / ^ C O % Z.;X4X4X4X#X  > ! ~ :.Q Q W ;.R *.W ..o.) c k A H Q T ~ E W } O...W &.",
"B T ) e.,.( R ! Q ..&.>.*.B B ) ;.;.*...V ) ;.! -.^ V c x 0 r t i.i.$.Z %.! ^ <.&.! ;.=.e.,.R W R ! ~ H ..W ~ T m W ` ` W ~ E ^ ",
"^ -.( / -.*.V R Q v ~ ,.) ) T .._.<.V C R R ) C ! c k ^ m O         > W Q v :.) %.A ;.>.q.q.`...^ ) _.^ Q. .~ T K z W [ ~ l l ` ",
"! R B T m R *.*.Q v k ^ T ^ ) ..W W R m T ;.) ! Q Q B ~ T n Z Z x S ) ..-.T ^ ..Q V ^ ) e.) -./ T z ) O.} K v c k v l E ..W E ..",
"X./ R C R C V ! ;.&.Q Z C ^ / ..^ ..o.>.Q ( ) ;.c Q ! T ~ R ^ >.W ..| O.W O.>.>.;.T V ! ) w.R V R L (.O.K T V k c ~ F ~ ] :.^ k ",
"..;.e.) &.( C z C %.*.! *.R ! ^ :._.>.-.Q z *.;.) C &.A z K W -.;.W O.....:.....,.^ =.=.! Q C R ) X.>.>.{ T ^ C ^ [ :.[ -.&.H v ",
") ^ ! R V ;.C B B v V *.! C ! ! Q ^ ! V Q Q R ! Q T Q ! T ^ *.&.! ~ o./ ) ;.^ ^ A V ..T B c ! m R ^ ..} W K C V ! Q [ Q v V [ ^ ",
"( Q A ! ) ) ,.,.V ! ^ C ! ! Q ^ -.<.-.-.T T ^ ( C C C *.Q V T T T -.^ ^ :.m ^ -.B c T R b A =.V R R W T [ ^ ..) T T ~ T T ..:.>.",
"R C ) / R R X.=.Q ( ^ V v Q Q ! <.-.~ <.>.>.e.].;.^ R ) W W ;.<.-.^ -...>.....O./ -.) B A &.=.e.! v T T ^ X.! R ^ E X.R m / ~ T ",
") ;.) m n R q.*.B R C R V B A ! ;.,.Q ^ X.../ ;.^ ! B ) ..~ >.....K / _...(.'.} ` ;.A c b Q -.;...) T T T W ;.T / } w.q.( R ^ B ",
") Q B V R C C V B Q ! A A B c ) *.) ^ T o.q.q.q.( >.R ..X./ ..) C m W ) / >.`.) R ^ ! T *.Q ^ ..E O.O.P E E ^ H ~ ^.;.e.;.! ! T ",
"*.C B V =.;.R V k T n B %.( S Q n V Q -.! =.( / q.X.X./ W R V -.Q C ! X.C R ( w.*.T ~ R ^ ;.H T T W ..` W ..T &.Q W ..`.X.R V R ",
"! B %.k C ) ) R V R ( V B A *.Q B T Q / ) ;.) C ) w.;.X.Q V ! ( ( Q ) ! ! V ! ,.o.^ ..>.` W ! V T ^ B >.^ W ^ -.[ T ~ [ } ^ -...",
"=.=.A b B Q X.R R ) ;.*.B A C ! ! C ! C R ) ) ;.3.q. .=.C B R V Q ^ =.Q ! ) *.-.^ K R W R ..) T B A ^ X.,.) ;.~ v c ~ ] E F ^ ! ",
"A A f g k ! ! ! =.C R ! A ;.) ! %.Q A C ) -.^ _.`.;.e.;.! Q =./ V m T -.) W / &.^ ^ ~ ;.W T T T c c ^ ;.>.R C ^ j g H &.Q z H H ",
"c b b x M S Q h ! R B k *.w.W B c c Q V ! <.-.^ e.`.[.e.;.R ;.) W / m ~ _.[ Q W j -.-.^ R m V ..&.k F E W C *.-.A %.b f %.c T ~ "
};
