/* XPM */
static char *result[] = {
/* columns rows colors chars-per-pixel */
"64 64 204 2 ",
"   c #010101",
".  c #040B01",
"X  c #0B0B05",
"o  c #070709",
"O  c #0A090B",
"+  c #110D0A",
"@  c #091704",
"#  c #111107",
"$  c #15130B",
"%  c #1B1B0C",
"&  c #0D0D11",
"*  c #181913",
"=  c #1C1C14",
"-  c #15151A",
";  c #1A1B1C",
":  c #251D16",
">  c #0D2407",
",  c #15250A",
"<  c #13350C",
"1  c #153D0A",
"2  c #1A3D0C",
"3  c #18251A",
"4  c #193A11",
"5  c #262510",
"6  c #2B2C13",
"7  c #26271F",
"8  c #213A17",
"9  c #343416",
"0  c #373A1A",
"q  c #3A3A1A",
"w  c #1E1E24",
"e  c #242727",
"r  c #24242C",
"t  c #282B28",
"y  c #3D3C26",
"u  c #2B2C33",
"i  c #2B2B34",
"p  c #2E3035",
"a  c #313435",
"s  c #32323B",
"d  c #36393B",
"f  c #393D3D",
"g  c #523D2B",
"h  c #1B430D",
"j  c #154D0C",
"k  c #16520C",
"l  c #1B550E",
"z  c #165A0B",
"x  c #1C5C0D",
"c  c #1D4313",
"v  c #154A11",
"b  c #1A4A11",
"n  c #1D5513",
"m  c #1E5C11",
"M  c #1F531B",
"N  c #24570F",
"B  c #215B0E",
"V  c #284817",
"C  c #334616",
"Z  c #354A18",
"A  c #235613",
"S  c #265416",
"D  c #235D13",
"F  c #295D15",
"G  c #2A541A",
"H  c #255D19",
"J  c #2B5E1A",
"K  c #325519",
"L  c #1D630D",
"P  c #1E6A0E",
"I  c #1E6412",
"U  c #1F6911",
"Y  c #22630E",
"T  c #246A0E",
"R  c #296B0F",
"E  c #26710E",
"W  c #29710E",
"Q  c #246313",
"!  c #2A6515",
"~  c #256B13",
"^  c #2B6B15",
"/  c #266419",
"(  c #2B651A",
")  c #256B19",
"_  c #2C6B1A",
"`  c #316D16",
"'  c #30671A",
"]  c #326D1C",
"[  c #267113",
"{  c #2B7314",
"}  c #2E7A15",
"|  c #277418",
" . c #2D731A",
".. c #2E791A",
"X. c #327415",
"o. c #327B16",
"O. c #387A17",
"+. c #33731C",
"@. c #39751E",
"#. c #337B1B",
"$. c #3A7B1D",
"%. c #38462B",
"&. c #295923",
"*. c #355C2E",
"=. c #334835",
"-. c #3A5739",
";. c #2D6421",
":. c #2D6C21",
">. c #336D21",
",. c #396D24",
"<. c #357322",
"1. c #3A7423",
"2. c #357A22",
"3. c #3B7B23",
"4. c #3C7529",
"5. c #3D7B2A",
"6. c #417D1E",
"7. c #464421",
"8. c #4B4823",
"9. c #514E29",
"0. c #59552D",
"q. c #454236",
"w. c #675536",
"e. c #407523",
"r. c #417C25",
"t. c #40752A",
"y. c #427D2A",
"u. c #676135",
"i. c #6A6438",
"p. c #746D3E",
"a. c #363642",
"s. c #3A3B44",
"d. c #3C3C4A",
"f. c #3E4642",
"g. c #3E5441",
"h. c #424344",
"j. c #44444C",
"k. c #444A4B",
"l. c #484C4D",
"z. c #4D5944",
"x. c #454554",
"c. c #484A55",
"v. c #474758",
"b. c #494959",
"n. c #4E5157",
"m. c #4C5C52",
"M. c #4E5159",
"N. c #55585B",
"B. c #775A45",
"V. c #51634E",
"C. c #676B5E",
"Z. c #535462",
"A. c #565960",
"S. c #595C66",
"D. c #5C5D6C",
"F. c #5E6267",
"G. c #696E6F",
"H. c #666971",
"J. c #696E75",
"K. c #686B78",
"L. c #6F7575",
"P. c #6C7179",
"I. c #72777A",
"U. c #747A7D",
"Y. c #916C53",
"T. c #A77756",
"R. c #9D7D63",
"E. c #348115",
"W. c #36821C",
"Q. c #3A831C",
"!. c #3C891D",
"~. c #378122",
"^. c #3D8123",
"/. c #3C8820",
"(. c #41831F",
"). c #428324",
"_. c #468921",
"`. c #44832B",
"'. c #49832C",
"]. c #4A8B29",
"[. c #4B8331",
"{. c #488831",
"}. c #508931",
"|. c #7A807B",
" X c #AF8D6E",
".X c #C29A79",
"XX c #D29771",
"oX c #767B81",
"OX c #757887",
"+X c #7E8585",
"@X c #7E848B",
"#X c #808787",
"$X c #808789",
"%X c #848C8C",
"&X c #868B96",
"*X c #889090",
"=X c #8C91A1",
"-X c #A7AEBE",
";X c #D7AA85",
":X c #EEBC94",
">X c #AAB1C1",
",X c #B3BBCB",
"<X c #BEC6D6",
"1X c #C1C9D9",
/* pixels */
"X.^ { P { [ { P ..W.{ { o.^ { Y ) #.E.o.~.W.} [ { o.W.[ ......^ ~ [ [ $.[ o.W.^.} | ..| !.E./.!.[ P [ | ..^.W./.{ /.!.o...[ ) [ ",
"} X.o.} E o.E.E } | [ X.o.{ R Q _ [ } o.[ P ..X.X.~ [ P ....o.+.Y ~ )  .W.Q.O.} ~ E o.~.} E.!.E.!.E.| U U | } o.W.!.o.W.o.[ ~ m ",
"o.{ T ..} o.} { } ~.{ W E ^ Q L { T P ..} | [ [ $.{ o.U L L ~ | ~ |  .~ E.E.o.Q.E.} [ [ E { ..{ | ..W.U [ } W.} W } W.#.[ ) U ~ ",
"O.E ~ ) T R W X.#._ ~ Q.{ o.+.{ } ) ) ~ [ E L +. . .^  .+.~ ^ ~ U ) ....o.{ E W E.P | U | ..P ~ [ [ ....[ } W ..} U T P [ [ ~ | ",
"$.T ) x z ~ +.#.^ z /  .T X.} R ~ ~  .[ ..[ T  . .) { +._ Q I  .U x U  .~ ..[ T } E ~ 2.[ L [ [ ..U U )  .I | } [  .o.o.#.[ ~ { ",
"#.) ) ) Q Q 2.{ [ I I ~ X.~ o.R L ~ L [ } ~. .! { { ^ _ Y T ~ ~ I U L U ~ ....{ } ~ I 2.P ~  .[ P [ | L  ...) U { o.#.#.o.Y L U ",
"~ ~ Q  .~ ~ +.{ #.^ x ) ^ ^ W {  .#.U { ....~  .+.#. .~ Q ^ ~ I ) ..) | | ~ [ [ ..U  . .[ x ~  .T { ~.I z ) ..z T W W o.W.E ) ~ ",
"` T  .{ ~ L [ o.o.X. .Q I _ +.{  .) I [ } .. .[ ^ Q ) Q  .^ +.~ ~ ) ..[ ~ ..{ ~ U [ U P ~ { ~ ) } E W.I I U I I ~ E.} E._.{ U ) ",
"L I  .) ~ ^ T  .E.{ Q I k z Q #.^ #. .~ L ~ Q ~ [ ^ 2.<._ ~ ~ T U ) ~ { #. .L Q ~ 2.) ~  .W. .~ W E o.{ L x U  .~ E T } { [ ~ ) ",
"I z _ I | #.) L ^ ` D _ _ z x _ ^ X.^  .#.) _ Y ~ Q _ _ / B ~ 3._ _ +.{ { ) I L L { I x +.[ ^ { #.+.~ o.I z L #.} [ }  .~ ~ U I ",
"U I ) I m I ~ _ ) ^ +.Q Y x ~ ^ ^ +. .+. .~ 2._ Q R ~ ~ *.=.k.z.g.g.g.g.;.Q ) ) T L ~ ~ ~ [ [ x Y ~ ^ _  . .Y L ~ o.~.o.T  .) I ",
"2.~ m m m _ Q Q ^ Y Y ~ Y T ! ^ ^ ^ L x { I _ Y _ ] Q ) z.b.b.M.b.M.b.b.&.m H (  .z x  . .+.^ ^ ~  .[ ) ^ +.@.^ Y ^ ^ [ ~ ~ T ) ",
") Q x z Q ( ! ~ Q ^ ~ T !  .+.+.^.^ ~ [  .~ ^ ` S C C C V.oXoXoXoXoXoXU.q.Z V 8 B T Y $.^ ~ ^ X.^ } ^ L ^ ^ #.` ~ Q Q ^ T L L Q ",
"L m ( Q ! Q Q +.@.+.^ +.+.+.+.^ @.3.+.T Q 3.<.+.K 0 q y C.*X*X*X*X*X*X%Xz.C y y J +.O.X.~ _  . .~ T { { ).3.@.#.] _ ) _ _ ^  .Q ",
"Q _ +.! ^ Q ! ~ Y ` ^ {  .! ) ~ ^ ^ ^ ^  .2.F C q.j.F.L.#X%X%X*X*X*X*X*XR.+XM.f.%.V ^ Y ~ x Q _ Q I +.+.@.{ Y R @.! B _ Q Q Q L ",
"m B ~ _ @.^ Q x x _ ^ ^ ^ ! z B Y _ X.! B ~ K 0 q.c.G.*X*X*X*X*X*X*X*X*X@X@XF.f.g 0 N D / ^ #.^ ) #._  .{ Y ^ Y ~ D Q Y _ x x Y ",
"Y _ _ ~ B +.@.! _ ^ Y Y ^ _ / ) D Y ` Y h @ 7 h.j.b.K.*X*X*X*X*X*X*X*X*X*X$XS.v.j.f.* > ! ~ X.X.{ ~ ^ ~ ~ Q  .^ ) _ Y x x Q ~ L ",
"x ^ $.@._ #.$.X.^.! L ~  ./ m D Q ! ^ ! h   w v.b.v.H.%X%X*X*X*X*X*X*X*X%X$XS.b.v.x.& . x { o.{ { ~ _  .Q / _ ^ Q m Y _ T Y T X.",
"x T ^ +.! ~ { ` ~ Y ! +.^ ! Q _ _ ^.^.^ c   w b.b.b.M.Z.I.*X*X*X*X*X*X%XH.Z.b.b.v.j.& . ! } #.T [ _  .) I / ~ ^ Y D Q T X.^ Y ~ ",
"x ! ! B ^ ^ +.^ _ / ) ~ ~ ^ ^ Q  ._ ^ ~ 1   w v.v.b.b.v.H.$X%X$X$X$X$X@XS.v.v.b.v.x.& . Q E [ ^ ~ ~ ) Q Q Q ! ^ #.{ Q ! ^.Q.{ W ",
"^ m ( Q R ^ <./ Q x m Q Y ~ ^ Q Y ! @.^ h   w v.v.v.v.b.b.Z.Z.N.Z.Z.Z.Z.b.b.b.b.v.x.O . B ^ X.Y L  .! ~ ^ ~ ^ o.) Q _ Q $.W Q.).",
"Q m _ Q D ! +.Q B ^ Q D Y { $._ D Y +.` V % t d.x.b.v.v.b.v.v.b.v.v.v.v.b.b.b.v.d.d.: = N ! ^ ^ Q Y Y  .^ Y X.@.Q D +.$.$.$.@.2.",
"Q I m D _ <.^ Y ! @.] D _ +._ +.! ^ 2 . g T.w.& r b.b.v.b.b.b.b.v.b.v.v.b.b.b.x.w * Y.T.: @ Q ^ Q _ ~ X.3.#.^ L Q / _ ^ ^ $.3.2.",
"/ / / D _ ^ ~ ^ <.@.' n ~ ^ ~ ^ !  .2 o g XXY.  w d.d.d.x.b.b.b.b.v.v.x.d.d.d.a.O $ T.XX: . ! R ~ +._ ^ ^ _ m I ) / ( ^ { +._ ] ",
"_ D m / z / +._ +.! Q A !  .L ! _ ^ h   w.:XY.    o o o u c.c.b.v.b.b.v.w o o o   $ .X;X: X D Y ~ +.$.^ Q /  .Q _ ;._ +._ 2.^.+.",
"<.Q m / ( D ( _ ~ 1.>./ ( X.~ ~ ^ X.G @ q..XB.  o X # $ u j.j.j.j.j.j.h.: $ + o   $ R. X7 > _ +.+._ ~ ! 2.<.+.! / 3.^ ^ ! Q 3.^.",
"] 3.Q ~ ( / D ~ ).r.H n / +._ ^ { ! ! B V $ X   % 9 9.i.9.0 q q q q q y w.i.7.6 X   + % N ^ +.3.^ ~ ^ O.2._ _ _ ) #._ ! ~ x ! W.",
"m ] l D D / D m >._ _ >.` ~ ~ B <.! _ #.S @ .   % q 9.i.0.7.7.7.7.7.7.8.0.u.7.9 X   @ , T Y ~ ] @.^ X.#.$.) ^ ^ +.Q Q m ] +.^ _ ",
"Q D ( J D l ( ,.>._ +.3.+.2.! Y Y ^ ^ _ ` @.2   % 0 0 q 0.p.p.p.p.p.p.p.9.q q 9 X . N [ ~  .<._ _ 3.].3.^ ~ ^ ^ _ ~ +./ D B Y ! ",
"/ Q ] ( ! B >.,.<. .! ^ _ ^ +.$.R ! ] Q ! ^ 1   $ 5 9 0 9.i.u.u.u.u.u.u.7.0 6 5 X . l [ [ +.+.^.+.^ <.2.^ X.@.O.R +.+.m D x ^ ~ ",
"m  .+.<.] ] ] ' ]  .Q Y ! ^ r.].O.! @.! x B 1       % q q q q q q q q q 0 0 #       j W +.$.@.+.T +.@.{.^.).).O.X.#.3._ _ Q Q Y ",
"m ! ~ ( D ^ <.1.! ! ] +.+.~ ! O.).r.] y.( h 8 t w - : 5 9 q q q q q q 0 6 5 ; * e t 2 j ~ { X._ ] 3.+.$.6.+.).O.` R ^ <.1.>.3.+.",
"Q <.Q ! ] ] ] ^ 2.3.+.! ` B @.).6.1.D e.G   f %XH.v.e   % 0 0 q q q q 9 # . s b.U.|.3 . Q ..^ D <.$.`.#.O.#.3.$.^ $.#.+.! m !  .",
"m / _ Q Q ! ! D >.$.! / ] X.6.'.'.r.N h 4 ; l.*XF.s u p 7 5 5 5 5 5 5 5 t u p s.+X+Xi - h l Y +.$.].].$.Q.r.@.] _ 3._ _ Q l / +.",
"m I / m _ 3.2.D / 3.r.,.] ).(._.e.@.V   ; x.D.*Xl.  k.%Xq.            . F.#Xe + J.@XZ.d.O @ ] $.Y O.].(.$.Q.+._ +.`.+.Q m ( m z ",
"<._ Q ] +.$.$.! ! ! Q @.F ] 6.'.! B V w s.OXOXoXs.  l.*XN.a a a a a a d L.#Xe o M.oXOXK.u 3 J @.$.'.$.).^.$._ ! ! ^  .m Q :.( _ ",
"_ :.+.+.3.X.^ ^ Q x B ] F ' ! ` Q @.t.x.OX1X=Xb.r   k.*X*X%X%X%X%X%X%X%X%X#Xt   s.Z.>X,XD.k.;.! @.@.$.^.{ +.^ +. .! Q l I <._ / ",
"4.<./ _ ^ Y T Q ^ ] 1.' <.<.B ' ] ! -.x.OX1X=Xb.r   l.*X%X*X*X*X*X*X*X*X*X#Xe o a.Z.>X,XD.k.,.+.2.! ^ 5.3.] 2.! 3.^.+.D m +.3._ ",
"+.) / ;.( ~ ^ m >.1.@.' ] @.] >.' ! *.x.OX1X=Xb.r   k.*X*X*X*X*X*X*X*X*X*X%Xe   a.Z.-X<XD.c.[.Q.).^.2.] +.r.<.^ @.Q 2.] Q D 2.] ",
":.<. .:.Q ! _ _ ( D ! ! ] 4.S ' ' S &.=.m.P.M.i -   f L.+X*X*X*X*X*X*X%XU.G.w   w u F.J.m.-.` ).$.3.+.x T ^ / / >.2.3._ ^ ~ ^ ^ ",
"/ Q ( ( / m m Q l m >.>.3.t.,.F N ] ( F 4           r v.K.*X*X*X*X*X*X*XF.x.-         . ] ,.N ] @.@.<.2._ _ / Q / _ <.@.D ] r.#.",
";.>.( D Q Q Q Q _ / <.<.` ] e.! ! 6.r.F h > , % : r r i f c.S.J.K.J.N.j.p r r w = % 8 V 1.r.] Q +.] B ` D ( ) Q ^ $.$.3.! D ( _ ",
"m ( D _ / _ _ m / _ _ :.] ! ! 6.O.6.] B B Q K 0 %.b.r       i b.v.v.;     o s v.g q ,.r.@.6.1.' 6.6.] N m _ / _ { o.$.^ _ +.D Y ",
":.( ! ! _ >. .m _ ) ) :.! ] 6.@.R ` @.^ +._ V % ; r r r r r r r e r r r r r r e * , ' @.1.] r.] ! ] @.] _ Q _ <.! O.(.! ( _ +.D ",
"n J D Q m / Q Q I m m ;./ 1.3.+./ _  .^ _ ( <       r b.v.v.w       s b.b.b.-     . J / ! >.] ! ! X.! ` 3._ m m _ Q _ x / Q <./ ",
"S A D @.<./ / D m k m I / 1.@._ ) m Q _ +.! <   d P.@X=XM.w 3 < < V 3 r K.=XOXH.;   S >.J D 5._ ` $.! Y  .Y Q Q 5./ k n _ Y ^ Q ",
"l A ( ] ] D l l m / ) +.+.( >.3.3.~ I / ( n 4   N.<X<X<XA.  4 / Q :.> o &X1X1X,Xp . v D ;.H <.@.^ X.$.! / ) _ ^  .1./ ( ' R { Y ",
"( / F D ( D D D Q ;._ _ ! / :.@.+./ Q Q Q ( S 2 =.n.n.n.=.< H _ ] Q b c f.M.M.n.V 4 H D J ;._ 2.3.^ Q / ;.;.) _ :.) <.Q X.^ ^ x ",
"( ! Q >.>.D Q N ( m k / Q / <.<.3._ D <._ _ y.>.2       < H ( 5.3.^ _ ( >     . c / ( 1.( >.! #.@. .n n m H / Q ~ ~ ^ X.$.+._ :.",
"D D ] y.4._ ' ! / _ _ 3.>.D D @.2.1.>.] Q ] 1.' J 2 1 c n m m / 2.$.).2.G c c V / ( 1.@.y.e.! ^ ! ) _ Q @.^ ) ~ B ^ { { ^ ~ ~ _ ",
"( <.( ] <.>.D ! / m ) 5.] ] D ] `.5.D Q ! ! ] F ( m n _ Q / m j D 3._._ / m 5. .:.H <.r.1.t.'.+.^ ] 5. .Q.#.Q Q x L ^ ^ ) z z { ",
"] ! N Y N ! >.>.( m l _ ~ _ _ @.` ! ! N Q <.] ( H / n _ ~ _ +._ m 3.^.+.<.Q _ +.D H ] ] r.] +._ D x ] #.o.Y m m l m x )  .^ ~ +.",
"@.] ! ! ( F D ! 1.;.;.S D ( ] @._ { $.3./ _ ] <.m ( ( / _ Q +.3.{ +.o.Q.R $.3.3.3./ D ( _ r.! D ! R ).$.Y Q D l n ) I U | <.:.k ",
"] @.r.] ;.( J l D >.( ( ,.Q ! ^ 4.`.2.<./ A ] 1.( D _ H x B ! +.1.! @.#.+.<.@.] 4._ ,.>.( ( J ! ] @.$.3.+.Q ( ! _ +.<. .<.+.I m ",
"] ( ( ( F 1.F D D A J ] ( D ( ( ) _ ( Q / ! ! ' ( ! ( ( Q _ _ _ _ ( @._ +.2._ _ H D @.D A M ] N Q ] ] ` ^ Q Q D ;.~  .) x D  ._ ",
"] / F ( ] ] 1.4.D ( ' D ( ( ( _ <.4.<.<.! D ] ] F D D >./ / / / Q 2.! _ <.Q _ <.n l / ! n H ,.D ! ! ` ~  ._ ] ] Q Q ! / Q <.2.3.",
"! D ] ' ' F 1.1.( ' _ A m H ( ( 5.+.;.5.2.5.y.[.1.' ! ] ^ _ 2.3.<.! <.+.3.+.X.3.] @._ D H ;.,.t.( m Q Q _ $.( ! _ ~ +.Q N ] ^ B ",
"] @.` D l ! 1.] n ! ! D ( n H ( 1.4.~ _ #.@.! 1.( ( D ] +.! 3.+.@.Y ^ `.@.).].X.` <.H n M ( <.<.] ] ~ Q Q ! 1.! ] X.r.e.] Q _ D ",
"] ( D A Q ! F D H J ! J D H n _ <._ ( Q ] e.e.e.] e.! +.@.` ] ] Q N ^ ] ! r.'._ ( _ _ / :./  .2.! #.$.T ~ ~ _ I _ 3.@.[.1.' ( Q ",
">.J A F ,.1.! D j ! l D ;.( J ( N D ! @.! 1.,.! e.@.@.` ^ ! Q ,./ D ! 1.F ! ' r.<.Q Q Q _ 1.x Q Q ^ +.{ ^ +.Q :.Q ~ +.[.@.! D ! ",
"J S &.l F ] ] ' N ' ( D S H >.( A / / ] ] 1.,.F @.e.3.@.( D ( ( ;.( ' ( ] D ( 4.@.^ +.3.^ ^ ! D / ( D <.] ^ _ _ :.Q ~ ..{  .<.>.",
">.4.H A A ! ] ! ! ] 1.,.S A D ;.( D ( D Q ] ] 2.@.r.@.>./ A D ! J _ <.( ( ] >.<._ Y ~ ^ ^ +.] ( m F ] 1.4.] 2._ m m ~ ) Q L _ _ ",
"m &.v v v ( ( ! 1.D F ( J >._ ( ;.( D D ] >._ `.y.@.y.1.' J >.` B D ! 2.] _ _ ] _ _ _ 2.! ~ Q m m m _ 3.3.! J ( k k m :./ m L Q ",
"n S n v S H J n ( J D l >.r.` D n n J D _ y.>._ '.'.}.'.1.Q 1.` ^ ] x ~ `.^ _ Q k >.<._ ! N D  .:.n x R ^ D >.1.H ;.M v ;.k Q ) "
};
