/* XPM */
static char *result[] = {
/* columns rows colors chars-per-pixel */
"64 64 216 2 ",
"   c #010201",
".  c #0A0A08",
"X  c #130A09",
"o  c #051203",
"O  c #0A1A06",
"+  c #19100C",
"@  c #070912",
"#  c #0B0C14",
"$  c #131315",
"%  c #340E0F",
"&  c #26140C",
"*  c #271715",
"=  c #371818",
"-  c #0D2506",
";  c #133509",
":  c #152E10",
">  c #37261A",
",  c #253014",
"<  c #141828",
"1  c #181831",
"2  c #252325",
"3  c #352B32",
"4  c #451515",
"5  c #5B1D1E",
"6  c #671F1F",
"7  c #48301D",
"8  c #452A26",
"9  c #5A3726",
"0  c #52322E",
"q  c #662A27",
"w  c #672C29",
"e  c #772928",
"r  c #6C392E",
"t  c #773A3C",
"y  c #184B0D",
"u  c #16520C",
"i  c #1A540E",
"p  c #165A0B",
"a  c #1C5C0D",
"s  c #194712",
"d  c #1D5512",
"f  c #1E5B12",
"g  c #1F531B",
"h  c #215C0E",
"j  c #2A4716",
"k  c #2D4F14",
"l  c #225615",
"z  c #235D13",
"x  c #2A5E14",
"c  c #255D19",
"v  c #285A19",
"b  c #385619",
"n  c #1D630D",
"m  c #1D6A0E",
"M  c #1E6312",
"N  c #1F6911",
"B  c #22630E",
"V  c #246A0E",
"C  c #296C0E",
"Z  c #26710E",
"A  c #29710E",
"S  c #246313",
"D  c #2A6515",
"F  c #256B13",
"G  c #2B6B15",
"H  c #266319",
"J  c #2B651A",
"K  c #256B18",
"L  c #2C6B1A",
"P  c #316C16",
"I  c #32651B",
"U  c #326D1C",
"Y  c #267113",
"T  c #2C7314",
"R  c #2E7915",
"E  c #277418",
"W  c #2D721A",
"Q  c #2E791A",
"!  c #317415",
"~  c #327B16",
"^  c #387A17",
"/  c #33731C",
"(  c #39751E",
")  c #347A1B",
"_  c #3A7B1D",
"`  c #245A20",
"'  c #2D6521",
"]  c #2D6B21",
"[  c #336C21",
"{  c #396C24",
"}  c #357322",
"|  c #3A7423",
" . c #357A22",
".. c #3B7B23",
"X. c #3C7529",
"o. c #3D7B2A",
"O. c #47491E",
"+. c #40571E",
"@. c #417D1E",
"#. c #524D29",
"$. c #644A35",
"%. c #734F39",
"&. c #4B6C2A",
"*. c #56632F",
"=. c #427526",
"-. c #417D25",
";. c #427D2A",
":. c #666639",
">. c #221F40",
",. c #1F2047",
"<. c #25274E",
"1. c #3B3B48",
"2. c #2E2E64",
"3. c #363267",
"4. c #3B3A77",
"5. c #5D3B54",
"6. c #4E3B69",
"7. c #31425F",
"8. c #6C4F47",
"9. c #7C4946",
"0. c #51476F",
"q. c #594E7B",
"w. c #8D3130",
"e. c #993234",
"r. c #A73637",
"t. c #B53737",
"y. c #BB3736",
"u. c #BF3A3C",
"i. c #C33938",
"p. c #C33A39",
"a. c #874B35",
"s. c #AE4437",
"d. c #B44839",
"f. c #B94B3A",
"g. c #986C39",
"h. c #CE433B",
"j. c #CA4C3F",
"k. c #D5493E",
"l. c #D65A3E",
"z. c #A63842",
"x. c #844B46",
"c. c #864A47",
"v. c #954746",
"b. c #865548",
"n. c #915950",
"m. c #BB4549",
"M. c #BC4E54",
"N. c #9A6649",
"B. c #986552",
"V. c #A66757",
"C. c #AB7259",
"Z. c #B6785E",
"A. c #BF5A62",
"S. c #916971",
"D. c #B97A61",
"F. c #A97774",
"G. c #C84744",
"H. c #DC5341",
"J. c #E95D44",
"K. c #DD674D",
"L. c #F46447",
"P. c #F76848",
"I. c #F96848",
"U. c #F76E51",
"Y. c #C07C64",
"T. c #368318",
"R. c #36821C",
"E. c #3A831C",
"W. c #388321",
"Q. c #3D8123",
"!. c #41831F",
"~. c #428224",
"^. c #468A23",
"/. c #44832B",
"(. c #49832C",
"). c #4A8B2A",
"_. c #4A8431",
"`. c #508931",
"'. c #BB8054",
"]. c #B78C6F",
"[. c #C88368",
"{. c #CC8669",
"}. c #D48D6E",
"|. c #D28D71",
" X c #DA9976",
".X c #E19F7A",
"XX c #E5A27C",
"oX c #485388",
"OX c #516A90",
"+X c #6D6991",
"@X c #6A6B9D",
"#X c #776C91",
"$X c #967380",
"%X c #B77584",
"&X c #8B7DA5",
"*X c #6B97B8",
"=X c #BB8598",
"-X c #AE99B3",
";X c #B3A1BC",
":X c #D6868A",
">X c #D48E91",
",X c #E9AB84",
"<X c #E9B48D",
"1X c #F5BE90",
"2X c #D297A2",
"3X c #D2AFBC",
"4X c #E6AFB1",
"5X c #FAC191",
"6X c #AEAFCF",
"7X c #BDBCD8",
"8X c #D8BBC9",
"9X c #D1C6DA",
"0X c #CFD0DF",
"qX c #E9CAD1",
"wX c #D7D8ED",
"eX c #E1E1F3",
/* pixels */
"! G T m R Z E Z Q R.Y R / G ! n E ) ~ ~ W.R.R F T ~ R.Y Q R.Q G V T L Q Y ! E.W.Q R Q E T.T.E.E.R m Y E  .W.R.E.T W.W.~ Q Y Y K ",
"R ! ~ R Z ~ R Z R E T R ~ A C S K Y ~ ~ Y N Q R ! F T m E ) ) W m S F Q E.E.~ R m Y Q R.R T.E.T.E.T.E m N Y T T.T.T.~ R.~ Y K p ",
"~ T V Q R ! A R R W.T A C Y S n T F n Q R Y Y T ) R Q m n n F Y K K Q F ~ T.~ E.T.T R m Y R Q Y Y R.R.m Y Q T.Z T.T.R.^ F F F F ",
"^ Z F K V V ! Q ) L F _ A / W R T K Y Y Y Z M W ! Q G W W F G K N F Q ) ~ A Z R T.m Y N Y Q m K Y N E R.E Q Z R.Z N m m E E Y Y ",
"_ V K f p F / ) G p K W C ! R G F F W Y E Y S T L F G / W S S Q N n F Y F Q Y V R Z F  .Y n Y Y E N N K Q M Y R Y E ~ ~ ^ K F Y ",
") K K K S S ) T Y M z F / Z R C n F n Y R ..Q F W L G G B V M F M N n S F Q ~ E R V M  .F F E Y m E E n E Q K N R ) ~ ^ ~ m n V ",
"F F S W F F W T ~ G a K L G A A W / F E ~ Q F W / ) W D S T F n K Q K E Y Y Y F Q F W Q Y p F W Z T W.M p K  .p m T A ~ R.Z Y K ",
"T B Q ! F n G ~ ~ ! Q M M L / ! Q K n Y R Q Q L T M F K L L / F K K Q Y K Q E F N K N n F R F K R Z R.M M M M M V R ~ T.Q.T N K ",
"n M L K F G V ! ^ Y K f u a B ) K  .T F m F S F T G  .} G F F B N L F Y W / M M F  .K S Q _ T N T V ~ Q B p S E F A G T R Y F N ",
"N p L M E  .K M G ! z K L p a G J ! L W ) K G S S z L L S a G E.F L ! R T K M n n R M n / T G T ~ / V ~ M p n ) R T R T B K F N ",
"N M E M a M S F F G / F B a S L G ! W ~ Q F  .L S V V G K G G ! C G G T F S H K V n S F F G G n S F F L E / V n F ~  .~ V W K M ",
" .S f f f L D S G S S S h V G G G G n a G n L B L ! S G ! ..^ C ! T E S M M f K W p a W E / Y F F T T F L / ( G B G Y T F F N K ",
"K S p a S L K K D L S V G Q / L ~.L F G W F L L B G G F ! C G ^ ~ ~ F B K  .F S n V V ( E S G / G Y A B C G ) P S S S G V n n z ",
"M a L S D S z ! ( ! G ! / / ! G ) | ! F S  . ./ G M K ! C S G C ! ^ L G K  .) T L ) ! ! G E / W K V T T /...( ) U L K L L T W S ",
"S L U G G S G S B L G T G D L S G F T V W  .L T D G S T ^ S V R C A C D a Y B V K S G V S n S J F S } W ( T B C ) D h L S K S n ",
"M h S L ( G S a a L G G G K a S S P ! D S F T S S D b b b b b +.b k k k b +.I b i i h D D G / T F ) L W T B G B G z S B D f a B ",
"f L T D B ( } G L L B V G L H K h S A D a S P / G I 9 q q q q q q q q q q q q O.L W W L T F R ! F F F F K S L G G J B h a B F n ",
"B G ( ( L ! ) ! ..G n B L K f z S G L C D p a D +.#.w.r.d.d.f.f.f.f.f.f.f.d.e.r #.I E V F T ! R ~ F L } z K T G S f n L B B V Q ",
"p S P ! G V L ! G B L ! L D K J L Q...G L L L J 7 e y.k.I.I.I.I.I.I.I.I.I.L.p.e.q k E Y R R ~ B F E W K M S S G S z S S ! T B C ",
"a D S B D L P G K H J F V G G S L L L B G J i z 7 e l.L.I.I.I.I.I.I.I.I.I.L.J.s.w b m V E F Y G F S K S S S G T ) T S G -.E.A Y ",
"G f K K G G } H S f a S V S G S B D ) G S S l b q w.J.I.I.I.I.I.I.I.I.I.P.I.I.j.e #.P T ! G L n n W K F G S G / G S L F _ A E.~.",
"S f J S z G G K h D S z h ! ) L h S / ( L B +.w e.i.J.I.P.I.I.I.I.I.I.I.I.I.I.H.t.e 9 P T T W G K B B ! L V R ( S f / | _ _ (  .",
"S S f f L ( D V K ( U z L / L / L G G ! C G b % w.i.G.J.P.I.I.I.I.I.I.I.I.L.J.h.y.5 > P G G L G S F G ! ( ) G B S H J G G _ |  .",
"S H z S L L G D ) ( I d S T F G D L D G B P s   e i.i.h.L.P.I.U.U.I.P.L.L.J.y.y.y.% o L G a ! C S ( L F L L a M K ' K L ! / L ! ",
"L c f K i S [ L L G z d L W a G L G G !  .! k   e i.y.i.h.h.G.4XqXqX:Xp.h.G.i.i.y.% o B G G W n K ! ( C S K L S K H L ! G | ../ ",
"} S z S K z L L G | [ J J ! F S G ! | D a l j & e t.M.m.u.m.A.3XqXqX>XM.u.u.M.m.r.7 & h h G ) / ! W G L .. .] G F o.L G G z | Q.",
"! | z K J K z K ~.;.c f S ) L G L G G S z o > g.t t -X=Xt.%X;XA.m.m.%X;XM.M.;XS.e a.%.X ; ! ! | L F L ! ) L L L L  .L G K a W _ ",
"f U i z x z z z } L J [ P B G h ( G L / G o 7 '.r = OX-X>X3X9X2X:X:X3X9X2X=X&X0.7 N.g.. - V K U ( L ! !  .G G L W S z f L / G G ",
"H f x J z i D { L L U | (  .G B B F L P S o 0 {.9 . 3.#XeXeXeXeXeXeXeXeXeX7XoX>.. B.C.+ ; L } U G -.).| G S G G L G ] H z h B S ",
"K S / J J h [ [ } ! G G L G / _ C S P z h d j > 8 0 S.$X@X@X@X@X@X@X@X@X@X#XF.b.0 8 > y a / W ;./ G  .( G ! ^ _ C ) / f z B L S ",
"d U / [ U U U L [ L S B G L ~.).^ D ( D h z ,   0 n.{.D.q.3.2.0.q.q.6.2.6.+X|.Z.x.& o S / .. .! K ! / _.~.!.^.^ ! ! ..L L f S B ",
"f G K D z D } =.D L L / L S G ! ~.-.U ;.&.r 7   b.}.}..X<X8.$ ].<X<X8.# ].,X|.|.[.> o S V T ! L P ..) ) ..! ~.^ P C L } ..} ..! ",
"K } S D U G P L  .| L L P h ( @.@.=.D &.:.n.8.1 9.D.}. X<Xb.>  X5X5XB.> ].,X}.[.C.7 s W T ! L z ( ( ^./ ~ ( ~.( G ) / ) G z F U ",
"i S L z D L D z [ _ L S U ^ @.(.-.-.D #.c.}.S.4.5.c.Y.}.}.B.x.XX5X5XD.9.D.}.}.V.t &.R Y ! G B ! _ ).).E._ -.( W ! ..L L z u K / ",
"S z S f L .. .z D ..-.[ L -.!.^.=.( U $.c.}.S.6.3 * 8 9 n.C.Y. X,X X|.D.V.b.0 > * v ! L ^ G _ E.V ~ ).!._ E.! L / /.! H f J f i ",
"} L K [ W ( ( G D G x ( z ( @.(.D h ( $.%.Z.S.2.1 @ X = t B.D.Z.Z.Z.D.D.v.w # @ @ s y z z z L ( ../._ ~.Q.( L L L G L f z ] K L ",
"] ] ] W | ! C G S i D U D D D P D { ( { b + $ @ ,.6.e.w.q = + X + + + & w.z.3.2.2.# O J L z J J U |  .Q.! P G U W K S i f } L K ",
"} | J W F B G V K U { P } } D D P P I ..I : O - <.5.z.t.w.6 4 1.1.1.8 4 w.v.S.#X#X8 * J ).! W ! | G L Q. ./  .L | ..( S S L ..L ",
"} H H L D D D z [ | ( D U { U [ D x I [ I S i L $.t t.i.i.i.f.-X6X6X%Xy.c.n.,X1X<XV.$.v } / ^.!.~.Q. .P ( Q.} D ) S  .L S S } / ",
"] } W ] S K L L H z D P U =.l J D h v J z z T  .3 = 4 6 i.G.J.8XwXwX>XH.v.c. X,X,Xn.$.=.} / T ~._ ..! f S G K S / | | U G S C L ",
"S S J J K z a S u c ] [ | =.{ v x I J v x D A F -   @ > z.H.K.3X0X0X>XH.w.9.[.}.[.b.$.P -.U z P / ) | | L L J H J L ( / f I /./ ",
"' { J z S z H S L J } ( P U =.P G -.-.z l a B L - @ OXOX6.3 + 2 2 2 * & X * 9.c.x.*.;.-.-...U D U U B P z K L h F _ _ -.G z D W ",
"f J S L L L L a K J L L U G D _ ! @.U h z S L D ; : 0.OXoX7.,.< #       O , #.$.$.&.-.-.( -...I =.@.U h f L K L ! ! !.L L U z z ",
"] J D S K [ L f ] K K ] D P ( @.A P ( G [ L L D K N - <.*X*X*XoX<..     d h D D [ =.( ( | U -.I P P | P D S L ] D ~ _ D L L W S ",
"d x D S f K z S c M f ' K | ../ K L L G G J d f [ { . < OXOXoX<.1 ; s j [ } K D o...[ D D [ L D D P C U ..L d z L K L a K S [ L ",
"l l z ( [ J H z p u f M H X.( L K f S L / J c d [ ' o < 2.3.3.# - ] L L K L S z | ..L [ J z o.E P E.D S W M S K X.H u d D B G S ",
"d l J U I D d i f H L L U J [ ..| L M K J f c l H } c s # # # s d ] H H L L S G [ L c c ' l X.( T ! ) G M L L G ! } K J G C L B ",
"J H z z J h z z S ] J L G D ] ( W S S S S J x z G ] } s O # - c / F H L J K D L L S J f v [ L } -.D S z ' ] J K L ] U D / L C a ",
"J D S [ } z x i J f u S H D { | Q.L f } L L ;.U P L G D z c H o...L L L ] K L  .H c J | D ' D ( ( L d d z H H K S S L ! _ / L L ",
"d z U ;.X.J D J D ] L o.[ z z W | | [ U z U ..L [ I S } S d f H ( ) /.| } J L o.] K | ( ;.X.G L F J L M ) L F S h A ! Y G F F L ",
"U [ I U | [ z S K f K ..U U S U /.o.z z J D I S J d d L S K f u S ..~.T H z X.L ] c | -.X.=./.! L [ Q.L E.! S K B p G T L p p T ",
"J D h B h D [ [ J z u L S L L ( P G D h S } U I z J d K F L } L z ) Q./ } S W ! z c L U -.U ( P B a ! | ! B f d d f a K W K F / ",
"( U J x D x c D | [ J z z I P ( L W ) ..H L U [ f J J S L S L | W ! ! _ L ( ....| D z J L -.D z D G ~._ V S z i d K M N E } ] i ",
"( } o.P [ J x d z ' ' I [ D D L | /...} z z U | L z ' c a a G }  .G ( ( ! ( / / X.L { [ J J x J P ( | ../ n L D L W  .L } W M f ",
"I L J J x | z z l z c ' J z J L K L J S J J D L J z J L K L [ ] J L / W U  .L L c z ( S l d I h S U P ! G S S z ' K W K f z W L ",
"L J x D U L =.X.z J U z J J H L } X.} } S S I U x c x [ S z S S S } G L  .z L } d d S J d ` { z D J L S W W U I z S L S S /  ...",
"D z } D D D | { D I L z z c J J o.} ] o.| ..;._.} J D L G L  .Q.} L ( / ..! / ..U } U z c ' [ ;.J f B S L | J D G G ( D h I G S ",
"U { P h h D | [ d D x S c d c J | } K L ) ( P } I J S I / D ../ ( B L (.( Q.^.! T } c d g J { } ( U S S S G } D P ! -.=.J D L f ",
"U I l z x x z z c D x c z l d L [ U I S / =.=.=.U -.D ( ( L U I z h G U G -.(.I J L D z [ J L / F ) _ G V K L M L Q.( ;.=.J D S ",
"U c z c { | P z y D d z ' ' J J f z D } D { ( x @.( / P P G x } H z D } x G I ;.[ S G K L } n K K G ! T G / M ] H K ! _./ D z D ",
"J l ` d x P ( D z P P z v c { J z z x [ I } { z U -.@.U H z J J ' J I J G z J X. .G ( _ ! L K z z J z | P G L } ] S S Q ! L  .[ ",
"{ X.c l l J U D D I | [ l l z J J z J z D ( U | | =.( { c z z D x L } J J [ [ } L B S L D P U J d x L | X.U } L f f F E F n L J ",
"c c y s s J J x { z x J J U I J ] J z x L } L /.(.} -.| I J } G z z S  .L P L U L L G | S S S f f f L ....J x J u u d ] K a n S ",
"d g d s l c x d ' J l i [ -.L z d d c z L o.} L ;.(.`.(.{ D | U G P h F /.L D K u } } L G h h } ] i a F G z [ | J ` g s ' u K K "
};
