/* XPM */
static char *result[] = {
/* columns rows colors chars-per-pixel */
"64 64 211 2 ",
"   c #030202",
".  c #060A07",
"X  c #190909",
"o  c #0A1704",
"O  c #0A1D05",
"+  c #13180F",
"@  c #0C0F17",
"#  c #0C0C1A",
"$  c #120C18",
"%  c #270D0D",
"&  c #26190B",
"*  c #281716",
"=  c #381818",
"-  c #16280A",
";  c #14340B",
":  c #14350B",
">  c #163B0A",
",  c #193C0D",
"<  c #2E2D0F",
"1  c #34221A",
"2  c #131F26",
"3  c #341D2D",
"4  c #323135",
"5  c #531E1C",
"6  c #4B381C",
"7  c #51391E",
"8  c #562B29",
"9  c #533C22",
"0  c #583729",
"q  c #4A2F36",
"w  c #632926",
"e  c #6C2B2A",
"r  c #732C29",
"t  c #7C2C2C",
"y  c #70342B",
"u  c #6F3333",
"i  c #673933",
"p  c #743636",
"a  c #753C3D",
"s  c #15470C",
"d  c #16520C",
"f  c #1A540E",
"g  c #165A0B",
"h  c #1C5C0D",
"j  c #194612",
"k  c #1D5512",
"l  c #1E5C12",
"z  c #1F531B",
"x  c #22450F",
"c  c #22570E",
"v  c #215C0E",
"b  c #2C4A17",
"n  c #245614",
"m  c #235D13",
"M  c #285D13",
"N  c #255D19",
"B  c #295A1A",
"V  c #375B1A",
"C  c #1E630D",
"Z  c #1E6A0E",
"A  c #1E6312",
"S  c #1F6911",
"D  c #22630E",
"F  c #28670C",
"G  c #246A0E",
"H  c #296C0E",
"J  c #26710E",
"K  c #29710E",
"L  c #246313",
"P  c #2A6515",
"I  c #256B13",
"U  c #2B6B15",
"Y  c #266319",
"T  c #2B651A",
"R  c #256B18",
"E  c #2C6B1A",
"W  c #306D16",
"Q  c #32641B",
"!  c #3C611B",
"~  c #326D1C",
"^  c #267113",
"/  c #2B7314",
"(  c #2E7915",
")  c #277418",
"_  c #2D721A",
"`  c #2E791A",
"'  c #317415",
"]  c #337B15",
"[  c #387A17",
"{  c #33731C",
"}  c #39751E",
"|  c #347A1B",
" . c #3A7B1D",
".. c #245A20",
"X. c #2D6521",
"o. c #2D6B21",
"O. c #336D21",
"+. c #386C24",
"@. c #357322",
"#. c #3A7423",
"$. c #357A22",
"%. c #3B7B23",
"&. c #3C7529",
"*. c #3D7B2A",
"=. c #424B1B",
"-. c #554A1A",
";. c #417D1E",
":. c #514323",
">. c #495524",
",. c #71512C",
"<. c #684937",
"1. c #79433B",
"2. c #426724",
"3. c #407525",
"4. c #417D25",
"5. c #427C2A",
"6. c #77672D",
"7. c #262855",
"8. c #2D3066",
"9. c #35346C",
"0. c #373675",
"q. c #473F40",
"w. c #53385F",
"e. c #743A4C",
"r. c #483D6F",
"t. c #33464F",
"y. c #3F5179",
"u. c #505347",
"i. c #7B4544",
"p. c #7C5442",
"a. c #5E5E6F",
"s. c #8D2F2F",
"d. c #83332E",
"f. c #8D352E",
"g. c #883737",
"h. c #963030",
"j. c #A53333",
"k. c #AD3435",
"l. c #B93737",
"z. c #C03838",
"x. c #855336",
"c. c #957638",
"v. c #A3793C",
"b. c #CE453C",
"n. c #D34C3E",
"m. c #9C3E41",
"M. c #BF3F41",
"N. c #8B5049",
"B. c #945A4C",
"V. c #965655",
"C. c #BE484D",
"Z. c #BD4F55",
"A. c #9A624E",
"S. c #A7704C",
"D. c #A96959",
"F. c #BB765F",
"G. c #B06E6D",
"H. c #B47A64",
"J. c #B97879",
"K. c #C74643",
"L. c #DE5241",
"P. c #E95A44",
"I. c #EA6245",
"U. c #F26446",
"Y. c #F86848",
"T. c #F26A50",
"R. c #368318",
"E. c #36821C",
"W. c #3A831C",
"Q. c #388321",
"!. c #3D8123",
"~. c #41831F",
"^. c #428224",
"/. c #468A23",
"(. c #44832B",
"). c #49832C",
"_. c #4A8B2A",
"`. c #4A8431",
"'. c #508931",
"]. c #AC8B37",
"[. c #B6854D",
"{. c #C5875C",
"}. c #CCAD47",
"|. c #DDBD4A",
" X c #C98769",
".X c #D38C6D",
"XX c #D39171",
"oX c #DA9271",
"OX c #DA9A78",
"+X c #E5A37D",
"@X c #EBCA53",
"#X c #F7D658",
"$X c #675E84",
"%X c #50748B",
"&X c #7B759E",
"*X c #907689",
"=X c #70879F",
"-X c #B28A91",
";X c #B48FA7",
":X c #B5ABB9",
">X c #CB959E",
",X c #ECB583",
"<X c #F0B387",
"1X c #F1B689",
"2X c #E4A5A6",
"3X c #B2AAC8",
"4X c #B3B3CF",
"5X c #CAB8C6",
"6X c #D0C5D6",
"7X c #E7C8D1",
"8X c #D9DAE9",
/* pixels */
"' U / Z ( ^ / J ` E./ _ ( U ' C R | ] ( E.` ( ^ / ] E.^ ` E.` U I / / | ^ ] W.Q.` / ` ^ E.R.W.W.( Z ^ ) $.Q.| W.( Q.E.| ` ^ R / ",
"( ' ] ( J ] ( J ( ) ^ ] ] K U L ) ^ ] E.^ S ( _ ' I ^ Z ` ` ` ' L A Y ` | W.] ' Z J E.E.( R.E.R.W.R.) Z S ) / R.R.R.R.E.( ^ I g ",
"] / G ` / ( K ( ( Q._ J H U G C / I Z ` ( / ^ / | / | Z h C I / I ) _ ^ R.R.] W.R.( / S Z ( | ^ ) ` E.^ ^ ( E.( ( R.E.] ^ R I I ",
"[ J I R G H ' ` | R H  .K ' ` _ / U R I ^ J I _ ] ` U _ ] I R R S R ` ` ( K J ( R.Z ) S ) ` Z I ^ ^ ` ) J / ( ` / Z G Z / ^ I ) ",
" .G R l g I { | I h Y _ G ( / U I I ) ^ / ^ G _ E I / { _ L A _ I g I ) G ` ^ G ( J I $.) C ^ ) ` S I R ` S ) ` ^ / ] ] ] R I ) ",
"| R R R L L | / / A A R ] U ' H C I A ^ `  .` I _ U U U D H I I S S C A I ` ` / ( I Z $.Z I / ^ Z ) ) g _ ) ) S / ] | E.] C C S ",
"I I L _ I I _ / ] U h I R U K K _ { S ) ( ` R _ { | _ Y A U R C I { R ) ^ ) ^ I | S ) ` ^ h L _ J / Q.C g R $.g Z / K ] E.J ^ R ",
"/ D ` ' I C U ] ' ( _ Y A E ] ' ] R A ^ ` ] _ U U I R L E U { I S R ` ) I ` / I S R S C I / I U / J E.S A S A g G ] ( ] /./ S R ",
"C A ) R I U G ] R.U Y h g h L ] U $._ I S I Y I U E $.@.U Y L G S E I ^ ] _ A L I $.R L _ W.R I / G ] ' C C Y R ^ J J / _ ) I S ",
"S g o.A ) @.I C R ' m E R h h E T ' U _ | I U L I A E E L C H  .R E ] _ _ R l C Z / A C ` ^ / / | ' H | C g C | _ ^ / _ G I S S ",
"I A R A l A Y I U U { I D C L U U ' _ ] _ R | R L H D U I E U ' K H U / I A Y R G C L I I U U l C U I R R } G C I ]  .] G _ R A ",
"$.L l l l E I I I D L L v D U U U U C h _ h E G U E I U ' %.| H ' _ R I A l A R / g h _ _ { ^ U G _ _ I R ] } U D / U / I I I R ",
"I L h h L E Y L P U L D U E @.E %._ I U _ I E E G U U U ' H U [ ] [ I L L $.R A C I D @._ L U ] I / U Z I U | ' D L L U G D C m ",
"A h E L P L L ~ } | U ' { ] ] U } $.' I L $.$.{ U h L ] H U U H ' [ U U R $.} _ E ] ] ' I _ E _ R H / / ^.%. .{ ~ T E E R / _ L ",
"L U E U U L U P D U U ( U I E L U H / G _ $.U / L I Y W } F P ~ F K U L C U D G R L U F H D Y R I L { _ } _ h U } U D E Y P L C ",
"A l L E } U L h h E U U E Y h m L ~ ' P L I _ L L G V :.9 7 7 :.7 7 7 7 7 9 9 6 n d v P L P ' _ I | E _ U G H H I m D D Y l g G ",
"m E ' Y D } } U E E D D U E A T L L ' D h D U { R V V t t d.d.d.d.d.d.d.d.d.t r >.+.{ R / R ' / I I I I I D E U U T D v h L L C ",
"C U  .@.E { | ' !.U C D ~ R l m L I U P P h m P @.0 r k.n.P.I.I.I.I.I.I.I.I.n.k.y :.E Z I / ] / ] I E @.L Y ' R L A C W G D H ` ",
"g D W ' U L U ' I v E ' / I P T E %.!.U E ~ R V =.t j.K.P.Y.Y.Y.Y.Y.Y.Y.Y.Y.P.n.t 9 / ^ ( ( ] G / R E R A L L U L m D D ' H C G ",
"v P L v U U ~ U T Y R I L U U R E ~ U D E Y d :.e l.K.U.Y.Y.Y.Y.Y.Y.Y.Y.Y.Y.Y.I.d.9 L I / G / U I A ) L Y L U / | U Y U ^.W./ ^ ",
"U l Y U F P @.R L l l L D I U L D P { U L M 6 8 u >X2XT.Y.Y.Y.Y.Y.Y.Y.Y.Y.Y.Y.U.l.f.9 >._ U _ C h ` I I U L H | U L R P  .K ~.!.",
"L l E L L U ~ L v U L m D ' | E h L } | M b N.a p 5X7XT.U.Y.Y.Y.Y.Y.Y.Y.Y.Y.Y.P.b.j.e =./ ' U U L L D ~ E D _ } L m { %. . .| @.",
"L m l l E @.U L L  .~ m E ' E { E U U ~ O 4 6X-Xu 5X7XK.L.Y.Y.Y.Y.Y.Y.Y.Y.Y.n.z.z.j.e =.U I U U I U U ]  . .U L R Y T U U $.%.#.",
"L Y Y L E U L U @.} Q l L E I U P E G I o 4 8X-Xh.:X5XK.K.L.L.L.L.L.L.n.L.L.n.z.z.j.e >.U l ' H L { R U E R h A Y Y Y U ' ] E { ",
"E N l R h L O.E ~ U N f E _ h U E U U W O 4 8X>XC.;X;XM.z.z.z.l.z.z.z.z.z.z.z.z.l.j.w =.U U E C L { | U I Y E L E Y E { U $.%.' ",
"@.L l Y U m Y _ U #.O.Y T ' I L U ' @.P o 4 8X6X-XG.K.z.z.z.z.z.z.z.z.z.z.z.z.l.s.8 % , U U } ] { U U U %.@._ P R *.U U U m %.!.",
"' #.L L P Y C Y ^.5.N z L | U U U U U L - 4 :X4X3X*XZ.Z.K.l.z.z.z.z.z.z.l.k.k.k.t 5   > K ' ' $.E U U | $.R E / U @.R U L l E %.",
"l ~ g M N N L n O.U U @.E L U v @.T E ' ' n + a.5X3X3X4XJ.z.z.l.z.z.z.z.k.r e r a 8   x / D Y @.} U ' | #.U U E { L L m E { U U ",
"Y l N Y M f T #.O.E ~ $.{ #.P F D U E E ' { > u.*X*X&X*XV.h.h.h.h.h.h.h.s.u u u 1.8   s ^ _ ~ E E %._. .U L U U U I o.Y m D v Y ",
"R L ~ E P v ~ +.@.' E U U U ~  .F P E M F W U >.e.r.r.e w w e y y e e y u i.i.1.a q . s ^ { @.(.' E $.@.U ' [  .H } ' l m D _ D ",
"k ~ { +.~ E ~ T O.E L L U U 4._.[ F #.T f v I >.m.G.G.F.i % A.F.F.S.A. XXX XB.a * & s G ' %.@.' L ` } `.!.^./.[ ' } %.{ E L L D ",
"l E L U M U @.&.P U E ' ~ I U | ^.4.~ 5.~ v I >.u.G. XOX1.* F.OXoX{.[.,X1XoXB.8 o - h I I / ' E ' %.} | 4.' ^.[ U H R { &.O.%.' ",
"R @.Y P W E W U @.#.~ E W L } 4.;.;.v 3.4.T m P @.<.A.,XH.i.OX<XoX.XXX1X1XoX<.  n F U ] U ' E l { %.(.' ]  .%.$.U  .| { U l U ' ",
"f L E m Y E P m @. .U L W } ;./.5.4.P U ~ #.E ' !.2.p.H.H.D.OX+XoXoX.X XH.D.,.-.b c ' / ] U F |  ._._.;. .^. .E ~ %.E E m f R O.",
"m A R l E %.@.L Y %.5.+.Q ^.~.~.3.} } ! ~ }  .W U _ 2.1.D..X.X.X X X XN.a i.v.].< - P W } /  . .D | _.~. . .~ E ' (.' Y l T l f ",
"@.E L O.' } } U P U M } M ' ;.).P v #.} P F T U L L 2.y a N.N.e.1 1 = 8 x.].}.@X}.c.+ j l m U } %.^. ./.^. .U E E U E l A E Y E ",
"E o._ @.$.' W U L f L ~ L T P Q P } #.! Q +.T Y L U 2.w t g.w q # # $ = y ].|.#X@Xc.  , ~ D U P ~ #.} !.' ' U { _ U A f L @.E L ",
"@.&.R E L G H L Y { } P #.@.L U Q P E %.O.O.o.Y E E ! e h.k.% $ 9.9.9.# < ].|.#XA.8   j _./ ~ { $.U U *.@.{ $.R %.%.} L l O.%._ ",
"_ T T T E L U l ~ &.} Q W +.E O.P L ~ +.P P k E { | P = s.k.5 3 0.0.8.# & x.v.[.v.<.  : @.' /.W.^.^.} { } !.@.U } L @.~ L L @._ ",
"o.@.E o.L P E E T M P P ~ &.B V Q m M B N m U %.%.' D . 5 k.s.q.r.r.r.$ X 8 r x.].6.. b $.O.W ^. .%._ h L U L Y _ @.%.E U L U E ",
"R L T T Y m h L f N o.+.#.3.+.M M W T M B P K U C R U c < % X 1 J.J.G.*   X ,.].< < M M 4.~ m ~ { | } #.E E R Y X.E } { n E 5.| ",
"X.+.T L P D L L T R @.{ W ~ 3.P P 4.5.M k h D ' L U ' | >   2 q.H.H.J.b 2 . 6 6.- ; 4.^.4.%.~ P } ~ D W L T T m I  . .4.U M P E ",
"z Y N T R E E l R E E E ~ U U ;.[  .} v m L E T n E U H ; . %X=Xe.x.i.=Xa..   o B &.4. . .%.3.W 3.;.~ c l E R E ' ]  .U E _ L m ",
"E E U L T O.E l o.R Y o.P ~ } ;.H W ~ U ~ O.T L Y +.$.U ; . y.$Xm.e.w.y.t.; ; > T 3.} } #.+.3.W P W #.~ P L E E Y [ W.P E E { m ",
"n Y L Y l Y m L N A l X.T #.%.{ R E _ U U T k l o.&.#.} , . 7.w.k.e.8.@ - o.Y U 3.&.@.N P +.E L P ' P W %.E k L E Y E l R L @.E ",
"n n n @.@.R R n g d l A R &.{ E R l m E { P N k o.&.@.} X.j @ $ % $ @ j n E L m #.%.E O.Y N *._ W  .P D _ v Y L %.Y d k Y v U D ",
"f n T ~ Q P k f l Y E { ~ Y O.%.%.Y A Y T l N z Y #.~ E %.L ; O o o O n _ E L U ~ E N m X.n &.} U ' } U R E _ R { &.Y Y W F W D ",
"P Y M M Y h m M L o.T E P P o.} { I L L L T M L P _ { L L m o.E T Y Y E E R P E E Y Y m B O.U @.%.U L L Y X.R E E R @.L { U U h ",
"T P M O.{ M M h T l d L L T @.$.!.E m @.E E ).W W E P U L m T &.%.E E E E R E $.Y Y T #.P O.P { } _ k k l Y Y I Y I U '  .{ R O.",
"l L ~ 5.&.T P T Y o.o.#.@.n n ~ #.#.o.~ L ~ &.~ O.E L O.Y h l R #.[ (.$.&.E E *.o.P &.#.5.&.U E U T T A } U R L D H ' U U I U R ",
"T @.E ~ @.+.N L L l R *.~ ~ L { ^.5.M L Y P Q M T k f E P Y l d m !.^./ Y l @.O.o.N &. .3.3.).] E { !.o.W.] I Y h h ^ / R g g ^ ",
"W P v v v P ~ +.T L d E P E E } W P P v L #.~ T Y Y k E U R O.O.m | ^.{ o.L ~ ' m m E ~ 3.O.{ E L h E  .' D v f k l h R _ E I | ",
"#.~ P L P M M T +.O.X.n M E ~ { E ~ | $.Y E ~ #.k Y T Y U L E $.U ] '  .W  .$.4.#.M N T E ^.P M P F ^. .D L N f l T A S R @.o.k ",
"~ #.&.~ O.Q M f L o.Q T E P Y W @.(.$.#.L n ~ #.~ m T N v D U @.&.U } | | $.{ ~ *.E +.@.T T T M ~ #. .4.{ A T P E _ $.o.$._ L h ",
"W E T E M &.N v n l N ~ E n T T R E T Y R B P T Y L Y T L E o.E E P { E E @.E E N N ~ L n k T v L ~ ~ ' U L L N T R _ R l A _ U ",
"Q Y B T ~ W &.&.M T E N T Q Y E @.*.@.@.L L E ~ M B P O.Y m L Y L @.E _ @.D E @.k c L T z ..+.M P P U L _ E ~ W L A U M L @.@.%.",
"P M } P P P #.+.B W T N v N Y T %._ o.*.$.4.5.`.#.T P ~ U E } 5.@.E @.~ *.' ] $.~ @.T N N X.+.%.T l L D R } E M E U } M v ~ U D ",
"~ +.W M c L #.+.z P P L Y k N T &.&.R E } { W &.U T M ~ { P $.{ { D U 4.} ^._.' ' @.N k z T +.#.~ ~ L L L U #.P W ' 4.5.Q P E n ",
"O.Y m c L P m M n P Y N N n n E +.E T L { 3.3.3.~ 3.W ~  .W { W N h U } W 3.).Q P E E L O.E E { U  . .U U I E A E %.{ 5.#.T T L ",
"~ B n B +.#.T M d P c n X.O.B P c m P @.P #.! P 3.} { W T P N @.P N P } M P W 5.{ Y L Y E @.h I L U _ / U { L o.Y I { `.} U m P ",
"T n X.j M W } P B P W n n N O.T m M P ~ ~ #.~ N } 4.#.} Y N P T O.Y ~ T Q m T &.@.U } %.~ E L L L T m #.~ U E _ o.L I _ ' _ @.O.",
"O.&.N n k P ~ P P E #.+.n n L X.Y N Y M P { ~ #.} 3.#.~ L n P M B E @.T T { O.@.' L L U U ' ~ T k Y E #.&.~ @.E l l R ) A C E E ",
"N N s j j E T P #.m P T P +.T T o.Y n M Q @.o.(.).} 4.3.Q Y #.P v m L @.E E E E R E U #.L D L l l l E %.%.P B T d d l o.Y g C L ",
"k z z d n N B n T B n d O.4.U M k k Y N E 5._ E 5.).'.).+.P #.{ P W h U (.~ I T d O.@.E E v m E o.k h H U L +.@.N X.z s X.k L R "
};
