/* XPM */
static char *result[] = {
/* columns rows colors chars-per-pixel */
"64 64 221 2 ",
"   c #030202",
".  c #090604",
"X  c #020A01",
"o  c #0B0F04",
"O  c #170908",
"+  c #091703",
"@  c #151707",
"#  c #0D1419",
"$  c #260E0E",
"%  c #271810",
"&  c #361617",
"*  c #0D2707",
"=  c #172B07",
"-  c #122C0A",
";  c #17350D",
":  c #152B1A",
">  c #1B3711",
",  c #372616",
"<  c #253211",
"1  c #161626",
"2  c #191A37",
"3  c #241A30",
"4  c #1F2121",
"5  c #2C292E",
"6  c #491A1B",
"7  c #6A1F1F",
"8  c #4C2424",
"9  c #5B2728",
"0  c #573625",
"q  c #5B3131",
"w  c #692727",
"e  c #642A27",
"r  c #6C2A2A",
"t  c #762B2C",
"y  c #7C2A2B",
"u  c #633629",
"i  c #76302F",
"p  c #663536",
"a  c #713432",
"s  c #763D3D",
"d  c #164A0D",
"f  c #16520C",
"g  c #1B540E",
"h  c #165A0B",
"j  c #1C5C0D",
"k  c #1A4B11",
"l  c #1D5512",
"z  c #1E5B12",
"x  c #1F531B",
"c  c #215B0E",
"v  c #244914",
"b  c #384918",
"n  c #225514",
"m  c #275417",
"M  c #235D13",
"N  c #285E14",
"B  c #255C19",
"V  c #2A5E1B",
"C  c #395718",
"Z  c #1D630D",
"A  c #1E6A0E",
"S  c #1E6311",
"D  c #1F6911",
"F  c #22630E",
"G  c #246A0E",
"H  c #296C0E",
"J  c #26710E",
"K  c #29710E",
"L  c #246313",
"P  c #2A6515",
"I  c #256B13",
"U  c #2B6B15",
"Y  c #266419",
"T  c #2B651A",
"R  c #256B18",
"E  c #2C6B1A",
"W  c #306D16",
"Q  c #34651B",
"!  c #326D1C",
"~  c #267113",
"^  c #2B7314",
"/  c #2E7A15",
"(  c #277418",
")  c #2D731A",
"_  c #2E791A",
"`  c #317416",
"'  c #327B15",
"]  c #387A17",
"[  c #33731C",
"{  c #39751E",
"}  c #347A1B",
"|  c #3A7B1D",
" . c #324D31",
".. c #2D6521",
"X. c #2D6B21",
"o. c #336D21",
"O. c #386D25",
"+. c #357322",
"@. c #3A7523",
"#. c #357A22",
"$. c #3B7B23",
"%. c #3C7529",
"&. c #3D7B2A",
"*. c #48441C",
"=. c #58491C",
"-. c #435B1E",
";. c #45621B",
":. c #417D1E",
">. c #524621",
",. c #4E5427",
"<. c #785A29",
"1. c #704838",
"2. c #496C2A",
"3. c #427625",
"4. c #427D25",
"5. c #427C2A",
"6. c #7E6A26",
"7. c #282856",
"8. c #333053",
"9. c #393879",
"0. c #5B3A58",
"q. c #4A3B6E",
"w. c #314654",
"e. c #3D5567",
"r. c #424146",
"t. c #544E59",
"y. c #7B4241",
"u. c #7B4548",
"i. c #7D5044",
"p. c #4B4379",
"a. c #7C5862",
"s. c #6E6371",
"d. c #8B2D2C",
"f. c #8A342E",
"g. c #8C3131",
"h. c #9A3635",
"j. c #A3302F",
"k. c #A73434",
"l. c #AB3534",
"z. c #AB383B",
"x. c #B53636",
"c. c #BA3737",
"v. c #C03838",
"b. c #C33938",
"n. c #844E2E",
"m. c #844C3A",
"M. c #8C5839",
"N. c #AF4738",
"B. c #B04838",
"V. c #916D37",
"C. c #A37E39",
"Z. c #D3483D",
"A. c #8F374C",
"S. c #BF3E40",
"D. c #884C47",
"F. c #85564B",
"G. c #965A4A",
"H. c #915655",
"J. c #BE464A",
"K. c #B24D52",
"L. c #8B6053",
"P. c #9B6654",
"I. c #AE774F",
"U. c #A66A56",
"Y. c #886069",
"T. c #BC7A63",
"R. c #B96A78",
"E. c #CC524F",
"W. c #DC5140",
"Q. c #EB5C44",
"!. c #F66647",
"~. c #F66749",
"^. c #F86848",
"/. c #C37D64",
"(. c #EE7560",
"). c #368318",
"_. c #36821C",
"`. c #3A831C",
"'. c #388321",
"]. c #3D8123",
"[. c #41831F",
"{. c #428224",
"}. c #468A23",
"|. c #44832B",
" X c #49832C",
".X c #4A8B2A",
"XX c #4A8431",
"oX c #508931",
"OX c #A38135",
"+X c #B89739",
"@X c #BEA03D",
"#X c #B89347",
"$X c #C99F50",
"%X c #DFBF4C",
"&X c #C78668",
"*X c #D58E6E",
"=X c #CC8C71",
"-X c #DA9271",
";X c #DA9A77",
":X c #E19D79",
">X c #E2C24D",
",X c #E9C555",
"<X c #F3D357",
"1X c #58709E",
"2X c #9F7485",
"3X c #6C97B4",
"4X c #A98991",
"5X c #B6879C",
"6X c #948FB0",
"7X c #B197A8",
"8X c #B8A5BA",
"9X c #CB949C",
"0X c #EBAE84",
"qX c #F5BD8D",
"wX c #B2ABC9",
"eX c #B8B9D4",
"rX c #CFBED2",
"tX c #D7CBD7",
"yX c #E8D9E6",
"uX c #DFE0F0",
"iX c #E0E1F0",
/* pixels */
"` U ^ A _ J ( J _ _.^ / [ U ` Z ( | ' ' '._._ I ^ ' _.J _ _._ U G ~ ( } ^ ' `.'._ ( _ ( ).).`.`./ A ( ( #.'._._.^ '.'.} _ ~ ~ ~ ",
"/ ` ' / J ' / J ( ~ ~ ` ' K H L R ~ ' ' ~ A / / ` I ~ A _ ' ) _ F R R ) } `.` / ~ J ' _./ ).).).`.).( A D ~ / ).).`.' _.' ~ R h ",
"' ^ G _ / ' / ^ ' $.( K K U L Z ~ I A / / ~ ~ U [ ` } D h F I ~ I ( ) G ).).' `.).K ( J ~ ( ' ( ( _ _.A ~ _ )./ / / ).' I R I I ",
"] J I R G H K ` | ( G `.K [ ) / ^ U R ~ ~ I A } [ _ R ) { I ~ R D R _ } ' K J / ).A ( D ~ _ D I ~ ~ _ _ ~ / ~ / / A G G ( ( I ~ ",
"| G R j h R [ } U h L ) H ` / H G L ( ( _ ~ F ^ ~ U U } E F L ( D j I ( G _ ~ A / J I #.I A ( I _ D D R _ S ( / ^ ~ ' ' } I I ~ ",
"} R R Y L I } ^ ^ S L R / I ' H Z R A I / _.[ I ) ~ U E F I L I S D Z S I _ } / / G S #.G I ~ ^ Z ( ( S ( _ R D / ' } } ' G A A ",
"I I L ) I R _ ^ ' I j R E I H ^ ^ +.I ( ' _ R E } } ) I F ^ R Z I #.R ( ~ R R G _ D ( +.~ h I ~ J / _.S h R #.h F ^ K ' _.G R R ",
"U G _ ` L Z H ' ' ` ) L S E [ / _ R Z ~ _ _ } ~ U L R L ! E ) I D I } ~ I _ _ A G R D A I / R R / J ' S S S S S J / ' ).[./ A R ",
"Z S ( R I U G ` ).U L z h h L } I $.^ I A I L R U U #.+.E L I F D R I ^ } [ Z S I #.R L ) | ( G ^ J ' / F h L ) I J J / ^ ^ G D ",
"D h T S ( #.I Z U ^ M E R j j U P ` E ) ' R U L I L E ) L Z H ].R E ` / ~ R S z Z / S Z _ ^ E ^ ' ` G [ A h A } / ^ ^ / L R D S ",
"I S E S j S R R R E [ U F F L W I [ / [ _ R } E L G F U R E H ` U H U ( R F Y R H F L R U U R Z L L U R T } F F L ' $.[ I ( R D ",
"#.R z z S T L U I F F L j L U I E U Z h U z E F U [ L U ` | ] H ` ^ ) L S S S Y ~ h h ) ~ ) ^ U I ^ ^ R R [ } U F ~ ~ ^ I I I R ",
"R L h j P P R L P ^ L F E ) } ! {.E G ^ ) I E E F I I G ` H U ] ' ' I F R #.R L F G G [ ) L U [ U ( H G I U } W L L L U F Z F M ",
"Z j T L L P L ! { [ U ` ` [ [ I { $.[ G F $.#.! C b C ;.C C C C ;.;.C C C 2.[ ) R } ' ` I ) E } U G ^ ^ {.].{ } [ T R E ) U ) L ",
"L E [ P I L U L F E U / E U U L I U U U ( $.U Q u e e e e e e e e e e e e 0 c F E L U F L F L T R L +.) { E c U [ P F E L P L Z ",
"z Z L E { U L j j E U U U L j M F E ` L L P -.>.d.h.N.B.B.B.B.B.B.B.B.B.h.f.=.C j d F P P I [ ^ I } R ) ^ F K H I M L F P z h G ",
"c E [ L F { { U ! U F F E E L R M F K F c P 0 y c.W.~.^.^.^.^.^.^.^.^.^.Z.B.t 0 E X.[ R ^ U ` ` U I I I R F E I U E c F j L L A ",
"j ^ | [ P } [ ` $.U Z L ^ R z M L U E H L c 0 d.W.Q.~.~.^.^.^.~.^.^.^.^.Q.Z.l.f.>.-.( G I ( ' ~ ' I E E L Y ) E L z F E F F G / ",
"h L W [ P F ^ W I F U [ E P U E E ].&.U Q Q 0 f.Q.^.^.^.^.^.^.^.^.^.^.^.^.^.W.J.r *.Q H / / ] G ^ U ) R L L I U F z L F ` K F I ",
"c P L F U E ` E R Y T I F I U Y E E E F *.u h.b.!.^.^.^.^.^.^.^.^.^.^.^.^.(.tX7Xr e 0 V / G ~ U I R R L L L I E ] ) L U {.| ^ K ",
"U z T P H U +.Y M M j L F I U L F L [ H *.r l.b.Q.Q.^.^.^.^.!.!.^.^.^.^.Q.(.yX8Xr u.Y. .n F ` F j ( U L U I U ] U L E L | K `.].",
"L S T L L P [ L F L L M F ` } E L L { { =.r l.b.b.Z.^.^.^.^.^.!.^.^.^.!.b.E.yX8Xr 4XyXr.+ L ^ P U F F W E F ` [ L z [ | | | [ @.",
"L S z z E +.I L L $.{ n E ` U [ P U W { *.r l.b.v.b.Q.Z.W.W.Z.Q.Q.Z.Q.Z.b.E.rX7Xh.9XiXr.X n ^ U L E R } | #.E F Y R E E P | $.$.",
"L Y Y M E W U I [ { T z L E R U P E F P *.w k.v.c.v.c.v.v.v.v.v.c.v.v.v.v.E.wX5XB.9XiXr.X g ` F L } U I U R j Z Y Y L U [ } E ) ",
"E B z Y j L X.E ) P N n P [ Z U E E U [ < $ r g.c.v.v.v.c.v.v.v.v.v.v.v.v.S.K.2X7XrXuXr.X M ) F L [ } U I Y E L R ..E [ E $.$.[ ",
"+.L j R T L T ) I @.o.Y P [ I L U ` | L -   8 y l.c.x.c.v.v.v.v.v.v.v.v.S.J.J./.eXeXeX .+ P } ) } E U U $.#.X.U R &.^ P U M #.].",
"E $.L L P L L L ].4.B x L } E W W I U L -   9 s i t t j.v.v.v.v.v.v.v.S.2XwX8XwXwXs.4 v c U } @.U R U ` } E ^ E I [ E U L j E | ",
"M ! g N B B L n o.E U +.W L I c { E P [ ;   q s r r r g.l.k.k.l.k.k.k.k.2X6X6X2X7Xt.- W / F L { [ E [ ' @.U P ) [ L L z ! [ H E ",
"Y z V B M j T +.o.E [ @.[ @.P F F U E E =   q u.y.s s a w w t w w w w w u.p p.q.u.,.' _ U ) [ E P {..X| U L U P W L X.Y M c F L ",
"R L [ T P c o.o.+.[ U U R U [ | H L ! M d - , 8 s D.U.U.I.D.n.G.G.G.p & A.H.Y.Y.s ,.R ~ ^ ) +.4.} P $.@.U ` ] | H } [ z M F E L ",
"g [ [ +.! ! ! Q ! E L F I E {..X] P { P c g + O p G.*X0XqX#XI.*X-X-X1.X U.-X=XR.y.,.Z I / $.| [ L ! [ XX].{.{.] ` ` $.[ E L I F ",
"z E L P M W o.@.P U ! [ [ L U ` {.4.! 5.! c g v 4 p *X0XqX-X&X-X:X0XP.q &X0XU.1.b V S ~ G U ^ E [ $.} } :.} {.] W H R +.@.! $.[ ",
"Y +.L L ! W ! E [ $.E E W c { :.:.:.c 3.4.T z v @ 0 &X;X0X:X-X*X:XqXT.D.-X0Xu.,.W H U } U [ E c [ $..X} ` | {.| I { } { P z E E ",
"j Y E L P E L L +.$.P P ! { :.{.4.4.P P { O.* = V.V.D.D.G./.-X-X-X:X*X/.P.F.2.! .X[.' ^ ' H F [ | .X.X| | {.[ [ [ $.E E L f Y [ ",
"L z L M E $.[ M T $.5.o.W {.}. X3.{ ! { V m b >.@X+XM.1.s G.P.P.U.T.T.T.D.1.o.+.[ E E ) { U `.| H ` .X[.`.| ! E [ |.{ L z T z h ",
"+.E L o.[ [ { U U P P ! N [ :.5.P N ! { ; O +X<X<X%X+XM.e $ . . & D.1.D.r u 3.@.T R B z M M P | $.|.| [.{.{ R E U I E j L o.L E ",
"E X.) o.$.` U U L c L ! P P P W N { { ! = . V.$X<X>X+X<.& 2 2 2 3 , a h.t u 5.4.[ E @.E ! L U P ! @.} |.W ` U ) E U L l S +.E L ",
"%.#.Y E I L H L L ! O.W O.@.F W Q P T 3.> . q G.,X%X+X*.  7.9.9.7.  7 v.y 0 3.W | E z E XX^ ! [ | E U &.[ [ $.U $.&.[ S z o.$.) ",
"X.Y T E U L P z ! @.! Q ! o.Q ! P N ! O.- . <.C.U.V.n.,   7.9.9.8.6 d.v.6 % ! { } { z Y ) [ }.`.].].$.E [ {.[ E ] L [ ! L P +.X.",
"+.+.) X.L U E E Y B P W ! %.M Q Q c V N - + 6.C.m.a w $   7.1X9.0.w d.j.% + M [ $.E E $.@.[ ` {.| $.E F L E L L X.@.$.[ P L I ^ ",
"L L T T L M j L j x X.{ @.%.o.V M ! P m B n = , OX<.O . . L.=X&Xi.O O O v M P E | { { W 4.! n ! } { @.@.E E Y L T ) @.[ z ! 4.} ",
"..O.T B L L L L E T @.[ W Q 3.W H 4.4.N c g * = 6.=.X # 5 P././.L.2 # X Q $.[ {.W ! 4.{.{.4.! L ! W c W M Y E L I | | 4.P M P ! ",
"z Y Y E Y E E z R T R ( [ P P :.` | ! F M L Q m o     e.3Xa.u.u.s.3Xw.  k } R ] +.@.4.$.{ | @.Q 3.:.! c z E Y E ` ] `.U U +.L z ",
"E T P L E +.E z E E Y X.P ! | { W W { P ! ! T n ; : >  .e.t.0.h.a.1X8.  v L L U ! %.{ { @.! 5.! P ! @.! U L E [ L ] | P E E E L ",
"n V N L z Y M L Y z S X.Y @.{ [ Y E [ U P T l z o.%.@.> . 7.q.z.A.9.2   m +.L L &.@.o.P P o.E P H ` P ! $.R z B X.L E z Y L +.R ",
"n n M { +.Y Y M h f z x Y $.{ E R z S E } P B l ..%.@.Y v 1 1 & & 1 : k M E L M @.$.E o.V B &.E W | P F [ L L L &.L f z T F I L ",
"l M T ! ! B g z z Y E E [ T o.&.$.R S Y T l B M L +.! ! @.*   X X   ; E T E L U ! E Y B ..n +.} ` ` } E Y R R U ) @.T P P H W F ",
"Y Y M M P c M M L X.T E U P ..{ } L L L L T N B U ! [ L c n B B M n M E R E U E T L T M V o.E @.4.L L L Y X.T E X.R +.L [ W I c ",
"T P P ! +.M N c Y z f L Y P +.@.].E M +.E ! |.! ! E U T L Y T &.$.) E E E T E #.Y Y E @.Y o.P } { E l g L Y Y R F I E / ] [ E ) ",
"n M ! 5.%.T P T L o.E &.+.z n ! @.+.X.! M ! @.Q ! E L [ Y z z Y @.} {.@.%.T E &...Y @.@.5.3.L U L E T S [ E R L F U ` U E L U R ",
"T O.T ! @.! B P Y z Y $.! ! L [ |.5.M L P P ! N Y z l T I P z f z ].{.! Y S $.E X.B $.@.3.3. X[ E ! |.) `.` I L j j U ) R h h ^ ",
"! P c F c P ! o.T M g E L E E { W P P j L +.! T B Y l E P R o.E z $.`.} X.L E ` L B P ! 5.! [ ! L j ! } ` F M g g z h ~ ) E I [ ",
"{ ! P N T N B P @.o.T m M E ! [ ) E ] $.Y T ! @.z Y T Y E L E $.E ` ' | U | $.&.@.P M T E 4.P N P H {.] F L B g z R S D R #.E g ",
"{ { 4.! ..Q Y g B ....T o.P P ! @.|.#.@.Y j ! @.! B T B j F E +.@.U | } / @.[ o.%.E O.o.T T T N ! @.{ 4._ L T P E ) #.X.#.X.L j ",
"T T T T L @.B n c n B ! E n Y T Y E T L Y Y P T Y P T T L E X.E Y T ! E ) @.E E B B { L n x T c M ! [ [ U L L M T Y ) Y z L ) E ",
"! Y N T ! ! @.3.M T ! M T Q Y E +.&.+.o.P P ! ! N M N o.Y M L L L +.U [ @.F R @.l g N Y l B O.B P P U F ) E ! ! L L U L L ! #.$.",
"P M ! W W N @.@.Y ! ! M l B Y T &.+.T &.$.$.5.XX{ T P E I E { &.@.U +.! &.` } { ! @.E M B ..O.3.T z L L E | T P E I { P c E U L ",
"! { Q L g P @.o.n P N L Y n B T @.+.R E [ { P @.! T M ! [ U $.! } F W |.} 4..X` ^ +.B l x T o.@.{ ! L L L P @.L ! ` 4.3.Q P E z ",
"! T n n N T M N n B P B M M l ! +.! T L { @.3.3.Q @.P { { W { E B c P W P 3. X! T E T L o.T E } I } | G I I R L R ].{ 5.@.Q P M ",
"o.V n N O.@.P m g P c n ....V P n M P { P O.! Q 3.{ { ` P P M @.Y B U { N P W 4.o.L U P T #.S L L U [ W I } L X.L E [  X{ P M P ",
"T m V k m ! { W M P Q M m B o.T n L P ! ! @.! B { 4.3.! N B Y T T Y E T ! B T @.[ E } $.` E P M L E n $.! U R [ X.L D _ ) ) +.o.",
"o.%.B n n P [ F P ! @.o.n B V T T B T M P ! ! @.{ $.{ { B M P N V ! +.Y T ! o.+.E L H P H [ ! Y n B Q { %.! @.E z z R ( A Z E E ",
"B x d k l T P V O.N P T V o.P T ..T B M ! +.E |. X{ 5.@.T Y @.W M c P @.E E E ! R E P @.L L L M z l T $.4.P P T f d x X.R h Z M ",
"x z x k v M V l ..P n g o.4.W M l l L B T 5.+.E 5. XoX5.@.N @.! U ! c I |.E E L f +.+.E E c j +.X.f A I L N o.+.Y ..x d ..g L E "
};
