/* XPM */
static char *result[] = {
/* columns rows colors chars-per-pixel */
"64 64 226 2 ",
"   c #010101",
".  c #0A0606",
"X  c #040D02",
"o  c #160A0A",
"O  c #0A1705",
"+  c #17100E",
"@  c #1E1314",
"#  c #2C1711",
"$  c #291814",
"%  c #0E2709",
"&  c #112707",
"*  c #122E0A",
"=  c #17360D",
"-  c #122C12",
";  c #183811",
":  c #23290F",
">  c #382B16",
",  c #3C3113",
"<  c #141327",
"1  c #1B1B39",
"2  c #291A2D",
"3  c #182425",
"4  c #1B2136",
"5  c #3E2121",
"6  c #252736",
"7  c #253D35",
"8  c #421313",
"9  c #471B18",
"0  c #48331B",
"q  c #673D1F",
"w  c #482823",
"e  c #4E2A29",
"r  c #5A2C26",
"t  c #532C2C",
"y  c #5C3324",
"u  c #573924",
"i  c #4B3A31",
"p  c #632525",
"a  c #692727",
"s  c #6C2B2B",
"d  c #782724",
"f  c #742A2B",
"g  c #7A2E2C",
"h  c #613327",
"j  c #6E322B",
"k  c #763A2F",
"l  c #693836",
"z  c #753838",
"x  c #763D3D",
"c  c #18490E",
"v  c #16520C",
"b  c #1B550E",
"n  c #165A0B",
"m  c #1C5C0D",
"M  c #194911",
"N  c #1D5513",
"B  c #1E5C11",
"V  c #1F531B",
"C  c #22540E",
"Z  c #215B0E",
"A  c #224916",
"S  c #304E16",
"D  c #215714",
"F  c #235D13",
"G  c #295D14",
"H  c #255D19",
"J  c #295C19",
"K  c #3B581D",
"L  c #1D630D",
"P  c #1E6A0E",
"I  c #1E6412",
"U  c #1F6911",
"Y  c #22630E",
"T  c #2D620D",
"R  c #246A0E",
"E  c #296B0F",
"W  c #26710E",
"Q  c #29710E",
"!  c #246313",
"~  c #2A6415",
"^  c #256B13",
"/  c #2B6B15",
"(  c #266419",
")  c #2B651A",
"_  c #256B19",
"`  c #2C6B1A",
"'  c #336C16",
"]  c #35661A",
"[  c #326D1C",
"{  c #267113",
"}  c #2B7314",
"|  c #2E7A15",
" . c #277418",
".. c #2D731A",
"X. c #2E791A",
"o. c #327415",
"O. c #327B15",
"+. c #387A17",
"@. c #33731C",
"#. c #3A751E",
"$. c #337B1B",
"%. c #3A7B1D",
"&. c #245A20",
"*. c #2D6521",
"=. c #2D6C21",
"-. c #336D21",
";. c #376B24",
":. c #357321",
">. c #3B7423",
",. c #347A22",
"<. c #3B7B23",
"1. c #3C7529",
"2. c #3D7B2A",
"3. c #3D6E33",
"4. c #49441E",
"5. c #5B481C",
"6. c #417D1E",
"7. c #494A21",
"8. c #574525",
"9. c #52532F",
"0. c #58512D",
"q. c #574931",
"w. c #694737",
"e. c #77453D",
"r. c #4A6428",
"t. c #427526",
"y. c #417C25",
"u. c #427C2A",
"i. c #6E662F",
"p. c #1F1E42",
"a. c #24264B",
"s. c #2A3054",
"d. c #33336D",
"f. c #373675",
"g. c #39397A",
"h. c #503C57",
"j. c #783F41",
"k. c #6A3B57",
"l. c #4F3867",
"z. c #2D4051",
"x. c #334756",
"c. c #39486A",
"v. c #54574A",
"b. c #7A4241",
"n. c #7F5541",
"m. c #614967",
"M. c #4D6875",
"N. c #962C2C",
"B. c #893230",
"V. c #973434",
"C. c #A43333",
"Z. c #AB3434",
"A. c #B53636",
"S. c #BA3636",
"D. c #B7393A",
"F. c #BD3A38",
"G. c #C23939",
"H. c #C53D39",
"J. c #844E3A",
"K. c #97483C",
"L. c #89573C",
"P. c #BD4939",
"I. c #BA5437",
"U. c #8A6B2F",
"Y. c #98693E",
"T. c #9E7538",
"R. c #B36D39",
"E. c #A5763C",
"W. c #CE493D",
"Q. c #8E3A47",
"!. c #844B44",
"~. c #875648",
"^. c #925E40",
"/. c #996742",
"(. c #93694C",
"). c #AD7353",
"_. c #8C6770",
"`. c #BC7E61",
"'. c #DD5441",
"]. c #E05642",
"[. c #E25E43",
"{. c #EC5E45",
"}. c #C47541",
"|. c #D57444",
" X c #ED6145",
".X c #F36447",
"XX c #F76748",
"oX c #F86848",
"OX c #368318",
"+X c #36821C",
"@X c #3A831C",
"#X c #388321",
"$X c #3D8123",
"%X c #41831F",
"&X c #438324",
"*X c #468921",
"=X c #44832B",
"-X c #49832C",
";X c #4A8B29",
":X c #51872E",
">X c #4A8431",
",X c #788471",
"<X c #AB8A36",
"1X c #B28B38",
"2X c #B79638",
"3X c #B99938",
"4X c #C4A33E",
"5X c #B19A46",
"6X c #979971",
"7X c #AB9366",
"8X c #D5B34A",
"9X c #DCBC4A",
"0X c #CFA750",
"qX c #C8876B",
"wX c #D79575",
"eX c #DEA07B",
"rX c #EBCA53",
"tX c #F6D557",
"yX c #F9D958",
"uX c #4F6397",
"iX c #546991",
"pX c #7F6B80",
"aX c #7098B1",
"sX c #74A2BE",
"dX c #D3A689",
"fX c #EBB287",
/* pixels */
"o./ } P } { } P X.+XQ | @.E } Y  .$.$.| +X$.../ } O.$.{ X.+XX./ R { ..X.{ O.@X#X|  .X.{ +XOX@X@X| P  . .X.$X+X#X| #X#X$.X.{ _  .",
"| o.O.| W O.OXW | { { O.O.} / ! / { O.OX{ U | | | E { P X.X.X.@.Y ^ ^ ..%.@Xo.| { { X.+X| OXOXOX@XOX .P U {  .OXOX@XO.OX| { ^ n ",
"O.} R X.| O.| } | #X .Q Q E ! L  .R P | | { { / O.O.X.U m L R  ._ { X.R O.OXO.@XOXQ  .P { | X.}  .X.+XP { | OX| | OXOXOX^ ^ ^ ^ ",
"+.W ^ _ R E Q o.$.` ^ %.Q @...| } _ _ _ { W ^ X.$...^ @.@.^ / _ U _ X.$.O.} W | OXP } { { X.P _ { { X.X.{ | { X.} P R L } ..^ { ",
"%.R _ m n ^ @.$./ n ! ..E | | ^ E ^ ..{ | { R ..` ^ / $.` ! Y X.U L U ..R X.{ R | W ^ ,.^ P { {  .{ U _ ..I  .| { } $.O.$.^ ^ { ",
"$._ _ _ ! ! ,.} } I I _ ..E o.E L _ L { } #X..^ ../ / / Y ^ I _ I U L U ^ X.X.} | ^ L ,.P ^ ..^ P {  .L  .X._ U } $.O.$.O.P I U ",
"^ ^ ! ..^ ^ X.} O./ m _ ` / Q Q ..X.^ { $.X._ } $.$...^ Y ..^ I _ X._  .{ _ { { X.U ..X.{ m ^ ..W } #XL n _ ,.n P } Q O.OXW { _ ",
"' P ..o.^ L / O.O.} ..! I ` $.o..._ I { | X...` _ ! ^ ( ' ` X.! _ _ X.{ ^ X.} ^ U _ U L { } ^ _ } W +XI I U I I W O.O.O.*X} U _ ",
"L L .._ ^ _ R | +.} ! B n n ! $.^ ,...^ P ^ ! ^  .` ,.$.` ^ ^ Y I ` ^ { $...L ! R ,._ ! ..@X..R { W O.| L m _ ` ^ Q E | } { ^ _ ",
"U N _ I / ,./ L ^ @.! ) ` m m _ ~ o.} ` $./ / ^ Y F ` ` ! Z ^ %.^ _ O.o.} _ I I L } I L o.} /  .$.o.E o.L n L $.| { | } Y _ U I ",
"U I _ I m I ! / ^ ` @.^ Y L ! ' / @.} X.X._ ,.` ! E Y / ( } E o.} E /  ./ I ^ ( R L ! ^ ^ { _ L Y / ^ ` ....Y Y ^ O.,.$.^ .._ P ",
",._ B B I ` ( ^ / Y Y ! m ! / ^ / / Y m ` m / Y [ ] G ] ' t.6.T ' ' ] ~ G D J ] ..n m ....../ / ! .. .( / $.$./ Y / { } ^ ^ R _ ",
"^ ! m m ( / ( ! ~ } ! Y / @.@.` y...E / ..^ ` [ 4.h y y y y y u h y y y y y y 0 G R R $./ ! / o.^ } { Y ^ / $.o.~ ! ! ^ Y Y Y F ",
"I n ) ! ~ ! ! @.#.@./ @.$.@.@./ #.<...^ ! <.>.[ 8.d g g g k g g g g g g g g f a K [ o.o.^ ..@.@.^ E / | =X<.%.@.' ) ` `  ./ ..! ",
"! / [ / / ! / ! Y / ^ o.} / / ! ^ ^ / ^ ..$.4.y V.A.'.'.[.[.[.[.[.[.[.[.[.W.W.Z.j u ] E ~ Y ! ( _ L $.=.$.' Z ^ $.~ Y ` ( / ! L ",
"B F ! ` #./ ! m m ` / / / ( b Y ! ' o.E ! ( 8.a C.W.[.oXoXoXoXoXoXoXoXoXoX.XW.P.g h S ^ ~ ^ @.} ^ @.....} Y / E ^ F Y Y ( m m L ",
"! / / ~ Y $.:./ ../ Y Y } ` F _ F Y } Y Z E u a W. XXXXXoXoXXXoXoXXXoXXXXXXX.X[.B.h ] ..} ^ o.o.{ E ^ _ ( ! } _ / _ Z Y m ! ! R ",
"L / %.$.` @.#.o.y./ m ! ..( B F ! / ' Y ~ A u g W.oXXXoXXXoXoXoXoXoXoXoXoXoXXX{.B.j K Z ^ } O.} o./ ` ..I ( ' ` ! F Y / Y L R | ",
"b ! / @./ Y / o.^ Y / @./ / ~ ` ` <.$X/ 4.h N.A.].oXXXXXoXXXoXoXXXoXXXoXoXXXoX.XP.Z.j y @.O.O.Y { _ .._ ! ! Y / Y F ! ! o.} Y ^ ",
"m / ~ Z / ` ' / ( ( _ ^ ^ ^ / ( ` @./ ! 4.a V.H.'.{.XXXXoXoXoXXXoXoXoXoXoXXX X{.H.A.f h ' R  ./ ^ ^ _ ! ! / ^ / $.} ! / y.@XQ { ",
"/ I ( ~ ^ ~ :.( F m B ! Y ^ / I Z ~ #.E 4.a N.G.G.H.{.XXoXoXoXoXoXoXoXoXXX.XW.G.G.A.d h ] E } L m ../ ( / E ^ #._ ! / ~ %.Q @X$X",
"! B ` ! ! / ' ~ F ^ ! G Y o.$.` Y ! $.#.4.p N.G.G.G.'.{.{.{.{.{. X X X X{.{.H.G.G.A.a w ] o.' / / Y Y ' ` L @.$.! F @.<.%.%.#.,.",
"! F B B ` ,./ ! ! %.[ F ` o./ :./ _ / @.& . d G.G.G.G.H.H.H.G.G.H.G.H.H.G.H.G.G.G.A.# . F ^ ' ^ ( / ^ $.%.$.^ Y ( _ _ / ~ $.<.>.",
"! ( ( G _ ' ^ ^ >.@.] B ( / ^ ` ~ [ Y ' &   p A.S.G.G.G.G.G.G.G.G.G.G.G.G.G.G.S.A.N.o X D ! } E Y $._ / ` ` B I ( ( ( / @.$.' ..",
"` H B ( m ! -._ ' / H N ` ' L / / / / @.=   8 f C.G.G.S.G.S.G.S.G.G.G.G.G.G.G.S.g r o . G / ` L ! $.#./ ^ ( ` ! _ ) ` @./ ,.<.@.",
":.! L ( _ F ) ../ >.;.( _ O.! ! / ' ) C : # e s V.Z.S.G.G.S.C.N.N.N.A.G.G.S.Z.C.g a # : c D @.@.@.' ^ / <.:...( ( 2./ / / ! <.$X",
"..<.! ! ( ( I ~ &X2.( V ( @./ / / ^ * . 8.E.!.j.f s C.G.G.S.8 . . o N.G.G.S.B.p x !.Y.U.+ O ' <.` ^ / $.,.` ` ../ $.` ~ ~ Z / %.",
"B ` b G G G ! D -./ / -.' ! ~ Y ,.~ *   l 5XJ.r s s V.Z.Z.C.8 o o o N.Z.Z.C.g a t y ).Y.+ X Z $.$./ o.o.,./ / ` @.( ! B ` [ ^ ` ",
"( B J ( F b ( >.-.` @.>.$.:.~ Y Y ) *   ~.wXi . e b.f s s a a p p p a s a s z l + @ `.`.$ X ( ` ) y.;X<./ ~ / / / ~ :.( ! Y F ! ",
"( ! [ ` ~ Z -.;.@.@./ / / ` @.%.E E M O w./.>   e b.l l k k j s j j k k f j j.j.o o e.(.- * ) =X@./ <.,./ o.+.+.E $...B B Y / ! ",
"B [ @.-.[ [ [ ) -.` ! Z ~ / &X;X+.~ #.J & . .   e b.b.b.Y.E.!.j.j.b.Y.Y.!.j.j.l +   . O G #.#.@.! @.@.>X@X&X&X+.o.+.<.` ) ! ^ Y ",
"B / ( / F ' :.>.~ / ` $.@.! / @.y.y.' u.; O X   5 e t t J./.J.j.j.b.^.Y.l t t e .   O * Y o.o./ @.>.$.$.y.@.&X+./ E ` @.2.[ <.@.",
"( :.! ~ [ ' [ / ,.>.` ` ' F @.y.6.t.Z >.t.) %         . t !.x e.b.b.b.e.+         X D @./ o./ F $.<.=X@.$.+.<.%.^ %.@.@./ B / @.",
"n ( ` I ( ~ ~ ! -.%.` ~ ' +.6.&X-Xy.~ ] G D 3 < @ $ > , w t t t e t t e , > $ $ . X c C o.Q Y @.%.;X;X%.%.&X<.` ' y...` F b ( ..",
"! F ( F ` <.,.D ~ <.y.-.` &X*X-X#.#.[ @.*   p.g.h.x T.<X,   .         o U.1XJ.l o     . ~ } <.@X~ o.;X%X%.%.' ` @.=X$.H B ) B n ",
":.) ! [ @.$.#./ ~ / ~ -.G @.6.-X~ C r.r.q.q.l.g.k.K.E.2Xq 8 8 # 8 8 8 9 T.5X^.B.2 < i q.7.K ' :.<.;X%.%X&X%.` _ / ^ ` B F -.( ` ",
"..=.=.$.<.o./ / ! m ~ ' ~ ] ~ ' ~ @.0.b.qXfXpXg.Q.G.}.2XW.A.F.F.S.S.S.F.1X2XW.Z.l.uXdXdX~.w.] ~ @.@.$.=X} o./ @.` / ! b I :.` ( ",
"1.:._ ) / Y E ! ( ' :.) :.:.Z / ' ] 0.b.`.fX_.l.Q.H.I.E.).|.|.|.|.|.|.|.R.E.P.A.k.m.qXeX~.w.] $.<./ ` 2.,.[ >._ <.<.$.F F ` <...",
"-._ ) ) _ ~ / F [ >.>.] [ -.) -.` ( 0.b.`.wX(.j.C.S.K.e.0XyXtXtXtXtXtXrX^.J.Z.D.Q.b.qXqX!.b.:X%.&X<.<.' @.&X@.` ,.! ,.` ! ! ,.[ ",
":.:...=.! ~ _ ` ( F ) ~ ' 1.J ] ) G 7.q.~.).x w p d J.Y.8XyXyXyXyXyXtXtX).L.d a e t (.).n.9.' y.%.<...m ~ / ! ! -.:.<.[ / ! E ` ",
"F ! ( ` ! B m ! B H =.:.t.t.;.) F ' ) G q.j.$   X X i.3XrXyXyXyXyXyXyXtX4X<X& X   . l e.u.;.C ' @.#.>.:._ ..( ! ) ` $.@.D [ y.$.",
"*.;.) G ( ! ! ! _ ) :.' [ [ t.~ ~ y.y.F K 8.6 1 s.x.T.3X8X9X9X9X9X9X9X9X4X<Xv.z.4 4 9.i.y.<.#.~ @.@.Z ` F ) ) ! / %.%.y.` F ~ [ ",
"B ( G _ / ` ` F _ ) ` ..' / ~ 6.+.%.@.Z F Z x.g.iXsX6X3X2X2X3X3X3X3X2X2X3X3XaXaXuXf.3.2.#.y.>.] t.6.' Z F _ _ ` o.O.6./ / :.F F ",
"=.` ~ ( ( =.` B ` _ ( =.( ' #.%./ ' @.' @.[ 7 a.x.M.,X6X5X2XT.T.T.T.<X3X7X6XM.c.1 a.*.,.>.[ y.[ ] ' t.' / ( ) ` ~ O.%.~ _ ` ` ! ",
"D ( ~ ( F ( ! ! B I B =.( >.y.[ ` ( @./ ' ( %       iXsX7X3XL.j.b.b.<X5XaXaX< .   X J ( ( ;.` ( E o.~ ' <.` B ( [ ( ` B ( ! -._ ",
"D D D :.:.( ( D B n B V ( >.:.` _ B I ` @.! %   < p.c.iXv.5.w 5 5 5 5.0.M.iXa.1 . X H ;.) G 2.' / %.( ! ..! ! ! 1.! v N ` Y / ! ",
"b D ) ' [ G N n B ( _ [ @.) [ <.<._ I ! ) D %   a.g.g.g.@ X           . d.g.g.d.. X M B *.N :.,./ o.$./ _ ) ..{ ..,.( ( ' Y ' Y ",
") ~ F G ( F F F ! *.) ` / ~ -.$.@.( ! ( F ( A = 3 p.1 1 - % ; ; ; = = ; < p.1 1 - ; *.B J ;.` ,.&X~ ! ! ( *.( ` =.) $.! @.' / m ",
") ~ G [ -.F ! C ( B v ! ( ( >.>.$X_ F :._ [ =X[ %       c F ) 2.<.` ` ) O     X M ( ` >.) [ ~ $.$.` N N H ( ( _ ! ^ } o.%.@.` ` ",
"D F @.u.1.[ ~ ) ! :.` 2.:.B D ' >.>.-.[ ! [ 1.] A = * = N m B ( ,.%.&X:.A ; ; A ( ( 1.:.u.1.~ / ~ ) ) I @.} ^ ! Z / o.{ / ( ^ ` ",
"` ;.) [ :.-.G ~ ( B ( <.[ -.! @.=X2.F ! ~ ~ [ D ( B n ` ~ ( B v F <.&X} ( B <.` ;.H >.t.t.1.-X@.` -.=X..@Xo.^ ( Y m / ` _ n n { ",
"~ ~ F Y m G -.-.( F b ` ! ` [ @.' ~ ~ Z ! :.[ ] ( ) N ) ^ ` =.=.Z <.<.$.:.! ` @.( B ` ' y.[ @.` ! m ' $.o.Y m N b B n { ..` ^ @.",
">.' ~ G ~ J G ~ :.;.*.D F ` [ @.@.` $.<.( ` -.:.N ( ) ( _ ~ ' <./ @.O.@X} %.<.<.>.~ D ` [ u.~ ~ ~ E &X$.Y ! G v N ` L _ ..X.=.N ",
"#.:.u.[ [ ) ( m G ) -.) -.~ ~ [ :.=X<.:.H m [ >.` G ) H m Y / :.:.` #.$.@.>.@.[ 1.` ;.-.) ( ~ G [ @.<.<.@.! ` J ` =.X.` ,.=.! m ",
"[ ` ) ) ~ >.G D B D G *.) F ~ ) ) ` ( ! ( ( ~ ) ) ~ ( ) ! _ -.=.) _ @.' ` ,.` ) H G @.~ D N ] Z ~ [ ' o./ Y ! F ` _ @.( B ! ../ ",
"] ( G ( [ ) 1.1.G ) [ G ) ) ( ` :.2.:.:.! ~ ] [ J F ~ -.( F ! ! ! @.` ` ,.! ` :.N b ~ ( N &.;.F ~ ~ ` ! ..` @.[ ! ! _ ! ! [ ,.<.",
"~ F @.] ~ ~ #.>.( ] [ D B H ) ( 2.:.` $X,.2.u.>X:.[ ( [ / / ,.u.:.` :.@.<.@.o.<.@.:.] F H *.-.u.) B Y ! / >.` ~ _ ^ @.~ Z [ ~ Y ",
"[ #.[ Y C ~ >.-.V ! ! ~ ~ N H ( :.1.( ` #.@.~ #.] ( G ' @.~ <.@.@.Y ` =X@.=X;Xo.' ,.H N N *.-.<.[ [ ~ ! ! / :.! ' @.y.t.] ~ ` B ",
"[ ) D D ~ ~ D F D ~ ( H G D D [ -.[ ` ! @.t.t.t.[ >.~ @.>./ [ [ ~ m / ' / <.-X' ^ ) _ G =.( ` @./ %.%.^ / ^ ` I ` <.@.>Xt.) ( ~ ",
"*.J D H ;.>.] D b ~ C D *.*.J ( C F ( :.) >.[ ] t.#.@.' ' ~ ! :.J G ) #.G ~ ] u.-.( ~ ! =.,.Z ( ! / @./ ^ $.! =.! / @.>X@.~ F ~ ",
"] N ( b G ' [ ~ D ] ' D J H ;.) N ! ( [ [ >.;.~ @.y.#.#.( G ( ) *.( ] ) [ G ( 1.,./ $.<.o./ ~ F ! ` F >.` / ) -...! _ X.o.` :.@.",
";.3.J D D ~ #.~ ~ [ >.-.D D H ) ) G ) G ~ [ [ :.>.y.#.;.( D ~ G G -.:.( ( [ -.:.' Y ~ / ~ @.[ ( N H [ #.2.' ,.` B B U _ ^ L ` ( ",
"( V c M M =.) G >.G ~ ) J -./ ) *.) H G ` :.` =X=X#.u.>.) J :.` F F ( $.` ` [ ` ` ` _ ,.! ~ ! I N N _ >.<.~ J ) v M B =.( m I ! ",
"N V N M D H J N ) ( D b -.y.' F N N ! G ( u.-.` =X-X:X-X>.~ >.' / ' m / =X' _ ~ b -.:.) / Z D $.=.b Y ^ ~ ~ -.:.( *.V c *.b ( _ "
};
