/* XPM */
static char *result[] = {
/* columns rows colors chars-per-pixel */
"64 64 209 2 ",
"   c #272B0D",
".  c #2A340D",
"X  c #27380D",
"o  c #362717",
"O  c #312E10",
"+  c #2D3413",
"@  c #353714",
"#  c #392B25",
"$  c #3B3724",
"%  c #43280F",
"&  c #4D2713",
"*  c #452B12",
"=  c #592B17",
"-  c #493316",
";  c #593A14",
":  c #682916",
">  c #79341A",
",  c #49382E",
"<  c #483231",
"1  c #4C3E37",
"2  c #652E29",
"3  c #722924",
"4  c #17490D",
"5  c #16520C",
"6  c #1A540D",
"7  c #165A0B",
"8  c #1C5C0D",
"9  c #154A11",
"0  c #1D5512",
"q  c #1E5B11",
"w  c #1F531B",
"e  c #26470E",
"r  c #314B0E",
"t  c #275A0D",
"y  c #215C0E",
"u  c #35580F",
"i  c #2C4212",
"p  c #2D4A12",
"a  c #344C13",
"s  c #354A15",
"d  c #225514",
"f  c #285616",
"g  c #235D13",
"h  c #2A5C14",
"j  c #255D19",
"k  c #295E19",
"l  c #345616",
"z  c #335B1B",
"x  c #1E630D",
"c  c #1E6A0E",
"v  c #1E6311",
"b  c #1F6A11",
"n  c #22630E",
"m  c #2B600E",
"M  c #246A0E",
"N  c #296C0E",
"B  c #26710E",
"V  c #2A720E",
"C  c #246413",
"Z  c #2A6515",
"A  c #256B13",
"S  c #2B6B15",
"D  c #266319",
"F  c #2A651A",
"G  c #256B18",
"H  c #2C6B1A",
"J  c #316D16",
"K  c #33641B",
"L  c #3A651B",
"P  c #326C1C",
"I  c #267113",
"U  c #2B7314",
"Y  c #2E7915",
"T  c #277418",
"R  c #2D731A",
"E  c #2E791A",
"W  c #327415",
"Q  c #337B15",
"!  c #3A7C16",
"~  c #33731C",
"^  c #3A751E",
"/  c #347A1B",
"(  c #3A7B1D",
")  c #384A23",
"_  c #245A20",
"`  c #2D6521",
"'  c #2D6B21",
"]  c #336D21",
"[  c #386D25",
"{  c #357322",
"}  c #3A7423",
"|  c #357A22",
" . c #3B7B23",
".. c #3C7529",
"X. c #3D7B2A",
"o. c #40410F",
"O. c #454517",
"+. c #456018",
"@. c #417D1E",
"#. c #43472E",
"$. c #4A532F",
"%. c #4C4638",
"&. c #5B4237",
"*. c #764A37",
"=. c #407525",
"-. c #427D25",
";. c #427C2A",
":. c #7B2B49",
">. c #544541",
",. c #584A49",
"<. c #59534B",
"1. c #65514C",
"2. c #714C52",
"3. c #6A5957",
"4. c #765D54",
"5. c #676259",
"6. c #725869",
"7. c #6E6569",
"8. c #756967",
"9. c #786B77",
"0. c #7D7876",
"q. c #882E19",
"w. c #912D1A",
"e. c #8B3219",
"r. c #99331C",
"t. c #A6311D",
"y. c #B2341F",
"u. c #901D33",
"i. c #913628",
"p. c #AA3A29",
"a. c #BB3622",
"s. c #C43721",
"d. c #CD3923",
"f. c #DA3C25",
"g. c #D92D3A",
"h. c #C93135",
"j. c #E33E26",
"k. c #EB3F27",
"l. c #EE3E29",
"z. c #E22B3D",
"x. c #964738",
"c. c #B14136",
"v. c #D04232",
"b. c #DB4837",
"n. c #E5412C",
"m. c #EE4029",
"M. c #F04028",
"N. c #E34530",
"B. c #F04A35",
"V. c #F04D3A",
"C. c #AC1B43",
"Z. c #8E325B",
"A. c #B32E5B",
"S. c #983965",
"D. c #CA1D55",
"F. c #9C564F",
"G. c #8C4B51",
"H. c #B04742",
"J. c #A95A55",
"K. c #B1625D",
"L. c #A54773",
"P. c #8F6D6B",
"I. c #867977",
"U. c #BB6963",
"Y. c #F05F52",
"T. c #F0665B",
"R. c #DB6A62",
"E. c #F06C63",
"W. c #368318",
"Q. c #36821C",
"!. c #3A831C",
"~. c #388321",
"^. c #3D8123",
"/. c #41831F",
"(. c #428224",
"). c #468A23",
"_. c #44832B",
"`. c #49832C",
"'. c #4A8B2A",
"]. c #4A8431",
"[. c #508931",
"{. c #83807B",
"}. c #E3807F",
"|. c #A95A80",
" X c #847B85",
".X c #9A7B92",
"XX c #A36988",
"oX c #8B8589",
"OX c #8E8B94",
"+X c #928797",
"@X c #999395",
"#X c #A2999A",
"$X c #9D9AA3",
"%X c #A097A7",
"&X c #A29DA1",
"*X c #A8A4AA",
"=X c #ADAAB4",
"-X c #B1AEB4",
";X c #B4B2BA",
":X c #F08888",
">X c #C6BBB7",
",X c #BCBBC3",
"<X c #BCBBC5",
"1X c #C6C1C1",
"2X c #C5C4CC",
"3X c #CCCCD4",
"4X c #CFCFD8",
"5X c #D4D0D2",
"6X c #D1D1D9",
/* pixels */
"W S U c Y I U B E Q.I E W S U n G / W.Q ~.Q.Y A U Q Q.I E Q.E U M U U / I Q !.~.E T E Y W.W.!.!.Y c T T E ~.Q.~.Y ~.Q.Q E I I G ",
"Y W Q Y B Q Y B Y T U Q Q V S C G I Y Q I c Y E W M I c E / R R c C G R / !.W Y B I E Q.Y W.W.Q !.W.T c v T Y W.W.W.Q Q.Q I A 7 ",
"Q U M E E W Y V Y ~.U V V S n x U A c E Y I I R ~ E Q b 8 x A T A G E A W.W.Q !.W.B Y c b E Q T T Q.Q.B I Y W.Y Y Y Q.Q.A I A A ",
"! B A G M N V E / G A ( V W R E Y G A A I M M R Q R S R R A U A b G E / Q V B Y W.c T A T E c A b b E E B Y T E Y b M n T R A T ",
"( M G 8 7 A ~ / S 7 C R M Q Y N M A R U Y I n U G S S ~ R C C R b x c R M R I c Y B b | A c T T E b b G R b E Y B R Q Q Q G I I ",
"~ G G G C A / U U v C G ~ M W N x G c A T ~.~ G R U U H n M v A v A x v A E / Y Y A v | A M S A c T T v R R G b T Q / Q Q x x b ",
"A A C R A G ~ U Q A 8 G H A U V E R v Y Q E G U ~ / R C C U G x A E G T T A T M E A R R T 7 C Y B Y ~.v 7 G E 7 M U B Q / B G G ",
"U M R R C x V Q Q W R C v H W E R G v T Y E R U U C G C H S ~ A b G E T A R Y b b A b c M Y G G U B Q v v b b q M Y W.Q ).U c T ",
"x v R G A I M W W.S C 8 7 7 C ~ S | R A c A C G S H | { H C A n G H A I ~ ~ x A A | G b R !.R c U M Q W M 7 v R A B B U Y I A b ",
"b 6 G v G | G v S R g H G 8 8 S F W S R / G S C A x P G C n M  .C H E Y U G v x x U C 8 R V U U Q Q N W v 7 x / Y U U Y n G A b ",
"A v G v 8 C C G A S ~ G n x A J S W R Q R A | S C N C S G S N W U M S U G x G G M x A G G S U 8 C G G G G ~ A x A Q ~.~ A T G v ",
"| A q q v H S C S n C C 8 C S S S S x 7 U q S C H H M S W  .( N W U R C v q v D U 7 7 R U ~ G S A U U G S / ~ S n S S U A A b G ",
"A v 8 7 C H C C C U Z n S R ~ P  .H M U R A H G n S S S U N S ! Q Q G n C | G C n C M ^ R C U R S U N n A S ^ W n C C S M n n v ",
"v 8 F Z Z C C ~ ^ ~ S W ~ ~ ~ S ^  .~ S C |  .^ S x C W N Z A S V ! U G G | / R G Q W W A R ~ R G M S E (.^.( ~ P H H G H S R C ",
"C H { A S C S Z n S A U U S S A A S S S R / G U Z A A U ( M C U m V S A v S x n H C S M M C C D C A R R ~ W x S ^ S y H C Z C x ",
"q y C H ^ S C 7 g H S S H F 7 y n R W C C S U C C C S H S M S P S C 8 v x R U n q 5 y Z C Z ~ U G ~ R R S n U m A q C n H 8 8 n ",
"n H P G y ^ { S S H n n S R j G n C J n 8 Z S W G H C ( V ! W U ~ { G S M n v A H R R R U A W Y V A A S C C R S S F n 8 8 C A x ",
"8 S ( { S W ( W  .S n n R D q g C Z J A A 8 g Z ] S n W ! N J n C Z C A A A x C R G R b A U W U R A R R v D R S C v n S n n M E ",
"8 n J W S C S W A C H W H S G H H X. .S H P H Z 0 Z N J u u r r p e e t C n n C T b T I Y Y Q A U G H G C D C S n C 8 Z W V n V ",
"8 Z C n Z H W S S D D G n S S C H U S n S D 9 j 6 K @.+.O.* * * % % * s C G W W | R x M Y A S S A C T C C C N U / H C S -.!.U A ",
"S q C G N S { D g q 8 n n A S C C S ^ A C g j h e r a $.*.x.r.r.w.w.q.; X r u m v n S U U A P x 8 R G C S A S / S n G C ( V !.^.",
"C q H C g S P C n Z C j n W / H g C W  .U n P K O.; - *.U.R.b.M.f.j.f.w.& & * r C A ~ S U W U S A n n W S n W ~ C j ~  .( ( / { ",
"C C q q H ^ S C C ( P j H W S ~ G S S W m J z O.*.F.J.U.}.}.E.Y.M.m.m.s.t.r.e.; s k ~ ~ S C S S C H G W  ./ S C G F H S S /  .} ",
"C D j C H P A A ^ ^ F q C H G S Z H m N n J o.2 K.}.}.}.:X}.}.E.B.m.m.m.k.n.f.q.- l Z W S C W M A ~ S S S H q v D D F S W ~ P ~ ",
"' j q D 8 C ~ G W Z j q H R x S J S S P l - > c.R.}.:X:X:X:X}.E.B.M.M.M.M.M.n.s.w.; r m S S H n C ~ ( S C D H C G F H ~ H |  .W ",
"~ C g C F j F H S } [ D S ~ C C S J ( Z r & t.N.Y.}.}.:X}.}.}.T.B.M.M.M.M.M.M.k.d.: @ u A U / ~ ~ H S S  .| H H G X.S S S g }  .",
"R } C C F C g C ^.-.j w Z ~ S S S S S g s & r.m.B.Y.}.}.}.}.Y.V.M.M.M.M.M.M.M.M.d.: @ t N W W  .H S S W | H H S G ~ H S C q R ( ",
"q P 8 g j C C q ] H S ] S C Z n } S Z z O.: y.k.M.B.T.}.}.T.B.M.M.M.M.M.M.M.M.M.d.w.; +.Z n C { ~ U W Q | S S S ~ C C q P W S H ",
"D g Z k g 6 F [ ] R ~ } ~ { Z n n Z l - > y.f.l.M.M.V.V.V.V.M.M.M.M.M.M.M.M.M.M.j.d.r.; r F ~ H H -.'.( S Z S A S C ] D C y n C ",
"C C P F F y ] [ ~ P S S S H ~ ( N n a * w.n.M.M.M.M.M.M.M.M.M.M.M.M.M.M.l.M.M.M.m.l.s.: @ P { ;.~ S  .{ S W ( ( N / ~ q q C S C ",
"q R ~ { P P P H ] H C g A H (.'.! h s & w.n.m.M.M.M.M.M.M.M.M.m.k.M.M.M.M.M.M.M.l.m.y.: @ ^ ( ~ C W ~ ].^./.(.! W (  .P G C S n ",
"q H C F g J P =.Z S W ~ W Z S ~ (.-.a * > c.v.m.M.M.M.M.M.m.a.y.y.d.k.M.M.M.l.M.n.v.i.& @ m R H W  .{ / ^.~ (.! U m S { X.' } W ",
"D { C S P P P H {  .P H J y ^ -.@.} X   < 2.H.k.l.l.l.l.k.s.> = : r.f.k.l.l.l.l.h.G.>.o . K H g { ( _.W W (  .( A ( W { H g G P ",
"7 C H q C Z Z C P  .S C P ^ @.(.`.=.X o ,. XP.H.h.z.z.g.a.x.P.I.8.x.p.h.g.z.g.A.J.I.7.# . t M W ( '.'.@.!.(. .H P -.P G C 5 D W ",
"C j D j H  .{ g D  .;.] J (./.). .P a O 7.&XoX6.A.D.D.C.3 4.>X5X;XP.2 u.D.D.D.G.9.$XoX, . Z ( ( C W './.( ( H H W _.~ C q F q 7 ",
"{ H C ] W / ( S Z S Z P h ~ @.`.Z h h s <.8.oX+XXX|.S.:.= 4.1X6X;XI.- 2 Z.L.|.+XOX0.5.) e g S ^  .).( (.(.( S H S S H q C ' F H ",
"H ' ] R  .W N S C 8 Z P C F Z J Z ^ ^ z i $  X<X%X.X9.,.< 4.*X=XOX3.< >.6. X$X<X*X<.@ f H g S D ^ { / (.J W S ~ H S C 7 v { H D ",
"} { G H A n Z n Z P [ Z } } n K P Z F } i o 0.2X2X<X=X+X8.8.8.4.1.3.7. X$X=X<X2X*X%.  h '.W P W  .S S X.{ ~  .H  . .^ g q P } R ",
"] H F G G Z H q P } ^ K P [ P ] Z g P [ i # 7.;X<X3X3X<X*X X1.&.&.7.OX,X3X3X2X<X@X%.  d { W )./.!.^. .P ^ ^.{ G / C | P C C { ~ ",
"R { ' ' C Z H H F g Z S P =.d K K t k h f _ ) 7.%X4X4X3X<X-X#X@X#X*X,X2X4X6X<X X<.) k } } ] U (. . .R 8 C S C C ] } } P S C A U ",
"C C F F D q 8 C 7 j ] { =.=.[ h g P F h D g e @ 0.*X=X;X2X3X5X3X3X4X3X,X=X=X@X$.s K P J -.] y P ~ !  .} H H G j G H ^ ~ g P ;.W ",
"` [ F g C C D C F D { P J P =.Z Z -.=.h d 8 d z #.>.>.8.-X4X4X4X4X4X2XoX<.>.%.$.l K -.-.-. .P Z P P y S g F H C S ( ( -.S g F P ",
"q Z j H F H H 8 F H G H P Z Z ( ! ( P y g g P h X     #.{.&X&X&X&X&X@X5.+   . h ] } -.=.^ @.} K =.-.P t 8 H F H S Q ( S S { C q ",
"' F Z Z G ] R q ' G G ' Z P ( @.N J ^ S ~ ] H g f k L l #.1 1 1 1 1 %.) f e t Z P X.{ ( } P ;.P J J } P Z C G R S ( ( Z H H H C ",
"0 k Z Z 0 D C C D q v ' F } -.~ H H R S H F 0 0 ' ..} K X       .   + z ] { C S ;.} ~ Z Z [ H Z Z W Z P } H q D ' D H q D g { G ",
"d d h P { F C j q 5 q q D ..P H G 7 j H W Z j w ' ..{ ^ P 0 4 d h Z h F C H g C }  .F ] j h X.W J ( A n H n C C } C 5 q H n S n ",
"0 g F P P g 6 0 g D G H ~ F ]  .} G v D H 0 j g F { H R  .F ' D g ' D F H H C S ~ G D g ` j } { W W W H G G H S R | C H H m J n ",
"F j g g F y g C g ' G H S Z ] ~ W G C C C Z k g Z P ~ g C C ] G P S D G H G Z H F D F j k ` G }  .Z C C ` ' F H ' G { C ~ S S 8 ",
"Z Z g ] ] g g y F q 5 v D Z } { ^.H j { H H ].P P H S Z C j F X.X.S H H ' F H | D D H } Z ] H ^ { H 0 0 C D v D A C S W ( ~ H ] ",
"g g P ;...P Z F C ' ] } { g q ~ } } H ~ g P } F P S C { D q q D { / _.} } G H X.` Z } } ;.} Z S S F G v ^ S G C n S Y S S C C R ",
"F } H P } ] g Z Z q D  .P P g ~ ;.X.g C Z Z P h F 0 0 H A C 0 5 C  .).U F q } H ' j } } ..=.`.W H P _.H !.W G D x 8 S U G 7 7 U ",
"S Z g y 8 h ] ] F C 5 ' C H P ^ J S Z y C } P F D D 0 F S G { H g / ^.~ ] C R ~ j j H P ;.P ~ H n 8 P ( W n q 0 6 q 8 G R G A R ",
"} P Z Z Z k g Z } ' ` d g F P ~ R R ^ | D K P } 0 D F D F C H  .U ~ W !.S  . . .( C h F P -.Z h Z Z (./ n C g 5 q G v b R | H 5 ",
"^ ^ =.P P F k 0 g ' K F ] Z Z P ..^.| } D 8 P } P g H j 8 n Z { } S  .W W  .~ P ..H ] [ F F k Z P ^ } ^.~ C H Z G ] | R | ' C q ",
"F F F F h } g g d g g ] F h F F F H F g D D Z F Z C Z F C H ] ' D H ~ P R { H G j h ~ C d 0 F y Z P W J U C C t F D R D x g R S ",
"P Z k F P P ..=.g F H j F F Z H { X.} { C C P P j h j ] D C C C C { S H { g H } 0 0 C F 0 _ [ g Z Z S C R H P P C C H C g { |  .",
"Z g ^ Z Z Z } } k P P g 0 k D F X.] H X.|  ._.].} F Z P S S ^ X.{ H { {  .W W  .P } F g j ` ] ;.F g C C H { H Z H A ^ Z t H S C ",
"K ^ P g y Z } ] d h Z g C 0 j F } } G H ^ ~ Z } F Z g P ~ Z  .~ ^ n S (.~ (.'.W W { j 0 0 ` { } P ~ C C C S } C P W -.=.K Z H q ",
"P F d g h Z y h g k Z j j j 0 P { P F C ~ =.=.} P =.Z ^  .S ~ P C y S P J  .`.P F G F C ] H H ^ A (  .M A A H q H ^.~ ;.=.F F C ",
"] j g h [ [ Z g 5 Z d g ` ` k Z d g F { F } L K =.^ ~ J J Z g } j g K ^ h Z K ;.] C S C ' { 8 C C S W U S ~ C ' C S ~ ].P Z g Z ",
"F f ` 4 h P ~ K y K P d f j [ D h g Z P P } P h ^ =.( ^ Z g D F ` D P F H g F ..^ S ~  .H H Z g C F g } P S H R { C b R ~ R { P ",
"[ [ j g d F P Z Z H } [ d d k D D h F g Z P P { } -.^ ] j d Z j k H { F F P ] { P C A S A W P D 0 k P ^ ..P } H q q C T M x G H ",
"j j 9 9 4 F F h [ h Z Z k } J F ' D j g P { G ].;.^ ;.} F Z [ J g y C { P H H P H G S } Z m C C 0 q H  . .Z h H 5 9 q ' G q C C ",
"0 d w 9 w j Z 0 ` Z d 6 ] } J g 0 0 k g F ;.{ H `.`.[.`.} Z } J J P y G (.H H C 7 ] { H H 8 q ~ ' 6 8 A S g ] { j ` w 9 ` 5 C H "
};
