/* XPM */
static char *result[] = {
/* columns rows colors chars-per-pixel */
"64 64 204 2 ",
"   c #2D1C0D",
".  c #34190D",
"X  c #361B13",
"o  c #352A0F",
"O  c #29350E",
"+  c #35350E",
"@  c #2A2511",
"#  c #2D2913",
"$  c #33291B",
"%  c #2B3312",
"&  c #293C12",
"*  c #343511",
"=  c #393616",
"-  c #3A3A12",
";  c #372724",
":  c #3A3033",
">  c #3F373D",
",  c #471C0F",
"<  c #561D0F",
"1  c #451C12",
"2  c #45360F",
"3  c #572814",
"4  c #473312",
"5  c #543814",
"6  c #6A2916",
"7  c #6D2915",
"8  c #772816",
"9  c #7D3119",
"0  c #46342E",
"q  c #423535",
"w  c #673126",
"e  c #18490D",
"r  c #16520C",
"t  c #1A540E",
"y  c #165A0B",
"u  c #1C5C0D",
"i  c #184B12",
"p  c #1D5512",
"a  c #1E5B11",
"s  c #1F531B",
"d  c #2A4A0D",
"f  c #23500F",
"g  c #2A530C",
"h  c #225B0E",
"j  c #33500F",
"k  c #2B4513",
"l  c #234C12",
"z  c #2B4C16",
"x  c #2E421B",
"c  c #364513",
"v  c #394615",
"b  c #344B12",
"n  c #38491B",
"m  c #225714",
"M  c #295515",
"N  c #235D13",
"B  c #2B5D15",
"V  c #255D19",
"C  c #2B5E1A",
"Z  c #365A18",
"A  c #1E630D",
"S  c #1E6A0E",
"D  c #1E6312",
"F  c #1F6A11",
"G  c #22630E",
"H  c #2E610F",
"J  c #246A0E",
"K  c #296C0E",
"L  c #26710E",
"P  c #29710E",
"I  c #246413",
"U  c #2A6415",
"Y  c #256B13",
"T  c #2B6B15",
"R  c #266319",
"E  c #2B651A",
"W  c #256B18",
"Q  c #2C6B1A",
"!  c #316C16",
"~  c #35641A",
"^  c #39661E",
"/  c #326D1C",
"(  c #267113",
")  c #2C7314",
"_  c #2E7915",
"`  c #277418",
"'  c #2D731A",
"]  c #2E791A",
"[  c #317415",
"{  c #327B15",
"}  c #387A17",
"|  c #33731C",
" . c #39751E",
".. c #347A1B",
"X. c #3A7B1D",
"o. c #374A22",
"O. c #245A20",
"+. c #3A5724",
"@. c #2D6521",
"#. c #2D6B21",
"$. c #336D21",
"%. c #386C25",
"&. c #357322",
"*. c #3A7423",
"=. c #357A22",
"-. c #3B7B23",
";. c #3C7529",
":. c #3D7C2A",
">. c #54421B",
",. c #417D1E",
"<. c #4C432C",
"1. c #574423",
"2. c #4B4437",
"3. c #71483C",
"4. c #407526",
"5. c #417D25",
"6. c #427C2A",
"7. c #423C43",
"8. c #544746",
"9. c #595848",
"0. c #4A4753",
"q. c #4E4D5C",
"w. c #504F5F",
"e. c #5A5555",
"r. c #714F43",
"t. c #665B56",
"y. c #515161",
"u. c #5C5B69",
"i. c #6E6463",
"p. c #716665",
"a. c #646474",
"s. c #6E6872",
"d. c #6B6B7A",
"f. c #7B757B",
"g. c #862817",
"h. c #852D1A",
"j. c #8C2B19",
"k. c #942F1B",
"l. c #863219",
"z. c #9A341C",
"x. c #A62F1C",
"c. c #AB301D",
"v. c #B7341F",
"b. c #A13E2D",
"n. c #B93622",
"m. c #C63721",
"M. c #CC3923",
"N. c #D43B24",
"B. c #DB3C25",
"V. c #E63E26",
"C. c #EB3F27",
"Z. c #EE3F28",
"A. c #A6412F",
"S. c #C4402C",
"D. c #EE4129",
"F. c #F04027",
"G. c #F04028",
"H. c #EE4934",
"J. c #F04833",
"K. c #8D584C",
"L. c #847C7B",
"P. c #CD5E53",
"I. c #EE5849",
"U. c #F05A4C",
"Y. c #D37572",
"T. c #F06C63",
"R. c #F07670",
"E. c #368318",
"W. c #36821C",
"Q. c #3A831C",
"!. c #388321",
"~. c #3D8123",
"^. c #41831F",
"/. c #428224",
"(. c #468A23",
"). c #44832B",
"_. c #49832C",
"`. c #4A8B29",
"'. c #4A8431",
"]. c #508931",
"[. c #F0817F",
"{. c #747484",
"}. c #7D7883",
"|. c #7B7A8A",
" X c #878387",
".X c #938F8E",
"XX c #858595",
"oX c #8A8894",
"OX c #898999",
"+X c #989295",
"@X c #96949E",
"#X c #A49C9C",
"$X c #9899A4",
"%X c #A29FA1",
"&X c #BEAFAA",
"*X c #ADADB6",
"=X c #B8B5BB",
"-X c #E88180",
";X c #BCBBC3",
":X c #C1BFC5",
">X c #C2C1C8",
",X c #D0CDCE",
"<X c #CDCCD4",
"1X c #D0D0D8",
/* pixels */
"[ T ) S _ ( ) L ] W.) ' _ T [ A ( =.E...W.W.] Y ) } W.( W.] ] T Y ) W ..P _ Q.!._ ` ] ` W.E.Q.Q._ S ( ` =.!...Q._ !.W.] ] ( W ) ",
"_ [ { _ L { _ L _ ` ( { { P T I W ( _ { ( S _ [ [ J _ S ` ..{ ' A W W ] X.Q.{ ' Y ( W.W._ E.E.E.!.E.` S F ( _ E.E.E.E.W.{ ( Y y ",
"{ ) J ] ) _ P _ _ !.' L J K J A ) Y S _ _ ( ( ` } ' ] S A A Y ) Y ` ' Y E.{ E.E.E.P ( ( S _ { ) ` ] W.S ( ] W._ _ { W.} Y Y Y Y ",
"} L Y W J K [ ] ..W K X.) ..| ) ) T W W ( J J ' ' ' T ` ' K W W F Y ] ..{ _ P P E.S ` F ` ] S Y ( ( ] ] ( _ L ] ) S J S ) ` Y ` ",
"X.J W a y Y | ..Y u I ' K _ _ Y J Y ` ( ` ) J ) ` T ) | W Y A ' F A Y W J ] ( J _ L Y =.W A ) ( ] F F W ' D ` _ L ` _ ....W Y ( ",
"..W W W I I ..) ) D D W [ Y [ K A W A ( _ =.' Y ' ) T Q J U Y I D F D F Y ] ] ) _ S A =.S Y ` T S ` ` A ' ] ` F _ ..} X.{ S A S ",
"Y Y I ' Y Y ' ) { T a W Q Y P P ) &.Y ` ..] Y ' | ..' Y N Q Y A Y ] W ` ` ( ( Y ] W ' ] ) y Y ` J ) !.D y W ] y S ) P { E.J ( W ",
") G ] [ Y A T { { ' [ I D Q ..[ ] W A ( _ ] ] T T I Y I ' Q ] Y W W ] ( Y ] ) Y F ( F A L ' Y W _ L ..S D F D D L _ _ { (._ F W ",
"A A ( W Y W J ..E.K I a y y I | T =.' Y S Y I W ) Q =.&.E Y I J F W ( ) ] | A D Y X.W F ' Q.W Y L K { ' J y I ` Y L J _ ) ( Y F ",
"F y Q D ` &.Y A T [ I E W u u T U [ ) Q ..W T Y G N Q ` I u K ~.W E [ ) ) W D A A ' D A ' ) ) ) } ..K { D y A ..' ) ) ) Y W Y D ",
"W D W R u I I W Y T | Y G u Y Q T [ ' ] ] T =.E Y K I T Y Q K [ T K ) ' W I R W J A I Y Y ) T u D Y T W W | G G J ] X...Y ` Y D ",
"=.F a a N W Y U T I I I h K T Y Q Y A u T A E J W / G T [ ~.} K [ ) ` I a D a W ' y u ' ' ' ( T Y ` ) Y Q | ..T J T ) ) Y Y Y W ",
"Y I u u U E Y Y G Q I J W / | / 5.Q J T ) Y Q ' G Y Y K [ K T X.{ } Y D Y =.W D A K K | ` Y ) [ T ) T G Y Y  .! K I I Y J A J a ",
"D u E I U I I /  ...T [ ..[ ..T  .-...K I -.=.| Q G I ..T G Y K P } ) W W =.} ' W | [ [ Y Q Q | T J ) ) /.^.X.../ E Q Q T T ' R ",
"I Q / T Y I T I G ! T ' Q Y T I T Y Q Y ` -.W Q T Y U ! } Y G T K P T I a T A A W I T K Y G I W I I ' ] ..Q h Y | T I Q Y U I A ",
"D u I Q *.T I u u Q T T T I u N G ! [ I I Y [ I G I Y Q T H U ! H h u I D [ ) Y a r h U U U | ' W ..Q ' Q G ) K U N I h I a y J ",
"N Q Q U G .. .T ' T G G ) Q V W N J P H u G [ | U E Y  .j v c c >.v b U J J D I Q / | W ' Y [ ) ) J W Y Y I Q T T E G h u I I S ",
"A T X.&.Q |  .[ -.T u I ' E a N I U Q K I u m I / B M Z >.3 3 3 3 3 4 b B B u J ' ` ` F J ) { ) ' Y ` | I R ' W I D G Q J A J [ ",
"y G ! [ T G T [ Y G E [ Q T Y E W :.-.T Q / Q E k + + 1.K.P.n.v.c.v.z.5 + + d G ` F ( ( _ _ { J ) W Q W D I Y T G D N I [ ) G J ",
"h U I G Y ! Q T E W E Y G T T Y / ' Q G T E e z 5 7 w K.Y.R.I.H.F.F.M.j.7 6 >.Z | ' S Y ) Y ) T Y Y E Y I U Y T } Q Y U -.Q.P ) ",
"E a W T Y U &.R I a a I G I ) I h U ..T I N k 2 l.S.P.Y.-X[.R.U.D.G.D.N.M.M.l.2 z D W ) ) Y [ A u ' W I T Y T } Y I Q Y Q.K ^.~.",
"I a E I I ! / Y h Y I N G [ ..Q I G  . .U d 5 l.n.G.U.T.T.T.T.I.G.D.D.D.G.Z.m.h.5 g ! [ Q [ / T I J G [ Q G [ | I N / -.X.X.| =.",
"I I a a Q *.U I I X./ N T | Q | Y T U ..g - 9 M.Z.F.J.J.J.J.J.J.G.G.G.G.Z.G.V.m.9 = Z [ T Y ) T Y E T [ X...Q I W E E ) Y X.-.*.",
"I W V I T ! Y Y  . .@.p I [ Y E I / I T g + h.B.Z.Z.Z.Z.Z.Z.G.Z.G.F.G.D.Z.Z.Z.V.g.4 M | T a ' K I | W ) Q W u G R R U T / ..Q | ",
"Q N p W a I $.Q [ T N p T Q A T / Q Y ! >.2 k.D.D.D.D.D.D.D.N.N.B.V.F.F.D.F.D.B.k.5 b H Y T ) h I | ..T I W Q I W @.E ..T -.-.' ",
"&.I m W E N W Q U *.$.@.U ..Y I T !  .c 5 z.M.D.D.D.D.C.D.m.j.9 j.m.C.D.F.D.F.C.M.z.5 c H T | ..| ! T Q -.=./ Y R -.Q T T N -.-.",
"[ -.I I E I m Y /.6.V a I ..Q T T U B + 7 M.F.Z.F.F.F.V.N.A.r.r.3.b.m.D.D.F.G.G.F.M.7 + H Q ..*.T T T [ X.E Q Q W | Q T Y u Q X.",
"a / t N V I I a &.W E $.Q H Y h  .Q B - 7 M.F.Z.F.C.F.m.j.K.&X=X#XK.h.m.Z.Z.F.G.F.M.8 - H J I | | ) [ ..=.T Y / | Y I a / [ T Q ",
"V a V C N t E %./ Q / =. .| T G G T B = 7 M.Z.Z.m.c.x.g.< p.,X1X*Xt.3 g.x.c.m.Z.F.M.7 - B ' | / Q -.`.X.T U Q Y Q U Q R N I h I ",
"W I [ E E h / %.%.[ T T / W / X.K U ~ * 6 m.C.B.j., 1 . . t.=X*X X8.. X 1 1 j.B.C.m.7 - I ' &.6.| Q *.=.T [ } X.K } | a N u Q Y ",
"p | | %./ / / Q &.Q I I Y Q ~.`.} K ~ % , 8 j.g.<   ; : : 8.s.i.q.q : : : : w g.j.8 , + H -.X.[ G / | './.Q./.} [ } :./ W I U G ",
"a T Y E I U &.4.I E [ | / U Y } /.5.Z -   . . X X $ > q.q.7.; $ ; 7.0.q.q.q.> X . .   O h [ [ Q | -.=...-.../.} [ G T =.;.Q -.[ ",
"Y &.I U [ Q ! Q =.*./ T T h  ./.,.4.g Z v o ; q 7.7.0.w.y.0.7.> 7.0.y.w.y.w.0.> ; o & Z Y [ Q N | -.).} } ..5.X.Y X.|  .W N T ' ",
"p R Q I U E U N / X.Q U /  .,.5.5.5.I H n 0 8.y.y.w.w.w.w.w.w.w.w.y.w.w.w.y.y.u.8.<.Z H } K G [ X.`.`.X.Q.5.| / / -.[ Q N r R | ",
"a I R a Q -. .N W *.5.%.! /.^.`.5. .~ v <.p.}.|.d.y.y.y.y.w.y.w.w.y.w.y.w.y.a.|.}.p.<.c ^ ) X.Q.G X.`.^.Q.X.| W [ _.| I a E a u ",
"&.W I $.| ..X.Y T U I / N  .,._.U h ^ - 0 s.XXOX|.d.a.a.y.y.w.w.w.w.y.a.a.d.|.OXXXs.0 o f h Q  .-./.X././.X.Q E Q Y Q a N #.W E ",
"Q #.&.' -.[ K Q I u I / U E U ! U &.~ * ; w.{.XXXXXXXX|.u.y.y.y.y.w.u.|.XXXXXXXX{.w.; % B I E Y | | =./.) [ T / Q T I t D &.Q Y ",
";.&.E W U I Y I U / %.~ &. .h ! ~ U B # : f.XX{.{.{.XXXX{.d.{.{.{.{.|.OXXX|.{.{.|.f.q % 4.[ / [ -.Q E ~.=.| *.T -.~.| I a $.-.Q ",
"#.E E W U Y E N / *. .U / %./ $.U I B % 2.+X$Xd.a.a.|.OXXXXXXXXX|.XXXXXX|.a.a.d.@X+X2.% E | (.^.^.-.-./  .:.| Q =.I =.Q I I =./ ",
"&.=.Q $.I T E Q W N E ! / ;.M E ~ h M z o.9.f.$X$X@X{.{.d.d.d.d.a.{.d.d.|.$X$X@Xf.t.+.Z %./ ) /.X.-.[ a I T I Y / &.*./ T I K Q ",
"I N E W I N u I a V #.&.4.4.%.E N / E V z @ t.=X<X;XOXd.d.d.d.d.d.d.d.d.oX;X1X=Xi.$ Z ! 5.%.h / | .. .*.Q Q W V W /  .| m / 6...",
"@.%.@.N U N Y I E E &./ ! / 4.U U 5.4.B e @ t.:X1X,X;X*X*X*X*X*X*X*X*X*X;X<X1X;Xt.# ^ 5.5.-./ U  .| h ! N W E I T X.X.5.T N U / ",
"a E N Q W Q Q a W W Q Q / U H ,.[ ,. .h f % 9..X=X<X1X1X1X1X<X1X1X1X1X1X1X1X=X.X9.= ^ 5. .,.*.Q 4.,./ h N E W Q ! [ X.T T &.N a ",
"#.Q U I E $.Q a Q W R #.U / X.X.P ! / T / E n 0  X:X,X<X1X1X1X1X1X1X<X<X<X>X X2.o.%./  .*./ 6.~ H ! *./ U Y Q Q Y X.Q.U E E | I ",
"p C U I a W N I V D a @.E *.-. .E E ' T W E e % 9.L.L.+X:X1X1X1X1X1X:X+XL.L.9.k ^ *.%.I U %.Q E U ! U [ -.Q p R #.Y Q u Y I $.W ",
"m m N &.$.E W N a r a D W *.&.W W a I Q ..U m s x $ $ 9.#X>X:X:X:X;X%X9.$ $ k m &.-.Q #.E N :.[ [ X.Y I Q J I I *.R r p E J T I ",
"t m U / / U p r u R W | / E $.-.-.W D R E a C p f z k o.9.p.i.i.i.i.e.o.k k f U | Q R V @.V &.| Q [ | Q W E Q Q ' =.W E T K ! G ",
"E E B N E m m N I #.@.W U U $.| | Y I I I U C N U / / m % # # # # # % C E U U Q E I E N C @.Q *.-.U Y N R #.E Q W @.&.U / ! Y u ",
"C U N %.%.h I u E a r I I U &.*.~.Q N &.E | _./ / Q Y U l l l +.Z g M E #.E T =.R R Q *.E / U ..| / p t N V R Y I Y ) [ X.| W $.",
"a N  .6.*./ U E I #.#.-.%.a m | -.*.Q $.I / *.E / Q I %.R a p W =.X./.-.*.W Q :.#.E *.%.6.;.U Q T Q W I ..Q W J h T ) T T Y U W ",
"E %.U / &.%.N I E a W :./ $.I / ).;.N I I U / V E p t Q U I a r a :./.Q W N *.Q #.V *.X.4.4._.[ Q $.6.' ~.[ U Y u u T ) W y y ) ",
"T E h G u B $.%.E N r Q I Q Q  .! U U m I &./ ~ N E a E Y T $.#.u -.Q. .#.I ' / N V Q / 6./ | / h u Q X.[ G a a u a u W ] E Y ..",
"*./ U U E B N E &.$.@.N N Q /  .#.[ | -.I / / &.a E E I E Y Q -.) ..[ Q.Q X.-.:.*.U N E Q 5.U N U Y /.X.G I N r p W D F W &.#.t ",
" . .*./ $.E U p C E @.E / U U Q =.~.-.=.R m / &.Q N @.V u G T &.*.E  ...[ *.../ ;.Q %.%.E R C U /  .-.-...G Q U Q ' =.Q =.| D a ",
"E E E E B *.B m m m V ~ E m E E E Q E R E I U E E B E E I W $.#.W U [ / Q &.Q Q V N | I N s ~ h I / | [ T I I m @.Y ' W a I ' Q ",
"Q E U E / E *.:.I E / I E E E Q &.:.&.$.U I / / C N I $.R N I I I &.Q Q =.I Q &.m t I E p O.%.N U U ! I Q Q / / I I E I I / =.-.",
"U m  .U U I  .*.C / Q N a R R E :.%.W :.-.-._.'.&.Q U / T ! | :.&.Q &. .-.[ ..-./ &./ N V @.%.-.E a G I Q  .E U Q Y  .I h / T I ",
"/  ./ N h U *.%.m I B I B p V E =.=.E Q .. .U *.~ U N / [ Y :./  .G T 6.| 5.`.[ ! &.V p s E %.&./ / Y I I Q &.Y / [ 5.4.~ U Q a ",
"/ E m m U C m N m C U V m N p / %./ Q I / 4.4.4./ *.U | *.!  ./ N h U  .T 4._.~ E W Q N $.E Q  .T X.-.K T Y Q a Q :. .6.*.E E I ",
"$.C N B %.&.U B r U m m @.@.C E u m U %.E *.^ U 4. . ./ T U N &.E N T &.B U T 6.$.W U Y Q =.u Y I T [ T Y ..I #.I T [ '. .T m U ",
"E m @.t V U  .U m ! / m M V $.C N N E / ~ *. .N  .5.X.%.E N E E E E E E / N E ;.&.T | X./ Q I N N E N *./ T E | #.I F ' [ ' &.$.",
"%.%.V m m E  .B U Q *.%.m V N @.E N E N U / / =. .4. . .V a N U C / &.E E / $.&.[ I U Q Y [ / E p E Q *.;./ =.Q a a W ` D A W E ",
"V V i i t E E U %.N B E U %.Q E @.E V N Q &.Q '.6. .6.*.~ E &.T N N U =.Q Q Q Q W Q T *.U G I D a a E -.-.U B Q r i a #.R u J N ",
"p s i i l V C p @.U m t $.-.! N a p C N E 6.#.Q _._.]._.%.U *./ T ! h Y ).Q T E r $.&.Q Q h h $.#.t A Y Y B $.&.V @.s e @.p Y W "
};
