/* XPM */
static char *result[] = {
/* columns rows colors chars-per-pixel */
"64 64 216 2 ",
"   c #2A1D0C",
".  c #341F15",
"X  c #272B0C",
"o  c #3C2D0F",
"O  c #29320E",
"+  c #213B0B",
"@  c #35340F",
"#  c #333F0F",
"$  c #2C2617",
"%  c #2C2A12",
"&  c #3A2915",
"*  c #31211B",
"=  c #2A3914",
"-  c #393515",
";  c #3B3913",
":  c #332522",
">  c #352B25",
",  c #3D2E2B",
"<  c #383427",
"1  c #3C3032",
"2  c #431C0E",
"3  c #491E11",
"4  c #601F11",
"5  c #432D12",
"6  c #46291B",
"7  c #572A12",
"8  c #463417",
"9  c #5A3717",
"0  c #662213",
"q  c #772817",
"w  c #643515",
"e  c #4A2B27",
"r  c #49352B",
"t  c #583329",
"y  c #473A34",
"u  c #4B3F3E",
"i  c #583F35",
"p  c #6F392A",
"a  c #164B0D",
"s  c #16520C",
"d  c #1B550E",
"f  c #165A0B",
"g  c #1C5C0D",
"h  c #154A11",
"j  c #1D5512",
"k  c #1E5C12",
"l  c #1F531B",
"z  c #274A0D",
"x  c #34460F",
"c  c #23530D",
"v  c #225B0E",
"b  c #2F5C0E",
"n  c #2A4515",
"m  c #264D11",
"M  c #2B4D14",
"N  c #354615",
"B  c #334C13",
"V  c #334C1B",
"C  c #225715",
"Z  c #2C5312",
"A  c #235D13",
"S  c #2A5C14",
"D  c #2A5219",
"F  c #255D19",
"G  c #2A5D1B",
"H  c #365517",
"J  c #355A1A",
"K  c #1E630D",
"L  c #1E6A0E",
"P  c #1E6412",
"I  c #1F6A11",
"U  c #22630E",
"Y  c #246B0E",
"T  c #296C0F",
"R  c #26710E",
"E  c #29710E",
"W  c #246313",
"Q  c #2A6415",
"!  c #256B13",
"~  c #2B6B15",
"^  c #266319",
"/  c #2B651A",
"(  c #256B19",
")  c #2C6B1A",
"_  c #326316",
"`  c #316C16",
"'  c #34641B",
"]  c #326D1C",
"[  c #267113",
"{  c #2B7314",
"}  c #2E7A15",
"|  c #277418",
" . c #2D731A",
".. c #2E791A",
"X. c #327415",
"o. c #327B15",
"O. c #387A17",
"+. c #33731C",
"@. c #39751E",
"#. c #347A1B",
"$. c #3A7B1D",
"%. c #345322",
"&. c #2D6521",
"*. c #2D6B21",
"=. c #336D21",
"-. c #396C23",
";. c #357322",
":. c #3A7423",
">. c #347922",
",. c #3B7B23",
"<. c #3C7529",
"1. c #3D7B2A",
"2. c #417D1E",
"3. c #44482B",
"4. c #4A4638",
"5. c #56463E",
"6. c #515131",
"7. c #407526",
"8. c #417D25",
"9. c #427C2A",
"0. c #433D44",
"q. c #473F47",
"w. c #474046",
"e. c #46424A",
"r. c #4A444C",
"t. c #534441",
"y. c #5A4D46",
"u. c #585546",
"i. c #4B4852",
"p. c #504C56",
"a. c #5D5459",
"s. c #62524E",
"d. c #655957",
"f. c #6A5E5C",
"g. c #5E5C69",
"h. c #615D69",
"j. c #686369",
"k. c #766D6B",
"l. c #7A736F",
"z. c #636272",
"x. c #6A6979",
"c. c #726B73",
"v. c #786E75",
"b. c #7B7477",
"n. c #73717C",
"m. c #872C1A",
"M. c #982E1B",
"N. c #8E301A",
"B. c #99341C",
"V. c #A22F1C",
"C. c #A9331D",
"Z. c #B0321E",
"A. c #8E3727",
"S. c #8B3B2B",
"D. c #BC3420",
"F. c #C23925",
"G. c #CC3923",
"H. c #D23A24",
"J. c #DB3C25",
"K. c #E53E26",
"L. c #87473B",
"P. c #B74231",
"I. c #CA4533",
"U. c #8F4D42",
"Y. c #9B554C",
"T. c #B85950",
"R. c #977168",
"E. c #837B7A",
"W. c #CA5D53",
"Q. c #E65A4B",
"!. c #F25F51",
"~. c #E06156",
"^. c #D3716C",
"/. c #E57874",
"(. c #368318",
"). c #36821C",
"_. c #3B831C",
"`. c #388321",
"'. c #3D8123",
"]. c #41831F",
"[. c #428324",
"{. c #468A23",
"}. c #44832B",
"|. c #49832C",
" X c #4A8B29",
".X c #4A8431",
"XX c #508931",
"oX c #747382",
"OX c #7B7985",
"+X c #7B7B8B",
"@X c #7F7F90",
"#X c #817C85",
"$X c #817E8A",
"%X c #878489",
"&X c #9A8D89",
"*X c #838393",
"=X c #898693",
"-X c #898897",
";X c #8D8C9C",
":X c #918D95",
">X c #999499",
",X c #A99B96",
"<X c #8F90A0",
"1X c #9090A0",
"2X c #A29EA3",
"3X c #A8A5AB",
"4X c #ABABB5",
"5X c #B1AEB2",
"6X c #B6B4BB",
"7X c #BCBBC3",
"8X c #C6C5CD",
"9X c #C8C7CE",
"0X c #CCCCD4",
"qX c #D0CFD6",
"wX c #D1D1D9",
"eX c #DEDDDF",
/* pixels */
"X.! } L } [ [ R ..).[ { #.! X.K ~ ).....).o...T [ o.).[ ..)...[ T [ ( #.[ X._.`...| ..[ (.(._._.} L [ | >.`.o.`.} _.).#...[ [ [ ",
"} X.#.{ R o.} R | { { } O.E ! W ( [ o.).[ L } ..X.T [ L .... .+.U ! (  ._._.o.} ! [ ).).} (.(.(._.(.| L I ( } (.(._.} ).o.[ ! k ",
"o.{ T ..} o.} { ..,.} R E T W K { ! L ..} [ [ ~ O.{ ..I K K ! ~ ! ( ..! O.(.o._.(.E | [ L ..o.| | ..).I [ } (.} } (.).O.[ ! I ! ",
"O.R Y ( Y T E  .#. .Y $.[ #. .X.{ ( ! [ [ [ ! +.+.#.!  . .W { ! I ! ..#...} E E (.L [ I | ..L ! [ [ ....[ } { ..[ I Y L  . .! [ ",
"$.Y ( k f ! +.#.! g ^  .T } { ! ! W | {  .[ U X. .( ~  ._ M z J Z z Z _ Y { } L } R ! >.! L  .[ ..I ! ( ..P | } [ | o.O.#.[ ! [ ",
"+.( ( ( W W #.{ { P P ! X.T X.E K ! I ! } `. .! { ! ~ ' N o 5 5 o o 5 x U +.+.{ } ! K >.I ! [ ! L |  .f | ..[ I { o.o.#...K L I ",
"! ! W  .! !  .{ +.! g !  .! E {  .+.I } ....! { ] J B N 6.L.U.L.m.m.m.w x B Z S ..I  ...[ g ! | R } `.P f | *.f Y { E o.).R ( ! ",
"X.Y  .{ ! K [ O.o.X. .W P ) +.X. .( I [ } .. .~ B 8 8 9 Y.^.^.^.I.H.J.C.7 5 5 B W ! I K [ { ! ( { R ..I P P I P [ } } o.{.{ I ( ",
"K K  .( ! ! Y +.(.E W k f f W +.~ >.{ ! I ! S B 6.U.Y.Y.W.~.T.U.A.Z.K.H.C.M.N.w B ] ^ W { _. .! [ R O.{ L f P  .! R E { { [ Y ( ",
"P f ) P  .>.! L ~ +.W / ( g g ~ ~ X.~  .+.Q H 8 L.^././.Q.I.S.p p p F.K.K.K.J.M.7 H A K +.{ ~ { O.o.T +.W f K $.{ [ } { ! ( I P ",
"I P ( P g P W ( ! ~ +.! U g ! ` ~ +.{ +.` B 9 B.G.Q.!.Q.P.S.R.,X&XR.L.Z.K.K.K.G.B.9 x S ! ! { g I ^ ! ( ( +.Y U ! +._.+.! | ( L ",
">.( k k k ) Q ! ~ U W W g Y ~ ~ ~ ! U g S @ q F.K.H.H.F.m.i ,XeX9X>Xt q D.G.H.K.H.m.o Z { +.( ~ ! {  .! ~ #.+.! Y ~ [ { ! ! W ! ",
"! W g g W / Q W W X.! U )  .+.+.[.) Y ! J @ q G.Z.q 0 4 2 r >X0X6X%Xr 2 4 0 q Z.H.m.5 J { ! [ +.! { ! U ~ ! +.X.W W W ~ Y U U W ",
"P g / W Q W W +.@.+.! +.+.+.X.~ +.,.+.Q B 7 m.Z.N.e : e e u E.2X%Xj.0.e e : : m.Z.m.w B S / ]  .~ Y { { [.,.$.@.] / ~ ) ) !  .W ",
"W / +.Q ~ W ~ W U ~ ! X.~ ~ ~ W ~ ~ Q x 9 B.V.0 e q.a.c.n.c.s.q.y r.j.b.n.g.r.e 0 M.V.w x c ^ ~ W I ;. .+.+.v ~ #.~ U ) ^ ~ W K ",
"P K W ) >.~ W g v ) ~ ~ ~ ^ f W U ` _ @ 7 M.N.e 0.g.+X;X1X*Xd.y y y.$X;X;X+Xz.w.e m.M.0 o S +.{ ( +. . .{ U E Y Q A U U ^ k f U ",
"v ) { Q U +.;.~ ) ~ U U ~ ) k / W W b ; 2 3 e q.g.@X-X<X1X;X$X+X+X$X;X1X;X;X@Xz.r.e 3 2 @ b X.X.E ! ! ( ! U ) ~ ~ / v U g W ! L ",
"K ~ $.+.) +.$.X.'.~ U W  .( P A W ! _ O & * u h.OX;X<X1X1X1X1X1X1X1X1X1X<X<X;X@Xz.r.> & @ Q o.{ X.! ( +.W ^  .~ W P U ~ U U Y  .",
"f W ~ +.~ W ~ X.~ g / +.~ ~ ~ / ) 1.:.O * 0.g.+X;X;X1X1X1X1X1X1X1X1X1X<X<X<X<X;X$Xz.e.* % S #.Y [ (  .( P W ^ ~ U k P W X.~ U T ",
"v Q Q U ~ ` ` ~ ~ ^ ( ! W ! ~ ^ ) { S X * e.z.*X1X1X<X1X1X1X<X1X1X1X1X1X1X<X<X1X;Xx.i.* X c { ! ! ! ~ ^ ^ W ~ { O. .W ~ [._.E [ ",
"~ k / ! Y ~ ;.^ W k g W U ! ~ W U ~ ` O * 0.g.+X;X<X<X1X1X1X1X1X1X1X1X1X1X1X<X;X*Xz.r.: O c  .g g { ~ ! ~ Y ! O.~ W ~ Q $.E _.'.",
"W k ) W A ~ ` ^ v ~ W A U X.#.) A W ] H n < e.z.+X<X<X<X1X1X1X1X1X1X1X1X1X1X;X@Xz.i.< = Z Q X.~ ~ W U +.) U X.+.W k +.,.$.$.+.;.",
"W P k k ) ;.~ W Q @.] A / X.~ +.~ / ~ +.c O > e.z.@X-X-X;X1X1X1X1X1X1X;X-X-X*Xx.i.> O G Q ! { ~ ^ ~ ! +.$.#.~ W ( ^ / ~ ! >.,.,.",
"W ^ ^ W / ~ ~ ~ >.@./ k W  .^ ~ Q ) Y ~ v c n < e.g.z.x.@X<X1X1X1X1X<X$Xx.x.h.i.> V m ' ~ A X.Y Y +.( ~ / ( v P ^ ^ ~ ~ +.+.` +.",
") F k ^ k W  ./  .~ F j ~  .K ~ ~ ~ ~ ] ;. .' O > e.i.i.x.@X*X*X*X*X@XoXp.q.e.1 O M W ! ~ ~  .v W +.@.! W ^ ) W ( &.( +.` >.,.+.",
";.W k ! / A ) *.~ @.=.^ ~ +.^ Y { X.;.~ W ~ ] Z = $ : > i.g.z.g.z.z.z.p.1 * : = z U ~ ! ~ ~ #. .+. .~ { ,.>.*.~ ! 1.~ ~ ~ W ,.'.",
" .,.W W Q W k ^ [.[.F j ^ +.~ ~ ~ ~ ~ W ! / ] ;.m O     , 0.0.0.0.0.0.1 .   X m Q +.O.{ T X.+.,.~ ~ ~ X.$.( ~  .! +.) ~ ! k ~ $.",
"A ] d F F W Q A =.) / =.` W ~ v ;.) ~ +.O.~ / W ^ &.# & * * * * * * * . & O m F v +._._.{ U W +.+.{ +.X.,.~ ~ ) ;.W ^ k ] ` ~ ) ",
"W k G ^ A d / -.=. .] :.+.>.~ U U ~ ) ) X.$._ z V J 6.5.5.u t.u u u u t.5.3.B x M _ X.{ (  .+.) ) 8. X,.~ Q ~ ! ~ ~ *.( A U v W ",
"^ W +./ / v =.=.;.` ~ ~ ~ ) +.$.T Q ] A W ~ Z - 6 8 s.OX%XOX+X%X+X$X$X%XOXd.r o ; V Q E { +.+.8.+.~ ,.+.~ X.O.$.T +.+.j k W { W ",
"g ] +.=.] ` ] ) =.) W U ~ ) 8. XX.Q @.Q c x %.y.s.s.v.;X<X1X1X1X1X1X1X1X;Xb.d.s.y.3.z W { ,.,.+.W +.+..X'.[.[.O.X.X.,. .) W Q U ",
"k ) W ~ A ` =.7.Q ~  .+.` ! ~ +.{.8.] 7.J ; 5.E.=X=X;X1X<X<X;X1X1X1X1X1X1X;X=X=X#Xy.8 Z T { { ) X.,.;.#.].+.[.O.` T ~ ;.<.) ,.+.",
"^ ;.W / ` ` ` ` +.,.` ) ` v @.8.2.2.Z J 3.s.v.=X1X1X1X1X<X<X<X<X1X1X1X1X1X1X1X1X;Xv.d.3.B ` ~ A ;.$.}.O.X.$.,.,.~ O.+.+.~ A /  .",
"g W  .A ( / Q F =.,.) W ` @.2.{.9.8.S ; r c.=X;X1X1X1X<X1X<X<X<X1X1X1X1X1X1X1X1X;X-Xn.i ; b Y +.$. X X$._.8.$.] ) ,. .) W s ^ +.",
"k W W k ) ,.>.A ^ ,.9.=.` [.].{.7.] ' ; r d.oX-X1X1X;X1X1X1X<X<X1X1X1X1X1X1X1X1X;XOXh.y @ S $.$.Y +. X].$.$.+.) +.}.+.W k ^ g g ",
";.) W ;. .@.+.~ Q ~ Q =.S +.2.|.Q S ' - r a.oX+X*X*X;X<X1X1X<X<X1X1X1X1X1X;X*X*X$XoXh.r o Z ~ @.,.{.$.[.[.$.~ ) ~ ~ ) k W +.^ / ",
"*.) *.+.,.+.T ~ W g A ] Q / Q ` Q +.' @ y %X>XoXx.z.+X-X<X<X<X<X<X<X<X<X;X+Xx.z.x.<X:X5.% m ~ Q +.;.#.}.~ X.~ ] ] ~ W d P ;.) ^ ",
">.<.^ ) ! U Q Y Q +.;.' ;.;.S Q ` _ G N y #X>XOXn.oXoX@X@X@X@X@X@X@X@X+X*XOXoXoXoX-X%X6.N Q ) +.@.) ~ 1.;.+.>.) ,.'.+.A k =.,.) ",
"*.( / ) ~ Q / A ] :.@._ ] -.] ] Q S / &.V %.k.1X6X4X;Xx.z.z.z.z.z.g.z.z.x.;X4X6X3Xk.4.V _ `  X_.[.'.,.] +.[.+.~ +.^ >.] W W ;. .",
";.;.) *.W ~ ( ) ^ A / ~ ] 7.F / ' v S G z X y.5XwX0X4X@XOXOXOX+XOX+X+XOX+X1X8XwX7Xd.$ J :.+.~ [.$.,.) K ! ~ W ^ +.;.>.] ~ W T  .",
"W W / / ^ A g W j k *.;.7.7.-.G W ` / S M X y.3X9XqX8X7X7X7X7X7X7X7X7X7X7X8X0XwX6Xf.% Z 8.-.v ] +.@.@.>.) ( ^ ^ ) ) ;.+.A ` 9.+.",
"&.=./ W ^ U W W / ( ;.+.` ] 7.Q ~ 7.9.A a + 3.l.3X9XwXwXwXwXwXwXwXwXwXwXwXwX0X3Xb.6.H -.8.$.` Q @.` W _ W ) / W ! $.$.8.) A ) ` ",
"k ^ G ~ ! ) ) k ^ ) ( ) ] / Q 2.O.2.] v A A D < j.5X8X8XqXqXqXqXwXwXwX0X9X8X6Xb.r %.-.,.@.8.<.` 2.:.] v k / ^ ) ` X.].~ ( +.A k ",
"*./ Q ^ / =.) k ) ) ( &.Q ` @.2.T ` +.` +.] S n 6.j.l.E.3X0XwXwXwXwXwX4XE.l.k.6.n -.@.@.:.] 9.` _ ` ,.` ~ ^ ) ) ~ o.$.Q ) / +.W ",
"C / Q Q k ^ W W ^ k P *.^ :.8.+.( /  .~ ~ / j j V - $ < l.6X7X6X7X7X6X%X3.$ $ n -.:.=.Q Q =.) Q ~ X.Q ` ,./ k W ] ^ ) g / W ;.( ",
"C C C ] ;.^ ^ A j s k k ^ <.+.) / k A ) ` / F j G V V V 6.f.f.f.f.f.f.u.V z z c ;.,.) =.G F 1.] ` $.~ W +.W W W ,.^ s j / U Q Y ",
"d C / ] ] W j d k ( ) +.+./ ] ,.`.( I ^ / j G j ^ ;.] Q V % $ % % % X = G ) W ~ ] ) ^ F &.C :.#.~ X.+.~ ^ (  .(  .>.^ ^ ~ T ` U ",
"/ S A A / A A A A *./ ( ~ Q =.+.+.^ W W W Q G W Q  .+.A C m D D M m n D Q ~ Q / / W / A / &.) ;.,.~ W W ^ *.^ ) ) &.;.Q +.~ ~ g ",
"^ W W ] ;.A W v / k s W ^ W ;.:.8.) A +./ +..X] ` ) Q ~ W W / <.,.` ( / ) ^ / ,.^ ^ / >.Q =.~ +.+.) j j ^ ^ ( ! W ! ~ X.$.+.) *.",
"A F @.9.:.' Q ^ W *. .1.=.A C ] >.;.=.] A =.:.) ] ) W =.^ k k ^ >.O.}.,.<.) ) 1.*./ :.-.9.<.Q ~ ~ ) ) W +.~ ^ W K ~ X.{ ! ! ! ) ",
") =./ ] ;.-.F Q ^ k ^ ,.] ] W +.}.9.A W Q Q ` G ^ j j ( W ^ j s A ,.[.{ ( k ,.) *.F :.8.<.7.|.+.) ] 1. ._.X.~ ^ v g [ ~ ( f g [ ",
"Q Q v S v W ] =./ A d ) W ] ) @.` Q Q g W ;.] / ^ / j ) ~ ( +.) k ,.[.+.*.W ) +.F A ~ ] 9.] ;.` U g ] #.X.U g j d k g (  .~ ! +.",
":.] Q S / S F W :.=.&.C A ) ` +.) ) $.,.^ / ] ;.C ^ / ^ ~ W +.,.{ +.X._.! $.,.,.@.W F / ) 8.Q W Q Q [.$.U ^ A s j ( P ! | ;.*.s ",
"@.@.,.] =./ G d S &./ / =.Q ^ ] >.}.,.;.^ v =.:.` A / F g U / +.:.~ $.+.X.,.+.;.<.] -.=./ / / S ] @.$.,.+.U ) G )  .>. .>.+.W k ",
"/ ' / / Q <.F A C k F ] / A / / ) ) / S ^ ^ Q ) / ^ / / W / *.) / / +.` ) ;.) ) C F +.Q C j / v W ` +.+.~ W W A / ( ) ^ k W  .( ",
"] ^ W / ` ' :.1.F / ] A / ' ^ ) =.1.>.;.W W ) ] S C Q =.^ W ^ ^ ! ;.) ) ,.W ) ;.j j W Q l F -.A Q Q ~ W  .) +.` W W ( W W ] ,.,.",
"/ A @.Q Q Q ;.:.Q ' ` A C F ^ / 9.=.) '.,.1.9..X;./ Q ] ~ ) ;.1.;.( ;.=.,.+.+.$.+.;.' F F &.-.9./ k U W ) ;.` W ) Q +.Q v ` ~ A ",
"` -.` A v Q :.=.C W W F W C F / >.:.^ ) @.+._ :.` / A ] +.~ ,.+.+.U ~ [.+.[. XX.` ;.^ s l / =.,.] ] Q W W ) ;.Q ` X.8.7.' W ) A ",
"=./ C v S ^ C S C F Q F F C C ) =.] / W +.7.7.8.] 7.Q +.@.~ +.` Q v Q ] _ 8.|.` ! ) ~ W =./ ) +.! $.$.! ! ( ) P ( '.+..X:./ / W ",
"] G A G -.:.Q S d Q C A &.' G Q C A Q ;./ ;.' _ 7.@.@.` ` Q S ;.^ F ` @.S / ` 9.=.^ Q ^ ) >.g ^ ^ ~ +.{ T +.W *.^ ~ +..X@.Q A Q ",
"/ C G j S ` @.Q A ` ] C C F =./ A A Q ] ] :.] F ] 2.:.@.^ F ^ / / ^ ) / ) A / 1.;.~ +.,.X.~ Q A W ) A :.` ~ /  .*.W ! ..X.) ;.;.",
"-.<.F j C Q ] Q / ` :.=.C C W &./ F / A Q ] ] ;.8.7.@.=.W C S Q ^ =.=./ / ] =.;.` W ~ ~ Q +.] ^ k S ] ;.1.] ,./ j k ! ( I K ( / ",
"F F h h a &./ Q -.F S / Q ;.' / &./ F C ` ;.) }.|.@.9.:.' ^ ;._ A A Q ;.) ~ ) ) ( ) ~ ;.! W W A k j / ,.,.Q ^ / s s k *.( k U W ",
"l C l h C F G j / S C d =.7.~ A j j Q ^ / 9.;.) 9.|.XX|.:.W :.] ` ` g ~ }. ./ Q s ;.;.) / v k +.*.d K ! Q A -.:.F &.l h &.f W / "
};
