/* XPM */
static char *result[] = {
/* columns rows colors chars-per-pixel */
"64 64 237 2 ",
"   c #351D11",
".  c #28290C",
"X  c #26340D",
"o  c #35350E",
"O  c #2C2B14",
"+  c #3B2816",
"@  c #2B3814",
"#  c #373A16",
"$  c #382B26",
"%  c #363425",
"&  c #3D3637",
"*  c #451C11",
"=  c #561E11",
"-  c #442917",
";  c #4A2C13",
":  c #582715",
">  c #453617",
",  c #573419",
"<  c #642914",
"1  c #742716",
"2  c #743317",
"3  c #4C2A26",
"4  c #473A29",
"5  c #54332C",
"6  c #483A36",
"7  c #6E3126",
"8  c #154B0E",
"9  c #16520C",
"0  c #1B540D",
"q  c #165A0B",
"w  c #1C5C0D",
"e  c #154A11",
"r  c #1D5512",
"t  c #1E5C11",
"y  c #1F531B",
"u  c #284A0E",
"i  c #324A0F",
"p  c #26530F",
"a  c #215B0E",
"s  c #284813",
"d  c #374717",
"f  c #235613",
"g  c #235D13",
"h  c #2C5817",
"j  c #2A5C14",
"k  c #245D19",
"l  c #355518",
"z  c #335B1C",
"x  c #1D630D",
"c  c #1E6A0E",
"v  c #1E6312",
"b  c #1F6911",
"n  c #22630E",
"m  c #246A0E",
"M  c #2A6B0E",
"N  c #376D0E",
"B  c #26710E",
"V  c #29710E",
"C  c #246413",
"Z  c #2A6415",
"A  c #256B13",
"S  c #2B6B15",
"D  c #266419",
"F  c #2B651A",
"G  c #256B18",
"H  c #2C6B1A",
"J  c #376617",
"K  c #326B15",
"L  c #31641B",
"P  c #326C1C",
"I  c #267113",
"U  c #2B7314",
"Y  c #2E7A15",
"T  c #277418",
"R  c #2E731A",
"E  c #2E791A",
"W  c #327315",
"Q  c #3B7415",
"!  c #327B15",
"~  c #3C7C16",
"^  c #33731C",
"/  c #3A741D",
"(  c #337B1B",
")  c #3A7B1D",
"_  c #355322",
"`  c #2D6521",
"'  c #2D6C21",
"]  c #336D21",
"[  c #376A24",
"{  c #357322",
"}  c #3A7423",
"|  c #357A22",
" . c #3B7B23",
".. c #3C7429",
"X. c #3D7B29",
"o. c #474714",
"O. c #4A7510",
"+. c #477B16",
"@. c #464729",
"#. c #4E532F",
"$. c #4B4737",
"%. c #57453A",
"&. c #644C37",
"*. c #486B29",
"=. c #417425",
"-. c #427C25",
";. c #437D2A",
":. c #473D43",
">. c #713D45",
",. c #4B4348",
"<. c #554848",
"1. c #5C554B",
"2. c #4D4A56",
"3. c #544C57",
"4. c #56515B",
"5. c #6F4C4D",
"6. c #65595B",
"7. c #68645B",
"8. c #5D5B69",
"9. c #665868",
"0. c #615F6E",
"q. c #695E6F",
"w. c #696168",
"e. c #75686A",
"r. c #75716A",
"t. c #656272",
"y. c #6A6574",
"u. c #6E6D7D",
"i. c #736E7D",
"p. c #7A747A",
"a. c #892C1B",
"s. c #962E1B",
"d. c #96331B",
"f. c #A12F1D",
"g. c #A7331D",
"h. c #B2351F",
"j. c #893A2A",
"k. c #AF3B27",
"l. c #B73520",
"z. c #BC3621",
"x. c #C53823",
"c. c #D83B24",
"v. c #E53E26",
"b. c #8D4538",
"n. c #BB4231",
"m. c #CC422F",
"M. c #EC452F",
"N. c #8F524C",
"B. c #AC5954",
"V. c #91596E",
"C. c #AE576E",
"Z. c #9B666E",
"A. c #896877",
"S. c #86787A",
"D. c #AB646C",
"F. c #BA6677",
"G. c #CD574B",
"H. c #E85A4B",
"J. c #CB665E",
"K. c #D47275",
"L. c #EA7873",
"P. c #36831A",
"I. c #3A831C",
"U. c #388321",
"Y. c #3D8123",
"T. c #5B840C",
"R. c #488219",
"E. c #588617",
"W. c #6C8C0D",
"Q. c #768C09",
"!. c #7A940B",
"~. c #648916",
"^. c #799613",
"/. c #428224",
"(. c #468A23",
"). c #44832B",
"_. c #48832B",
"`. c #4A8B2A",
"'. c #598D25",
"]. c #558D2D",
"[. c #4B8331",
"{. c #909E0C",
"}. c #869C16",
"|. c #8FA00E",
" X c #97A40B",
".X c #AAAD09",
"XX c #B4B209",
"oX c #8F827D",
"OX c #756E81",
"+X c #7B7484",
"@X c #797685",
"#X c #7C7B8A",
"$X c #87778C",
"%X c #857B8A",
"&X c #967D8C",
"*X c #947C91",
"=X c #AE7D93",
"-X c #C57D8F",
";X c #CE7891",
":X c #DB7E93",
">X c #88848B",
",X c #958C88",
"<X c #858393",
"1X c #8A8495",
"2X c #898896",
"3X c #8D8C9C",
"4X c #9A859B",
"5X c #928D9E",
"6X c #9A8B9B",
"7X c #999497",
"8X c #91909E",
"9X c #A78799",
"0X c #B68599",
"qX c #978CA0",
"wX c #9090A0",
"eX c #9D9CA5",
"rX c #A585A0",
"tX c #B380A0",
"yX c #A49FA3",
"uX c #A7A2A6",
"iX c #AEA9AC",
"pX c #B0ADB2",
"aX c #B7B5BD",
"sX c #DF818D",
"dX c #C68394",
"fX c #CC8295",
"gX c #D98292",
"hX c #E6828F",
"jX c #EC828C",
"kX c #EA848E",
"lX c #BAB9C2",
"zX c #C0BFC9",
"xX c #C5C4CD",
"cX c #C8C8CF",
"vX c #C7C7D0",
"bX c #CDCDD5",
"nX c #D2D2D9",
/* pixels */
"W S U c Y B U I E P.V Y ^ U W x G P.( E P.P.Y A U ! P.I E E ! S m U U ( B Y I.Y.Y T E T P.P.I.I.Y c I T | U.P.I.Y U.P.( E I T G ",
"Y W ! Y I ! Y B U T G ! ! V S C S I ! ! I b ( U W A I c E E ( R x G G R ) I.! Y I B E P.Y P.I.P.I.P.T c v T Y ! P.I.Y P.! I A w ",
"! U m E U ! Y V Y | U V m S n x I A c E Y I T U ! Y ( c x x A U G G E m ! P.! I.P.V T B B U ( I I P.P.c I Y P.Y Y Y P.) A I b A ",
"~ B A G m V V ^ ( R A I.U ! ^ U Y G G A I B n R ^ ^ G R ^ m G G b G E ( ! V B Y P.c T b T E c A b I T P.I Y V ( Y c m c U T A I ",
") m G w q A ^ ( S q C R m Y Y M m A T U Y I n R H A U ^ H A n E A q A U m E T c Y B A | I x U I E b b G R v T T B T ! ! ( I A I ",
"^ G G G C A ( U U v v G W S ! M x G x I U U.R A R U S S n A A A v b x v A E ( Y Y A x | c A U A c T T x R E T b U ( ( ) ( n x b ",
"A A C R A G ^ U ! S w G H S M I U | A I ( E G U ^ ( R Z n H G n ! R.Y U T T A A ( b R R T q A T B Y U.v q G E q m V B ! P.m T A ",
"U m R R C x B ! ! Y R C v H ( U R G x T Y E R U U v G C H S ^ W !. XE.G A E U c x T b c A U G G T B E b v b v v I Y ! Y (.Y b G ",
"x x R G A S m ! ~ S C t q w C ! S ( R A c A C G U H | { H C G N |..XT.I E ^ x C m | G A R I.R A Y m ! U x q C R A B V U Y I A b ",
"b r G v H ( G x A R g H H q w S Z ^ U H ( G S C C w R H C x m R.O.E.P.I U G v v x U C x W U S U ( ! m Y v q x ( W I U U m G G v ",
"b v G v w v C G S S ^ G n x C H S ^ W ( R G ( H C M C S G S M ! U m M R G x D G M O.T.Q A I U w n C G H R ^ n n A ! | ^ m T A b ",
"| G t t v H C G G n n C a n S S S S x q U t H n H R n S W  .~ M K W S C t v C G ~ !..XW.W R G S A R R A S ^ ( S n U U U A A A G ",
"G C q w C F F C C ^ C n S R ^ ^ X.U A S R A H H n S S m N i i l i l i p C | A n m W.{.E.! A S ^ S U S n A S ( W C C C A n x n g ",
"x w F C S C C ^ / W S ^ ^ ^ ^ S ^  .^ m C | | ^ S a Z K l o.; ; ; ; ; > h { / W S ~ R.Q m H R ^ A m U Y /.-.) ^ P F H H H U R C ",
"C H ^ S S C Z C n U S U H S G n S S Z A T | H U j s i d #.b.N.N.b.d.d.2 > i o p C C S m S n C G C A R ' ^ ^ w M ^ S n H C S C x ",
"t a C H ) Z C w w H S S S C w C n ^ W M C S P g h > , : N.K.L.J.M.c.c.z.2 ; ; o p 8 a Z Z C ^ U A ^ R R U n S m S g C n F t q n ",
"n H ^ C n ^ } S H H n n S H D D n C S n a A K d #.N.B.B.J.H.G.b.j.d.c.v.h.g.f.2 o.h P U R A W W B A A A G n S S S D n a w C A c ",
"w S ) ^ S ^ ) W Y.S x n R F t t C W +.Q Z 0 i ; 7 J.L.L.H.m.k.&.<.7 k.c.v.v.v.h.< o.Z n I U ! U ! G H R C D R H C v w W n n A U ",
"q C S ^ S C S W S w S ^ R S C H P ^..XW.J i > d.x.M.H.H.n.j.Z.iXuXS.j.s.c.v.v.c.h.2 d j U Y ! n I S H G v D Z S n C a C W U n V ",
"a S Z a Z R W Z S D D G n S S D W Q..XW.J d < h.v.x.x.l.a.3 oXnXnXiX&.< g.x.z.c.c.a.+ i U m U S A A G D C Z m U ( H C S  .I.V S ",
"H t D Z M C { D C t w C n S S C v O.E.+.j o < h.x.1 = = * + S.xXaX>X6 * * : = s.c.s.- i W M U x x R G A S n S ( A C H C I.M I./.",
"C t H C C S ^ C a S C g n W ( H t n ( J i , a.g.a.3 $ 6 6 $.e.>XS.9.<.6 6 & $ 7 f.d.2 o.l K U S C n n R H n W ^ C t ^  .) ) ( { ",
"C C t t H ^ S C C  .] g S ^ S ^ S S M d ; s.h.< 3 ,.8.i.%X+X6.6 4 6 w.%X#Xy.3.6 = a.h.2 o j S S S G S W ) ( S C D G H S S (  .} ",
"C D D C H S Z S ^ / L t C S G S Z H j # ; 1 a., 6 0.@X3XwX2Xy.<.,.4.#XwX3X<XOX2.3 7 a.< + u W S C ^ H S H H w v D D Z Z ^ ^ ^ R ",
"H t t G w C { H ^ Z Z r H H x S H Z Z d     $ :.8.#X3XwXwX3X2X<X%X<X3X3XwX3X2Xu.2.& +   + h S n C ^ ) S G C H C H ` H ^ H  . .^ ",
"{ C g D F g D H A } ] D Z ( C C S W P i   $ :.8.#X1XwXwXwXwXwXwX8X8X5XwXwX8XwX<XOX2.&   O h ( ^ ^ H S S | | ' D G  .U Z S g | Y.",
"R  .C C F D t Z Y.;.k y C ( S S S S Z X   & 8.#X3XwXwXwXwXwXwX3X8XwX5XwX3XwX3X3X<XOX2.$ . p P  .U G S W ) H H U G ^ H S Z w S ) ",
"t P 0 g g C D g { S Z { H C Z n  .S Z @ O & 8.#XwXwXwXwXwXwXwXwX8X8X3XwX5XwX5XwX<XOX2.$ . u C ^ ^ S W ( { S S H ^ C C t H ^ S H ",
"D t j F g 0 F ] ] H ^ -.+.R.Z n n S F s O & 4.OX1XwXwXwXwXwXwXwXwXwXwXwX3X5X5X2X<X0.,.$ X j P P Q '.'.) S C S S K C ] D C a n C ",
"F C ^ F Z g ] ] ^ ^ S O.|. XE.) M C H p s O % 8.OX<XwXwXwXwXwXwXwXwX3XqXwXwXwX#Xt.,.% s j P ' /.~..X}.) S W ~ ) m ( ^ t t C S C ",
"w H ^ ] P P P L ] H C N  X.X'.`.Q Z / F 0 X O & 4.OX<X#X3XwXwXwXwX5XwX3X1X%X%Xy.,.% X p U  . .^ T.XX}.].-././.~ ! Q | P H C Z n ",
"t H C H g Z {  .Z S H / E.O.K W /./.P ;.L p s @ & 2.t.t.@X3XqXqX6X6XqX$XOXy.q.2.$ @ p C M U R H +.~.R.) I.^ /.) S m S { ..^ | ^ ",
"D { C S P Z K H { } P H H C ^ /.+.} j } -.L r s % & :.3.q.S.&X&X*X*X$X$X>.3.:.:.# p K E.W.~ H g ^  .).W ( / Y.) S ) ^ ^ H v Z R ",
"q D H g G H Z C ^  .S C P ^ +./._.+.Z J P } F J z + 3 3 5.V.A.A.A.A.$XV.>.:.3 $ =./ R. XXXT.m W ) `.`.+.) /.) H H  .H H C 9 D ^ ",
"g v C g H  .} g D  .;.] P /./.).-.E.}.~./ / } P L d 4 5 7 V.D.V.Z.Z.$XV.>.5 $ _ { H +.^.|.O.R.Y.n ^ `.Y.~ | ^ H ^ `.^ C t F t w ",
"{ H C { ^ ^ ( S S Z Z P j ^ +._.L Q.XX}.J L L [ z z #.&.>.B.B.F.F.F.C.C.5.&.*.*.z F g K M M S ^  .`.( (./.) S H Z S H t C ' C H ",
"H G ' { | W K S C a g P g F Z K Z ~.}.~.K ] z l d @.&.A.D.=XK.K.K.K.;XF.Z.5.&.*.l z ..P P C H D ^ { ( /.K ^ S H H S g w t { R C ",
"....G H C n M C C ^ } L } } n K P Z J =.[ [ _ @.5 5 5.oX0XgX:X:X:X:X:XdX=XA.&.5 5 l p F _.U R R  .S S X.| R | H  .Y.^ v g '  .H ",
"{ D F H D S S g ' } / Z P ] P ] F j P } F d # 1.e.e.S.0X0XgXhXkX:XjXgXfX0X&XA.e.e.%.d g { ^ (.R././. .P ^ /.{ H { C { P C C { { ",
"R { H ' C Z H H D g F K P =.k F F a j h i @.%.p.6X6X7X9XtXfXhXkXjXjXsX;X0X9X6X3X1X6.4 @.[ P S /.) | R w n K C C ^  . .P S C A S ",
"g C F F D g w C r t ] { } =.[ F j P j d # 1.p.<XwXqXqX9X0XfXgX:XjXgXgX-X0X9X9XqX3X%Xe.$.@.J g P ^ / ^ } H H D D D H | ^ g P ;.( ",
"` [ F g C C C C F F { ^ K P =.Z S  .} o 3 6.#X3XwXwX6X6XtX-XfXfXfXfX-X-X=X*X6XqX3X1Xp.<.> l K Z ^ K C K g D H n S ) ) -.Z g Z P ",
"t F D H D H H t G H G R P Z Z  .Q ) P i - <.y.<XwXwXqXrXrXtXtX0X0X0X9X0X=X=X4X5X3X@X9.6 # *.} K =.+.P a t H D H K ! ) S H H g w ",
"' F Z C H { H t H G D ' F P ) +.M K / o + 4.#X#X#X#X$X4XrXrXrXrX9X7X9X6X=X*X$X#X@X@Xi.%.+ l -.P Z ^ } P S C H ' G ~ ) Z H H { C ",
"r j Z Z t D C C D t v ` D  . .^ H S P s % S.yX@Xt.t.OX1XqX6X4X6X7X5X5X5X6X%Xy.0.t.3XeX1.O l H Z K W S P  .H t D ] G H w C C { D ",
"f f k { ] D D g r 9 t t D } / S D r g s _ 7.S.<X<X1X%X@X+X+X+X+X+X@X@Xi.@X@X<X<X<X>Xp.#.@ f ..^ +.}.O.M H C C C } C 8 t H n S C ",
"r g F K P g 0 r t D H R ^ F ] X.| S v g k @ $.7XlXzXeXu.t.t.t.w.8.t.8.t.0.<XaXxXaXr.% @ z f { | W.XX XO.G G R S R } D F Z M K n ",
"F k g g F a g C v ' F H Z F ' { ^ C C C f . 6 7XbXbXlXeX5XqX5X5X8X8X8X8X8XiXxXbXxXe.O s k ] H } ~.!.T.Z D ` D H ' G { C ( S S w ",
"F Z g ] { g j g F r 9 D C F { } /.P J -.Z X 4 ,XlXvXvXvXxXxXxXcXvXvXvXvXvXbXbXxXpXw.O l Z [ H ^ | / a r D D v C A S S W ) ^ Z ' ",
"t g P ;...F Z Z D R R ..] t g P -.~. XW.j h _ 1.S.aXbXnXbXbXbXbXbXbXnXnXbXnXbXyX7.$._ J ;.} S S H H H C ^ H G C w S W I S G G U ",
"F { H P } ] g C D t G  .P P C P _.}..XQ.J Z h X $.,XpXpXaXcXbXbXbXnXbXcXaXpXiXr.# s } } ..=._.^ Z P X.R I.W S C n w S R H q q U ",
"H Z a j a C [ { F t 9 P C H P ^ Q O.O.O.M { L h _ $.<.1.>XxXnXnXbXbXnXiXr.<.<.$.s f H ^ =.P ^ H C w H ) W n t r 0 t q G R S G W ",
"/ P F Z Z h g F } ` F f g H P ^ H U )  .D F P } s X . O 1.7XuXyXuXuXyXoX@.O O l } g g F P ;.Z g Z M /.) n C g 9 r G x G G | H r ",
"^ }  .P ] F j r g F [ ` ] Z Z P | ). .{ D t P } F s h s d $.6 6 $.6 6 _ l J j F ..H [ [ F F j Z P / )  .^ C H Z H R | H | ' v w ",
"L H F F g } g g g f g ] F g F F H H D k F C Z F F D F F e X O X . X O @ F { H P k g ^ Z f r F g Z H ^ ^ S C C g F G R D w C R S ",
"P D j F P P =...g F P g F F F H { ..{ { Z C P P C g g ] k f f j j L j Z ^ C H { r r C F y k [ g Z Z Z A R H P P C C H C C P | X.",
"Z g ^ Z Z Z } { F L P g t D k F X.{ H Y.| X.;.[.} H Z P S H } X.{ H { ^ X.^ W  .P { P g k ` ] ;.F t n C S { F Z H A ^ Z a P S x ",
"P } P g 0 Z } ] r Z g D j r k F } } D H / ^ Z } F F g P ^ S  .^ / M K ;.( /.`.W S { k r y F ]  .P ^ C C C S } C P ^ -.=.L Z H g ",
"P F g f Z F g j k D F j k g r P ] P H C ^ =.=.=.P =.Z ^ } S { Q W.Q.O.J Z =._.P H H H C ] D R ^ S ) ) A S G H v S  .^ [.} H F g ",
"] h f j [ } Z j 0 j 0 g z ` F F r g F { F } P L =./ / W Z Z j +. XXX~./ Z Z K -.] C Z C H } w C C S ^ U M ^ C ' C S ^ [./ Z g Z ",
"F f ` e j P P Z g K P g k k [ D g g j P P } ] g Q -.} } F g F P O.~.+.F P g F ..{ S ^  .U S Z g C H g } P S H ^ ' C G R ^ R { ] ",
"] ..k f r Z / Z Z F } [ y g k F F g F g Z P ^ } }  ./ { k f C j J P } F F P ] { H n S S Z ^ P F r k H } ..P { H t w G T x x H H ",
"k k e e 8 L F j [ j Z F k } K F ' ` k g P ] H ).;.} ;.} F F } Z j C C { H H H H H H S { S C C t r r H }  .Z j H 9 8 t ' D q x C ",
"y f r e y k F r F F f 0 ] -.Z g r r j C F ;.] H ).;.]._.{ Z } Q Z P w S ).K G F 9 ] { H H a n { ' 9 x S S g ] } k ` y e ` r C G "
};
