/* XPM */
static char *result[] = {
/* columns rows colors chars-per-pixel */
"64 64 243 2 ",
"   c #3E1B0F",
".  c #352B1B",
"X  c #2D3A12",
"o  c #393718",
"O  c #3A3225",
"+  c #452A16",
"@  c #562515",
"#  c #473418",
"$  c #583819",
"%  c #6B2A17",
"&  c #45342C",
"*  c #4F3228",
"=  c #4A3936",
"-  c #563A35",
";  c #653427",
":  c #78372C",
">  c #144A0F",
",  c #16570C",
"<  c #1B540D",
"1  c #1C5C0D",
"2  c #1D5512",
"3  c #1E5C11",
"4  c #1F531A",
"5  c #28440C",
"6  c #2C510B",
"7  c #215C0E",
"8  c #2B4916",
"9  c #364918",
"0  c #215715",
"q  c #245717",
"w  c #235D13",
"e  c #2B5D15",
"r  c #255D19",
"t  c #2A5E1B",
"y  c #345719",
"u  c #1E630D",
"i  c #1E6A0E",
"p  c #1E6412",
"a  c #1F6911",
"s  c #22640E",
"d  c #246B0E",
"f  c #2A690E",
"g  c #3A6E0D",
"h  c #29720E",
"j  c #39730E",
"k  c #246313",
"l  c #2A6415",
"z  c #256B13",
"x  c #2A6B15",
"c  c #266419",
"v  c #2B651A",
"b  c #256B19",
"n  c #2C6B1A",
"m  c #326C14",
"M  c #32651C",
"N  c #37681A",
"B  c #326D1C",
"V  c #267113",
"C  c #2B7314",
"Z  c #2E7A15",
"A  c #277418",
"S  c #2D731A",
"D  c #2E791A",
"F  c #327416",
"G  c #327B15",
"H  c #3C7814",
"J  c #33731C",
"K  c #3A741C",
"L  c #337B1B",
"P  c #3A7B1D",
"I  c #375124",
"U  c #395A24",
"Y  c #276420",
"T  c #2C6521",
"R  c #2D6B21",
"E  c #336522",
"W  c #386626",
"Q  c #346C22",
"!  c #3A6D25",
"~  c #3B642B",
"^  c #3B6C2A",
"/  c #357322",
"(  c #3A7424",
")  c #347A22",
"_  c #3C7B24",
"`  c #3D732B",
"'  c #3E7A2A",
"]  c #3F7531",
"[  c #41491A",
"{  c #4C760D",
"}  c #477918",
"|  c #517C18",
" . c #44482A",
".. c #53452B",
"X. c #465529",
"o. c #574838",
"O. c #495632",
"+. c #555739",
"@. c #684A3E",
"#. c #685337",
"$. c #416824",
"%. c #43642C",
"&. c #416C2B",
"*. c #417C24",
"=. c #43742C",
"-. c #437B2B",
";. c #467829",
":. c #486634",
">. c #446B32",
",. c #4B6B35",
"<. c #546A3B",
"1. c #477633",
"2. c #557839",
"3. c #69683B",
"4. c #564748",
"5. c #554D4D",
"6. c #664846",
"7. c #704E4F",
"8. c #685845",
"9. c #695959",
"0. c #775454",
"q. c #5E7342",
"w. c #686A44",
"e. c #6F694C",
"r. c #7A5E6A",
"t. c #6B656F",
"y. c #77696B",
"u. c #756975",
"i. c #79717B",
"p. c #8B301D",
"a. c #A2331F",
"s. c #883928",
"d. c #983A2A",
"f. c #A33A27",
"g. c #B53B27",
"h. c #C73B25",
"j. c #D83E27",
"k. c #8C4437",
"l. c #B84332",
"z. c #99713D",
"x. c #CE432F",
"c. c #D74733",
"v. c #E14A36",
"b. c #8E564D",
"n. c #AA5854",
"m. c #8A6555",
"M. c #976853",
"N. c #B27555",
"B. c #8F5867",
"V. c #976A6E",
"C. c #886776",
"Z. c #877879",
"A. c #97737D",
"S. c #A76776",
"D. c #B17076",
"F. c #B87778",
"G. c #D25A50",
"H. c #EC594A",
"J. c #D26C57",
"K. c #E36F54",
"L. c #CE6F6E",
"P. c #C7797A",
"I. c #E37569",
"U. c #36831A",
"Y. c #3A831C",
"T. c #3B8222",
"R. c #5A850D",
"E. c #468218",
"W. c #568314",
"Q. c #67890D",
"!. c #678716",
"~. c #709111",
"^. c #779514",
"/. c #438325",
"(. c #48842A",
"). c #5A8723",
"_. c #4A8332",
"`. c #538636",
"'. c #6B9223",
"]. c #648744",
"[. c #8C9B0C",
"{. c #889B14",
"}. c #95A20B",
"|. c #9DA50C",
" X c #93A310",
".X c #A4A909",
"XX c #B8B409",
"oX c #A9AE12",
"OX c #93A920",
"+X c #C4BB0D",
"@X c #D6C407",
"#X c #BD8459",
"$X c #B28977",
"%X c #C79759",
"&X c #E98D56",
"*X c #CD8B6E",
"=X c #D6986C",
"-X c #C89476",
";X c #D6957A",
":X c #E68F67",
">X c #E79668",
",X c #D5A36A",
"<X c #E9A16A",
"1X c #E5A778",
"2X c #E9B97B",
"3X c #EDC07F",
"4X c #7E7A87",
"5X c #996E81",
"6X c #877986",
"7X c #997B87",
"8X c #AB7989",
"9X c #B77685",
"0X c #A47E91",
"qX c #88838B",
"wX c #9A868D",
"eX c #8B8694",
"rX c #8F8D9C",
"tX c #968696",
"yX c #9A8494",
"uX c #958A96",
"iX c #918C9B",
"pX c #97929B",
"aX c #A5868C",
"sX c #B88787",
"dX c #AE8990",
"fX c #ADA29E",
"gX c #A99EA6",
"hX c #B595A5",
"jX c #ABA8B2",
"kX c #B3AAB0",
"lX c #CC8F87",
"zX c #CBA791",
"xX c #E1AE82",
"cX c #C695A7",
"vX c #C3ADB6",
"bX c #ECC684",
"nX c #F0D587",
"mX c #BDB9C1",
"MX c #C3BCC4",
"NX c #C6C5CC",
"BX c #C7C5CC",
"VX c #CAC9D1",
"CX c #DCDCE0",
/* pixels */
"F z C d D h V h Z U.V Z F x C s A L G L U.U.Z x C G U.V D U.S V h x C L V F Y.T.D A D V U.U.Y.Y.Z i V A D T.U.Y.h T.T.L D V V A ",
"Z F Z D V G U.i A A x G G C z s b C G G V i Z C F z V i D L D S d k b S Y.Y.F Z V h U.U.Z U.Y.U.Y.U.A i p V D U.U.Y.G U.G V z , ",
"G C h S C G Z Z Z ) C h C z z u C z i Z D V V S L D D a 1 u z G R.W.L d U.U.G Y.U.h A a i D Z V A Z U.i V D U.h Z Z U.G z z z z ",
"G h d b d f h S L S z Y.h F S F V b b z V d d S J F z S J z C R.XX[.Y.G Z h h Z U.i C z A D i z V A D D V D Z Z Z i d i C A z A ",
"P d b 1 , z F L z 1 b S f F Z z z z S A D V s S x b x J n z s ~.@X.Xj A d C A i Z h a ) z i A G ~.~.h z G u A D V C G G G A z A ",
"J b b b k z K C C 3 p k F z F h u k i V C T.S x S C x x s z z Q.XX|.h p z D L C Z z i ) d d G R..X.XY.u S S A a C L G G G u u p ",
"x z w S z b F C G b u b S z h h S L a C Z D b C F L S z 7 x b j ~.Q.C S A z A d D a S D A f Q.|.}.Q.E.i 1 b D , d C h Z G V A k ",
"C d D S k u V G G F S k 3 n K F S b u A Z D J x S k b k F n J z C V D A z D C z d b a u d H }.XXQ.U.U.i p a p p d Z U.U./.C a A ",
"u p S b k x d F U.h k p , 1 p F x ) C b u z z k C n ) / n z z s k x z V S J u k z ) b z S E.W.R.H h G C u 1 k S z h h V F V z a ",
"p , n p A L b u z n w n n , 1 n b F x F L x b z z w S n c 1 f Y.x b G F S b p u u C p u S V C Z G J d G p , u L Z V Z S z b k p ",
"a p b p 3 p z l x x F l s 7 z x x J S J S x _ n k s s l z x h F h d z C b k v n d u k b k C x u s b b n S S z u z G ) F z S V a ",
") k 3 3 p n z x | R.g z 1 f b x x z u 1 G { R.f n F f x N y y 6 y y y e w p c T J 1 1 S S F b b d C C z b J F x s x C C z z a b ",
"b k 1 1 l n c m [.XXQ.f x F J B _ n d C E..X.X| s l x e 9 + o + + + # 6 f _ n c c x d / n b x F x C z d x z J F k s k x d s u k ",
"u 3 l z k l k K ~.|.}.~.E.J F x K _ F z H {.{.} e 5 6 [ #.b.k.k.p.p.p.$ 9 X.~ ! Q / K J n J / / x d C C /._ P K m M b n n z n k ",
"k n Q z x s x k f { .XXXR.b n z x z x h G E.g m 9 # + ; n.I.L.J.x.j.j.p.$ # $ y E c B m B l v v b k / S J F 7 x ( b s n k b z 1 ",
"3 7 z n ( x s 1 1 H Q.~.} c , w k J m k k b g 9 ..b.b.n.G.G.n.k.p.g.j.h.a.d.s...9 0 c E E Q ` J n J n S S s h d f w k s l 3 , d ",
"1 n S c s J K b n n s f C n p b w z m s 7 l y $ k.L.I.I.H.l.k.- - d.h.j.j.v.l.s.[ X.! ^ ( ! _ ( } H z z b s x b b n 7 s 1 k k i ",
"s x P K x J P F } b u s S l r w c v B x e X $ a.h.H.H.H.f.k.aXgXyXB.p.g.v.v.c.g.d...U E / ( _ |  X[.} S p c F n z 7 s x s s d C ",
", k x F x z x F x s n F n l l n B ' T.n e # % j.j.h.h.g.% 6.kXCXMX6X* : l.l.l.c.g.% [ ! ` _ *.| .X|.E.n w k z x 7 s 7 f F C d z ",
"7 x l 7 k n m x b c c b z b n l B F n k 6 # % h.a.% @     4.hXMXjXy.& @ ; ; s.g.l.;  .! ` Q / K | | J c k x k x L B c b *.P C h ",
"b p c l f l / l k 3 3 s f x x c c l ( e [ % p.a.: O O =  .5.Z.eXu.9.4.= 4.= - d.l.: #.X.$./ ( l k J n b x s d J b k x c Y.h P /.",
"s 3 n k k x F c 7 x w w w F ) B k l K 9 $ a.a.@ O 5.t.4X4Xu.5.O & 5.i.4X4Xt.5.- ; l.k...X.&.( Q n c k J n f H L k w J P P P L K ",
"c w 3 3 n / b z z K B w x J n J l n t # @ p.s.* 5.t.qXrXrXeX9.5.4.t.eXrXeX4Xt.5.6.d.s.$ ..! ! B v n n F *.W.^.{ c b n x b _ _ / ",
"c c c w n m x k ( K v < c F l n l B e O + + & 5.t.eXrXrXrXrXeXeX6XeXrXiX0XrX6Xu.5.- - - O.~ =.n x J n F }  XXXQ.n c c x m F S J ",
"n w 3 l 1 c B b m x e 2 n n p b n n v o . = 5.t.4X0XrXrXrXrXpXrXrXrXiXtXtXiXtX6Xu.5.4.- 4.U ( k c J K W.[. X{.{ n c n J x _ _ F ",
"J k p c b w n n x ( R r b J b g } } ! X . 5.4X6X0X6XrXrXrXrXrXrXrXrXtXtXtXtXtX0X6Xr.7.6.O.^ _ / K n C ~.XX{.} x b _ x x b k _ _ ",
"S _ w z c c 3 c T.-.c q l K n Q..XQ.M X O 5.t.$XaX0XrXrXrXrXrXrXrXiXtXtX0X0X0X0X7XC.7.*  .N / _ n x n W.^.W.B n b K n l z 7 x P ",
"3 n < e e k c q ^ n n ! B c x Q.XX^.N 8 O = 9.V.F.dXyXrXrXrXrXrXrXtXyX0X0X0X0X0X5XB.6. .9 z n / / S F P _ n x B B z k 3 n J z n ",
"c 3 t c w < v ` ` / ! *./ / x { { { B t 9 O o.9.V.%X$XpXpXpXrXrX0X0X0X0X0X8X8X5XB.6.= U B Q ( / n *.(.T.B k x x m k R c w w s k ",
"l k F v l 7 ! ^ ).!.| ! ! Q ( *.m l Q c e 8 O 4.m.#X%X$XwXwXuXuX0X0X8X9X7X9XD.B.7.o.9 / F / ( -./ n _ ( x F P P x L J 3 w s x z ",
"2 S J / B B Q } {.XX| ! Q ! 1.`.*.x ( E e e 9 O #.M.#X%X$XwXwXyX0X0X9XL.S.L.n.k.o.I t R ( *._ / v J / _./././.P F H T.n n p l 7 ",
"3 n c l e x ! ;.~. X!.,.=.Q ` ;.2.2.=.2.&.t U I o.m.#X%X$X$X$XqX5X8XL.L.G.G.n.7. .~ Q Q n J / B / *._ ) /.J /.K F z n / ( Q _ F ",
"c / k l B n n B ;.(.( Q Q E =.`.2.2.%.2.2.>.W ^ +.@.M.N.#XD.V.S.9XL.J.K.K.G.M.w.<.^ ` ` / ( &.M ;.;.(.P L ( /._ x P J J x w b B ",
", c n k l n l e ! _ m v ! *.;.`.`.2.%.,.2.q.<.3.3.e.b.N.#X%X*X$X*XL.&XK.G.n.m.3.].`.;.( _ } ~.|.oXOX'.*._ /._ n F _ x n k < c F ",
"k p k 3 n _ / c v *.-.! B (.(._.1.;.,.2.<.q.w.e.m.m.b.M.N.=X-X=X=X&X&X&XJ.M.e.w.2.,.>.] =.| oX@X@XoX'.T.} T.Q n B (.J c 3 v 3 , ",
"/ n c Q F L K n l m v / v N } _.B y =.1.&.:.<.+.#.b.V.D.*X>X2X2X2X2X<X=XD.M.e.#.+.:.~ W T W W.{.OX^./.(./.) n n n b n 3 k R l n ",
"T n R J _ F h x c 7 l } { } N v M ( =.! W $.O.6.7.B.D.$XlX2XbXnXnXbX1X;XF.V.0.0.8.+.,.>.=.T Q Q ( ' _ (.B F x J S x p 2 p / n k ",
") ` b n x s k f b B W | .X|.{ t N M B 1.&. .6.y.Z.5X8XsXlXxXnXnXnXxX1X;XP.D.V.A.C.o.X.~ `.( ! ( ' B B -./ / ( n ( _ K k 3 Q _ S ",
"/ b v n l k n 3 B ( / | |.}.} ! M v W %.X.4.9.qXyXyXdXsX;X1X3XbXbX2X1XP.*X9X9X0XA.7.o.O.,.=.`./.(.-._ Q ( *./ n ) l P n k w / S ",
"R / n R z c n n c w l N | 2.t E M e U 9 ..y.qXeXuXaXaXsX:X<X1X1X1X1X:X;X9X9X9X8X8XA.y.6.q.,.=._.-.-./ t b B n c / / ( n x z x n ",
"k k l v c w 1 k < r T / ` =.^ v t Q U o - t.4XeX0X0X8XL.I.:X;X;XlXlX*X;X-X*X$X8X0X5Xr.@.w.<.%.>.1.-.=.=.Q Q T c T n _ J 3 m *.K ",
"T Q v w c s c k b c / K B m ` n N ;.=.o & 9.i.6X0X8XL.I.I.I.I.P.lXsX9X*X,X,X-XaX7Xu.0.- #.q.q.:.2.,.W ^ T Q Q c n _ P _ v w l S ",
"3 c e n c S n 1 c n n R J M m } H *.! o = i.eX4X5XB.L.I.I.L.P.9XdXaXdXsX-X,X,X-X$XwXy.- X.2.2.,.2.2.&.W E ^ Q ^ J K T.x n J w 3 ",
"Q v b k n Q n 1 R n b R v B ( *.x B N X  .qXrXi.5XB.L.L.D.D.9X0X7XqX7XwXwX%X,X,X-XzXZ.o.X.&.1.&.N =.2.=.^ W ^ ^ B } _ l n n R c ",
"2 t l l 3 c k k r 3 p T c ( *./ v n Q t I 8.u.7X8X9XS.S.S.V.C.C.u.u.u.u.i.dXxX,X,X-X#XX.U ` ( E Q &.N ` 1.` r T ^ v Q 3 c k J n ",
"q q w Q Q c c w 2 , 3 3 c _ ( n n w c Q W o 6.dXcXcX9X5X5X5X6X6X4Xi.u.4X6XgXvXzX=XN.z.3.:.W 1./ N *.B l / v v Q -.c , 3 b s k k ",
"< 0 v m B l < , 3 c n F J c Q _ _ n c c W O 7.0XcXcXhXhXhX0XgXkXjXjXjXjXjXmXNXvXsXe.#.m.3.O.1.*.Q } _ n v R / S / ( c c m s F s ",
"c l w w l w w w p R v n l v Q / / b v Y U o.0.S.hXcXcXmXcXMXMXNXMXBXBXBXVXNXkXgX$X+.#.3.3.<.&.;.'.| m c Y R Y n R Y / c F m x 1 ",
"c c k B Q k w 7 l 3 , k c l / _ _.Q t ` ,.w.9.6.C.hXkXvXvXvXNXVXVXVXVXMXNXNXjX9. .U %.2.:.,.&.).oX.X{ 4 r c b b s x C F P F n Q ",
"w e B -.( B l v c R R _ Q w r W.{.).! ,.:.q.w.+.w.i.qXuXfXNXBXVXVXVXMXmX$XqXy.O.9 v =.^ 2.2.W | {..X{.| _ S c k 1 x F x z b k n ",
"v / l J / Q k c c 3 c _ B Q N {.+X{.! %.:.,.,.:.O. .- 9.wXkXmXNXMXMXkX].O O O y ~ r -.-.;.=._.K } Q.+X}.W.S z c s 1 z C n , , C ",
"x l 7 e 1 e B Q l k , T k | [.|.[.!.$.W %.,.,.>.I  . .+.9.y.y.y.u.i.t.5.8 > 8 M r r B N -.B / B w { ^.^.} s 1 2 < 3 1 b D b z G ",
"( B l l v e e c ( Q v q e Q.XX|.;.*.-.1.~ ] >.1.U ~ ~ O.I O . . . . . y l ( _ ' ` c t v B ;.v e v m (.E.s c w < 2 n p a b ) n < ",
"K K ` m Q v c 2 e T M T Q } !.!.-._.1.1.W U =.>.] ~ q.~ I X 8 8 y 8 y v J _ K / ` R ! ( M v M v N / ( /.F s n c n S ) S ) R p 3 ",
"v M v v e ( e w 3 3 c n v w E E R ` W W W W ! ^ ~ ^ ] ] T T R R T n B B Q / n Q r t / l q 4 M w l Q B m x k k w v b S c 3 k S n ",
"B c c l B n ( ( e v T e v Q v W ] ] ] ] W R ! ` W U ~ >.T Y c c l / n B _ k n / 0 0 c v 4 Y ^ r v n n z S n B B c p b e k B _ ) ",
"l w K l l l ( ( r n n 7 w r T E 1.` ^ _.' 1.1.`.=.>.~ ` B B ) -./ n / / *.J L _ Q ( Q r t W ! -.M w s w n K x l x k J l 7 m x k ",
"B ! B 7 7 l ( Q 2 l c e e 3 t T ' ] R ^ _ ` W =.^ &.E ! / n ' K _ l n (./ (.(.J F / c 2 4 Y ! _ B B k z z x / c B F *.*.N k n w ",
"B v w w e l w w q e c r w 0 q W ` W ! v ` ;.=.;.&.1.Q ! ( B ! } Q.{ $.J m *.(.m l n l k / c n F x L ) x z b n p n T.J 1.( M c k ",
"B r 0 e ! ! l e < l 7 0 T E c c w r E ( M =.&.W 1.;.=.m n m e ~.+X}.{ N e l B -.Q c b c n ) 3 c z b F x x F k R k x J _.K l w l ",
"v q c 2 e M J l w m B w q r ! v w t v Q Q ( ! M =.1.-.( c e v !.@X.X} c v k v ` K x K _ B x l k e n w ( S x n B R k b D F S / Q ",
"W ` r 0 0 l m x l M ( Q 0 0 c v c c v e M Q ( ` ;.-.&.( t 0 l R.XX.X;.c v Q Q / B s z x x F B c 2 e B / ` B / n 3 3 k A p u n n ",
"r q > > > B v l ! w l v t K x v T c w e M / Q _._.( (.( v c Q { | { m / n n n n n n b ( z k k 3 2 3 n _ _ c e n , > 3 R c 1 u p ",
"2 q 4 > 4 r t 2 v e 2 < Q ` m w 2 2 r r n ' B J _._.`.-.( k ( N m { 7 b /.S l b , Q J n v 7 k S T 2 1 d z e Q ( r T 4 > Y < k n "
};
