/* XPM */
static char *result[] = {
/* columns rows colors chars-per-pixel */
"64 64 88 1 ",
"  c #13460E",
". c #144D0D",
"X c #16520B",
"o c #1A540E",
"O c #165A0B",
"+ c #1C5C0D",
"@ c #154A11",
"# c #1D5512",
"$ c #1E5B11",
"% c #1F531B",
"& c #215C0E",
"* c #225715",
"= c #235D13",
"- c #285E14",
"; c #245618",
": c #245D19",
"> c #285F1C",
", c #1E630D",
"< c #1E6A0E",
"1 c #1E6311",
"2 c #1F6A11",
"3 c #22630E",
"4 c #246A0E",
"5 c #296C0E",
"6 c #26710E",
"7 c #2A720E",
"8 c #246413",
"9 c #2A6515",
"0 c #256B13",
"q c #2B6B15",
"w c #266319",
"e c #2A651A",
"r c #256B18",
"t c #2C6C1A",
"y c #306D16",
"u c #30671A",
"i c #326D1C",
"p c #267113",
"a c #2C7314",
"s c #2E7915",
"d c #277418",
"f c #2D721A",
"g c #2E791A",
"h c #317415",
"j c #337A15",
"k c #387A17",
"l c #33731C",
"z c #39751E",
"x c #347A1B",
"c c #3A7B1D",
"v c #245A20",
"b c #2D6521",
"n c #2D6B21",
"m c #336D21",
"M c #396E22",
"N c #346E28",
"B c #386A28",
"V c #357322",
"C c #3A7423",
"Z c #357A22",
"A c #3B7B23",
"S c #3C7529",
"D c #3D7B2A",
"F c #417D1E",
"G c #407523",
"H c #427D25",
"J c #40752A",
"K c #427C2A",
"L c #348115",
"P c #3A8014",
"I c #36821C",
"U c #3B831C",
"Y c #3C891D",
"T c #378122",
"R c #3D8123",
"E c #3C8820",
"W c #41831E",
"Q c #428325",
"! c #498721",
"~ c #458925",
"^ c #488B26",
"/ c #44832B",
"( c #49832C",
") c #4A8B2A",
"_ c #4D912C",
"` c #4B8331",
"' c #488831",
"] c #508931",
/* pixels */
"hqp4aps6gI6ax5h,rIjgIIg0axLpggxq4arx6hUEsdgpLLUYs<pdlTIEpETjgppr",
"shgs6Ls6ddpjjaq8rdjjp<jah4s<ggxg,8rfUUja0pIILLYLYss22dsLYYILjp0O",
"k76gpj7ssZa7558,a4<gsppqxhg2,,0d0dg0ILjYLsd2pfgddLgpasLs7sLj0r00",
"k60r45haxfqIaxgaarrpp60gxg0fl4r020gxjp7pL<d0dg<002ggpdssp004ddpp",
"c4r+O0xxqO8g4hs540fpda3fqrqlf88frO0d4gp4s60gp,ddg22rf1ddpdjjx00p",
"xrrr88xaa11rh0j5,r<0aTg0fqqq342r,2,<0ggss42Z<0a0<dd1dgd2ajjIj4,2",
"008f0rxqx0,8tq6afl4djgraxxf98ar,0grfdrd0g0dgdO0a6sT1OrZO4p7jI4d0",
"q4gf0,0jjhf81tlagr,dsgfar3r0tql00rgp0ga<208,0srrp7j21211pjsj~s2r",
",1dr0r4aPa81OO8lqVf0,08rqaZVw0032t0pgl,80Zr8fUt2p6ja<O8f066sha02",
"2Xn1aZq,rt=ttO+qqqafxrq80$tt834Rrtjaar1+<a1,aaaaxh4g,O,xappa3r22",
"01d1+1rq0ql83&rqqxqxgrxt033qqt5aa4qfr88r4<8r0aqO3qrttl430xcg0dr1",
"Z2$$$t8rq380+3qqqq,+a$t3tl0qhAk57at0111waOOfflqr0fa0txlq3aaa000r",
"r8+O8t989q03qfliQt0af0tt3qqq7qqcjkr,8Zr8334xtraxqpa30qlh0=804<3=",
",$t8988iziqxxllqlAl48ZZlq+8x59q5hkarrZxftxhh0ttl04aaQHclittttqt8",
"8tiqq8983aqatqq0q4q4fZta0q0qz40a45q8,q,,80q3538r8,lnll&qlq&t893,",
"$&8tzq8++tqqq8O=8ihq80a8=8qqa39l50$11la4$o+999larxfga3730=83t$O4",
",tf93lVqtq30qtwr=3y3&9al8t8chjhylVrr4388tfffaqhs500080tqrw3&+80,",
"&qclqlchRq,3fw$=8qq50o&8Vq3hP7q3808800,8dtd2pphax0tf1wlq88&q334g",
"O8qlq3qh0&qlq98ttRDqtutw$wqhj7h08,300,,2d2a0ssx4aqfr8w0q3=30ha36",
"&q9&qyiqtww00qq8ttq3two:#uFckqyq28tr2txhZd24d4aq0rr8885qxq8qHU6q",
"q$w999Vw8$$835q0&9lq8-=w#tAi808rr92$Ora481taaqf++fr0q3qxq8t8c7UR",
"8$t88qf8&98=3llt,0zcq3ill9t8t908t00rZl18q0laqhaq033ft3hl8$lAccxV",
"88$$tVq30zi=thqiwqyl3qAlDf8tllqqt2ag0xthf8llqqqq8rqhcxq88rtqqcDC",
"8ww8tq9qVzu#0trq9i3y3a5htcq8qltqq8,fqhxq8lqfq+l40ltqtt+1wb9qtlal",
"t:$rO8mttq-#qt,qqtqlVlAh3iq3q30tqq0f4q/t3qq0qqa30lzq0rt8rwtlqADl",
"V8$8t=ttqCmwtlr3yhz8=qlw8&8&3f0388Vttfw+3qqq9qlliaqaAZnwrDqqq=CU",
"lZ88ww=0QD:%8lqqq9q8qqnC888t3833ttr8-99i9ll55alAtqqhxttqrltq0$tc",
"$mo-=--=lt9Vy80-Z9txxqq8tZxksxqq3lnl888q8hIYs38VlqhlZ9qql88$tlqq",
"8$>w=&9NmtiClZq33qeihca=rVc~hall3tftl3q3wlxsatlitH)cq9qqa9nw=&38",
"w8lw9&mMVltqqqik30t-9q30qtl0hxhhqt=8ilzie80qaflDlqAVqhcc3lx$=3t0",
"$ilMuiueit83qqH_k9ze+&05ltt,xqq9qi=Vlq3t:=,paAcl3ll'QW~khkAiw80&",
"$q8t-9VD9qtli0ql!HiKi&0iftlrxAtX9C9i0q3qo0,00ahtlAVxclQky5qVDiAl",
"8V89iiiqVCity8lHFF*FHe=qt4qAyhyi99l09qlziqqgqhq=Vc/lhcAcqxllq$qf",
"$wt=8998mct8ihF(KH-uiCtlRxqlWzylii9qAlAh)Ukak53xc))UUHciiAtt8owl",
"1$8=tDC=9DHmu!W!Gzullzz5qlxhkhhq&3qhcxilVqiflacc3h)WkRlwl/l8$e$O",
"Vt8mhxxq9q9i-iF(9*zzy-tt33lQh5cl4llhW_QCet$$==qzH(cWRcttqqt$8mwt",
"ntnlAhqq8+-i9e9y-zzueMw9=qAx~lcAAqhhkWQAltVti3q9lVZ/hhqltq8#$Vt8",
"ZSrt03390izuMM3uyuuGMBnwiqfxqtqtDtllk^Qqci=t'ailAqqDliCqARl1$VAt",
"Vwett9q=uCz9iziiy-uMe8otllht88t-qlAcqacAxl$wll^UWRAtlQVtV0Vi83Vf",
"nVtn88ttw:9uiJ;uu*>e-&tCAxxl88wflqHA5l8iAttACiqQAAa&0q88mVAuq09f",
"88wew$+8O:mVCJB-&uu;>85q1raqcqtthcQqqtiqcAhyHM+illzzttwwttll-tHl",
"bNt-8888wtCiyiMy9HK&&&3y8qihhCt83hqqCAlQyiHHQGi9zy-u$tt3qccHe-9l",
"$w:tttt$wttni9yFkFi&=8i9-tq3t88tltw98lqlMSHHzFCuGci&$twtqhUqqn=$",
"ut99wmt$trrr9izz5ylyime8:iHqlt8mq&ttq80qiSzzCiHiulCiq8tnqkc9ttl8",
"*>-9$w88$1$nwCAlttlqqe*#nSCclVtrlqlDVV89DCM8wMt95y9iAt#wn9t$w8Vw",
"**:lVww=$X$vwCVtr$$tlw:#nSVVl$#$ttrtwt8=CAtn>:Dlyk98t288A8.$t3q3",
"X*wiu8#o$wrilemAA81ww=:=8CtfA8nw=nwwtt8qit:=b*Clyhxq1tfqfVwwi3h3",
"99--e$=-8netq9mllr888w--9il=8wmnnqwttqrqt8e=>mtVD988bnwttnl9lqq+",
"e9-iV--$w$X88wNzRt=Vtt`iit9q8=wDDtttnrqAwweCemqllt##www800qhcltn",
"*-iKSw998nnCV==lVCmi=iCulq8mw$#wxxQCVetDnwCCKG9qqtt1lqr8+qhaq80f",
"tMtiCM-8w$wDlu-i/D=-99u:w##t0-$.=D~qw=Ctm:CzJS(lqiDfUhq83+qarOOa",
"e9+-+-mMe8Ot9ttzy99+8Viu:w#tqtln$cRlV8fi=:yiHili&+ich3$#o$Ordt0f",
"zi999--9Cme;-eilfyxAwtuC=we8t0tAaxhcqcADA--eiH9-9qQc38=X#r10tZt#",
"zVJinu>o-ubem89iV/ACw=uCu=b:+&qVCqcllAxtStMNew>-izcDg8iwtVgnZn8+",
"eute-C-=#=:me=eernw=w89ue9we8tnnwtlifVtt;:l8=#e&9iihq8-&twfw$8fq",
"uw-eiuSS-eu-ee9tVDVC89ui-=-mw8888VtqC3tV#o9w#vB=99q3ftii88r88iZA",
"9*z9u-zC:uu=+-ewDVtDZDK`Cu9iqqVDVqVmDhlciCe-:bMDe$8=tVe9t0l9&y98",
"izi&&9Gi=w98>#:wVSwtzluCe9=ilqAll3qQlQ)hhV:#%eMAiu000qC8ihHGu9t$",
"ie*=--=;;-w::;*uMte8lGGGiGulCyit9+9iyG(iwte8nttlqcc500t8qAV`Cuw8",
"u>=-BC9=o9**unew&=el9CiuGzlyq9-C>-yC-9uHm8q8tV$88qlqql1n8ql`l9=9",
"u;e#-uzu=uu:;:m>==>iiCm9lGGlw-webeuei-wSVqlAfq9-8t=Ciqtln80dllVi",
"BB:#*-i99yCM;*-ee-e-9iiVGGzC:=-9wuCwwimCf3qq3liw#:tCCiVt$$rd3,tt",
":: @ouu-M:-w9Mienw:-uVt/KzQCe:My-&8VittuttqCq98$$#tCD9>tXX$nw$11",
"#;%@%:>#e-*omGy=##:-eKmt/(]`C9Cyqi&rQtqrXmVtw&=fn#,59-iCev% bo8t"
};
