/* XPM */
static char *result[] = {
/* columns rows colors chars-per-pixel */
"64 64 204 2 ",
"   c #4F3B38",
".  c #57373F",
"X  c #58373F",
"o  c #543B3C",
"O  c #59383F",
"+  c #144A0E",
"@  c #16510B",
"#  c #1B540D",
"$  c #165A0B",
"%  c #1C5C0D",
"&  c #154A11",
"*  c #1D5512",
"=  c #1E5C11",
"-  c #1F531B",
";  c #215C0E",
":  c #215715",
">  c #235D13",
",  c #285E14",
"<  c #27541C",
"1  c #255D1A",
"2  c #2C5D1B",
"3  c #345D1D",
"4  c #1D630D",
"5  c #1E6A0E",
"6  c #1E6412",
"7  c #1F6911",
"8  c #22630E",
"9  c #246B0E",
"0  c #296C0F",
"q  c #26710E",
"w  c #29710E",
"e  c #246313",
"r  c #2A6415",
"t  c #256B13",
"y  c #2B6B15",
"u  c #266419",
"i  c #2B651A",
"p  c #256C19",
"a  c #2C6B1A",
"s  c #316E16",
"d  c #32651C",
"f  c #326D1C",
"g  c #267113",
"h  c #2B7314",
"j  c #2E7A15",
"k  c #277418",
"l  c #2D731A",
"z  c #2E791A",
"x  c #317415",
"c  c #327B15",
"v  c #387B17",
"b  c #32731C",
"n  c #3A751E",
"m  c #337B1B",
"M  c #397C1D",
"N  c #2A5C22",
"B  c #345622",
"V  c #3A5B24",
"C  c #3E5F28",
"Z  c #2C6521",
"A  c #2E6C21",
"S  c #326522",
"D  c #336C22",
"F  c #396D24",
"G  c #3D662A",
"H  c #356C2A",
"J  c #357322",
"K  c #3A7423",
"L  c #347A22",
"P  c #3B7B23",
"I  c #3B7429",
"U  c #3E7B29",
"Y  c #3D6537",
"T  c #435C25",
"R  c #465828",
"E  c #4B5A2C",
"W  c #52582F",
"Q  c #49473C",
"!  c #674D3C",
"~  c #46642B",
"^  c #427626",
"/  c #427D29",
"(  c #496C35",
")  c #576A36",
"_  c #477439",
"`  c #58763B",
"'  c #60763E",
"]  c #573840",
"[  c #5B3A41",
"{  c #633D42",
"}  c #683F43",
"|  c #5D444C",
" . c #5D4C4D",
".. c #56564C",
"X. c #6E4245",
"o. c #674449",
"O. c #664648",
"+. c #6D494E",
"@. c #744546",
"#. c #784747",
"$. c #734C44",
"%. c #754A4B",
"&. c #7C4C4C",
"*. c #755849",
"=. c #614B53",
"-. c #784F51",
";. c #605956",
":. c #64525A",
">. c #7A5456",
",. c #4E7048",
"<. c #576E55",
"1. c #587157",
"2. c #5A7455",
"3. c #6B6A48",
"4. c #657945",
"5. c #63675F",
"6. c #77715A",
"7. c #6B5D65",
"8. c #5F7663",
"9. c #6C6969",
"0. c #78666B",
"q. c #677469",
"w. c #7C736A",
"e. c #746A72",
"r. c #726D75",
"t. c #6E7673",
"y. c #697A71",
"u. c #717776",
"i. c #76757C",
"p. c #79767E",
"a. c #804F4F",
"s. c #835555",
"d. c #835C5D",
"f. c #895A59",
"g. c #87655D",
"h. c #835F60",
"j. c #896664",
"k. c #8D6565",
"l. c #916664",
"z. c #926966",
"x. c #936C6A",
"c. c #986E68",
"v. c #8D7765",
"b. c #95736E",
"n. c #9B736E",
"m. c #846F73",
"M. c #9E7672",
"N. c #A37A75",
"B. c #A67E79",
"V. c #348115",
"C. c #36821C",
"Z. c #3A831C",
"A. c #3C891D",
"S. c #388321",
"D. c #3D8222",
"F. c #43832B",
"G. c #458528",
"H. c #4B8331",
"J. c #508931",
"K. c #6F824A",
"L. c #86835F",
"P. c #99866E",
"I. c #AA827C",
"U. c #A8887A",
"Y. c #B18E7B",
"T. c #A7937C",
"R. c #787680",
"E. c #797881",
"W. c #AE8680",
"Q. c #AE8982",
"!. c #B58D85",
"~. c #B68D86",
"^. c #B39283",
"/. c #B99289",
"(. c #B89788",
"). c #BE9A8D",
"_. c #BF9890",
"`. c #BDA08B",
"'. c #C19D8F",
"]. c #C19C93",
"[. c #C5A492",
"{. c #CAAC95",
"}. c #C7A799",
"|. c #CBB196",
" X c #CEB299",
".X c #D1B59A",
"XX c #D5BC9D",
"oX c #CEADA2",
"OX c #CEB1A5",
"+X c #D1B1A5",
"@X c #D7BFA1",
"#X c #D8BFA0",
"$X c #D4B6AA",
"%X c #D7BBAC",
"&X c #DABFB1",
"*X c #D8C09F",
"=X c #D8C0A1",
"-X c #DDC5AB",
";X c #DEC3B4",
":X c #E2CAB5",
">X c #E1C7B8",
",X c #E5CDBC",
"<X c #E8D0BF",
"1X c #E8D0C0",
/* pixels */
"x y h 5 j g g q z C.h j b y h 8 p m c c S.C.j y h c m g z z m y t g a m g x Z.D.z k z g C.V.D.A.j 5 g k L S.c S.j S.C.c m g t g ",
"j x c j w c j q j k g j c w y 8 p j c c g 5 z j x 9 j 5 z z c z 8 e t l m A.c j g q C.C.j V.Z.V.A.V.k 7 7 g j V.A.A.c C.z g t = ",
"c h 9 z j x w j j P j q w 0 e 4 g t 5 z j g g y c x z 7 4 4 t p p k z t M V.c Z.V.j g g g j j g k C.V.7 g j C.j w c C.C.y g 7 p ",
"v w t p 9 9 j x m a t M h b l j h p t t g 9 t z b l t l b t y t 7 t z m j w q j V.4 k 7 k z 5 t g 7 z z g h j z j 5 9 4 g g t g ",
"v t p % $ t b m t % e z 0 x j y t e z g j p 8 l a p g b l e e z 7 4 9 p 9 z g 9 j w t L g 4 l g z 7 7 p L 6 k j g g c c m g t k ",
"b t p p e e m h y 6 6 t x 9 j 0 4 t 6 g j S.x t x g y a 8 t 7 t 6 t 4 6 t z z j j 7 6 L 7 t g g 5 g k % k z p 7 j c M M m 8 4 5 ",
"t t e l t p b y m y 4 u l t w w j b t h z z p j b m l r 8 a t 4 t l p k k t g t z t l z g % t k q k S.6 $ p l $ 5 h w c C.9 p p ",
"x 8 z l e 4 h c c x l e = a b x l p 4 p j z l y l 6 t e s a b t 7 p L g t z j 7 7 t 7 4 t j u y j w c 6 6 6 7 6 9 c c v A.j 5 p ",
"4 6 a p t y 8 c V.h u % $ $ e b y L l t 6 t u t g a L A i t t 8 p a t g z b 4 6 t L p e l Z.g t j 9 c j 4 % 6 l t w t j h h t 7 ",
"6 $ p 6 a L g 4 p s > a a % % y i x y l c p y t t ; a a e % 0 ^ t p j j a t 6 4 4 j 6 % b w h h m x 9 l 6 $ 4 m j g j h 8 p t 6 ",
"t 6 a 6 = 6 e p y y b t 8 8 t y y x l c z t J a 8 s ` 4.4.` ` 4.4.' ) E E E E R T T ~ u t y y % 8 e t a a b 9 8 e b C.c t l p 6 ",
"L e = = 6 p r t t 8 e e % r y t y y 4 % a , d d I ` U.'.].].'.].'.).n.a.a.&.#.a.a.a.*.G d K n n s h l t y m b y 8 h y h t t 9 p ",
"p e % % e i y u r a t 8 y x b a G.y 9 y W ! $.v.P.T.$X;X>X&X>X;X>X&X].I.B.c.h.l.n.B.N.*.! s.N.U.4.j y 8 0 0 b x e e e y 8 8 4 e ",
"4 % a e r e e s n x y x b b b y n P l 0 W #.&.N./.].>X<X1X1X1X1X1X1X+X/./.N.k.x.B.'.B.a.! f.B.'.L.t g h G./ n m b i p a g y a e ",
"e a f y y e y e 8 h y x y t y e y f ( ^ 3.s.f.W.].}.>X<X1X1X<X1X1X1X+X/.~.N.k.x./.].'.c.l.c.'.'.L.3 G D b b % 0 n t 8 a e u e 4 ",
"= % e a J y e % = a y y y u % e 8 4.U.Y.I.Y.!.$X,X,X<X<X1X1X1X1X1X1X+X/.~.N.k.n.+X>X>X&X>X-X.XXXY.$.$.~ h 8 0 0 r > e 8 r = % 9 ",
"e y x u 8 b n y a y 8 8 y a : p ; 4.^./././.'.%X1X1X1X1X1X1X<X1X1X1X+X/./.M.k.b.$X1X<X<X<X,X=X=XY.&.@.E p e a t y a 8 ; % t e 9 ",
"4 y M n y b n x P y 4 e x p 2 T T 6.~./.].}.}.;X<X1X1X1X<X:X:X>X&X%X].I.W.Q.Q.^.;X<X<X,X:X;X=X=XY.#.#.E 6 e x a e = ; y 8 8 e j ",
"# e y b y e h x t 8 a x a y T ! @.l.^./.+X,X,X1X1X1X1X1X:X=X=X X/./.B.x.x.oX,X,X<X<X<X=X=X=X=X*XY.&.#.E e e e y 8 e ; 0 x h 5 9 ",
"% y e ; t a s y a u i t 8 t ~ @.#.z.~./.$X1X1X1X1X<X1X<X,X=X=X X/./.N.k.m.}.1X1X<X<X<X=X=X=X=X*XY.#.#.E e r t s m a u t / Z.w y ",
"a = u y r r J i e % = i ) ) *.l.c.I.oX+X;X1X1X>X:X:X,X<X,X=X=X.X}.[.).!.^.$X1X1X<X1X,X=X=X=X=X=X(.c.z.) s 0 y m t e i y Z.w Z.G.",
"e = a e 8 y x u ; y e V g.z.M.B.~.oX<X<X1X1X<X-X#X-X,X<X,X=X=X*X@X@X*XXX=X:X1X<X1X1X,X=X=X=X*X=X{./.~.K.y 8 x b e e b n v n b b ",
"e 6 = = a J r 8 e n f S g.k.M.'./.oX<X1X1X1X,X-X=X=X<X1X:X=X=X=X=X=X*X*X=X:X1X1X1X1X,X=X@XXX=XXX{./.Y.K.n J s 8 u u y t y n P K ",
"e u u e i s y t n n d B *.a.M.oX$X;X1X<X>X-X-X#X#X=X,X1X,X=X*X=X*X*X=X*X=X-X-X-X-X-X-X}.[.[.[.[.'.~./.v.3.4.S > u u u h b b l b ",
"a > = i % e J a l y , B ! #.c.,X1X<X<X<X-X=X=X=X=X=X<X<X,X*X*X*X=X=X*X*X=X=X=X*X*X=X.X)./.~./.~./././.N.z.k.( e a p a b s P P x ",
"J e = u i = u a t K D B @.a.c.>X<X<X<X<X-X=X=X=X=X=X,X<X,X=X*X*X=X*X*XXXXX*X=X=X=X=X.X'./././.~./././.N.k.g.( u u U y y y > K D.",
"l K e e i u > u G./ 1 B ! a.c.*X-X-X-X-X=X=X=X=X=X=X-X-X-XXX=X=X=X=X{.].[. X*X=X=X*XXX.X X{././._. X{.b.o.O.T l t b a t r % a Z.",
"> a % , , e e = f y r G ! ! c..XXXXXXXXX=X*X=X=X*X=X=XXX=X=X*X*X*X=X{.~./.{.*X=X=X=X=X*X=X X/./.[.=X@Xv.. o V y J u e = i b t a ",
"u = 1 i > # r F f D I ( $.#.c.XX=X=X=X=X=X=X=X=X=X=X*X*X*X*X=X=X=X=X[.!.!.{..XXXXX=X=XXX.X|.).).[..X.Xb.O o V 0 s t A u e 8 ; u ",
"u e f i r ; D J I 8.t.e.&.#.c..X=X=X=X=X=X=X=X=X=X*X*X*X*X*X*X=X*X*X(.x.x.Q.).'..X*XXX'.).[..X.X{.).(.j.O o ~ v 0 b b = > 8 y e ",
"% a b J f f f d I y.E.r.%.@.c.XX=X=X=XXX=X=X*XXX=XXX=X*X*X*X*X=X=X@X^.z.z.I.~./..X=XXX/./.'.=X=X{./.!.j.O o ( v s v P l a e t 8 ",
"= a r y > s f I a q.p.w.&.#.c..X=X=X=X=X*X=XXXXX.X.X{.{.|.XX=X*X=XXX(.n.n.I.I.!.{..X{.].).[. X X[././.>.O o ( x s 0 y J K D P x ",
"u J e r s y s f I 6.x.k.a.! c.XX*X=X=X=X=X=X@X[./.~.M.x.U..X#X#X=X=X[.~.~.N.z.x.W./.]..XXX.X)././.~.~.j.. o ~ m y n b b y = a l ",
"% e a e i i r e D w.l.h.a.#.c..X=X=X*X=X=X=XXX`./.!.x.x.N..X=X#X=X=X}./.~.N.z.x.W././.XX=X.X/././././.d.. . ~ l l D.l a > # u b ",
"6 > e = i P b > u ;.a.&.} a.k.(.`.{.=X=X=X*XXX^.B.I.U.U.^.{.{.|.{.|.(.B.B.j.>.>.M.B.W.(.).^.b.b.b.b.x.+.. o V a x G.b e = i = # ",
"J a u J l n n y f Q X { @.#.-.x.z.^.XX*X=X=X.XI.k.M.|.XX.X(././.(./.B.z.x.+.] o.d.x.x.x.x.d.[ [ ] [ [ ] . . B a a t i > > l u a ",
"a A b A P x y t i Q . O @.#.a.x.j.Y.XX=X=X@X.XI.k.M.{.=XOX(./././.~.N.x.j.+.] [ d.x.k.x.x.s.O X ] ] . . . o B l a y > % 6 J a e ",
"I J u l t 8 0 r i Q O O @.#.&.s.d.b.^.^.^.^.^.b.z.b.).{.]._./.W.N.N.x.s.s.o.] [ -.f.s.s.s.&.O X ] ] . . . . ~ r K D.b e = J K a ",
"J u p a y u i = D Q O [ @.#.#.#.#.s.z.z.x.k.k.z.x.n.!.^./.~.~.I.x.k.s.#.#.{ ] ] } #.#.#.#.} O X . . . ] . o C a L e J a e 8 L J ",
"A J a A e y i f i Q X [ @.#.#.#.#.>.z.z.z.k.z.l.k.x.W.~.~.~.~.I.x.k.s.#.#.{ ] ] @.#.#.#.#.@.O X . . . . . o B e b P P f y r t y ",
"e e u a u 6 % > - | ] ] } &.#.#.#.k.B.B.z.a.s.k.x.x.n.M.M.M.M.j.+.+.@.#.#.{ X ] } a.} a.#.X.O X . . ] ] . . B u i a m b > d G.b ",
"Z H i , e > u e N B   ] @.#.#.#.#.z./.~.l.#.#.f.k.x.k.x.x.k.x.>.] ] } #.@.{ X ] } a.#.#.a.} O O . . ] ] . ] B 6 y n M ^ r > i s ",
"= i , a u a a % Z ..] [ @.@.@.@.#.k.W.Y.h.@.#.h.x.k.l.l.h.k.k.>.] ] } #.#.{ X ] X.#.#.#.} @.X . . . ] ] [ | B l h x Z.s i l e % ",
"f i r e a J a = A q.r.7.{ [ { [ { @.f.s.%.{ { #.&.a.&.a.&.o.} [ ] ] } #.@.{ X X @.#.@.{ O X X . . . ] :.9.9.Y A y c P r a a D e ",
"* i r r = u > e Z y.E.r.[ ] ] ] X } @.#.} . X } #.#.#.#.@.O . . ] ] } #.#.{ X X X.#.@.O X X . . . . ] 7.E.i.Y 6 f u a % y e J p ",
": : : b J u i = = 8.y.5.=.| [ ] X } } } { X { } #.#.#.#.X.] . . ] ] } } } } { } X.@.X.O X X X X ] | | 7.E.i.Y 7 P u @ * i 8 r e ",
"# > i d f > # % = S H ,.9.r.7.[ X O X { X ] ] } #.#.#.#.@.] . . ] . . ] { } @.} { O O O X X X X =.r.r.i.E.i._ y l L i i s 8 x 8 ",
"i , , > i > > > > A p I u.E.7.[ X X X X X ] { } #.#.#.#.} ] . . ] ] . . X } #.@.O X O O X X X X :.R.R.R.R.R.( p a Z b e b y y % ",
"i r e f J > > > r = @ A 1.q.5.=.| =.=.| [ ] ] o.X.@.X.X.} O O . ] ] [ =.=.O.X.X.O . . . ] ] o.=.7.R.E.t.q.1.H t e t y x M b a D ",
": > f / K d r i e A A P I 1 Y r.i.i.i.i.:.] ] ] X X X X O . . . ] ] :.i.i.=.X . . . . . ] =.r.i.i.R.i.,.I b i e ; y h h y t t a ",
"a F d f K f 1 e u = p K f f Y i.E.E.E.i.:.. . ] . . . . . . . . ] ] :.E.p.=.. . . . . . ] =.i.E.E.E.R.,.Z.x t u 8 % y a a $ $ h ",
"i r ; 8 ; e D D i > @ D u a I 2.2.1.2.<.;.:.=.[ . . . X . . . { +.+.0.E.E.7.:.:.:.:.:.:.:.;.<.1.<.,.2._ x 8 = * # = $ g l p t b ",
"n f r r r , , r F D Z : > i f n a x J U 1.E.i.=.. X O O . . O +.k.x.m.R.E.E.p.p.p.i.R.R.R.q.i , r y G.M 8 e , @ * p 6 t p J a # ",
"n K ^ d D i , # , D i i f r r a P F.K P <.t.9. .Q   o o o o Q +.g.6.w.u.t.u.t.t.t.u.u.t.u.1.S r f n n / b 8 i i a l L A L l e = ",
"i f i i e I e > = = , S i > i i u a u 1 a D d S 3 2 2 S 1 i D S S D F F H U F F N N F i < - d ; e f s x g e e > i u l u = e l a ",
"f e , i d f I ^ , i f e i i i a J U J K e e f f , > e f u e e e e J y a J 4 a J * * e i * N F > r r i t x a f f e e t e e f L P ",
"r > n r r r n F 1 f f > * 1 u i U J a D.P U / H.K a r f y y J ^ J i J b P s b P s J d > 1 S D ^ i = 8 e a n f e i y n r ; s r 8 ",
"f n d > ; r K D : , e , e : 1 i K K u a b b r F i i : s b y P b b 8 y G.b G.G.x x J 1 * - u K J f f r e e y J r x x D.^ y r f > ",
"f i > > , r > , : i r , , : : i D f f e n K ^ ^ f ^ r n J s b f e ; y f y ^ J.s u a i e A u a b y m P 9 t t a = a D.b _ K d i > ",
"f 2 : , F F r , @ r : : Z S i r # > i J i F n r n n n s r y ; I i , r K , r s ^ D e y r a P 4 u u y x h y b e A e p b H.b r > r ",
"2 : N * , f n r > r d > : 1 D i : e 1 s f K D , n ^ n n u > i i Z u f i f > i I J a b P x y r > e i > J a y a J A e t z x a J J ",
"D I 1 : * r f r r s K D : : 1 i u , d > r f f J K ^ n n , : , e r a F i i f D J x 8 t y r x f i * r f K U s L i = = t k 9 4 a i ",
"1 N + & + d i , K , , i i D s i A u > , f J a F.F.n / K d i K r > > e J a s i f i a i J u e e = = * i P P r 1 a @ @ - A 6 % 4 e ",
"* : * & : 2 1 : i 2 : # D ^ s > * * 1 , i / J a / G.J.H.K e K b r s = y F.y a t $ J J a y ; > l A * 4 0 r , D K 1 Z - & Z # e a "
};
