/* XPM */
static char *result[] = {
/* columns rows colors chars-per-pixel */
"64 64 208 2 ",
"   c #221714",
".  c #241915",
"X  c #2A1B16",
"o  c #271C1A",
"O  c #321D17",
"+  c #1E2E10",
"@  c #1E3711",
"#  c #272717",
"$  c #2B2416",
"%  c #242C15",
"&  c #2B221D",
"*  c #272919",
"=  c #372718",
"-  c #3B2319",
";  c #223313",
":  c #233D13",
">  c #283518",
",  c #2E2322",
"<  c #2E2A22",
"1  c #332928",
"2  c #342C2B",
"3  c #3A3030",
"4  c #3C3232",
"5  c #3F373A",
"6  c #45241B",
"7  c #4B251C",
"8  c #422B1A",
"9  c #52271E",
"0  c #562A1E",
"q  c #59351E",
"w  c #653B1F",
"e  c #5D2B20",
"r  c #42383A",
"t  c #642E22",
"y  c #6A3E21",
"u  c #783425",
"i  c #144B0D",
"p  c #16520C",
"a  c #1B550E",
"s  c #165A0B",
"d  c #1C5C0D",
"f  c #184811",
"g  c #1D5512",
"h  c #1E5B12",
"j  c #1F531B",
"k  c #264E0F",
"l  c #215C0E",
"z  c #244314",
"x  c #2A4717",
"c  c #224C12",
"v  c #2B451A",
"b  c #2C4D1A",
"n  c #235514",
"m  c #235D13",
"M  c #295C14",
"N  c #255D19",
"B  c #295819",
"V  c #365B1A",
"C  c #1D630D",
"Z  c #1E6A0E",
"A  c #1E6412",
"S  c #1F6911",
"D  c #22630E",
"F  c #246A0E",
"G  c #286C0E",
"H  c #26710E",
"J  c #29710E",
"K  c #246313",
"L  c #2A6515",
"P  c #256B13",
"I  c #2B6B15",
"U  c #266419",
"Y  c #2B651A",
"T  c #256B18",
"R  c #2C6B1A",
"E  c #316D16",
"W  c #33651C",
"Q  c #326D1C",
"!  c #267113",
"~  c #2B7314",
"^  c #2E7A15",
"/  c #277418",
"(  c #2D731A",
")  c #2E791A",
"_  c #327415",
"`  c #327B15",
"'  c #387A17",
"]  c #32731C",
"[  c #3A751E",
"{  c #337B1B",
"}  c #3A7B1D",
"|  c #245A20",
" . c #2D6521",
".. c #2D6B21",
"X. c #336D21",
"o. c #366825",
"O. c #3A6C23",
"+. c #357322",
"@. c #3A7423",
"#. c #357A22",
"$. c #3B7B23",
"%. c #3C7429",
"&. c #3D7C2A",
"*. c #407E1D",
"=. c #784623",
"-. c #407525",
";. c #417C24",
":. c #427D2A",
">. c #473E44",
",. c #4C4249",
"<. c #544B4A",
"1. c #5A524F",
"2. c #594D55",
"3. c #5D5457",
"4. c #605856",
"5. c #635A68",
"6. c #716A6D",
"7. c #746A71",
"8. c #7B7375",
"9. c #873928",
"0. c #933D2A",
"q. c #854D26",
"w. c #8D5227",
"e. c #985929",
"r. c #A5452E",
"t. c #B14730",
"y. c #BC4B32",
"u. c #A8612C",
"i. c #BA6C2F",
"p. c #C24D34",
"a. c #C94F35",
"s. c #CD5136",
"d. c #CD5E34",
"f. c #D35337",
"g. c #D75937",
"h. c #D95E37",
"j. c #DB6237",
"k. c #D86936",
"l. c #CA7532",
"z. c #D87B34",
"x. c #E06E37",
"c. c #E37237",
"v. c #E77A38",
"b. c #827B7A",
"n. c #368318",
"m. c #36821C",
"M. c #3A831C",
"N. c #388321",
"B. c #3D8123",
"V. c #40831E",
"C. c #428325",
"Z. c #44832C",
"A. c #488728",
"S. c #4B8331",
"D. c #508931",
"F. c #DC8034",
"G. c #E78636",
"H. c #EB8937",
"J. c #EC8338",
"K. c #EF8A38",
"L. c #F18D37",
"P. c #F18E38",
"I. c #F2913C",
"U. c #F29442",
"Y. c #F39E55",
"T. c #F4A764",
"R. c #F6B57C",
"E. c #7A7284",
"W. c #847A8C",
"Q. c #8B8585",
"!. c #8A849B",
"~. c #928A91",
"^. c #989293",
"/. c #A09B9A",
"(. c #A4A09E",
"). c #8E8AA3",
"_. c #948EA7",
"`. c #9C93A8",
"'. c #9995B0",
"]. c #A499AA",
"[. c #A99DB4",
"{. c #B2AEAD",
"}. c #BBB7B8",
"|. c #F6B984",
" X c #F7C395",
".X c #C3C0BF",
"XX c #F9CEA9",
"oX c #FAD9BB",
"OX c #B1ABC4",
"+X c #B7ACC6",
"@X c #B9B2D1",
"#X c #C5B9D5",
"$X c #CBBEDB",
"%X c #CCC9C9",
"&X c #D1CFCE",
"*X c #CEC1DE",
"=X c #D0C2DF",
"-X c #D5D3D2",
";X c #DAD8D8",
":X c #FBDEC5",
">X c #FCE6D4",
",X c #D2C4E1",
"<X c #D9CEE7",
"1X c #DBD3E6",
"2X c #F1EBE9",
"3X c #FDF1E6",
"4X c #FBF7F7",
"5X c #FFFFFF",
/* pixels */
"_ I ~ Z ) H ^ H ) m.~ ( ` I _ C T { n.) m.m.^ P ^ ` m.! ) ) { I F ! ( { ! ^ M.N.^ / ) ! n.n.M.M.^ Z ! / ) B.m.N.~ N.N.` ) ~ ! T ",
"^ _ ` ^ H ` ^ H / / ! _ ` J G K R ! ^ ` ! Z ) _ _ P ~ Z ) ` ) ] K P P ( } M._ ^ P ! m.m.^ n.n.n.M.n./ Z A / ^ n.n.M.` m.` ! T s ",
"` ~ F ) ^ _ ^ ~ ^ N.( H J I K C ~ F Z ^ ^ ~ ! ! ` ( ) Z C C F T T ! ) P n.n.` M.n.H ^ Z Z ) ` ~ / ) m.Z H ^ n.^ ^ ^ m.` F ! S T ",
"' H P T F G J _ { R F M.J ` ( ( ^ T T T ! F S ] ] ] P ( ] P ! T S T ) ) ` J H ^ n.Z / P / ) S T ! ! ) ) ~ / ~ ^ ^ Z F F ! / P ~ ",
"} F T d s P ] { I s U ( F ^ ^ P F K ) ! / ~ F ( ! I ! [ R F K ) S C F T F ( ! F ^ H T #.! C ~ T / ! P T ) A / ^ H / ^ ` { ! P ~ ",
"] T T P K P { ~ ~ A A P ] G _ G C P S P / m.( P ( ~ I R D K S P A S C S P ) { / ^ F C #.Z F / ~ Z ! / d / ) / S ^ ) } } } C C Z ",
"I P K ( P T ] ~ ` I d P ( I J J ~ +.Z ~ ` ` T ( ] { ) K K I P C T ) T ( / T ! P ) S ) ) ! d P / H ^ N.A s / ..s F ~ J ` ` H T T ",
"~ F ( ( K C ! ` ` ~ ( K A R ] _ ( T S / ) ) ] ! I K T K ( R ] P T T ) ! P ) ^ Z S T A C H ( P T / H ) S A A S A F ^ ` n.B.~ Z / ",
"C A ( T P P F ] } ~ K h s s K ] I #.~ T Z P K T R R #.+.R P P D S ( P ! ) ( C K F #.T P ( M.( P ~ H ` ( C s P ( ! H H ~ ( ~ F S ",
"S a T A ( #.P Z P ( K Y R s d I L _ ~ R { I I K F A R R K d G $.P Y _ ^ ( T A A C ~ A d _ ~ I ! ` _ G ` S s C { ( ~ ^ ( F T S A ",
"P A T A d A K Y P R ] I D l P R I ] ( { ( I +.I D G D I K R G _ J F I ! T K T T F C P P P R T C S K T R R ] D C F ] M.` F ( T S ",
"#.K h h K T P P I D D K d G I P I P D s ! A I K R Q P I _ B.' G _ ( ( K A h A U ( s d ( ! ( ~ I F ( ! T I ] [ I D ! I ! P P P T ",
"T K s d K Y I K K ] K D R ] ] R ;.R P ~ ( P R ( D I I P ~ G R ' _ ' K D K #.T A C D F [ ! K I ] I ~ G D F P [ _ F K K I D C C m ",
"C d Y K L K K Q [ _ I ] ] _ _ R [ $.] F S $.+.] I C K _ L c z : > > % ; > b V T Y { { _ P ( ( ] T F ~ ( C.C.} ] Q Y R R ( I ( K ",
"K R ] I I K P L D I G _ ~ I I P P P I G ( #.I ! I I m : > = q =.w.e.e.w.q.y = * : n I D P D K U K P ] ) ] ] l P { L D Y K I K C ",
"C h K R [ I K d d R R ! Y U s m D Q _ L K P ( K n : $ q e.l.G.K.L.L.L.L.K.G.F.u.=.$ ; n L L ] ~ T ] R ( ~ D I G P m K D U m s D ",
"m R ~ L D [ ] I Q I D D R R h T m K G G d D Q B % q u.G.L.L.P.P.P.P.P.P.P.P.P.I.G.i.0 # b L ) _ J P P P K K ( I T I D l d D P C ",
"C I } [ R ] } _ $.I C D ] P K h K I R G L a z $ q.F.L.L.L.L.P.P.L.P.P.P.P.P.P.P.K.K.k.9.$ z ~ ~ ` P R ..A U Q I K h D R D D P ^ ",
"s D E ] I D R ~ P D I ] R I Y R R &.$.I R z = e.G.I.I.I.L.L.L.P.L.P.L.P.P.P.P.P.L.L.v.g.0.6 v M ! I ( T K K P I D m D K _ I D F ",
"l L K l P R Q I T Y U P D P I K R ] I D c = u.L.T.XX:XoXR.I.L.L.P.P.P.P.P.P.P.P.L.L.H.h.f.r.O z P P T K K L P I { ( K I C.M.J ~ ",
"I h U I G L +.Y K d h K D P I K l L ] M $ e.K.T.>X5X5X5X4X XI.L.P.P.P.P.P.P.P.P.P.P.P.k.f.f.0.O f Q P K R F G { I D Y L } J M.B.",
"K m T K K I Q K l I K m D _ { R K G Q > y H.U.oX5X5X5X5X5X3XT.L.P.P.P.P.L.L.P.P.P.P.I.v.f.f.s.u # m D _ R D ( [ K A ] $.} } { +.",
"K m h h R [ P L K @.X.m R _ I ] L I z = l.P.Y.3X5X5X5X5X5X4X|.L.P.P.P.P.P.P.P.P.P.P.P.c.f.f.f.y.6 : L _ } { I K U U Y ~ P { $.@.",
"K U U m R E P P } [ Y g K E P R L Y % q.L.L.Y.3X5X5X5X5X5X5X|.L.P.P.P.P.P.P.P.P.P.P.P.c.f.f.f.f.9.$ m I R R d A T U L I ] ] Q ] ",
"R N h T s K +.R ( E m n R ~ h I Q k = l.L.L.U.:X5X5X5X5X5X3XT.L.P.P.P.P.P.P.P.P.P.P.P.k.f.f.f.f.p.6 x G P U R K T  .R ] R #.&._ ",
"+.K m K Y m Y R P @.o.U I ] P K I : =.K.I.L.L.T.3X5X5X5X4X XI.P.P.P.P.P.P.P.P.P.P.L.K.h.f.f.f.f.f.u % L $.+.( L K &.I I I K $.$.",
"( $.K K Y U m K C.&.U g K ] R I L ; e.K.P.P.L.I.T.XX:XoXR.I.P.P.P.P.P.P.P.P.P.P.L.L.v.g.f.f.f.f.f.0.$ L #.R R ~ I { Y I K d R } ",
"h Q a m m K U h ] R Y X.E K P D W = i.P.P.P.L.P.L.I.U.I.P.P.P.P.P.P.P.K.P.P.P.P.L.L.k.f.f.f.f.f.f.y.- B $.P I R +.K K h Q ] G R ",
"U m N Y m a Y O.X.R Q $.] +.I D c 8 z.L.L.L.P.P.L.I.L.L.L.K.P.P.P.P.L.L.P.P.P.P.K.v.f.f.f.f.f.f.f.a.7 k R D I I ( K X.U K l K K ",
"K K ] Y L l X.X.+.] I I R R ] ' k 8 z.I.I.L.P.P.L.L.I.L.P.I.P.P.P.P.P.P.P.P.P.P.J.g.f.f.f.f.f.f.f.s.0 v I _ } } G ` ] h h D R K ",
"g ] ] +.Q Q Q W Q R K D P I ;.D.V 6 d.J.L.P.P.P.L.K.I.L.P.K.P.P.P.P.P.P.I.K.P.G.g.f.f.f.f.f.f.f.f.s.t v ;.C.C.' E ' B.R Y K D D ",
"h I K Y M I X.$.L I R ] ] L I _ V 6 p.h.v.P.P.P.L.I.P.L.H.K.P.P.P.P.P.P.P.K.v.j.f.f.f.f.f.f.f.f.f.f.e v M.] C.' E G Y +.$.] $.] ",
"U +.K I Q I Q I +.$.] R E M [ C.V O t.f.g.c.v.K.L.H.i.q.w w w.z.P.P.I.P.H.x.f.f.f.f.f.f.f.f.f.f.f.p.7 v _ } B.} P [ ] [ I m Y ( ",
"s K R m L L L K Q @.I K Q _ *.A.-.o 6 9.p.f.j.x.z.q.= & r 4 $ 8 u.H.J.k.h.f.f.f.f.f.f.f.f.f.f.p.0.7 X V V.$.[ ( ] ;.R R A p U ] ",
"N A U m R $.@.m U $.;.X.E ;.A.;.O.$   o 7 u r.p.u X 1.}.-X&X(.r - r.g.f.f.f.f.f.f.f.f.s.a.t.9.7 X . . W M.$.] R ] Z.] K h Y d s ",
"+.T K X.] { [ I L I L Q M [ *.A.L %         X 7 O <.-X{.b.b..X}.2 9 s.f.f.f.f.f.a.p.r.9.9 O X   . . * *.B.} I Y I P I m K ..Y R ",
"Q ..] X.$._ I P K l M Q L Y L E L b . .         . /.}.b.-X.X8.-X6.O 9.0.0.0.u t 9 6 O     .     .   v :._ ] I ] R I K a h +.R U ",
"%.+.T R P K G K K ] @.Y @.@.l I Y M # ,.3.2 o   & }.^.}.5X4XQ.}.Q.. X o . . . .           . , >.>.$ n B.{ Q @.R $.$.[ A K R $.( ",
"X.T U T K I Y m R +.[ L W ] Q O.L M : ,.+X}.^.<.X (.{.Q.2X&X8.&X8.  .               o 3 2.E.'.'.,.> @.R [ B.] I { K +.Q K K +.] ",
"+.+.Q ..K I R R U M I W Q &.n  .W m n # E.1X5X&X4 4.;X^.b.b.{.%Xr   O , 1 r ,.1.7.W.`.+X$X$X@XE.< W ) m K I K U +.+.$.Q I K F R ",
"m K Y Y U h d K s N ..@.-.-.O.M M Q M : 2 ].4X5XQ.o 7.%X-X-X}.<.& W.[.[.[.@X#X$X,X,X,X,X,X@X).3 x [ [ @.R R U K Y R [ ] m Q ;.] ",
" .o.R m K K K K Y T +.Q E Q -.L G -.;.m + r +X5X2X8., 2 3.<.1 , b.$X,X$X,X,X,X,X,X,X,X,X@X'.>.; W Q l E K T Y K P } } ;.R m I R ",
"h Y N R U R R m U R T ( W I L *.' } [ l m % ,.}.4X2X`.2.5 r 5.`.$X,X,X,X,X,X,X,X*X,X$X@X_.,.# M *.-.Q l m Y T R _ _ V.I I X.m m ",
"R R L K Y X.R h R R U  .L Q [ } G E Q E Q Y ; 4 ~.1X<X$X@X#X$X=X,X,X,X,X*X,X,X,X*X$X+XW.r * o.Q L _ @.Q I K Y X.L { } L R R Q K ",
"n N L K A U m K U h A ..Y @.$.] Y Y ] I Y Y g @ , 5.[.$X,X,X,X,X,X$X,X=X,X,X*X#X@X'.5.2 ;  .R L E E L Q #.R g K ..K R d T K +.T ",
"N n m ] +.U U m h p h h U %.] R T h A R ] L N g v > 2 5._.+X#X#X$X,X*X$X#X@XOX).5.5 * v | U &.( G *.I D ( K K K &.K p g Y D I D ",
"p n Y Q Q m a h h U Y ] ] Y X.$.$.T A U U n N n U X.b % 1 >.5.E.W.).!.!.E.5.,.2 < @ N N  .N +.[ ~ ] [ I P T ~ R ( +.U Y L G E D ",
"Y Y M M Y l m m m ..T R P L ..[ ] P K K K L N K L ( +.h f @ > # 1 1 < * * % ; n N U U m B O.Y #.$.K K K  . .Y R ..T +.L ] E P d ",
"Y L K Q X.M K l Y h p K K L +.@.;.R m +.Y Q S.Q Q R I L K m U %.O.M B B Y Y Y #.U U R @.Y X.I ] [ R g a A U U U P P R _ } ] Y ( ",
"g m Q :.%.R L Y U R ..$.X.m m Q [ +...] K Q @.Q Q I K +.U h h U +.{ C.$.%.T R &. .Y @.@.:.@.L R I Y T A [ R P K d I _ ~ I P K R ",
"Y +.Y ] @.X.m L U h T &.Q X.m ] Z.&.m M K L Q n Y g g Y P K h i m B.C.~ U m #.Q ..N @.@.-.-.A.] R Q Z.R M._ P K D d I ~ T d s / ",
"Q L l M l M X.X.Y h p Q K R R [ E I L d K @.Q Y K U h Y I Y +.R h $.M.[ ..K R ] N m R ] -.Q ] Q K d Q } _ D h g a h s T ) I P ] ",
"[ Q L M Y M m L @. .Y n M R Q ] R ( } $.U W Q @.h Y Y U I K Q $.R _ ` } I } $.$.$.K m Y Q C.L m L G C.{ D K m a h T A S T ) ..g ",
"[ Q $.Q X.Y Y a M Q  . .Q L L R @.Z.$.+.U d Q @.Y m Y N d D I +.+.R } ] ] $.] ] %.R O.O.Y Y M L Q [ } &.] K Y L T X.#.( #.X.K d ",
"Q R Y W L @.M m m g N Q Y m Y Y T R Y N U K L Y Y Y Y R K R ....Y I ] ] Q +.R R N m ] K n j Y d M Q ] _ I K K m Y T ) U h K ( I ",
"W U m Y Q Y %.%.M Y R M Y Y Y R +.%.#.+.K K Q Q N m M X.U m K K K +.I R +.K R +.g g K Y g | o.M L L I K ~ Q Q Q K K Y m K ] +.$.",
"L M ] L L L @.+.Y Y Q m a N Y Y &.+.T &.$.&.:.S.[ Y L Q I I +.:.+.R ] ] ;.] _ $.Q @.R m N o.O.&.Y h D K I @.Q K R L ] L l E P l ",
"R @.W m a L @.X.n L L m Y g N Y +.%.Y R [ ] I @.Y Y m Q ] I $.] ] D R Z.[ C.A._ ~ +.N g j N +.@.Q ] L K K I +.L Q _ ;.-.W L R M ",
"Q Y m n L L m M N m Y N N m g R X.Q Y K ] -.-.-.Q -.L [ @.I ] R K l I Q E ;.A.Q Y R R K X.U R ] I { } P P P R A R B.] S.@.Y Y K ",
"X.N m M O.O.L M p L n m  .X.B L l m L +.L [ W W -.[ ] E E L M +.N M W ] M L L :.X.K L K R #.D K K I ] E P ] K ..K T ] S.[ L m L ",
"Y N N g M E ] W m L W m n N  .Y m m Y Q Q @.X.M [ -.*.+.Y m Y Y  .Y Q Y Y K Y %.[ I ] } ~ R K M K Q m @.Q P R Q +.A ! .._ R +.+.",
"o.%.N n n Y Q L L Q @.X.N n N Y Y m Y M L Q Q @.[ -.[ @.m m M L K R O.Y Y X.X.+.R K P R L ] Q L g N Y [ $.Q @.I h h P / Z C R Y ",
"j B f i f R Y M O.M L Y N [ Q Y  .Y m n Q +.R Z.S.[ :.[ Y N +.W m m K +.Q R R Q R R I +.P L K h h g R $.&.L N Y p i h ..U h C K ",
"g N g f c N Y g  .L n a X.-.E m g g U L Y &.( R :.S.D.:.@.L @._ L Q d I C.( Y K p +.X.R I l m ( ..g D P L K O.+.N  .j i  .s K Y "
};
