/* XPM */
static char *result[] = {
/* columns rows colors chars-per-pixel */
"64 64 221 2 ",
"   c #144A0F",
".  c #16520B",
"X  c #1B540D",
"o  c #165A0B",
"O  c #1B5C0D",
"+  c #1D5513",
"@  c #1E5C11",
"#  c #1F531B",
"$  c #215B0E",
"%  c #235D13",
"&  c #255916",
"*  c #255D19",
"=  c #1D630D",
"-  c #1D690C",
";  c #1E6411",
":  c #1F6911",
">  c #22630E",
",  c #236B0E",
"<  c #296D0F",
"1  c #28710E",
"2  c #246313",
"3  c #2A6415",
"4  c #246B13",
"5  c #2B6B15",
"6  c #266419",
"7  c #2A641A",
"8  c #256B19",
"9  c #2C6B1A",
"0  c #316B18",
"q  c #316C1C",
"w  c #267113",
"e  c #2B7314",
"r  c #2E7A15",
"t  c #277418",
"y  c #2D731A",
"u  c #2E791A",
"i  c #317415",
"p  c #327B15",
"a  c #32731C",
"s  c #3A741F",
"d  c #337B1B",
"f  c #397D1D",
"g  c #275B22",
"h  c #2D6821",
"j  c #336D22",
"k  c #376A25",
"l  c #357322",
"z  c #3A7423",
"x  c #3B7B23",
"c  c #397A26",
"v  c #44553E",
"b  c #545D3E",
"n  c #7B562D",
"m  c #7B5931",
"M  c #417A27",
"N  c #43673C",
"B  c #4F723E",
"V  c #3D5C45",
"C  c #3F6347",
"Z  c #475943",
"A  c #476947",
"S  c #456B4B",
"D  c #4E6D4F",
"F  c #597845",
"G  c #5C7B44",
"H  c #4D7451",
"J  c #577354",
"K  c #617E4C",
"L  c #48587D",
"P  c #595C71",
"I  c #725C6C",
"U  c #5F677E",
"Y  c #6A6C6D",
"T  c #66687A",
"R  c #66697C",
"E  c #6F707E",
"W  c #A71E27",
"Q  c #A91F27",
"!  c #862D3D",
"~  c #9A2F3A",
"^  c #AA2027",
"/  c #A82129",
"(  c #B12B2E",
")  c #B7393A",
"_  c #825D35",
"`  c #BF453F",
"'  c #856437",
"]  c #8B3442",
"[  c #973945",
"{  c #AC3740",
"}  c #8A4A5A",
"|  c #9A5057",
" . c #AD4B4C",
".. c #BD4641",
"X. c #B44248",
"o. c #B64E4E",
"O. c #AE4B53",
"+. c #927646",
"@. c #8C5160",
"#. c #B36C76",
"$. c #C44A44",
"%. c #C84F47",
"&. c #CA4F49",
"*. c #C95047",
"=. c #CA5149",
"-. c #CD5F56",
";. c #D25F54",
":. c #C1605C",
">. c #D06152",
",. c #D46958",
"<. c #DA6C62",
"1. c #CF736A",
"2. c #DD7465",
"3. c #DF7967",
"4. c #D6786E",
"5. c #E07A67",
"6. c #E07D68",
"7. c #36831A",
"8. c #3A831C",
"9. c #3B8222",
"0. c #45842A",
"q. c #4C8531",
"w. c #5C804F",
"e. c #64844B",
"r. c #6A8951",
"t. c #65896A",
"y. c #6B8F71",
"u. c #A09865",
"i. c #B59873",
"p. c #E3836B",
"a. c #E68B6E",
"s. c #ED9F76",
"d. c #E4A77E",
"f. c #ECA47A",
"g. c #E4A87E",
"h. c #455F8C",
"j. c #45608D",
"k. c #586786",
"l. c #5D7193",
"z. c #616B81",
"x. c #6A6E83",
"c. c #73798B",
"v. c #6B7792",
"b. c #476CA1",
"n. c #4570A7",
"m. c #5B76A0",
"M. c #477CB9",
"N. c #607AA1",
"B. c #BA7B85",
"V. c #78849A",
"C. c #5C89BA",
"Z. c #6C86A7",
"A. c #6D8BB1",
"S. c #4983C4",
"D. c #4F89C7",
"F. c #598FC3",
"G. c #5C92C5",
"H. c #5E9FD9",
"J. c #639DD7",
"K. c #61A1D9",
"L. c #69A6DE",
"P. c #7EAFD9",
"I. c #66ABE6",
"U. c #898B9B",
"Y. c #A98E9C",
"T. c #898EA1",
"R. c #8893A6",
"E. c #9595A3",
"W. c #969EAB",
"Q. c #A192A3",
"!. c #99A0AC",
"~. c #96A3B7",
"^. c #9EA6B2",
"/. c #9CABBD",
"(. c #A6ACB6",
"). c #A4ADBD",
"_. c #B1ADB9",
"`. c #CB8A8C",
"'. c #CDA299",
"]. c #EAB486",
"[. c #CE9FA3",
"{. c #CCADB5",
"}. c #E7BCB2",
"|. c #F6C387",
" X c #E6C1B8",
".X c #9EACC1",
"XX c #91B3D7",
"oX c #A9B5C5",
"OX c #AABACA",
"+X c #B5BBC8",
"@X c #C7BAC5",
"#X c #D5BCC6",
"$X c #B5C0CE",
"%X c #B3C2D1",
"&X c #BBC5D3",
"*X c #B8C7D8",
"=X c #BDCDDC",
"-X c #8DC7F2",
";X c #DAC5CC",
":X c #C5CBD8",
">X c #C2CDDB",
",X c #CBD2DE",
"<X c #E7CFD2",
"1X c #C2CEE0",
"2X c #C4D4E4",
"3X c #CAD4E3",
"4X c #CADAE9",
"5X c #D6D9E4",
"6X c #D4DAE6",
"7X c #D2DCEC",
"8X c #E9DFE4",
"9X c #D6E0ED",
"0X c #DBE2EE",
"qX c #DCE4F1",
"wX c #EAE1E6",
"eX c #E0E4ED",
"rX c #E3E8F3",
"tX c #ECECF4",
"yX c #F0EFF9",
"uX c #EFF1F9",
"iX c #F3F2FA",
/* pixels */
"i 5 e - u 1 w - u 7.e r a 5 i = w c r p 7.u r w e p 7.w u u d 5 , e w s w p 8.9.u u u w 7.7.8.8.r - t t u 9.d 8.r 8.9.d u w w 8 ",
"r i p u 1 p 7.1 u w w i p 1 < 2 5 e 7.r w : u i i 4 e - u u d y , 2 8 y 7.8.i r : 1 7.7.r 7.7.7.8.7.t - 8 w r 7.7.8.p 7.p w 4 o ",
"p 1 , u r i r 1 u 9.e 1 1 < 2 = w 4 - p r w e w a r u : = = 4 w 8 4 u , 7.7.p 8.7.1 r : - u r e t 7.7.: w u 7.r r r 7.d 4 w 4 4 ",
"f 1 4 8 , , i i d 5 4 7.e a y r e 8 8 8 w 1 : a a y 5 y a 4 5 8 : 8 u u p 1 1 r 7.- t 4 t u - 4 : : t 7.w r 1 u r - , - w e 4 t ",
"f , 8 O o 8 a d 4 O 2 y , r e < , 4 y w e w > i w 5 y a 5 4 ; y 8 O 4 t , r w , r 1 4 u e - w 4 u : : 8 y ; t u 1 w p p d w 4 w ",
"a 5 8 2 2 4 d e e ; ; 8 i 5 i < = 8 - 4 u 9.a , y y 5 5 > > 4 4 = : ; : 4 y u e r , ; c , 8 w e - t t = t u t : r d p p d > - : ",
"4 4 2 y 4 4 a e p 5 O 8 5 5 1 e y u 4 t r u 8 y a a a 4 2 5 8 = 4 y 8 t w 4 w 4 d : y y 8 o 4 w 1 r 9.= o 8 y o , e 1 p 7., 8 8 ",
"e > d y 2 = e p p i y 2 ; 9 a i y 8 = w r u y y 5 - 8 2 a 5 a 4 : 8 u w 4 u u 4 - 8 : - 4 r 8 8 u 1 u ; ; : : @ , p r 7.0.r - 8 ",
"= ; w 8 4 w , y p e 2 ; o o > d 5 x y 4 - 4 2 8 5 9 s l 5 5 2 > 8 9 , w a a - - 4 x 8 ; y 8.9 , i , p e - o 4 y 4 w 1 1 i e 4 : ",
"; o 9 ; 8 l 5 = 5 0 O 4 8 o O 3 2 0 5 w d 4 2 > , = 9 9 2 $ < f 4 8 r e 5 8 = = = 5 = = y < 4 e r i , r = o = d y 1 e e 4 8 : ; ",
"4 ; 8 6 = ; 2 8 8 j e.e.G B F K F G e.e.e.G r.G B G G K F B A K e.B G e.F F G G F B G G F G G F F G G w.G M w - 4 d 7.p 4 w 8 ; ",
"c 2 @ @ @ 9 2 ; B i.].].g.d.d.d.d.d.].].d.d.].d.d.d.g.g.g.g.].].g.d.d.d.d.d.].g.d.d.d.].d.d.d.].d.g.].].].i.B r > 5 5 y 4 4 4 8 ",
"4 ; O O 2 7 8 k i.|.f.s.a.a.5.5.6.3.p.3.5.6.5.p.5.5.6.5.6.5.5.p.5.5.p.5.5.5.5.p.2.6.5.5.6.2.6.5.2.p.a.f.f.|.i.B 2 2 2 5 , > > 2 ",
"= O 9 2 5 2 > u.f.p.p.a.5.6.,.5.5.<.5.<.2.5.<.6.<.2.5.,.6.2.<.6.2.,.5.<.5.2.<.6.,.2.2.<.5.<.5.3.<.p.5.a.3.p.f.i.B 5 9 9 9 5 y 2 ",
"2 9 j 5 5 2 5 ' ,.*.;.p.6.p.6.6.p.5.p.6.6.p.5.p.6.6.p.6.p.6.6.a.6.6.a.5.p.p.6.p.6.p.p.6.p.6.p.6.6.a.5.p.>.%.>.1.J 2 $ 9 2 2 > O ",
"; @ 2 5 s 5 4 n *.*.;.5.<.5.<.5.5.<.6.<.2.5.<.6.<.<.5.<.5.2.<.6.<.<.6.<.5.<.<.6.<.5.2.<.6.<.5.2.<.6.,.5.>.%.%.o.v % 2 > 9 @ O , ",
"$ 9 0 5 $ d a _ =.%.;.p.2.p.3.5.6.3.p.3.6.6.3.p.5.5.6.5.6.5.5.p.6.4.6.3.6.6.6.p.3.p.6.3.p.3.p.3.5.p.5.5.>.%.%.o.Z 8 > O O 2 4 > ",
"= 5 f a 5 a f ' &.%.>.3.2.p.3.3.6.2.p.3.3.6.2.p.5.4.6.5.6.5.5.a.5.3.p.2.6.5.2.6.2.6.3.3.p.2.6.3.5.6.3.5.>.%.%.o.Z ; > 0 > > 4 r ",
"o 2 5 a 5 > 5 _ &.%.>.3.,.p.<.2.5.<.5.<.2.3.<.6.2.2.3.<.6.2.<.6.<.<.6.<.6.2.2.6.<.3.2.<.6.<.3.2.<.6.<.3.>.%.&.o.g & % 2 i 5 > , ",
"$ 3 3 > 5 5 i _ %.%.>.p.6.p.p.p.p.6.p.p.p.p.6.p.6.6.p.6.p.6.6.a.p.6.p.3.a.6.6.p.6.p.p.6.p.3.p.p.p.p.6.6.>.%.=.o.Z k 3 5 0.8.1 e ",
"5 @ 6 7 < 2 l _ &.%.>.3.<.6.<.2.3.<.6.<.2.3.<.3.<.2.3.<.6.<.<.5.<.<.6.<.3.2.<.6.<.3.2.<.3.<.3.2.<.6.<.2.;.&.=.o.Z > 9 2 f < 8.0.",
"2 @ 9 2 % 5 9 ' &.%.;.6.2.p.2.6.6.3.p.3.3.6.3.p.3.6.6.2.6.3.6.a.6.5.6.5.6.6.3.p.2.6.6.3.6.3.6.6.3.p.3.6.>.%.=.o.Z @ a x f f a a ",
"2 2 @ @ 9 l 5 _ =.%.>.6.2.p.2.3.6.2.p.3.3.6.2.p.3.3.6.2.p.3.3.p.3.5.6.5.6.3.3.p.2.6.3.2.p.3.6.3.3.p.2.5.>.%.%.o.Z 6 5 5 5 f f c ",
"2 6 2 2 9 0 , n =.%.>.2.<.6.<.2.3.<.6.<.2.3.<.3.<.2.3.<.5.2.<.6.<.<.5.<.3.2.<.6.<.3.2.<.3.<.3.2.<.6.<.3.>.%.=.o.Z ; 3 5 y a a 0 ",
"9 @ @ 8 O 2 y _ &.&.;.p.6.p.p.p.p.3.p.6.6.p.6.p.6.p.p.6.p.6.6.a.6.6.p.6.p.6.6.p.3.p.p.3.a.3.p.p.p.p.5.p.>.%.*.o.Z h 9 a 5 x x a ",
"l 2 % 6 7 % 6 ' &.&.-.3.<.6.<.2.3.<.6.<.2.3.<.6.<.2.3.<.5.2.2.5.<.2.6.<.6.2.<.6.<.3.2.<.3.<.3.3.<.6.,.5.>.%.*.o.Z c 5 5 5 % x 8.",
"0 c 2 2 7 6 @ n *.%.>.6.2.p.3.5.6.3.p.3.6.6.3.p.3.6.6.3.p.5.5.p.5.5.6.2.6.6.6.p.2.p.3.3.p.2.p.3.5.p.5.5.>.%.*.o.Z l 9 8 3 O 9 f ",
"@ a X % % 2 * n *.%.>.6.2.p.2.3.6.2.p.3.6.6.2.p.3.6.6.2.6.5.5.a.3.3.p.2.6.6.5.6.2.p.3.2.p.3.6.3.5.p.5.6.>.%.%.o.Z ; * @ 9 q 5 5 ",
"6 @ * 7 & $ 7 _ =.%.>.3.,.6.<.2.6.<.6.<.3.3.<.6.<.2.6.<.6.<.<.6.<.2.6.<.6.2.2.6.<.3.2.2.6.<.3.2.<.6.<.5.>.%.%.o.v 4 j 6 2 % > 2 ",
"8 2 a 7 3 $ k _ =.;.2.p.2.p.6.p.p.3.p.6.6.p.6.p.6.6.p.4.a.6.6.a.6.6.p.6.p.6.6.p.3.p.p.3.p.3.p.6.6.p.2.p.2.;.%.o.v a y @ % = 5 2 ",
"X y a l q 0 q _ >.6.<.2.2.6.<.2.3.<.6.<.2.3.<.3.<.2.3.<.6.<.2.a.2.<.6.<.3.2.<.6.<.3.2.<.6.<.3.2.<.p.2.3.2.6.>.o.v f x q 9 2 5 > ",
"% 5 2 7 % 3 a +.p.5.=.;.,.p.5.5.6.2.p.3.3.6.2.p.3.6.6.2.6.5.5.a.5.3.6.2.6.3.3.p.2.6.3.3.p.2.p.3.2.p.,.=.=.5.p.:.v < 5 l c 9 x a ",
"2 l 2 7 0 9 9 +.5.=.$.$.( ` { $...........` $.` ..........X. .o.O.X.` ` $.` $.) ..................) ( $.%.=.3.4.A a a d 9 % 8 a ",
"O 6 9 2 2 8 8 ' ;.&.$.) Q Q ^ W Q W W Q W W W W W / ^ ^ ] #.Q.Q.E.#.[ Q W W Q Q W W W W W Q W W Q W / ) %.=.=.1.A f 0 9 % . 6 0 ",
"2 @ 2 @ 9 x d m &.%.$.( Q Q W W Q W Q Q W Q W W Q W ^ [ _.eXeXeXrX0X_.[ W W Q Q W ^ ^ ^ ^ / / W / / ^ / ..%.=.O.A 0.a 2 @ 6 @ O ",
"l 9 2 j a f s b o.%.) Q Q Q Q W Q Q Q Q Q W ~ } } } @._.9X{.'.[.'.@X5X_.@.} } } ~ Q Q Q Q Q Q Q ^ ^ ^ / ) %.O.I J 3 9 $ ; j 2 9 ",
"h 9 j y x i < V I | ] ] ] ! ! ! ! ] ! ! ] ] Y.3X5X3X5X6X{.1.<.4.<.4.{.5X5X5X,X5XY.] ! ! ! ! ! ! ! ! ! ! ] | I R J 5 2 O 2 l 9 2 ",
"c c 6 9 2 > < Z .X~.x.T P h.b.b.k.P h.b.b.l.:X3X,X,X2X{.1.:.`.[.`.,.:.+X2X,X,X,X:Xm.b.b.j.P j.b.b.j.P T x.~.(.T K x a 2 @ j c y ",
"l 6 6 9 3 8 7 V +XrX+X(.v.n.S.S.A.c.b.S.S.A.%X%X=X2X2X:X`.[.`.-.`.[.`.@X2X2X>X%X%XA.S.S.n.c.A.C.S.n.c.^.&XrX$XT J 6 s 9 2 2 l a ",
"j l y h 2 3 7 y.eXeXtX7X~.C.I.H.XX~.C.I.H.N.%X=X2X4X2X:X@X+X:.^ #.@X@X>X4X4X2X=X%Xm.H.I.C.~.XXH.I.C.~.7XtX0XeXU.D c x 9 5 2 5 5 ",
"2 2 7 7 6 @ O y.yXwX5X7X.XC.L.J.XX.XC.L.J.N.OX7X4X4X4X{.) O.B.B.B.O.{ @X4X4X4X4X%XZ.H.K.C..XXXK.L.C.~.7X5XeXyXT.D 9 s a % 0 0.a ",
"h j 7 2 2 2 6 J 1XyXrX3X+X1X7X4X4X=X1X7X7X^.R..X/./.oXOXB./ { X.{ / B.+XoX/..X.XR.^.4X4X>X*X4X9X9X1X&X3XeXyX:Xc.D f f M 3 % 3 0 ",
"@ 7 % 7 6 j 9 A .XeXyXrXqX7XqXqX7X7X0X0XqX).R.V.V.V.V.T./.B.X.{ { B.^.T.V.V.V.V.R.).qXqX9X9X9X9XqXqX7XrXyXeXoXT J i f < 5 j 2 @ ",
"h 7 9 2 8 h 9 V +XeX5X0X4X4X2X4X3X4X4X2X2X^.)..X/././.~.R.W.T.E.Q.W.R.~.~./././.).(.2X2X2X2X2X2X2X2X3X7X5XeX+XR J f f 0 9 9 a 2 ",
"+ * 3 3 @ 6 2 V +XiXeX1X>X3X:X:X=X=X=X=X>X(.:X>X2X%Xc.l.l.k.L h.h.h.l.l.c.+X1X1X,XE.!.!.!.!.W.W.W.W.W.OX0XiX+XR J 8 9 O 2 2 j 8 ",
"& & & q l 6 6 S :XyXtXqX8X}.}.8XtX8X}. XwX+X,X4X4X%XU n.M.M.M.M.M.M.M.b.k.*X4X4X,X!.%X%X%X%X%X%X+X*X%X=XtXiX:Xx.J 2 . + 9 > 5 2 ",
"X & 7 q q 2 . Y :XeXrXrX X4.'.;XuX;X4.;XtX$X,X4X4X*Xz.M.D.S.D.D.D.D.D.M.z.&X4X4X,X(.4X4X4X4X4X4X4X4X4X4XrXeX1XU.J c 7 7 0 , 0 > ",
"7 2 2 % 7 @ @ y.7X3X9XrX}.{ #.#XwX}.o.}.tX_.:X2X1X+Xz.F.J.H.H.H.J.J.J.F.k.+X>X2X:X(.4X4X4X4X4X4X4X4X4X4X6X,X4XV.D 6 a 2 a 5 5 O ",
"7 2 % j l % % t.4X7X>X6X#X#.;X;X;X;X#.B.<X_.).%X%X).U G.K.J.H.K.H.H.K.G.U /.%X%XoX^.2X2X2X2X2X2X2X2X2X=X>X4X4XV.D 2 5 i f a 5 j ",
"& % a M z 7 3 t.1X4X4X+X(.(.).).(.(.^.^.(.W.:X=X=XOXU F.H.H.H.K.K.H.K.G.U OX=X=X:XE.^.(.^.^.^./.^.^.^.+X4X4X>XV.D < i e 5 8 8 5 ",
"7 l 0 q z l % Z T.1X4X=X%X%X%X%X%X%X%X%X%X!.oX$X%X).z.G.L.J.K.L.K.K.I.C.U ).%X%XoX!.OX%X%X%X+X%X%X%X+X=X4X=XR.E D O 5 9 9 o o e ",
"0 3 $ % X 3 q J x.R.1X*XOXOXOXOXOXOXOXOXOX!.,X4X4X&Xx.P.-X-X-X-X-X-X-XP.R &X4X4X,X!.OXOXOXOXOXoXOXOXOX*X=XR.E Y g @ o w y 8 4 i ",
"z 0 3 3 7 & * k Y x.R.OX/././././..X/././.E.&X&X*XoXU N.Z.Z.A.Z.Z.Z.Z.N.T oX*X*X:XE./././..X/./..X/./.oXR.E Y * @ 8 ; : 8 l y + ",
"s l z q q 7 * X q A A S S S S C S H S S C A y.y.y.w.A A N N k A H c H A S t.t.t.y.J H S S V A S S H H H S N k 3 9 u l h l y ; + ",
"q q 7 0 * z & & & X % 9 3 % 2 7 6 9 9 2 2 2 < 0 8 2 6 7 % 9 9 9 7 9 i y a a 5 9 & & a 2 % + 7 $ % 9 a i e > % & 7 6 y 6 @ ; y 9 ",
"7 7 * 3 s 0 M z * 7 q % 7 7 7 9 l c l l 2 2 0 0 ; * % j 2 % 2 6 2 l 5 5 l = 9 l + + 2 5 + g k % 2 3 5 2 a 9 a 0 2 2 5 2 2 q x x ",
"3 & s 0 0 3 s M * q q $ & % 7 7 c l 9 c x c M B l 0 7 q 5 5 l M l 5 l a x a i f 0 l q & * h j M 7 % 2 > 5 l 0 2 9 4 s 3 $ 0 5 % ",
"q q 0 & $ & z q & 3 3 % * % % 7 c l 7 9 s s 3 M 0 7 % 0 a 5 x s d > 5 0.a 0.0.i i l * + # 6 l z q q 2 2 2 9 l 3 0 i M M 0 3 9 % ",
"q 7 $ & & * $ & & 3 * * & & + q j q 7 3 a M M M q M 3 i x 0 q 0 % $ 0 0 3 M q.0 7 9 9 2 j 6 9 a 5 s f 4 5 8 9 ; 9 9.l M z 7 7 2 ",
"q * & & z s 0 & . % $ & h h * 7 % % 3 l 3 l q 3 M s s 0 5 3 > l * * 0 s % 0 0 M l 2 2 3 9 c O 2 4 5 a e < a 2 h 2 5 a q.s 3 % 3 ",
"7 # * + & 0 s 0 $ 0 q & & & k * & % 7 0 0 z q * 0 M s s 3 * 3 7 7 * q 7 0 * 7 M d 5 s x 9 5 3 % 2 7 % z 0 5 9 9 a 8 8 y i y l j ",
"k M & & $ * s & * 0 M j & & * 7 7 2 7 % 3 s q l M z s s * & 3 * 7 q l 7 3 q j l 9 % 2 5 5 a a 3 + 2 0 z x 0 c 9 @ X 8 t - = 9 7 ",
"* *       q 0 & z & % 7 * l 0 7 h * % % q j 9 0.q.s M z 0 * l 3 % % 2 l 9 9 9 q 9 9 5 l 2 < 2 @ @ + 9 x M 3 * 0 .   # 8 8 O 2 ; ",
"# & #   & & * + q * & X q M 0 % + + 7 * 9 M a 9 M 0.q.q.j 3 z s 5 0 $ 4 0.a 2 3 o j l 9 7 $ % y h + = 4 0 % q l 7 g #   h . 6 5 "
};
